<?xml version="1.0" encoding="UTF-8" standalone="no"?>
<svg width="560px" height="560px" viewBox="0 0 560 560" version="1.1" xmlns="http://www.w3.org/2000/svg" xmlns:xlink="http://www.w3.org/1999/xlink" xmlns:sketch="http://www.bohemiancoding.com/sketch/ns">
    <!-- Generator: bin/sketchtool 1.3 (252) - http://www.bohemiancoding.com/sketch -->
    <title>a-apple</title>
    <desc>Created with bin/sketchtool.</desc>
    <defs></defs>
    <g id="Page-1" stroke="none" stroke-width="1" fill="none" fill-rule="evenodd" sketch:type="MSPage">
        <g id="a-apple" sketch:type="MSArtboardGroup" fill="#000000">
            <g id="Group" sketch:type="MSLayerGroup" transform="translate(78.000000, 40.000000)">
                <path d="M114.836,110.52 C128.9,110.52 145.868,113.424 165.744,119.236 C185.804,125.052 199.116,127.956 205.68,127.956 C214.116,127.956 227.9,124.676 247.024,118.112 C266.148,111.552 282.744,108.268 296.804,108.268 C319.868,108.268 340.4,114.456 358.4,126.832 C368.524,133.956 378.556,143.612 388.492,155.8 C373.492,168.552 362.524,179.896 355.588,189.832 C343.024,207.832 336.744,227.708 336.744,249.456 C336.744,273.268 343.4,294.736 356.712,313.864 C370.024,332.988 385.212,345.08 402.28,350.144 C395.148,373.208 383.336,397.32 366.836,422.44 C341.9,460.12 317.148,478.96 292.588,478.96 C282.836,478.96 269.336,475.88 252.088,469.68 C235.024,463.48 220.588,460.4 208.776,460.4 C196.96,460.4 183.18,463.6 167.432,469.96 C151.868,476.52 139.212,479.8 129.46,479.8 C100.024,479.8 71.148,454.88 42.836,405 C14.524,355.676 0.368,307.3 0.368,259.864 C0.36796,215.8 11.1492,179.896 32.7116,152.144 C54.46,124.392 81.8356,110.52 114.8356,110.52 M292.0236,-0.292 C292.7716,2.14584 293.2436,4.3024 293.4316,6.1768 C293.6156,8.0524 293.7116,9.9272 293.7116,11.802 C293.7116,23.8024 290.8996,36.926 285.2756,51.178 C279.6476,65.426 270.7436,78.646 258.5556,90.834 C248.0556,101.146 237.6476,108.082 227.3356,111.646 C220.7756,113.71 210.8356,115.302 197.5236,116.426 C197.8996,87.926 205.3036,63.27 219.7436,42.458 C234.3676,21.646 258.4596,7.396 292.0236,-0.29" id="Shape" sketch:type="MSShapeGroup"></path>
            </g>
        </g>
    </g>
</svg>