<?xml version="1.0" encoding="UTF-8" standalone="no"?>
<svg width="560px" height="560px" viewBox="0 0 560 560" version="1.1" xmlns="http://www.w3.org/2000/svg" xmlns:xlink="http://www.w3.org/1999/xlink" xmlns:sketch="http://www.bohemiancoding.com/sketch/ns">
    <!-- Generator: bin/sketchtool 1.3 (252) - http://www.bohemiancoding.com/sketch -->
    <title>a-graphite</title>
    <desc>Created with bin/sketchtool.</desc>
    <defs></defs>
    <g id="Page-1" stroke="none" stroke-width="1" fill="none" fill-rule="evenodd" sketch:type="MSPage">
        <g id="a-graphite" sketch:type="MSArtboardGroup" fill="#000000">
            <g id="Group" sketch:type="MSLayerGroup" transform="translate(80.000000, 46.000000)">
                <g transform="translate(17.904500, 5.082750)" id="Shape" sketch:type="MSShapeGroup">
                    <path d="M220.479,171.803 C232.9058,145.85585 239.1192,121.052 239.1192,97.3915 C239.1192,86.65475 236.932085,77.8069 232.55785,70.8479 C228.18362,63.8889 221.0258,60.4094 211.08435,60.4094 C192.19565,60.4094 177.03495,74.3274 165.6023,102.1634 C154.16965,129.9994 148.45335,154.8529 148.45335,176.7239 C148.45335,187.8583 151.03812,196.3085 156.20765,202.07455 C161.3772,207.8406 167.93855,210.7236 175.8917,210.7236 C193.1898,210.7236 208.05225,197.75005 220.479,171.8029 L220.479,171.803 Z M210.339,361.635 C204.47355,356.0678 196.4707,351.1965 186.33045,347.0211 C179.37145,344.2375 168.18735,340.31065 152.7781,335.2405 C137.3689,330.17035 128.17305,327.6353 125.19065,327.6353 C125.19065,324.65287 117.2375,328.927685 101.3312,340.45975 C85.4249,351.9918 77.47175,365.41275 77.47175,380.72255 C77.47175,390.26635 81.15008,399.0148 88.50675,406.96795 C100.6353,420.4883 120.717,427.24845 148.75175,427.24845 C170.82175,427.24845 188.0701,423.271875 200.49675,415.31875 C212.92355,407.3656 219.13695,397.12595 219.13695,384.5997 C219.13695,374.8571 216.204225,367.2022 210.3388,361.635 L210.339,361.635 Z M81.647,307.355 C72.5009,299.7995 67.9278,289.75865 67.9278,277.23245 C67.9278,267.0922 72.1032,257.89635 80.454,249.645 C88.8048,241.3936 104.1146,231.30305 126.3834,219.37335 C109.8806,213.4085 97.65265,204.3618 89.6995,192.23325 C81.74635,180.1047 77.7698,165.4908 77.7698,148.39155 C77.7698,122.74265 89.79895,98.48555 113.8572,75.62005 C137.91545,52.75475 169.6287,41.3221 208.9967,41.3221 C229.47605,41.3221 247.42035,44.602775 262.8297,51.1641 C278.2389,57.72545 284.15405,61.0061 280.57515,61.0061 L348.57465,61.0061 L348.57465,95.6023 L307.4171,95.6023 C308.61007,100.77185 309.5048,105.2455 310.101285,109.02325 C310.69777,112.800995 310.996015,117.0758 310.996015,121.8477 C310.996015,151.27435 299.414265,176.4757 276.250715,197.4522 C253.087165,218.4286 220.529215,228.91685 178.576215,228.91685 C169.430115,228.91685 158.494515,227.82329 145.769465,225.636175 C142.588205,225.636175 139.257815,228.121535 135.778315,233.092225 C132.298815,238.06294 130.559065,242.337775 130.559065,245.916675 C130.559065,252.478025 135.430365,258.343475 145.172965,263.513025 C149.746025,266.097795 155.313215,268.384325 161.874565,270.372625 L194.383065,279.618175 C222.815565,287.770125 242.996665,295.723275 254.926565,303.477625 C275.405915,316.600325 285.645615,334.693725 285.645615,357.757625 C285.645615,383.605325 272.025865,405.078825 244.786315,422.178125 C217.546815,439.277375 183.745815,447.827025 143.383815,447.827025 C116.939615,447.827025 93.974915,444.645765 74.489815,438.283225 C40.887765,427.546475 24.086815,408.657775 24.086815,381.617225 C24.086815,364.120325 33.034115,349.904075 50.928665,338.968475 C60.870115,333.003625 78.466415,326.342875 103.717665,318.986175 C93.776215,315.40726 86.419565,311.530125 81.647665,307.354675 L81.647,307.355 Z"></path>
                </g>
            </g>
        </g>
    </g>
</svg>