<?xml version="1.0" encoding="UTF-8" standalone="no"?>
<svg width="560px" height="560px" viewBox="0 0 560 560" version="1.1" xmlns="http://www.w3.org/2000/svg" xmlns:xlink="http://www.w3.org/1999/xlink">
    <!-- Generator: sketchtool 3.8.2 (29753) - http://www.bohemiancoding.com/sketch -->
    <title>alertme</title>
    <desc>Created with sketchtool.</desc>
    <defs></defs>
    <g id="Page-1" stroke="none" stroke-width="1" fill="none" fill-rule="evenodd">
        <g id="alertme" fill="#000000">
            <g id="Group" transform="translate(74.000000, 50.000000)">
                <path d="M188.042904,374.67801 C151.085359,398.062716 202.487013,441.177761 234.741654,459.254693 C128.512032,454.352253 100.985091,404.850577 92.5635059,374.67801 L48.81376,374.67801 C37.5140496,374.67801 28.3537637,365.519128 28.3537637,354.220978 L28.3537637,215.794544 L12.8299852,215.794544 C10.2080248,215.483257 9.44109444,215.627895 7.03994319,214.400057 C6.14999267,213.94498 5.3083377,213.380391 4.54972363,212.729586 C3.02182926,211.418845 1.82702926,209.764112 1.06363141,207.901531 C0.68459217,206.976741 0.413527452,206.000274 0.26162763,205.012441 C0.109727044,204.024616 0.0749000741,203.011831 0.158584141,202.015904 C0.24226897,201.019977 0.445616148,200.027201 0.760232319,199.078564 C1.60908965,196.519056 2.25698254,196.083979 3.9064398,194.0225 L197.013892,3.83347828 C197.752656,3.25218856 198.431507,2.58539834 199.230185,2.08961294 C200.028862,1.59382143 200.888073,1.18465638 201.776406,0.877081924 C203.564097,0.258107297 205.467399,0.0457635158 207.347576,0.255528093 C208.28187,0.359763483 209.210145,0.569503648 210.098478,0.877081924 C212.491999,1.70582189 212.907372,2.29630017 214.860992,3.8334859 L318.462969,105.869572 L318.462969,70.7623416 C318.462969,64.7359983 323.348992,59.8506534 329.376239,59.8506534 L360.651006,59.8506534 C366.678223,59.8506534 371.564276,64.7359678 371.564276,70.7623416 L371.564276,158.168444 L407.96852,194.02266 C409.617969,196.084131 410.265862,196.519209 411.114727,199.078724 C411.429343,200.027361 411.632691,201.020137 411.716375,202.016064 C411.80006,203.011991 411.765233,204.024776 411.613332,205.012602 C411.307396,207.002136 410.533381,208.890615 409.354962,210.522662 C408.769864,211.332994 408.08385,212.078949 407.325228,212.729754 C406.566611,213.380553 405.724959,213.945146 404.835009,214.400225 C402.433857,215.628059 401.666919,215.483422 399.044967,215.794712 L383.521188,215.794712 L383.521188,354.221146 C383.521188,365.519219 374.360979,374.678178 363.061192,374.678178 L188.043592,374.678178 L188.042904,374.67801 Z" id="Shape"></path>
            </g>
        </g>
    </g>
</svg>