<?xml version="1.0" encoding="UTF-8" standalone="no"?>
<svg width="560px" height="560px" viewBox="0 0 560 560" version="1.1" xmlns="http://www.w3.org/2000/svg" xmlns:xlink="http://www.w3.org/1999/xlink">
    <!-- Generator: sketchtool 3.8.2 (29753) - http://www.bohemiancoding.com/sketch -->
    <title>amazon-rds</title>
    <desc>Created with sketchtool.</desc>
    <defs></defs>
    <g id="Page-1" stroke="none" stroke-width="1" fill="none" fill-rule="evenodd">
        <g id="amazon-rds" fill="#000000">
            <path d="M342.372213,43 L216.769454,43 L216.769454,517 L342.372213,517 L342.372213,43 L342.372213,43 Z M125.191667,470.258333 L206.166667,517 L206.166667,43 L125.191667,89.7416667 L125.191667,470.258333 L125.191667,470.258333 Z M353.633333,517 L434.608333,470.258333 L434.608333,89.7416667 L353.633333,43 L353.633333,517 L353.633333,517 Z M489.908333,147.675 L441.191667,89.7416667 L441.191667,470.258333 L489.908333,412.325 L489.908333,147.675 L489.908333,147.675 Z M69.8916667,405.741667 L118.608333,463.675 L118.608333,83.1583333 L69.8916667,141.091667 L69.8916667,405.741667 L69.8916667,405.741667 Z" id="Page-1"></path>
        </g>
    </g>
</svg>