<?xml version="1.0" encoding="UTF-8"?>
<svg width="560px" height="560px" viewBox="0 0 560 560" version="1.1" xmlns="http://www.w3.org/2000/svg" xmlns:xlink="http://www.w3.org/1999/xlink">
    <!-- Generator: sketchtool 40.3 (33839) - http://www.bohemiancoding.com/sketch -->
    <title>apple</title>
    <desc>Created with sketchtool.</desc>
    <defs></defs>
    <g id="Page-1" stroke="none" stroke-width="1" fill="none" fill-rule="evenodd">
        <g id="apple" fill="#000000">
            <g id="Group" transform="translate(86.000000, 45.000000)">
                <path d="M110.28804,105.915 C123.79505,105.915 140.09105,108.698 159.179881,114.267833 C178.445426,119.8415 191.230218,122.6245 197.534257,122.6245 C205.636158,122.6245 218.874257,119.481167 237.240871,113.190667 C255.607485,106.904 271.546218,103.756833 285.049386,103.756833 C307.19996,103.756833 326.918812,109.687 344.205941,121.547333 C353.92899,128.3745 363.563683,137.628167 373.106178,149.308333 C358.700238,161.529 348.166614,172.400333 341.505307,181.922333 C329.438891,199.172333 323.407604,218.220167 323.407604,239.062 C323.407604,261.881833 329.8,282.455333 342.584792,300.786333 C355.369584,319.1135 369.956079,330.701667 386.348119,335.554667 C379.498574,357.657667 368.154376,380.765 352.307842,404.838333 C328.359406,440.948333 304.587683,459.003333 281.000356,459.003333 C271.634574,459.003333 258.669228,456.051667 242.104317,450.11 C225.716119,444.168333 211.851842,441.216667 200.507644,441.216667 C189.159604,441.216667 175.925347,444.283333 160.80103,450.378333 C145.853426,456.665 133.698653,459.808333 124.332871,459.808333 C96.0626535,459.808333 68.3302574,435.926667 41.1395248,388.125 C13.9487921,340.856167 0.353425743,294.495833 0.353425743,249.036333 C0.353387327,206.808333 10.7076475,172.400333 31.4160911,145.804667 C52.3031683,119.209 78.5945861,105.915 110.287655,105.915 M280.458309,-0.279833333 C281.176685,2.05643 281.629992,4.12313333 281.810547,5.91943333 C281.987259,7.71688333 282.079457,9.51356667 282.079457,11.31025 C282.079457,22.8106333 279.378824,35.3874167 273.977556,49.0455833 C268.572448,62.6999167 260.021081,75.3690833 248.315774,87.04925 C238.231616,96.9315833 228.235814,103.578583 218.33221,106.994083 C212.032012,108.972083 202.485675,110.49775 189.700883,111.574917 C190.061992,84.2624167 197.172764,60.63375 211.040883,40.6889167 C225.085715,20.7440833 248.223576,7.08783333 280.458309,-0.277916667" id="Shape"></path>
            </g>
        </g>
    </g>
</svg>