<?xml version="1.0" encoding="UTF-8" standalone="no"?>
<svg width="560px" height="560px" viewBox="0 0 560 560" version="1.1" xmlns="http://www.w3.org/2000/svg" xmlns:xlink="http://www.w3.org/1999/xlink" xmlns:sketch="http://www.bohemiancoding.com/sketch/ns">
    <!-- Generator: sketchtool 3.4 (375) - http://www.bohemiancoding.com/sketch -->
    <title>arch</title>
    <desc>Created with sketchtool.</desc>
    <defs></defs>
    <g id="Page-1" stroke="none" stroke-width="1" fill="none" fill-rule="evenodd" sketch:type="MSPage">
        <g id="arch" sketch:type="MSArtboardGroup" fill="#000000">
            <path d="M280,41 C258.721557,93.1639271 245.800635,127.331176 222.117258,177.946833 C236.63649,193.339908 254.486781,211.205136 283.44309,231.452893 C252.313377,218.644002 231.094685,205.820174 215.231079,192.473534 C184.91546,255.73377 137.384392,345.814254 41.0002911,518.999418 C116.733324,475.277409 175.452565,448.300316 230.168561,438.008391 C227.823376,427.918122 226.576096,416.954011 226.665721,405.564181 L226.725471,403.174184 C227.927938,354.642305 253.179751,317.321007 283.092059,319.85291 C312.996897,322.384814 336.284431,363.798982 335.081964,412.338329 C334.850433,421.480068 333.789872,430.263307 331.989905,438.419172 C386.115871,449.009847 444.274956,475.85997 518.999709,518.999418 C504.263883,491.872951 491.066618,467.427762 478.504196,444.132759 C458.719501,428.799434 438.090839,408.850427 395.997015,387.24336 C424.930917,394.764382 445.664142,403.457996 461.81156,413.152422 C334.111028,175.385055 323.789228,143.769875 280,41 L280,41 Z" id="Page-1" sketch:type="MSShapeGroup"></path>
        </g>
    </g>
</svg>