<?xml version="1.0" encoding="UTF-8"?>
<svg width="560px" height="560px" viewBox="0 0 560 560" version="1.1" xmlns="http://www.w3.org/2000/svg" xmlns:xlink="http://www.w3.org/1999/xlink">
    <!-- Generator: sketchtool 40.3 (33839) - http://www.bohemiancoding.com/sketch -->
    <title>aws</title>
    <desc>Created with sketchtool.</desc>
    <defs></defs>
    <g id="Page-1" stroke="none" stroke-width="1" fill="none" fill-rule="evenodd">
        <g id="aws" fill="#000000">
            <path d="M115.036265,366.241147 L113.566712,450.887437 L177.639251,479.102867 L177.639251,391.223559 L115.036265,366.241147 L115.036265,366.241147 Z M246.708273,366.241147 L188.807859,388.284452 L188.807859,471.167278 L246.708273,447.654419 L246.708273,366.241147 L246.708273,366.241147 Z M180.872269,342.728289 L137.07957,361.538575 L177.639251,378.879308 L224.664968,361.538575 L180.872269,342.728289 L180.872269,342.728289 Z M42.8811812,245.544942 L41.4116275,330.191232 L105.484167,358.406663 L105.484167,270.527354 L42.8811812,245.544942 L42.8811812,245.544942 Z M183.957156,242.417732 L182.487602,327.064022 L246.560142,355.279452 L246.560142,267.400144 L183.957156,242.417732 L183.957156,242.417732 Z M174.553235,245.544942 L116.652774,267.588247 L116.652774,350.471073 L174.553235,326.958214 L174.553235,245.544942 L174.553235,245.544942 Z M315.629163,242.417732 L257.728749,264.461037 L257.728749,347.343863 L315.629163,323.831004 L315.629163,242.417732 L315.629163,242.417732 Z M108.717185,222.032084 L64.9244859,240.84237 L105.484167,258.183103 L152.509837,240.84237 L108.717185,222.032084 L108.717185,222.032084 Z M249.79316,218.904873 L206.000461,237.71516 L246.560142,255.055893 L293.585859,237.71516 L249.79316,218.904873 L249.79316,218.904873 Z M387.73962,126.409991 L386.270067,211.056281 L450.342606,239.271711 L450.342606,151.392403 L387.73962,126.409991 L387.73962,126.409991 Z M376.910726,132.582116 L325.182438,154.625421 L325.182438,237.802158 L376.910726,214.289299 L376.910726,132.582116 L376.910726,132.582116 Z M519.411628,126.409991 L461.511214,148.453296 L461.511214,231.336122 L519.411628,207.823263 L519.411628,126.409991 L519.411628,126.409991 Z M254.643862,127.879545 L254.643862,212.525835 L309.311258,228.397014 L311.074723,151.392403 L254.643862,127.879545 L254.643862,127.879545 Z M453.575624,102.897133 L409.782925,121.707419 L450.342606,139.048152 L497.368323,121.707419 L453.575624,102.897133 L453.575624,102.897133 Z M315.777294,102.897133 L271.690685,121.707419 L312.544276,139.048152 L359.569993,121.707419 L315.777294,102.897133 L315.777294,102.897133 Z" id="Page-1"></path>
        </g>
    </g>
</svg>