<?xml version="1.0" encoding="UTF-8"?>
<svg width="560px" height="560px" viewBox="0 0 560 560" version="1.1" xmlns="http://www.w3.org/2000/svg" xmlns:xlink="http://www.w3.org/1999/xlink">
    <!-- Generator: sketchtool 40.3 (33839) - http://www.bohemiancoding.com/sketch -->
    <title>base</title>
    <desc>Created with sketchtool.</desc>
    <defs></defs>
    <g id="Page-1" stroke="none" stroke-width="1" fill="none" fill-rule="evenodd">
        <g id="base" fill="#000000">
            <g id="Group" transform="translate(43.000000, 40.000000)">
                <path d="M10.2539885,253.536 L10.2539885,338.648332 C84.3209748,381.380287 158.387598,424.112242 232.454857,466.844558 L232.454857,282.905842 L10.2539885,154.709615 L10.2539885,253.536181 L10.2539885,253.536 Z M241.895885,466.844377 L464.096753,338.648151 L464.096753,154.709434 L241.895885,282.90566 L241.895885,466.844377 L241.895885,466.844377 Z M281.055717,213.487698 C281.055625,214.17411 281.021515,214.86154 280.953378,215.545739 C280.81816,216.903532 280.548561,218.24717 280.155105,219.553666 C279.881363,220.462651 279.547882,221.353512 279.160838,222.220338 C278.88427,222.839735 278.580396,223.446892 278.251809,224.040353 C276.113825,227.901808 272.962359,231.129401 269.405447,233.71018 C268.871354,234.097695 268.327219,234.47134 267.774334,234.831559 C267.024166,235.320316 266.257815,235.784205 265.478108,236.224338 C264.480868,236.787265 263.46165,237.311221 262.425149,237.79814 C261.145884,238.399105 259.840281,238.943792 258.515084,239.435303 C256.137154,240.317268 253.696561,241.028595 251.221846,241.582995 C248.105935,242.281034 244.935156,242.731001 241.749731,242.949591 C240.408202,243.04165 239.064589,243.089992 237.720042,243.103504 C237.538661,243.104601 237.357276,243.105334 237.175892,243.105706 C235.827403,243.102939 234.479548,243.065461 233.133451,242.983916 C227.321985,242.63186 221.534409,241.519689 216.061476,239.518089 C214.659043,239.005178 213.278054,238.433045 211.92651,237.798077 C210.890118,237.311172 209.871045,236.78726 208.873878,236.22442 C208.094152,235.784314 207.327849,235.320388 206.57766,234.831668 C206.024696,234.471427 205.4805,234.097733 204.946348,233.710171 C201.389445,231.129428 198.23797,227.901817 196.099986,224.040344 C195.7714,223.44688 195.467564,222.839719 195.190993,222.220329 C194.803936,221.353495 194.470433,220.462651 194.19669,219.553657 C193.803273,218.247288 193.533771,216.903822 193.398459,215.546183 C193.330181,214.861115 193.296033,214.172749 193.296006,213.485443 L193.295813,213.478903 L193.295813,163.675824 L193.295943,163.671434 C193.295795,162.637251 193.37247,161.603114 193.525553,160.580179 C193.847543,158.428575 194.508618,156.334715 195.446766,154.372855 C196.691356,151.770169 198.412239,149.412735 200.41618,147.342938 C201.906543,145.803587 203.554106,144.419322 205.302105,143.181284 C207.513311,141.61518 209.885577,140.280871 212.348283,139.152753 C215.570124,137.67688 218.949082,136.55099 222.395995,135.732825 C227.055307,134.626869 231.844637,134.081517 236.631765,134.042999 C241.530587,134.003583 246.440031,134.492115 251.221993,135.563539 C254.696259,136.341971 258.106485,137.428801 261.36523,138.865858 C263.99023,140.023446 266.519332,141.409568 268.870626,143.055207 C270.570637,144.245018 272.177614,145.57134 273.641214,147.042929 C275.675834,149.088671 277.4347,151.422377 278.726119,154.006896 C279.728244,156.012472 280.441256,158.162374 280.794925,160.377429 C280.968873,161.466857 281.056083,162.569843 281.055909,163.672701 L281.056001,163.675822 L281.056001,213.478902 L281.055741,213.487694 L281.055717,213.487698 Z M202.736054,213.478642 L202.736307,213.478642 C202.736159,213.894275 202.75882,214.310041 202.804121,214.723372 C202.857532,215.210697 202.942452,215.694475 203.056957,216.171152 C203.137491,216.50641 203.232564,216.838159 203.341209,217.165395 C204.121395,219.515321 205.579023,221.591792 207.30287,223.348329 C207.617656,223.669085 207.942305,223.980122 208.275349,224.281893 C208.699893,224.666581 209.138236,225.036034 209.587831,225.391137 C210.14569,225.831749 210.720981,226.250219 211.310136,226.648021 C212.627077,227.537224 214.012643,228.323484 215.44067,229.019909 C217.115966,229.836927 218.850643,230.530859 220.620122,231.11597 C224.700102,232.465087 228.963972,233.243511 233.248279,233.537479 C234.322102,233.611159 235.397493,233.652048 236.473682,233.667187 C236.707579,233.669538 236.941442,233.670949 237.175351,233.671429 C238.103938,233.669523 239.032171,233.649269 239.959707,233.604327 C242.768696,233.46822 245.568967,233.125308 248.323442,232.556432 C250.605194,232.085188 252.856449,231.45898 255.04487,230.658558 C256.928264,229.969699 258.766359,229.151457 260.523123,228.18346 C261.912985,227.417623 263.252738,226.557501 264.50988,225.588553 C266.213778,224.275264 267.778549,222.755294 269.027381,220.998413 C269.84091,219.853921 270.517046,218.606011 270.972276,217.275841 C271.291924,216.341833 271.500064,215.370105 271.578582,214.385779 C271.602654,214.084005 271.614663,213.781268 271.614493,213.478651 L271.614667,213.478651 L271.614667,182.163179 C270.900271,182.770935 270.161726,183.349431 269.404866,183.898579 C268.870775,184.286094 268.326639,184.65974 267.773754,185.019958 C267.023588,185.508713 266.257235,185.972604 265.477527,186.412737 C264.480369,186.975616 263.461233,187.499466 262.424858,187.986413 C261.145548,188.5875 259.839791,189.132173 258.514513,189.623711 C253.308606,191.554561 247.810904,192.67469 242.279333,193.099445 C240.852131,193.209035 239.422137,193.269047 237.990956,193.289181 C237.719085,193.291913 237.447255,193.293553 237.175372,193.29411 C235.826973,193.291343 234.479227,193.253798 233.133221,193.172338 C229.936603,192.978879 226.752773,192.553458 223.621772,191.879517 C220.978311,191.31052 218.37171,190.564109 215.836236,189.623707 C214.510921,189.132154 213.205092,188.587496 211.925754,187.986346 C210.889489,187.499416 209.870488,186.975611 208.873402,186.412824 C208.093679,185.97272 207.327374,185.508791 206.577185,185.020072 C206.024222,184.659832 205.480025,184.286137 204.945873,183.898575 C204.188932,183.349371 203.450353,182.770874 202.736063,182.163221 L202.736063,213.478602 L202.736054,213.478642 Z M237.175824,183.859925 C238.104511,183.858019 239.032835,183.837696 239.96047,183.792808 C242.769332,183.656888 245.569585,183.313769 248.323914,182.744931 C250.605658,182.273692 252.856931,181.647479 255.045343,180.847057 C256.928727,180.1582 258.766841,179.339956 260.523596,178.371959 C261.91334,177.606184 263.253138,176.74619 264.510117,175.777233 C266.214043,174.463736 267.778932,172.943929 269.027863,171.186903 C269.841388,170.04242 270.517537,168.794492 270.972758,167.464331 C271.292398,166.530341 271.500553,165.558613 271.57906,164.574296 C271.63618,163.858139 271.625383,163.136551 271.547111,162.422402 C271.493702,161.935088 271.408782,161.451289 271.294275,160.974622 C271.213739,160.639365 271.118642,160.307614 271.009998,159.980379 C270.214214,157.583476 268.714542,155.472047 266.944881,153.692723 C266.626714,153.372819 266.298801,153.062616 265.962505,152.761813 C265.533663,152.378234 265.091269,152.0098 264.637616,151.655893 C264.074884,151.216885 263.494968,150.799976 262.901244,150.403863 C261.574697,149.518842 260.180258,148.737067 258.74382,148.045043 C257.05987,147.233786 255.317036,146.546085 253.540016,145.967078 C251.213556,145.209052 248.82726,144.637342 246.414518,144.232195 C243.44069,143.73283 240.425053,143.487022 237.409969,143.474817 C233.949805,143.460811 230.485599,143.753526 227.082478,144.382941 C224.503964,144.859848 221.958901,145.530069 219.491708,146.419871 C217.543514,147.122496 215.642457,147.962455 213.828206,148.962223 C212.438316,149.728144 211.098491,150.588218 209.841295,151.55722 C208.137405,152.870509 206.572616,154.390479 205.323794,156.147361 C204.51027,157.291853 203.83412,158.539762 203.378898,159.869933 C203.059316,160.803741 202.851046,161.775406 202.772657,162.759551 C202.715599,163.47589 202.726279,164.197522 202.804571,164.911853 C202.857982,165.399176 202.942902,165.882956 203.057407,166.359632 C203.13794,166.694891 203.233014,167.026639 203.341658,167.353875 C204.121841,169.703792 205.579473,171.780281 207.303319,173.53681 C207.618034,173.857491 207.942592,174.168497 208.275581,174.470183 C208.700225,174.854907 209.138607,175.224431 209.58828,175.579599 C210.146234,176.020285 210.721612,176.438776 211.31084,176.836683 C212.576683,177.69151 213.906194,178.451004 215.27561,179.12717 C217.002121,179.979653 218.792989,180.699967 220.620861,181.304532 C224.70076,182.653948 228.964766,183.431747 233.249019,183.725987 C234.322733,183.799729 235.398052,183.840538 236.474131,183.855676 C236.708029,183.858026 236.941891,183.859438 237.175801,183.859918 L237.175824,183.859925 Z M237.175824,274.734792 L459.376692,146.538566 L396.876665,110.47997 L396.876665,146.542642 L396.876451,146.549872 C396.87644,147.169148 396.84875,147.788118 396.793444,148.404692 C396.671457,149.764658 396.415009,151.111882 396.033387,152.422862 C395.74913,153.399372 395.396107,154.355623 394.981397,155.284278 C394.704831,155.903593 394.401044,156.510696 394.072496,157.104094 C391.934502,160.965549 388.783091,164.192888 385.226314,166.77383 C384.69224,167.161369 384.148059,167.534958 383.595183,167.8952 C382.845026,168.383991 382.078646,168.847837 381.298939,169.288006 C380.368965,169.813004 379.419832,170.304021 378.455446,170.762793 C377.181265,171.368936 375.880394,171.918741 374.559683,172.415424 C369.288014,174.397969 363.711246,175.543964 358.100554,175.974796 C356.763502,176.077464 355.423995,176.136458 354.0833,176.160719 C353.721068,176.165814 353.358894,176.168718 352.996625,176.169462 C351.648136,176.166695 350.300299,176.129215 348.954203,176.047672 C345.589999,175.843879 342.239898,175.38361 338.950718,174.646751 C336.476003,174.092355 334.03542,173.381028 331.657481,172.499059 C330.332284,172.00755 329.02669,171.462866 327.747416,170.861897 C326.710914,170.374976 325.691706,169.851026 324.694457,169.288095 C323.914741,168.847958 323.148401,168.384075 322.39823,167.895316 C321.84535,167.535098 321.301197,167.161477 320.767118,166.773964 C317.210205,164.193212 314.05874,160.965583 311.920755,157.104137 C311.592142,156.510623 311.288224,155.903413 311.011654,155.28395 C310.62466,154.417161 310.291183,153.52638 310.017459,152.61745 C309.624004,151.310954 309.354405,149.967316 309.219186,148.609523 C309.151056,147.925402 309.116944,147.238036 309.116843,146.551654 L309.116577,146.542683 L309.116577,96.739604 L309.116775,96.7326842 C309.116761,95.6994977 309.193394,94.6663747 309.346267,93.644346 C309.668131,91.4925332 310.329332,89.3981393 311.267753,87.4361981 C312.51256,84.8337106 314.233044,82.476494 316.236949,80.406734 C317.778147,78.814891 319.487275,77.3890464 321.30197,76.1189755 C323.462014,74.6071928 325.772588,73.314426 328.168889,72.2166208 C328.617091,72.0112885 329.068336,71.8127334 329.522435,71.6208457 L281.05589,43.6586721 L281.05589,79.5155777 L281.055788,79.5190073 C281.05576,80.1393249 281.028084,80.7596624 280.972661,81.3776126 C280.850697,82.7374707 280.594212,84.0844866 280.212727,85.3953937 C279.947512,86.3067507 279.622247,87.2004111 279.243003,88.0705243 C278.971953,88.6924051 278.673271,89.3022043 278.349631,89.8984277 C276.211139,93.8380503 273.016832,97.1264851 269.40536,99.7468503 C268.871229,100.134395 268.327051,100.508086 267.774111,100.868321 C267.023972,101.357026 266.257674,101.820894 265.478012,102.261 C264.480763,102.823927 263.461563,103.347883 262.425053,103.834802 C261.145788,104.43577 259.840185,104.980453 258.514988,105.471964 C253.226091,107.433598 247.636371,108.558699 242.015075,108.967496 C240.675776,109.064894 239.334211,109.118481 237.991576,109.13745 C237.719657,109.140183 237.447781,109.141823 237.175849,109.142365 C235.827405,109.139679 234.479604,109.102087 233.133553,109.020584 C229.853047,108.821949 226.585891,108.379343 223.375588,107.674165 C220.816677,107.112069 218.293284,106.38311 215.836677,105.471962 C214.511444,104.980437 213.205768,104.435759 211.926485,103.834736 C210.890093,103.347829 209.87102,102.823919 208.873853,102.261079 C208.094172,101.820999 207.327924,101.357096 206.577771,100.868427 C206.024755,100.508176 205.48052,100.134437 204.946323,99.7468477 C201.38942,97.1661051 198.237936,93.9384855 196.09996,90.0770213 C195.771364,89.4835366 195.467501,88.8763602 195.190932,88.2569428 C194.803908,87.3901407 194.470425,86.4993459 194.196683,85.5903979 C193.803247,84.2840191 193.533746,82.9405262 193.398433,81.5828779 C193.330102,80.8972858 193.295953,80.2083934 193.295906,79.5196387 L193.295786,79.5155946 L193.295786,43.6586889 L144.833229,71.6185078 C145.0711,71.7189781 145.308048,71.8212707 145.544201,71.9254026 C148.102342,73.0534117 150.569118,74.3986162 152.869396,75.9893362 C154.636283,77.2111898 156.305207,78.5790539 157.82043,80.1026554 C159.855005,82.1484788 161.614043,84.4821573 162.905335,87.0667852 C163.907369,89.0724517 164.620581,91.2223445 164.974087,93.4374992 C165.147898,94.5266554 165.235118,95.6293151 165.234999,96.7320562 L165.235099,96.7354341 L165.235099,146.538513 L165.234841,146.547221 C165.234809,147.166176 165.207151,147.784544 165.151899,148.400565 C165.029932,149.760405 164.773454,151.107439 164.391966,152.418319 C164.107777,153.394856 163.754658,154.351088 163.340022,155.27978 C163.063402,155.899343 162.759487,156.506705 162.430776,157.100302 C160.292519,160.96154 157.141516,164.189033 153.584603,166.769766 C153.050457,167.157322 152.50624,167.530991 151.953282,167.891227 C151.203145,168.379921 150.436881,168.843792 149.657219,169.283897 C148.727245,169.808853 147.778167,170.299931 146.813781,170.758666 C145.539627,171.364751 144.238819,171.91456 142.918153,172.411233 C137.646485,174.393778 132.069716,175.539801 126.459024,175.970605 C125.121982,176.073267 123.782483,176.132263 122.441788,176.156527 C122.079545,176.161622 121.71736,176.164526 121.355087,176.16527 C120.006597,176.162502 118.658761,176.125023 117.312664,176.043479 C114.032176,175.844755 110.764984,175.402315 107.554699,174.697034 C104.995842,174.134868 102.472549,173.405988 100.015978,172.494885 C98.6907449,172.003378 97.3850879,171.458673 96.1057954,170.857668 C95.0693487,170.370755 94.0502033,169.846824 93.0529998,169.283938 C92.2732789,168.843815 91.5069532,168.379912 90.7567825,167.891168 C90.2038302,167.53092 89.6595948,167.157266 89.1254612,166.769698 C85.5686123,164.188874 82.4174277,160.961454 80.279307,157.100143 C79.950641,156.506588 79.6467255,155.89931 79.3701333,155.279793 C78.9831617,154.413062 78.6497276,153.522359 78.375984,152.613493 C77.9824761,151.307014 77.7129441,149.963358 77.5776683,148.605583 C77.5094464,147.920831 77.4753142,147.232811 77.4752653,146.54574 L77.4750516,146.538526 L77.4750516,110.47993 L14.9750248,146.538526 L237.175893,274.734752 L237.175824,274.734792 Z M318.557002,146.543094 L318.557189,146.543094 C318.55706,146.958917 318.579759,147.374617 318.625048,147.787825 C318.678459,148.275147 318.763375,148.758955 318.877884,149.235632 C318.958418,149.57088 319.05352,149.902622 319.162161,150.229848 C319.942412,152.579973 321.400148,154.656208 323.123994,156.412981 C323.438631,156.733629 323.763175,157.044559 324.096102,157.346192 C324.520726,157.730907 324.959096,158.100435 325.408756,158.455589 C325.966614,158.8962 326.541906,159.314673 327.131061,159.712474 C328.397122,160.567326 329.726678,161.326931 331.096257,162.003233 C332.822551,162.855681 334.613355,163.576057 336.441083,164.180432 C340.521072,165.529558 344.784933,166.307955 349.069331,166.601941 C350.143145,166.675626 351.218527,166.71651 352.294715,166.731648 C352.528615,166.733999 352.762478,166.73541 352.996389,166.73589 C354.001667,166.733827 355.006502,166.709844 356.010448,166.657224 C358.742265,166.514039 361.465128,166.174292 364.144415,165.620904 C366.42624,165.149612 368.677496,164.523379 370.866016,163.722975 C372.693354,163.054669 374.477933,162.264454 376.187097,161.333951 C377.633214,160.546657 379.026493,159.658407 380.330926,158.652998 C382.034526,157.339935 383.599668,155.820146 384.848056,154.063337 C385.661575,152.918501 386.338011,151.670745 386.79335,150.340276 C387.112995,149.406278 387.32111,148.434522 387.399608,147.450214 C387.423681,147.148351 387.43567,146.845557 387.435481,146.543078 L387.435714,146.543078 L387.435714,115.227606 C386.721393,115.835291 385.982927,116.413731 385.226095,116.962915 C384.692019,117.350457 384.14784,117.724057 383.594964,118.084303 C382.84481,118.573093 382.078418,119.03694 381.298719,119.477109 C380.368746,120.002106 379.419613,120.493115 378.455227,120.951887 C377.181046,121.558031 375.880174,122.107826 374.559464,122.604518 C372.111004,123.525321 369.594807,124.26395 367.042422,124.835829 C364.013027,125.514584 360.93171,125.958522 357.835674,126.183687 C356.586544,126.274533 355.33541,126.327153 354.083244,126.349812 C353.720963,126.35493 353.358742,126.357829 352.996424,126.358573 C351.64798,126.355805 350.300198,126.318292 348.954147,126.236792 C345.757556,126.043247 342.573744,125.617961 339.442788,124.94398 C336.799309,124.374945 334.192636,123.628599 331.657171,122.688116 C330.331992,122.196564 329.026362,121.651932 327.747115,121.050927 C326.710677,120.563995 325.691505,120.04011 324.694301,119.477206 C323.914589,119.037071 323.148236,118.573184 322.398075,118.084427 C321.845191,117.724206 321.30105,117.350574 320.766962,116.963056 C320.010018,116.413848 319.271442,115.835346 318.557152,115.227693 L318.557152,146.543074 L318.557002,146.543094 Z M86.9160115,146.539472 L86.9162062,146.539472 C86.9160543,146.955068 86.9387203,147.370765 86.9840339,147.783985 C87.0374917,148.27147 87.1224247,148.755387 87.2369433,149.232235 C87.3174572,149.567489 87.4126015,149.899209 87.5212237,150.226442 C88.3012591,152.576368 89.7591925,154.652758 91.482903,156.409277 C91.7976172,156.72998 92.1222229,157.040946 92.4552102,157.342651 C92.8797982,157.727355 93.3181331,158.096855 93.7677642,158.451985 C94.3256242,158.892597 94.9009143,159.311067 95.49007,159.708869 C96.7561575,160.563736 98.085732,161.323327 99.4553201,161.999656 C101.181568,162.852118 102.972391,163.572462 104.800073,164.176818 C108.880053,165.525944 113.143914,166.30435 117.428231,166.598328 C118.579761,166.677342 119.733076,166.718785 120.887198,166.730382 C121.04323,166.731325 121.199264,166.731957 121.355297,166.732277 C122.437033,166.730057 123.51826,166.70211 124.598337,166.641133 C127.324435,166.487227 130.040699,166.136988 132.712655,165.573613 C134.922727,165.107627 137.103345,164.495343 139.224816,163.7194 C141.052191,163.05103 142.836796,162.260861 144.546006,161.33034 C145.992132,160.543044 147.38542,159.654796 148.689853,158.649387 C150.393625,157.336188 151.95855,155.816291 153.207191,154.059445 C154.020721,152.914799 154.696965,151.666971 155.152259,150.336665 C155.471846,149.402866 155.680125,148.431192 155.758505,147.447047 C155.782545,147.145194 155.794559,146.842397 155.794404,146.539457 L155.794628,146.539457 L155.794628,115.224076 C155.080353,115.83173 154.341795,116.410229 153.584854,116.959439 C153.050706,117.346997 152.506491,117.720678 151.953533,118.080919 C151.2034,118.569611 150.437132,119.033483 149.65747,119.473589 C148.727496,119.998542 147.778409,120.489604 146.814032,120.948339 C145.539878,121.554427 144.23907,122.104233 142.918404,122.600907 C137.646727,124.583451 132.069967,125.729474 126.459275,126.160279 C125.122278,126.262936 123.782834,126.321934 122.442184,126.346197 C122.079893,126.351315 121.717661,126.354215 121.355338,126.354958 C120.006903,126.352191 118.659111,126.314679 117.31306,126.233177 C114.032563,126.034546 110.765398,125.591936 107.555095,124.886759 C104.996157,124.324655 102.472691,123.595722 100.016075,122.684519 C98.690851,122.19297 97.3851758,121.648316 96.1058924,121.047275 C95.0695091,120.560351 94.0504,120.036485 93.0532418,119.473626 C92.2735236,119.033506 91.5071952,118.569599 90.7570245,118.080857 C90.2040695,117.720606 89.6598459,117.346939 89.1257032,116.959368 C88.3687723,116.410144 87.6302196,115.83164 86.9160112,115.224042 L86.9160112,146.539513 L86.9160115,146.539472 Z M352.996772,116.925283 C354.001997,116.92322 355.006795,116.89926 356.010687,116.84661 C358.74264,116.703328 361.465503,116.363592 364.144944,115.810271 C366.426715,115.339072 368.677943,114.712747 370.866391,113.912379 C372.749739,113.22359 374.587808,112.405305 376.344508,111.437327 C377.734325,110.671513 379.074105,109.811449 380.331174,108.842483 C382.034792,107.529311 383.599989,106.009622 384.848421,104.25275 C385.661938,103.107923 386.338386,101.860158 386.793716,100.529689 C387.113358,99.5956994 387.321479,98.6239439 387.399972,97.6396269 C387.457096,96.9232686 387.446181,96.2016737 387.36797,95.487316 C387.314598,94.9998325 387.229436,94.5159681 387.115006,94.0391198 C387.03455,93.7038461 386.939206,93.3721688 386.830639,93.044922 C386.035546,90.6483001 384.534857,88.5369069 382.765713,86.7579998 C382.447647,86.4381767 382.119818,86.1280632 381.783599,85.8273613 C381.354607,85.4436918 380.912125,85.0751596 380.458357,84.7211152 C379.895771,84.2821724 379.315953,83.8653422 378.722339,83.4693477 C377.395827,82.5844478 376.00157,81.8024254 374.565132,81.1105915 C372.880982,80.2994512 371.138212,79.611479 369.361038,79.0324722 C367.103547,78.2969727 364.789702,77.7367801 362.4501,77.3340511 C359.483694,76.8234316 356.474483,76.565802 353.464891,76.5415892 C349.998854,76.5137043 346.527661,76.7930893 343.116102,77.4094265 C340.464756,77.8884239 337.847606,78.5709812 335.312603,79.4852363 C333.476673,80.1473673 331.683068,80.931585 329.963953,81.8561918 C328.508609,82.6389314 327.105533,83.5229057 325.790532,84.5242853 C324.036442,85.8600348 322.424806,87.411757 321.144788,89.2126265 C320.331267,90.357191 319.655069,91.6050552 319.19982,92.9352891 C318.880174,93.8692967 318.67203,94.841025 318.593516,95.825351 C318.536394,96.5414965 318.547196,97.2630687 318.625467,97.9772091 C318.678875,98.4645078 318.763781,98.9483035 318.87829,99.4249525 C318.958834,99.7602216 319.053932,100.091987 319.16258,100.419232 C319.942827,102.769348 321.400575,104.845602 323.124413,106.602365 C323.439014,106.922975 323.763514,107.233878 324.096412,107.535467 C324.48171,107.884527 324.878306,108.221079 325.284367,108.545768 C325.83734,108.987929 326.407919,109.408018 326.992507,109.807461 C328.300022,110.70086 329.676797,111.491537 331.096531,112.192536 C332.763008,113.015375 334.489555,113.715223 336.251349,114.306456 C340.316855,115.67077 344.568635,116.464445 348.842801,116.775277 C349.914476,116.853212 350.987855,116.898301 352.062131,116.917743 C352.373687,116.922144 352.685193,116.924637 352.996781,116.925277 L352.996772,116.925283 Z M121.354876,116.920755 C122.360109,116.918692 123.364917,116.894733 124.368827,116.842081 C127.100807,116.698799 129.82367,116.35902 132.503147,115.805725 C134.784836,115.334574 137.036055,114.708273 139.224404,113.907877 C141.107788,113.219022 142.945902,112.400786 144.702657,111.432789 C146.092473,110.666979 147.432253,109.806902 148.689323,108.837945 C150.393104,107.524647 151.958083,106.00485 153.206778,104.247923 C154.020305,103.103286 154.696561,101.855449 155.151846,100.525151 C155.471431,99.5913522 155.679716,98.6196782 155.75809,97.6355424 C155.815137,96.9192076 155.804465,96.197562 155.726173,95.4832315 C155.672762,94.9959101 155.58785,94.5121281 155.473342,94.0354518 C155.39277,93.700045 155.297584,93.3681921 155.188927,93.0408013 C154.393466,90.6439982 152.893281,88.5326413 151.123865,86.7534715 C150.805671,86.4335216 150.47768,86.1233447 150.141362,85.8224888 C149.712544,85.4388837 149.270114,85.0705299 148.816482,84.716596 C148.253776,84.2775599 147.673825,83.8607342 147.08012,83.464602 C145.75379,82.579636 144.35945,81.7978337 142.923149,81.1060088 C141.239071,80.2948333 139.496283,79.6069416 137.719164,79.027953 C135.461682,78.292458 133.147846,77.7322609 130.808253,77.3295318 C127.841837,76.8189106 124.832617,76.5612837 121.823007,76.5370699 C118.35697,76.5091832 114.885786,76.78857 111.474219,77.4049072 C108.822873,77.8839056 106.205731,78.5664619 103.670738,79.480717 C101.834808,80.1428499 100.041194,80.9270657 98.322069,81.8516725 C96.8666352,82.6344601 95.4635952,83.5185314 94.1484672,84.519911 C92.3944135,85.8554974 90.7828407,87.4073555 89.5029138,89.2081163 C88.6893286,90.3527714 88.0132124,91.6006808 87.5578643,92.9309782 C87.2382324,93.8647774 87.0301093,94.8364786 86.9516736,95.8206144 C86.8945956,96.5367717 86.9052682,97.2583231 86.9835816,97.9724725 C87.0370365,98.4599342 87.1219597,98.9438295 87.2364783,99.4206506 C87.3170017,99.7559261 87.4121419,100.087668 87.5207704,100.414921 C88.3008022,102.764838 89.7587392,104.841236 91.4824497,106.597756 C91.7971295,106.918424 92.1216872,107.229385 92.4546482,107.531048 C92.8398688,107.880058 93.2363974,108.216564 93.6423943,108.541185 C94.1954136,108.983356 94.7660009,109.403487 95.3506341,109.802951 C96.6581763,110.696367 98.0349786,111.487017 99.4547219,112.188062 C101.121181,113.010925 102.847746,113.710722 104.609522,114.301964 C108.675001,115.666323 112.926808,116.459917 117.200883,116.770767 C118.272549,116.848707 119.345937,116.893789 120.420213,116.913232 C120.731757,116.917633 121.043252,116.920126 121.354827,116.920765 L121.354876,116.920755 Z M202.736054,77.5046038 L202.914899,77.5046038 C202.849528,77.8704725 202.801685,78.2388036 202.77221,78.6088936 C202.715158,79.3252429 202.725828,80.046874 202.804121,80.7612226 C202.857532,81.2485458 202.942453,81.732326 203.056957,82.2090023 C203.13749,82.5442605 203.232563,82.8760112 203.341208,83.2032453 C204.121397,85.5531713 205.579023,87.6296332 207.302869,89.3861615 C207.617623,89.706883 207.94222,90.017914 208.27524,90.3196438 C208.660387,90.6686083 209.056868,91.0050747 209.462814,91.3296272 C210.015919,91.7718421 210.586584,92.1920169 211.171271,92.5915562 C212.428178,93.4504356 213.749251,94.2141826 215.110728,94.8948317 C216.827949,95.7533262 218.610398,96.4797283 220.430231,97.0905509 C224.495502,98.455046 228.747472,99.248477 233.021412,99.5592906 C234.093141,99.63723 235.166583,99.682253 236.240914,99.7017591 C236.552412,99.70616 236.863859,99.7086555 237.175392,99.709276 C238.104069,99.7074263 239.032402,99.6870618 239.960037,99.6421737 C242.839991,99.5028134 245.71099,99.1456708 248.532595,98.5506447 C250.742649,98.0845864 252.923312,97.4724651 255.044766,96.696459 C256.928259,96.0074906 258.766391,95.18925 260.523299,94.2212439 C261.913134,93.4554854 263.252832,92.5953118 264.50992,91.6263911 C266.213756,90.3131473 267.778608,88.7932228 269.027349,87.0363503 C269.840873,85.8917949 270.517068,84.6439126 270.972317,83.3136877 C271.291962,82.3796892 271.500107,81.4079518 271.578621,80.4236258 C271.635744,79.7074694 271.624934,78.98589 271.546668,78.2717405 C271.518504,78.0147621 271.481577,77.7587582 271.435978,77.5046018 L271.614707,77.5046018 L271.614707,48.2010546 C270.900221,48.8088768 270.161666,49.3873611 269.40478,49.9364901 C268.870719,50.3239588 268.326633,50.6975745 267.773784,51.0577701 C267.023576,51.5465532 266.257193,52.0104886 265.477422,52.4506214 C264.480246,53.0134703 263.461146,53.5373686 262.424744,54.0242788 C261.145452,54.6253049 259.839777,55.1699844 258.514543,55.6615044 C253.225664,57.6231286 247.635745,58.7484026 242.014449,59.1570365 C240.67515,59.2543941 239.333585,59.3080934 237.990951,59.326981 C237.719079,59.3297132 237.44725,59.3313526 237.175366,59.3319105 C235.826922,59.3291433 234.479122,59.2916338 233.133071,59.2101291 C229.936489,59.0165741 226.752741,58.591266 223.621712,57.9173351 C220.978251,57.3483395 218.37165,56.6019087 215.836176,55.6615072 C214.510898,55.1699691 213.20515,54.6252959 211.925839,54.0242182 C210.889556,53.5373225 209.870583,53.0134649 208.873479,52.4507057 C208.093697,52.0106 207.32735,51.5466248 206.577125,51.0578725 C206.024206,50.6976606 205.480056,50.323996 204.945931,49.9364838 C204.188973,49.3873013 203.450375,48.8088099 202.736003,48.2010936 L202.736003,77.5045502 L202.736054,77.5046038 Z M473.537782,341.371472 C473.29004,342.775481 473.394515,343.258931 472.433425,344.403487 C472.082171,344.821796 471.596208,345.105492 471.177597,345.456498 L239.535701,479.099366 L239.063852,479.252569 L238.634191,479.500457 L238.140778,479.552279 L237.668931,479.705482 L237.175519,479.653659 L236.682106,479.705482 L236.210259,479.552279 L235.716847,479.500457 L235.287185,479.252569 L234.815337,479.099367 L3.17343997,345.456499 C2.0805301,344.540098 1.60931247,344.388789 1.0979272,342.98478 C0.911028906,342.471648 0.908145029,341.909245 0.813254398,341.371482 L0.813254398,146.539482 L0.916406042,146.05454 L0.916406053,145.558766 L1.11820045,145.105853 L1.2213521,144.620913 L1.51296995,144.219823 L1.71476434,143.76691 L2.08346112,143.435172 L2.37507897,143.034083 L2.80474049,142.786195 L3.17343726,142.454457 L77.4744327,99.5874685 L77.4744327,96.7363771 L77.4745814,96.7311718 C77.4744701,95.6974148 77.5511266,94.6635763 77.7041415,93.6408955 C78.0260854,91.4891733 78.6872067,89.395051 79.6255182,87.4331552 C80.870244,84.830568 82.5908822,82.4731522 84.594878,80.4034103 C86.0852319,78.8641589 87.7326583,77.4799838 89.4805673,76.2419371 C91.6917275,74.6757695 94.0640658,73.3415959 96.5267269,72.2133967 C99.7485583,70.7374057 103.127653,69.6115612 106.57453,68.7933876 C111.233841,67.6874314 116.023172,67.1420789 120.8103,67.1035612 C124.630169,67.072827 128.456509,67.3630945 132.223912,68.000453 L193.295141,32.7661888 L193.295141,29.7133888 L193.295267,29.7089727 C193.295118,28.67479 193.371796,27.6406345 193.524886,26.6177002 C193.846888,24.4661047 194.507951,22.3722542 195.446091,20.4104127 C196.69069,17.8077168 198.411591,15.450147 200.415605,13.3803961 C201.905968,11.8411447 203.553403,10.4569878 205.301312,9.21894096 C207.51249,7.6527553 209.884847,6.31852738 212.347544,5.19036436 C215.569385,3.71442775 218.948397,2.58856511 222.395256,1.77039153 C227.054559,0.6644353 231.843808,0.119146243 236.630936,0.0805560543 C241.529748,0.0410679034 246.439292,0.529673035 251.221254,1.60109643 C254.695511,2.37952511 258.105664,3.46639454 261.364401,4.9033787 C263.855511,6.00187228 266.259697,7.30621341 268.508251,8.8426753 C270.342423,10.0959825 272.073592,11.5049908 273.640557,13.0806044 C275.675104,15.1263825 277.433862,17.459907 278.725317,20.044381 C279.727496,22.0499568 280.44049,24.1999311 280.794168,26.4150044 C280.968108,27.5043779 281.055316,28.6073093 281.05515,29.7102134 L281.055244,29.713392 L281.055244,32.7661739 L342.131912,68.0035173 C345.539981,67.4273199 348.996528,67.1354518 352.451879,67.1076498 C357.350683,67.0682347 362.260145,67.5567686 367.042107,68.6281902 C370.516364,69.4066198 373.926454,70.4935064 377.185163,71.9304453 C379.810208,73.0879517 382.339365,74.4742008 384.690668,76.11984 C386.390714,77.3096785 387.997792,78.6360272 389.461382,80.1076981 C391.495876,82.153431 393.25437,84.4868196 394.545971,87.0711215 C395.548295,89.0766249 396.261062,91.2266536 396.614931,93.4416544 C396.789051,94.5315351 396.876266,95.6350461 396.876016,96.7386295 L396.87607,96.740471 L396.87607,99.5874507 L471.176975,142.454349 L471.545672,142.786087 L471.975333,143.033974 L472.266951,143.435064 L472.635648,143.766802 L472.837442,144.219715 L473.12906,144.620804 L473.232212,145.105745 L473.434006,145.558657 L473.434006,146.054432 L473.537158,146.539372 L473.537158,341.371372 L473.537782,341.371472 Z M237.175824,49.8982642 C238.181048,49.8962013 239.185856,49.8722458 240.189757,49.8195915 C242.921665,49.6763034 245.644527,49.3366354 248.323914,48.7832715 C250.605667,48.3120293 252.856922,47.6858194 255.045343,46.8853968 C256.872781,46.217005 258.657377,45.4267493 260.366677,44.4962557 C261.812713,43.709081 263.205937,42.8208293 264.510235,41.8154647 C266.214025,40.5021666 267.779013,38.9823689 269.027718,37.2254421 C269.84124,36.0808142 270.517492,34.8329681 270.972758,33.5026798 C271.292402,32.5686813 271.500552,31.596944 271.579061,30.612627 C271.636181,29.8964733 271.625383,29.1748911 271.547112,28.4607508 C271.493703,27.9734394 271.408782,27.4896383 271.294276,27.0129711 C271.213741,26.6777147 271.118644,26.3459604 271.01,26.0187281 C270.214179,23.6217259 268.714444,21.5104323 266.944774,19.7309908 C266.626651,19.4111097 266.29876,19.1009536 265.962498,18.8001802 C265.533635,18.4165814 265.091218,18.0481542 264.637545,17.6942149 C264.074838,17.2552105 263.494934,16.8383242 262.901228,16.44223 C261.574762,15.5572658 260.180414,14.7753983 258.744013,14.0834919 C257.059935,13.2722828 255.317119,12.58447 253.54,12.005436 C251.282546,11.2698931 248.968682,10.7097893 246.629107,10.307024 C243.662701,9.79635288 240.653463,9.53883288 237.643871,9.51457386 C234.250004,9.48721721 230.851378,9.75472601 227.508428,10.3443354 C224.784115,10.8248371 222.094604,11.5194116 219.491746,12.458192 C217.655753,13.1203837 215.86213,13.9046131 214.142915,14.829229 C212.687526,15.6119523 211.284504,16.4960154 209.969449,17.4973678 C208.215386,18.8329995 206.603786,20.3848214 205.323832,22.1856184 C204.510312,23.3301739 203.834103,24.5780471 203.378864,25.908281 C203.059285,26.8420893 202.851009,27.8137452 202.772624,28.7978901 C202.715568,29.5142421 202.726251,30.2358795 202.804539,30.9502282 C202.857945,31.4375278 202.942855,31.9212954 203.05736,32.3979444 C203.137907,32.7332398 203.232996,33.0650203 203.341646,33.3922961 C204.121775,35.7421859 205.579479,37.8186659 207.303289,39.575158 C207.618005,39.8958424 207.94256,40.2068579 208.275551,40.5085406 C208.660745,40.8575242 209.057249,41.194025 209.463233,41.5186146 C210.016341,41.9608305 210.586994,42.3810043 211.171691,42.7805437 C212.479179,43.6739867 213.856026,44.4645467 215.275724,45.1656003 C216.942156,45.9884878 218.668748,46.6882237 220.430506,47.279484 C224.495822,48.6438433 228.747701,49.4375822 233.021686,49.7482599 C234.093424,49.826165 235.166858,49.871245 236.241188,49.8907511 C236.552734,49.8951338 236.86423,49.8976306 237.175802,49.89827 L237.175824,49.8982642 Z" id="Shape"></path>
            </g>
        </g>
    </g>
</svg>