<?xml version="1.0" encoding="UTF-8" standalone="no"?>
<svg width="560px" height="560px" viewBox="0 0 560 560" version="1.1" xmlns="http://www.w3.org/2000/svg" xmlns:xlink="http://www.w3.org/1999/xlink" xmlns:sketch="http://www.bohemiancoding.com/sketch/ns">
    <!-- Generator: sketchtool 3.4 (375) - http://www.bohemiancoding.com/sketch -->
    <title>centos</title>
    <desc>Created with sketchtool.</desc>
    <defs></defs>
    <g id="Page-1" stroke="none" stroke-width="1" fill="none" fill-rule="evenodd" sketch:type="MSPage">
        <g id="centos" sketch:type="MSArtboardGroup" fill="#000000">
            <path d="M279.373612,515.44482 L223.657597,459.732991 L263.7126,459.732991 L263.7126,322.923863 L279.373612,307.264 L296.540265,324.429339 L296.540265,459.732991 L335.089545,459.732991 L279.373612,515.44482 L279.373612,515.44482 Z M304.747181,451.526074 L304.747181,332.635681 L383.471778,411.354369 L343.297118,451.526074 L304.747181,451.526074 L304.747181,451.526074 Z M215.450106,451.526074 L175.275364,411.354369 L255.505684,331.130122 L255.505684,451.526074 L215.450106,451.526074 L215.450106,451.526074 Z M107.781194,451.526074 L107.781194,355.151027 L145.524637,392.89209 L148.426356,395.793563 L151.327993,392.89209 L240.424163,303.801584 L255.505684,303.801584 L255.505684,319.52423 L166.570288,408.452896 L163.668651,411.354369 L166.570288,414.255842 L203.843311,451.526074 L107.781194,451.526074 L107.781194,451.526074 Z M354.903831,451.526074 L392.176854,414.255842 L395.078573,411.354369 L392.176854,408.452896 L304.747181,321.029789 L304.747181,303.801584 L319.030169,303.801584 L408.126257,392.89209 L411.027976,395.793563 L413.929613,392.89209 L452.471671,354.352494 L452.471671,451.526074 L354.903831,451.526074 L354.903831,451.526074 Z M411.027976,384.187589 L330.636883,303.801584 L452.471671,303.801584 L452.471671,342.74652 L411.027976,384.187589 L411.027976,384.187589 Z M148.426356,384.187589 L107.781194,343.545053 L107.781194,303.801584 L228.817449,303.801584 L148.426356,384.187589 L148.426356,384.187589 Z M99.5742776,335.338629 L43.9660194,279.7339 L99.5742776,224.12917 L99.5742776,262.767003 L235.555984,262.767003 L252.70532,279.915273 L237.02494,295.594668 L99.5742776,295.594668 L99.5742776,335.338629 L99.5742776,335.338629 Z M460.678587,334.540096 L460.678587,295.594668 L322.429392,295.594668 L306.567639,279.7339 L323.535602,262.767003 L460.678587,262.767003 L460.678587,224.927703 L515.488231,279.7339 L460.678587,334.540096 L460.678587,334.540096 Z M331.743093,254.560087 L411.027976,175.28021 L452.471671,216.72128 L452.471671,254.560087 L331.743093,254.560087 L331.743093,254.560087 Z M107.781194,254.560087 L107.781194,215.922829 L148.244983,175.461583 L227.348493,254.560087 L107.781194,254.560087 L107.781194,254.560087 Z M304.747181,254.560087 L304.747181,239.491779 L392.888804,151.355409 L395.790441,148.453935 L392.888804,145.55238 L354.169722,106.835597 L452.471671,106.835597 L452.471671,205.115387 L413.929613,166.575791 L411.027976,163.674318 L408.126257,166.575791 L320.13638,254.560087 L304.747181,254.560087 L304.747181,254.560087 Z M279.723719,252.907789 L263.456134,236.641189 L263.456134,99.1416129 L224.578823,99.1416129 L279.723719,44 L334.355601,98.6286807 L296.540265,98.6286807 L296.540265,236.092228 L279.723719,252.907789 L279.723719,252.907789 Z M255.249218,228.434765 L175.263629,148.453935 L216.371497,107.348529 L255.249218,107.348529 L255.249218,228.434765 L255.249218,228.434765 Z M304.747181,227.885804 L304.747181,106.835597 L342.563009,106.835597 L384.18381,148.453935 L304.747181,227.885804 L304.747181,227.885804 Z M238.955207,254.560087 L151.146621,166.757082 L148.244983,163.855609 L145.343264,166.757082 L107.781194,204.316772 L107.781194,107.348529 L204.764702,107.348529 L166.558553,145.55238 L163.656915,148.453935 L166.558553,151.355409 L255.249218,240.040822 L255.249218,254.560087 L238.955207,254.560087 L238.955207,254.560087 Z" id="Page-1" sketch:type="MSShapeGroup"></path>
        </g>
    </g>
</svg>