<?xml version="1.0" encoding="UTF-8"?>
<svg width="560px" height="560px" viewBox="0 0 560 560" version="1.1" xmlns="http://www.w3.org/2000/svg" >
    
    
    
    
    <g id="Page-1" stroke="none" stroke-width="1"  fill-rule="evenodd">
        <g id="cloudfront" >
            <path d="M279.928,327.538347 L378.325764,337.146944 L377.357403,337.288789 L377.357403,476.297708 L279.928,525.015819 L279.928,525.5 L279.443819,525.25791 L278.959639,525.5 L278.959639,525.015819 L181.530236,476.297708 L181.530236,337.146944 L279.928,327.538347 Z M384.995862,317.339868 L393.84,316.429472 L484.020333,321.823653 L483.051972,321.964133 L483.051972,423.447014 L434.865778,447.546931 L434.865778,448.031111 L434.22816,447.865399 L433.897417,448.031111 L433.897417,447.779474 L397.495222,438.322268 L397.495222,318.845601 L398.663393,318.674433 L384.995862,317.339868 Z M174.860138,317.339868 L161.192607,318.674433 L161.192607,438.374778 L124.990222,447.781519 L124.990222,448.031111 L124.661525,447.866762 L124.028681,448.031111 L124.028681,447.55034 L75.8356667,423.447014 L75.8356667,321.823653 L166.016,316.429472 L174.860138,317.339868 Z M397.506815,121.670913 L434.865778,111.962069 L484.020333,136.552986 L484.020333,238.176347 L393.84,243.556889 L385.061329,242.653994 L398.675668,241.339888 L397.506815,241.170765 L397.506815,121.670913 Z M174.794671,242.653994 L166.016,243.556889 L75.8356667,238.176347 L75.8356667,136.552986 L124.028681,112.44284 L124.028681,111.962069 L124.661525,112.126418 L124.990222,111.962069 L124.990222,112.211661 L161.180332,121.617721 L161.180332,241.339888 L174.794671,242.653994 Z M279.928,34.9841806 L377.357403,83.7022917 L377.357403,222.705756 L378.325764,222.846236 L279.928,232.345722 L181.530236,222.846236 L181.530236,83.7022917 L278.959639,34.9841806 L278.959639,34.5 L279.443819,34.7420903 L279.928,34.5 L279.928,34.9841806 Z" id="Page-1"></path>
        </g>
    </g>
</svg>