<?xml version="1.0" encoding="UTF-8"?>
<svg width="560px" height="560px" viewBox="0 0 560 560" version="1.1" xmlns="http://www.w3.org/2000/svg" >
    
    
    
    
    <g id="Page-1" stroke="none" stroke-width="1"  fill-rule="evenodd">
        <g id="couchbase" >
            <g id="Group" transform="translate(60.000000, 60.000000)">
                <path d="M220.992481,0.330827068 C100.240602,0.330827068 1.98496241,98.2556391 1.98496241,219.338346 C1.98496241,340.090226 99.9097744,438.345865 220.992481,438.345865 C341.744361,438.345865 440,340.421053 440,219.338346 C440,98.2556391 341.744361,0.330827068 220.992481,0.330827068 L220.992481,0.330827068 Z M368.87218,257.714286 C368.87218,270.947368 361.263158,282.526316 346.37594,285.172932 C320.571429,289.804511 266.315789,292.451128 220.992481,292.451128 C175.669173,292.451128 121.413534,289.804511 95.6090226,285.172932 C80.7218045,282.526316 73.112782,270.947368 73.112782,257.714286 L73.112782,172.360902 C73.112782,159.12782 83.3684211,146.887218 95.6090226,144.902256 C103.218045,143.578947 121.082707,142.255639 134.977444,142.255639 C140.270677,142.255639 144.571429,146.225564 144.571429,152.511278 L144.571429,212.390977 L221.323308,210.736842 L298.075188,212.390977 L298.075188,152.511278 C298.075188,146.225564 302.37594,142.255639 307.669173,142.255639 C321.56391,142.255639 339.428571,143.578947 347.037594,144.902256 C359.609023,146.887218 369.533835,159.12782 369.533835,172.360902 C368.87218,200.481203 368.87218,229.263158 368.87218,257.714286 L368.87218,257.714286 Z" id="Shape"></path>
            </g>
        </g>
    </g>
</svg>