<?xml version="1.0" encoding="UTF-8"?>
<svg width="560px" height="560px" viewBox="0 0 560 560" version="1.1" xmlns="http://www.w3.org/2000/svg" xmlns:xlink="http://www.w3.org/1999/xlink">
    <!-- Generator: sketchtool 40.3 (33839) - http://www.bohemiancoding.com/sketch -->
    <title>dalmatinerdb</title>
    <desc>Created with sketchtool.</desc>
    <defs></defs>
    <g id="Page-1" stroke="none" stroke-width="1" fill="none" fill-rule="evenodd">
        <g id="dalmatinerdb" fill="#000000">
            <path d="M351.22055,520.999371 L66,520.999371 C66.5214841,520.420821 67.0641945,519.856458 67.617358,519.303081 C68.5406484,518.379684 69.4946581,517.48722 70.4643476,516.612995 C71.1994813,515.950287 71.9441081,515.298245 72.6948148,514.653137 C73.7592226,513.738486 74.8360036,512.838342 75.9174778,511.943958 C77.1272697,510.943442 78.3433548,509.9505 79.5557067,508.953078 C80.0072187,508.580071 80.4584107,508.206744 80.9078961,507.831284 C81.3125822,507.491877 81.7164151,507.151403 82.1166213,506.806449 C82.4548553,506.514934 82.7913827,506.221819 83.114257,505.913345 C83.7051799,505.348661 84.2573834,504.744299 84.774281,504.11135 C86.1761761,502.394687 87.3148226,500.479734 88.3434978,498.521689 C89.4394784,496.435646 90.417701,494.290191 91.439123,492.167455 C91.5985868,491.837861 91.758904,491.5088 91.9202878,491.180059 C92.7934456,489.416357 93.7030829,487.665775 94.7731439,486.011831 C95.2138828,485.330669 95.6815012,484.667321 96.1689592,484.018692 C96.6068181,483.436089 97.0613168,482.866073 97.5020556,482.285603 C97.6156536,482.134566 97.7279716,481.982782 97.838903,481.829825 C98.0246064,481.569562 98.2054032,481.3061 98.3753202,481.035172 C98.5869431,480.697791 98.7829929,480.350704 98.9641097,479.996044 C99.4095419,479.124059 99.7671889,478.211329 100.093476,477.289212 C100.314486,476.664903 100.524615,476.03686 100.726639,475.406152 C101.563744,472.793398 102.265385,470.139472 102.999772,467.496745 C103.163182,466.912969 103.328192,466.329619 103.495123,465.746696 C103.867063,464.462239 104.253189,463.181835 104.674942,461.912737 C104.973817,461.013766 105.292104,460.121836 105.627992,459.236091 L105.691564,459.074387 C105.782976,458.853271 105.878014,458.634182 105.982012,458.418506 C106.175502,458.017233 106.392565,457.627693 106.625734,457.24818 C107.132925,456.422701 107.718515,455.650128 108.288531,454.867849 C108.397649,454.716171 108.506447,454.564387 108.613326,454.41111 C108.808095,454.128342 108.997852,453.841627 109.163822,453.540619 C109.28926,453.312996 109.402538,453.07684 109.48275,452.829165 C109.562109,452.584369 109.611708,452.328693 109.650214,452.074725 C109.724559,451.584707 109.745252,451.087649 109.741412,450.592618 C109.736719,449.992842 109.69576,449.393812 109.647547,448.796169 C109.599121,448.19682 109.543442,447.598004 109.495337,446.998548 C109.474537,446.723246 109.455444,446.447838 109.438378,446.172216 C109.408511,445.636119 109.391125,445.099381 109.368406,444.562964 C109.346539,444.081266 109.323393,443.599781 109.298647,443.118297 C109.238488,442.00525 109.169369,440.892736 109.089584,439.780969 C108.991452,438.415233 108.878388,437.050564 108.779296,435.684935 C108.75711,435.369847 108.735777,435.054759 108.715404,434.739565 C108.670498,434.004538 108.632205,433.269191 108.610552,432.533097 C108.584526,431.645006 108.581006,430.756382 108.601806,429.868184 C108.656631,427.515693 108.877001,425.170241 109.164036,422.835776 C109.307393,421.67057 109.458964,420.505364 109.650214,419.346877 C109.826744,418.278523 110.038047,417.215715 110.295322,416.163787 C110.512172,415.276549 110.763474,414.398378 111.041016,413.528207 C111.311731,412.680222 111.607299,411.839704 111.889108,410.994919 C111.953213,410.800789 112.016572,410.606659 112.078971,410.411462 C112.203129,410.016803 112.3227,409.621076 112.431391,409.221083 C112.593522,408.626961 112.733786,408.026438 112.853571,407.421649 C113.035647,406.501131 113.171965,405.573148 113.279483,404.640898 C113.365775,403.893178 113.432867,403.144391 113.501452,402.394538 C113.625823,401.037762 113.740061,399.679919 113.846513,398.32101 C114.311358,392.390448 114.629539,386.44922 114.97684,380.510125 C115.045105,379.361345 115.11401,378.211499 115.184943,377.061653 C115.459818,372.67133 115.767652,368.283141 116.185778,363.904552 C116.274203,362.978702 116.367428,362.052852 116.466093,361.127001 C116.557292,360.272617 116.643263,359.417165 116.774568,358.568113 C116.935952,357.523865 117.159201,356.48815 117.457862,355.474835 C117.791296,354.343122 118.221689,353.243408 118.726533,352.177827 C119.205671,351.165578 119.750088,350.187462 120.273706,349.198679 C120.374611,349.005616 120.474556,348.813619 120.573434,348.61949 C120.849909,348.070166 121.113691,347.515509 121.346967,346.945919 C121.657041,346.188599 121.915277,345.411013 122.12402,344.61956 C122.209992,344.294233 122.287857,343.966772 122.358576,343.637178 C122.409028,343.402515 122.457134,343.167853 122.483267,342.92999 C122.548439,342.332668 122.520066,341.730012 122.48412,341.132689 C122.446894,340.582299 122.399961,340.031908 122.359429,339.480451 C122.335003,339.119924 122.312496,338.760464 122.30055,338.399937 C122.266631,337.382355 122.302683,336.35304 122.504706,335.352524 C122.634624,334.709336 122.831741,334.08108 123.062776,333.466691 C123.266186,332.925901 123.495942,332.395777 123.715565,331.861386 C123.77647,331.709922 123.836096,331.558458 123.894122,331.406994 C124.000893,331.118999 124.102438,330.826738 124.157584,330.52381 C124.193423,330.327547 124.200463,330.127017 124.211769,329.927554 C124.226489,329.666225 124.235769,329.404896 124.237689,329.142501 C124.243342,328.387314 124.187557,327.625728 123.991933,326.894008 C123.873535,326.450282 123.707138,326.022556 123.534128,325.59803 C123.41477,325.305769 123.294346,325.013507 123.177121,324.720179 C123.110456,324.550582 123.110669,324.551649 123.04539,324.382052 C122.900859,323.995926 122.764328,323.607666 122.645184,323.214073 C122.468014,322.627416 122.325509,322.032227 122.216818,321.429571 C121.961569,320.015196 121.89725,318.578421 121.901624,317.14378 C121.906744,315.46381 122.027275,313.779573 122.363375,312.131602 C122.496493,311.478814 122.66321,310.833492 122.853393,310.19457 C123.077816,309.441517 123.334238,308.698063 123.573167,307.949276 C123.62874,307.772213 123.683352,307.595149 123.737004,307.418086 C123.846549,307.045826 123.950441,306.672499 124.042492,306.295972 C124.167397,305.783981 124.272888,305.26879 124.36142,304.749333 C124.526964,303.777617 124.628722,302.798434 124.710961,301.816052 C124.782853,300.958467 124.841945,300.099815 124.891544,299.241164 C125.082047,295.943089 125.13634,292.638614 125.222418,289.337339 C125.234791,288.88828 125.247591,288.439222 125.260711,287.990163 C125.31831,286.173662 125.388602,284.358227 125.50476,282.543859 C125.568759,281.545477 125.648651,280.547095 125.731423,279.549779 C125.8655,277.934874 126.013018,276.321036 126.169495,274.708265 C126.618553,270.08008 127.140678,265.460428 127.638695,260.837577 C127.714214,260.13039 127.789199,259.424269 127.863865,258.717081 C128.138847,256.076061 128.403482,253.435041 128.631745,250.789755 C128.707583,249.911904 128.779582,249.032986 128.847101,248.154068 C128.87654,247.771142 128.906726,247.387148 128.932219,247.003155 C128.937659,246.90289 128.941926,246.802625 128.945019,246.701294 C128.959525,245.995173 128.907793,245.292252 128.841554,244.589331 C128.788648,244.030408 128.728063,243.471484 128.673664,242.912561 C128.650518,242.659765 128.628118,242.405903 128.608278,242.153108 C128.547266,241.322189 128.515587,240.488071 128.556439,239.655019 C128.583639,239.102495 128.645291,238.553172 128.736383,238.007048 C128.780862,237.763852 128.828434,237.521723 128.87526,237.278527 C129.017231,236.56174 129.162402,235.846019 129.314612,235.130299 C129.617434,233.707391 129.942335,232.289816 130.283022,230.875441 C131.417722,226.165124 132.726605,221.499607 133.99485,216.82449 C134.225459,215.969038 134.455321,215.113586 134.682624,214.258135 C135.265867,212.049107 135.83247,209.835813 136.352354,207.610786 C136.511072,206.931331 136.665629,206.25081 136.815173,205.569222 C136.852506,205.399625 136.889518,205.228961 136.926318,205.059364 C136.965144,204.879101 137.006636,204.698838 137.041409,204.517507 C137.050049,204.469508 137.057089,204.421509 137.063275,204.372443 C137.129941,203.780454 137.108928,203.178864 137.065729,202.585808 C137.00685,201.775156 136.893252,200.967704 136.733894,200.170918 C136.621896,199.611994 136.487179,199.055204 136.314915,198.511214 C136.202917,198.157087 136.078653,197.800826 135.906709,197.471232 C135.837804,197.338968 135.751192,197.219503 135.666287,197.096839 C135.586715,196.981641 135.506289,196.866443 135.424904,196.752312 C135.09691,196.293653 134.755049,195.843528 134.401456,195.403002 C133.528404,194.317155 132.584315,193.28784 131.593399,192.308657 C131.109994,191.830799 130.614216,191.36574 130.111505,190.908148 C130.060626,190.984947 130.012093,191.062812 129.964308,191.141744 C129.699672,191.586536 129.47557,192.053728 129.273866,192.53052 C129.048484,193.062777 128.851047,193.607834 128.671317,194.157158 C128.545879,194.540084 128.430361,194.926211 128.314203,195.31127 C127.904824,196.671246 127.509844,198.034422 127.129584,199.402931 C126.496209,201.681291 125.904006,203.971384 125.355536,206.272143 C125.172926,207.037996 124.995116,207.804916 124.822212,208.573969 C124.668615,209.256624 124.518004,209.940345 124.379553,210.626199 C124.115984,211.932843 123.889215,213.245886 123.671726,214.561063 C123.411784,216.155701 123.165388,217.752473 122.905979,219.348178 C122.66225,220.825485 122.406681,222.300659 122.107273,223.768367 C121.893624,224.814748 121.657895,225.85793 121.419712,226.900044 C120.899295,229.176271 120.340585,231.443964 119.752222,233.704191 C119.178579,235.907885 118.576136,238.104113 117.988626,240.303541 C117.864362,240.771799 117.740844,241.240057 117.618179,241.709382 C117.298505,242.943494 116.987364,244.178672 116.699902,245.421317 C116.381721,246.795159 116.090847,248.175401 115.831651,249.562043 C115.366379,252.049466 115.002866,254.555022 114.711458,257.068044 C114.586446,258.147491 114.472209,259.228005 114.373224,260.309586 C114.359891,260.465317 114.347944,260.622114 114.337598,260.778911 C114.305171,261.320768 114.294078,261.863692 114.319785,262.406616 C114.347197,262.987939 114.416529,263.567129 114.528208,264.138852 C114.675512,264.892972 114.894494,265.631092 115.12745,266.362813 C115.306967,266.927069 115.493097,267.488126 115.671334,268.052383 C115.737253,268.264646 115.802212,268.475842 115.866211,268.688105 C116.155912,269.669421 116.409988,270.65927 116.604757,271.662985 C116.761128,272.469371 116.873873,273.282157 116.983524,274.096009 C117.113228,275.059192 117.233546,276.023441 117.344264,276.988758 C117.730924,280.360431 118.000786,283.744905 118.147237,287.134711 C118.33582,291.497301 118.320034,295.867357 118.092624,300.227813 C118.033425,301.362726 117.959933,302.497639 117.872148,303.630419 C117.722071,305.567452 117.515995,307.502351 117.150134,309.41165 C116.966458,310.370567 116.741502,311.32095 116.4758,312.260667 C116.235057,313.112918 115.959862,313.954503 115.673894,314.791822 C115.352406,315.721939 115.023559,316.649922 114.702071,317.580039 C114.112215,319.304809 113.557451,321.042378 113.087273,322.802347 C112.672667,324.355386 112.326433,325.924425 111.95588,327.48813 C111.890921,327.759059 111.825109,328.029987 111.758443,328.300916 C111.598019,328.939838 111.431089,329.577693 111.245279,330.210215 C110.982244,331.1062 110.683902,331.991517 110.336068,332.858702 C110.003381,333.687487 109.625894,334.49814 109.202648,335.285326 C108.772363,336.085311 108.295251,336.859698 107.778247,337.606351 C107.430947,338.107676 107.066046,338.5962 106.686106,339.074059 C106.567388,339.222323 106.447177,339.370587 106.325579,339.517784 C106.235234,339.626582 106.145103,339.73538 106.049851,339.839912 C105.882067,340.024442 105.702764,340.198305 105.516314,340.363636 C105.078135,340.751896 104.600277,341.095356 104.105245,341.407884 C103.539069,341.765211 102.947293,342.082005 102.337597,342.358267 C102.049602,342.488398 101.757447,342.609996 101.461452,342.720927 C101.232443,342.807326 101.001194,342.886258 100.767811,342.959856 C99.32837,343.409982 97.7695709,343.611578 96.2845838,343.269184 C96.0709343,343.219052 95.8598447,343.15932 95.6527017,343.086788 C95.3794265,342.991856 95.1128713,342.877725 94.8567691,342.74226 C94.5328282,342.572663 94.2253136,342.37 93.9409453,342.139604 C93.5723119,341.840943 93.2431444,341.494282 92.9621893,341.111356 C92.6081689,340.629231 92.3324405,340.092707 92.1344706,339.528451 C92.0630052,339.324721 92.0015663,339.117791 91.9495139,338.908728 C91.867062,338.577001 91.8049831,338.23994 91.7395976,337.905013 C91.5967735,337.173292 91.4686691,336.439439 91.3546445,335.702385 C90.9609448,333.160563 90.7363087,330.594209 90.6495903,328.023588 C90.4031946,320.72025 91.267606,313.436112 92.3532401,306.227707 C92.5278504,305.068261 92.7081138,303.909881 92.8910439,302.751502 C93.1442661,301.14833 93.4000482,299.545158 93.6517771,297.941987 C93.7576952,297.262532 93.8627601,296.583077 93.9667582,295.902556 C94.1279287,294.834842 94.281846,293.767127 94.4380032,292.698346 C94.6104801,291.5453 94.7939436,290.39332 94.9674872,289.240274 C95.18487,287.767234 95.3802799,286.287793 95.4604918,284.799819 C95.524384,283.61584 95.5153175,282.423328 95.3742,281.244682 C95.2970813,280.600427 95.1802834,279.960438 95.016233,279.33325 C94.8778887,278.803126 94.7047718,278.282601 94.5215217,277.766344 C94.1353952,276.680497 93.6718301,275.623449 93.1213332,274.610133 C92.6451816,273.734415 92.1039645,272.898163 91.5424811,272.074711 C91.0969424,271.427256 90.6428704,270.785134 90.1971183,270.137679 C89.9273631,269.743019 89.6600611,269.346226 89.4018257,268.943033 C89.0346855,268.370244 88.6839717,267.786787 88.3556575,267.190531 C87.6474034,265.904154 87.0476274,264.561244 86.5520628,263.178869 C86.3861991,262.71701 86.2316418,262.249819 86.0873244,261.780494 C86.0059391,261.515965 85.9258339,261.25037 85.8569285,260.981574 C85.7938896,260.735179 85.7388505,260.487717 85.6912781,260.238121 C85.4790151,259.125607 85.4228028,257.994961 85.4123497,256.865381 C85.409683,256.210459 85.4170429,255.556604 85.4137363,254.901682 C85.4052031,254.09423 85.3775769,253.280377 85.1915536,252.491058 C85.1492076,252.323594 85.1041951,252.156131 85.0600359,251.989734 C84.7184953,250.723623 84.3549817,249.463912 83.9688552,248.211667 C82.8279687,244.509333 81.5215385,240.860331 80.2487077,237.201729 C80.0003921,236.484941 79.7527165,235.767088 79.5073875,235.048167 C78.6668691,232.574611 77.8558968,230.090388 77.1391095,227.577366 C76.9684458,226.978976 76.8029021,226.37952 76.6435449,225.777931 C76.4936809,225.212608 76.3446702,224.646218 76.2205124,224.074495 C76.0843015,223.447306 75.9740101,222.814783 75.8892116,222.177995 C75.6858019,220.651622 75.6316161,219.108182 75.7016949,217.570076 C75.7708137,216.052237 75.9599303,214.541863 76.2278723,213.04749 C76.7668494,210.04061 77.6221942,207.104128 78.4296466,204.16338 C78.5679908,203.654589 78.7051617,203.146865 78.8391327,202.637007 C78.9477174,202.219948 79.0548089,201.802889 79.1574204,201.383696 C79.8349551,198.620012 80.3563325,195.778462 80.2423079,192.920913 C80.2193749,192.34599 80.1707358,191.771066 80.0939371,191.20041 C80.0247117,190.686286 79.93298,190.175361 79.8338884,189.665504 C79.6890376,188.920984 79.5218939,188.18073 79.3404572,187.444743 C79.0132096,186.1157 78.6397762,184.79839 78.2553564,183.48428 C77.9221356,182.346167 77.580595,181.210187 77.2455609,180.072074 C77.1482826,179.739279 77.0516443,179.406485 76.955326,179.073691 C76.6654112,178.059309 76.3823229,177.042794 76.1227008,176.019879 C75.5896969,173.918582 75.1475714,171.791687 74.9013891,169.637058 C74.7216589,168.063753 74.6471002,166.477648 74.715259,164.894742 C74.7924843,163.101707 75.0549864,161.315072 75.525378,159.58177 C75.6440959,159.144444 75.7758269,158.710318 75.920251,158.280459 C76.0214759,157.979665 76.1272874,157.679937 76.2447253,157.384475 C76.6312785,156.412759 77.1401761,155.495442 77.7068861,154.618657 C78.2300768,153.808005 78.8020134,153.031486 79.3585902,152.2443 C79.4905345,152.055503 79.6214122,151.866706 79.7509032,151.676843 C79.9610328,151.363248 80.1657225,151.046454 80.3535592,150.718993 C80.4795303,150.50033 80.5968616,150.276334 80.7137662,150.051272 C80.8633102,149.76541 81.0092276,149.476349 81.1523717,149.187287 C81.5245252,148.433167 81.8766256,147.670514 82.2256327,146.905727 C82.6634917,145.939344 83.096444,144.969762 83.5367562,144.004445 C84.0014946,142.993263 84.4773262,141.986348 84.9892105,140.997565 C85.7050378,139.61519 86.4896639,138.26588 87.3861814,136.992303 C87.7361485,136.495245 88.1027554,136.00992 88.4873885,135.538462 C88.7269576,135.245134 88.9751666,134.959272 89.2234822,134.673411 C89.4500382,134.412082 89.6767008,134.153953 89.9053901,133.894758 C90.701216,132.99344 91.5092017,132.102789 92.3261473,131.219605 C95.317561,127.988729 98.4265193,124.868784 101.509558,121.725373 C102.093334,121.12805 102.676577,120.530728 103.258114,119.931272 C104.868539,118.267301 106.465204,116.589464 108.020483,114.874294 C109.007985,113.78418 109.976288,112.678067 110.926671,111.555953 C110.98075,111.491954 111.033656,111.425822 111.085388,111.35969 C111.292318,111.086628 111.472902,110.794367 111.601219,110.476506 C111.831082,109.905849 111.890494,109.283993 111.94244,108.677071 C111.973799,108.280278 112.001959,107.882418 112.035345,107.485625 C112.085797,106.924569 112.151823,106.365645 112.252621,105.812055 C112.389579,105.057935 112.598322,104.316615 112.87853,103.604094 C113.232764,102.702777 113.709875,101.854792 114.22144,101.034539 C115.250328,99.385502 116.471213,97.8697955 117.654019,96.3306228 C117.851775,96.0714273 118.048679,95.8111653 118.243128,95.5498366 C118.721627,94.9002481 119.185618,94.2389265 119.599478,93.546672 C119.926192,92.9994817 120.227733,92.4362917 120.520848,91.8709684 C121.081052,90.7904542 121.597416,89.688607 122.104607,88.5814266 C122.612438,87.4667797 123.111096,86.3467995 123.61722,85.2300193 C124.418912,83.4732504 125.243858,81.7250147 126.178455,80.0333113 C127.341741,77.9277486 128.676117,75.9075177 130.283555,74.1123494 C131.12802,73.1694328 132.045231,72.2915817 133.03316,71.500129 C133.623869,71.0265374 134.240072,70.5881452 134.874621,70.1753525 C136.496352,69.1215045 138.225815,68.2340535 140.034743,67.548199 C141.279094,67.075674 142.559071,66.6991474 143.859848,66.418619 C144.808845,66.212756 145.768614,66.0591587 146.733611,65.9514273 C147.368053,65.8810285 148.004628,65.8308961 148.642164,65.7999633 C153.024913,65.5855671 157.394009,66.2682216 161.65996,67.2164715 C162.263256,67.3508691 162.865272,67.4906 163.466328,67.6345975 C164.363485,67.8489937 165.258189,68.0729897 166.15236,68.3001857 C167.621454,68.674579 169.089162,69.056439 170.558896,69.428699 C171.567304,69.6825612 172.576567,69.9332234 173.589562,70.1689526 C174.369281,70.3502827 175.151134,70.5241463 175.93512,70.6852101 C176.49511,70.8004081 177.057234,70.9092062 177.619357,71.0105377 C181.238493,71.6601262 184.962161,71.9982535 188.618629,71.4659963 C189.190352,71.3827978 189.759942,71.2793329 190.323132,71.1524018 C190.85219,71.0340039 191.375914,70.8953397 191.895371,70.7406758 C192.362563,70.6020116 192.826555,70.449481 193.285213,70.2841506 C196.842484,69.0063065 200.089359,67.0106085 203.196504,64.8858461 C203.958091,64.365322 204.712211,63.8351981 205.464198,63.3008075 C206.489246,62.5733537 207.508961,61.8405667 208.531877,61.1120463 C208.92227,60.8357845 209.312663,60.5605894 209.703056,60.2864609 C211.228362,59.2240797 212.769668,58.1819648 214.35684,57.2145153 C215.182426,56.7121242 216.021877,56.234266 216.865596,55.7638743 C218.095441,55.0780198 219.334885,54.4102982 220.586063,53.766043 C222.45483,52.8017934 224.350263,51.8887429 226.273429,51.0396913 C228.111263,50.2279723 229.974697,49.4759856 231.86053,48.7826645 C234.483417,47.8194816 237.147903,46.9725633 239.834789,46.2067102 C242.315812,45.4995227 244.816034,44.8616673 247.322657,44.2515448 C247.542386,44.199279 247.542386,44.199279 247.763182,44.1491466 C248.190908,44.0574149 248.620767,43.9742163 249.052759,43.9080842 C249.711948,43.8078193 250.376469,43.7427538 251.042057,43.7150209 C251.63938,43.690488 252.238836,43.6958213 252.836159,43.7256874 C253.271351,43.7470204 253.705477,43.7822197 254.139603,43.8206191 C254.84679,43.8888845 255.551844,43.9656832 256.259032,44.032882 C256.825422,44.0830144 257.391812,44.1246137 257.960335,44.1459466 C258.592857,44.1694129 259.226446,44.1726128 259.858968,44.181146 C260.706953,44.1928791 261.556005,44.2014123 262.40399,44.2067456 C264.124492,44.2184787 265.846062,44.2152787 267.566565,44.1971457 C269.167603,44.1800794 270.768641,44.1523465 272.36968,44.1310136 C272.860338,44.1256803 273.350996,44.1214137 273.841654,44.1182138 C275.393626,44.1118139 276.945599,44.126747 278.496505,44.1768794 C280.858063,44.2536781 283.217488,44.3998088 285.573713,44.577939 C286.962488,44.6824705 288.351263,44.7934018 289.738972,44.9213996 C289.88617,44.935266 290.033367,44.9512657 290.180564,44.9683321 C291.00615,45.068597 291.824269,45.2147277 292.641321,45.3768582 C293.287709,45.5091225 293.931965,45.6477867 294.578353,45.7779177 C295.342073,45.9293817 296.110059,46.0712459 296.886579,46.1363114 C297.160708,46.1597777 297.436969,46.1715108 297.712164,46.1811106 C298.144157,46.1971103 298.577216,46.2035102 299.010275,46.2003103 C299.885993,46.1928437 300.76171,46.1437779 301.631028,46.046713 C302.46408,45.952848 303.292866,45.8152504 304.110984,45.6360536 C305.716289,45.2851265 307.281062,44.7763355 308.812768,44.1875459 C309.697019,43.8472853 310.575937,43.487825 311.432455,43.0824988 C312.048977,42.791304 312.653767,42.4755762 313.248956,42.1417155 C313.846279,41.8057214 314.434002,41.4515943 315.028125,41.1092004 C315.140123,41.0462682 315.251054,40.983336 315.363052,40.9204037 C315.816377,40.6729415 316.275036,40.4361456 316.747561,40.2281493 C317.354483,39.9614874 317.981672,39.7406913 318.622728,39.5700276 C320.303764,39.1209689 322.056267,39.0068376 323.789569,39.0004377 C324.493557,38.9972378 325.197544,39.0121709 325.901532,39.0260373 C327.768166,39.06337 329.634799,39.1263022 331.4993,39.2265671 C333.71686,39.344965 335.933354,39.5156286 338.142382,39.7556244 C340.14448,39.9721539 342.141245,40.2452157 344.128409,40.5758765 C348.397134,41.2873306 352.613592,42.2750464 356.788452,43.4078264 C358.258293,43.8067526 359.7228,44.2227453 361.183041,44.6494044 C362.451285,45.0205978 363.721662,45.3875247 364.96964,45.8205837 C367.2416,46.6077697 369.453828,47.5570862 371.678855,48.4658702 C371.943384,48.5725349 372.207912,48.6802664 372.473508,48.7869311 C373.442024,49.1709243 374.41374,49.5453177 375.399322,49.8813118 C375.843048,50.0327757 376.28784,50.1821064 376.739032,50.3069042 C377.203024,50.4359686 377.675549,50.5373002 378.151274,50.6151654 C380.047773,50.9212934 381.985872,50.8359615 383.886639,50.6151654 C384.973553,50.4882344 386.054067,50.3165041 387.132448,50.1330406 C388.107364,49.9677102 389.081213,49.79278 390.057196,49.6274496 C390.391057,49.5709173 390.725984,49.5165182 391.059845,49.4621192 C392.204358,49.2829224 393.351005,49.1229252 394.504051,49.0194604 C395.182439,48.9586614 395.86296,48.9138622 396.544548,48.9063957 C396.749344,48.9063957 396.749344,48.9063957 396.953074,48.9095956 C397.289068,48.9202621 397.625062,48.9362618 397.958923,48.966128 C398.610645,49.0247936 399.2581,49.1261251 399.898089,49.265856 C400.515678,49.4013203 401.1258,49.5730506 401.725256,49.7778469 C402.192448,49.9367774 402.65324,50.1149076 403.105499,50.3090375 C404.831335,51.0514244 406.448373,52.030607 407.985412,53.1036547 C409.473386,54.1425697 410.899494,55.2636165 412.344802,56.3601304 C412.579464,56.5361273 412.814127,56.7121242 413.049856,56.8870544 C413.496781,57.2155819 413.94584,57.5409095 414.404499,57.8523706 C414.781025,58.1072995 415.163952,58.3515618 415.549012,58.5926242 C416.083402,58.9254183 416.620993,59.2518125 417.170316,59.5590071 C417.902037,59.9696665 418.654023,60.3483265 419.433743,60.6565877 C419.9948,60.8784504 420.571856,61.0693804 421.167045,61.1749785 C421.443307,61.2240443 421.721702,61.2528438 422.001164,61.2645769 C422.23476,61.2741767 422.468356,61.2720434 422.701952,61.2667102 C423.036879,61.2560437 423.37074,61.2432439 423.705667,61.2347108 C424.141926,61.2261776 424.577118,61.2293775 425.012311,61.2635103 C425.652299,61.3115094 426.285888,61.4224408 426.904544,61.5952377 C427.658664,61.806434 428.383984,62.1093619 429.078372,62.4709555 C429.533831,62.708818 429.97329,62.9733466 430.405282,63.2506751 C430.761542,63.4789377 431.112469,63.7157335 431.45913,63.9589292 C433.804688,65.6090333 435.907051,67.5684653 438.054213,69.4606985 C438.313409,69.6868278 438.572604,69.9129571 438.831799,70.1390865 C440.815764,71.8862555 442.734664,73.7123565 444.485033,75.697388 C445.637012,77.0040316 446.720726,78.3778739 447.65191,79.8519812 C448.124435,80.6007679 448.554294,81.3762208 448.94042,82.1730067 C449.36388,83.0465913 449.72654,83.946842 450.016668,84.8737589 C450.146799,85.2929515 450.26413,85.7164107 450.369728,86.1420031 C450.463593,86.5163965 450.551059,86.8907899 450.644924,87.2651833 C450.67479,87.3793146 450.704656,87.4923792 450.735589,87.6054439 C450.793188,87.8091736 450.85612,88.0107701 450.927585,88.2091665 C451.003317,88.4224961 451.093982,88.6304924 451.193181,88.8320888 C451.407577,89.2683478 451.668905,89.6800738 451.949434,90.0758002 C452.328094,90.6091241 452.74622,91.1125818 453.171812,91.608573 C454.155261,92.7498862 455.205909,93.8336003 456.358956,94.8053164 C457.336005,95.6277019 458.38452,96.357289 459.412768,97.1124756 C459.606898,97.256473 459.801028,97.4004705 459.993025,97.5466012 C460.718345,98.1023247 461.424466,98.6815145 462.097521,99.3001702 C463.119369,100.23882 464.065486,101.255336 464.956137,102.317717 C465.221732,102.634511 465.481994,102.955572 465.73799,103.278766 C465.981185,103.587028 466.222248,103.897422 466.444111,104.221683 C466.773705,104.701675 467.068099,105.204066 467.325162,105.725656 C467.695288,106.47871 467.983283,107.268029 468.213679,108.073348 C468.438742,108.862668 468.605139,109.66692 468.800335,110.463706 C468.840868,110.623703 468.882467,110.7837 468.9262,110.943697 C469.065931,111.435422 469.231261,111.918613 469.462724,112.376205 C469.555522,112.557535 469.656854,112.734599 469.766718,112.905263 C469.856317,113.044994 469.951248,113.180458 470.045113,113.314855 C470.166711,113.488719 470.290442,113.660449 470.416307,113.831113 C470.957097,114.566033 471.533087,115.274287 472.135743,115.958009 C473.353855,117.338251 474.679698,118.620361 476.058874,119.83954 C477.830576,121.404312 479.689743,122.86562 481.563843,124.304528 C482.931285,125.349842 484.304061,126.387691 485.66937,127.435139 C488.568519,129.666566 491.431401,131.964125 494.008423,134.567812 C495.416398,135.989654 496.736908,137.501094 497.914487,139.119199 C499.129399,140.790636 500.190713,142.574071 501.045098,144.456704 C501.30216,145.020961 501.540023,145.593751 501.758685,146.17294 C501.957082,146.696664 502.138412,147.225722 502.295209,147.762246 C502.674936,149.069956 502.911732,150.413932 503.050396,151.767508 C503.171994,152.954687 503.215726,154.148266 503.241326,155.340778 C503.256259,156.126897 503.265859,156.913017 503.281858,157.699136 C503.317058,159.216976 503.38639,160.742282 503.676518,162.236656 C504.241841,165.149671 505.366088,167.910156 506.381537,170.68664 C506.504201,171.022634 506.624733,171.360761 506.74313,171.697822 C506.95646,172.311144 507.162323,172.925533 507.353253,173.545256 C507.553783,174.193778 507.736179,174.846566 507.90151,175.504688 C508.243904,176.871064 508.489233,178.261972 508.63643,179.662481 C508.786828,181.088589 508.83056,182.52963 508.683363,183.958938 C508.598031,184.78879 508.446567,185.610109 508.247104,186.420761 C508.012441,187.373278 507.71378,188.308728 507.446051,189.251644 C507.396986,189.425508 507.350053,189.600438 507.30312,189.774302 C507.11539,190.490022 506.951127,191.21001 506.820996,191.93853 C506.745264,192.366256 506.681265,192.797182 506.622599,193.228107 C506.547934,193.776364 506.480735,194.324621 506.421003,194.873945 C506.278072,196.175255 506.177807,197.480832 506.104208,198.787476 C506.01781,200.313849 505.964478,201.840221 505.889812,203.366594 C505.869546,203.759121 505.848213,204.151647 505.824747,204.54524 C505.767148,205.471091 505.698882,206.395874 505.607151,207.319591 C505.495153,208.447038 505.351155,209.570218 505.174092,210.689131 C505.096226,211.174456 505.013028,211.659781 504.923429,212.144039 C504.860497,212.4843 504.800765,212.826694 504.721833,213.163754 C504.672767,213.372817 504.614101,213.579747 504.549036,213.784543 C504.402905,214.242135 504.219442,214.686927 504.014645,215.12212 C503.808782,215.562645 503.58052,215.992504 503.365057,216.427697 C503.308525,216.546094 503.251992,216.664492 503.199726,216.785024 C503.130394,216.947154 503.058929,217.114618 503.029063,217.289548 C503.005597,217.453812 502.987464,217.619142 502.968264,217.784473 C502.858399,218.794588 502.808267,219.80897 502.785867,220.823352 C502.762401,221.8772 502.768801,222.931048 502.781601,223.984896 C502.8008,225.341672 502.831733,226.697381 502.849866,228.054157 C502.869066,229.558131 502.872266,231.062104 502.814667,232.566078 C502.765601,233.819389 502.674936,235.071633 502.503205,236.314278 C502.442407,236.75907 502.369875,237.201729 502.285609,237.643321 C502.193878,238.114779 502.091479,238.584104 501.989081,239.053429 C501.756552,240.130744 501.51229,241.206991 501.257361,242.280039 C500.502174,245.473582 499.659522,248.646859 498.798738,251.813737 C498.131016,254.24996 497.454762,256.684051 496.784907,259.119207 C496.172651,261.360234 495.566795,263.603395 494.994005,265.854022 C494.644145,267.228931 494.307084,268.607039 493.986023,269.988348 C493.906024,270.332876 493.827092,270.677403 493.750294,271.02193 C493.683095,271.318458 493.61483,271.616053 493.555097,271.913648 C493.491098,272.235775 493.436699,272.560036 493.392967,272.885364 C493.260702,273.868813 493.23297,274.870395 493.371634,275.854911 C493.462299,276.4981 493.624429,277.130622 493.849492,277.740744 C494.247352,278.813792 494.831875,279.807908 495.471863,280.752958 C495.946522,281.454812 496.454246,282.134267 496.967303,282.808388 C497.402496,283.379045 497.840888,283.947568 498.277147,284.518224 C498.430744,284.720887 498.584342,284.924617 498.737939,285.12728 C499.525125,286.183262 500.290978,287.254176 500.998165,288.365623 C501.669087,289.420538 502.286676,290.509585 502.856266,291.622099 C503.304258,292.49355 503.721317,293.382067 504.104244,294.284452 C504.396505,294.970306 504.6685,295.66576 504.919163,296.368681 C505.115426,296.919072 505.298889,297.474795 505.46742,298.034785 C506.075409,300.052883 506.495668,302.131779 506.653532,304.234142 C506.816729,306.41757 506.689798,308.627664 506.193807,310.762026 C506.02421,311.491614 505.811947,312.210534 505.555951,312.914522 C505.217824,313.846772 504.802898,314.751289 504.317573,315.616341 C503.625319,316.849385 502.786934,317.998165 501.834417,319.042413 C501.535756,319.368807 501.226428,319.685602 500.9075,319.99173 C500.734703,320.158127 500.558707,320.323457 500.37631,320.480254 C500.174713,320.651985 499.964584,320.813049 499.745921,320.963446 C499.103799,321.408238 498.398745,321.754899 497.669158,322.030094 C497.129434,322.232757 496.57691,322.395954 496.02012,322.547418 C495.664927,322.643416 495.3076,322.734081 494.951339,322.827946 C494.777476,322.873812 494.604679,322.922878 494.429748,322.967677 C494.125754,323.040209 493.819626,323.104208 493.510298,323.149007 C492.898042,323.237539 492.27512,323.261005 491.658597,323.204473 C491.002609,323.144741 490.356221,322.99541 489.743965,322.754347 C489.308772,322.582617 488.891713,322.366088 488.50132,322.107959 C488.228258,321.928762 487.967996,321.730366 487.721601,321.514903 C487.54347,321.359172 487.372807,321.193842 487.210676,321.022111 C486.055497,319.8008 485.328043,318.241361 484.839518,316.648856 C484.741387,316.328861 484.651788,316.005667 484.570723,315.681406 C484.474725,315.296346 484.389393,314.908086 484.312594,314.51876 C484.211263,314.008902 484.125931,313.496911 484.050199,312.983854 C483.942467,312.247867 483.857136,311.509747 483.78247,310.77056 C483.686472,309.813777 483.61074,308.85486 483.524341,307.897011 C483.499809,307.643148 483.475276,307.390353 483.448609,307.137557 C483.42301,306.910361 483.396344,306.683165 483.361144,306.457036 C483.347278,306.368504 483.333412,306.279972 483.315279,306.192507 C483.306745,306.147708 483.299279,306.097576 483.284346,306.053843 C483.266213,306.001577 483.24168,305.951445 483.218214,305.902379 C483.169148,305.799981 483.116882,305.698649 483.062483,305.598385 C482.913152,305.325323 482.749955,305.059727 482.582491,304.797332 C482.162232,304.137077 481.708907,303.497088 481.249182,302.864566 C479.930805,301.054465 478.534563,299.300896 477.162854,297.531327 C476.902592,297.194267 476.64233,296.856139 476.385268,296.516945 C475.863677,295.827891 475.34742,295.133503 474.881294,294.406049 C474.75863,294.207653 474.639165,294.009256 474.519701,293.809793 C474.129308,293.150605 473.748515,292.485017 473.387988,291.807695 C472.626401,290.374121 471.94908,288.89148 471.427489,287.352308 C471.200293,286.681386 471.001897,285.998732 470.840833,285.309677 L470.425907,284.549157 C470.24351,284.186497 470.072846,283.81637 469.913916,283.443043 C469.262194,281.914537 468.777936,280.316699 468.374743,278.707127 C467.880885,276.734896 467.509692,274.732798 467.212097,272.722167 C466.839837,270.211278 466.581708,267.683322 466.425978,265.150034 C466.367312,264.192184 466.324646,263.233268 466.30118,262.274352 C466.29158,261.897825 466.286247,261.521298 466.283047,261.144772 C466.28198,260.875976 466.279847,260.606114 466.289447,260.336253 C466.318246,259.503201 466.402511,258.672282 466.494243,257.844563 C466.582775,257.040311 466.680906,256.237125 466.769438,255.432873 C466.803571,255.109678 466.836637,254.786484 466.86757,254.46329 C466.941168,253.661171 467.003034,252.857985 467.014767,252.051599 C467.0233,251.516142 467.012634,250.977485 466.955035,250.444161 C466.923035,250.158299 466.879303,249.872438 466.803571,249.594043 C466.775838,249.493778 466.743839,249.39458 466.703306,249.298581 C466.693706,249.278315 466.684106,249.256982 466.674506,249.236716 C466.668107,249.226049 466.662773,249.21005 466.65424,249.201516 C466.632907,249.176983 466.609441,249.154584 466.587041,249.131118 L466.49851,249.034053 C466.428111,248.950854 466.406778,248.927388 466.341712,248.842056 C466.211581,248.673526 466.095317,248.494329 465.991852,248.307665 C465.72519,247.826607 465.55346,247.29755 465.438262,246.761026 C465.301731,246.123171 465.240932,245.471449 465.209999,244.820794 C465.154533,243.684814 465.188666,242.544568 465.254798,241.409654 C465.33373,240.075278 465.461728,238.743035 465.636658,237.417192 C465.72519,236.744137 465.825455,236.071082 465.955586,235.406561 C465.813722,234.669507 465.687857,233.93032 465.575859,233.190066 C465.128934,230.236519 464.901738,227.258438 464.621209,224.285691 C464.583877,223.896364 464.545477,223.507038 464.506012,223.118778 C464.422813,222.324126 464.335348,221.53054 464.235083,220.73802 C464.093219,219.622307 463.928955,218.50766 463.736958,217.399413 C463.546029,216.296499 463.322032,215.201052 463.086303,214.106671 C462.829241,212.913092 462.557246,211.722713 462.267118,210.535534 C461.423399,207.075329 460.42715,203.651389 459.246371,200.290382 C457.958927,196.623247 456.453887,193.036111 454.806983,189.51724 C454.363258,188.56899 453.909932,187.625006 453.448074,186.686356 C453.202745,186.188232 452.959549,185.690107 452.706754,185.196249 C452.669421,185.125851 452.629955,185.055452 452.589422,184.98612 C452.223562,184.367464 451.789437,183.781875 451.285979,183.266684 C451.25078,183.231484 451.25078,183.231484 451.214513,183.196285 L451.191047,183.172819 C451.140915,183.249617 451.091849,183.328549 451.042783,183.406415 C450.800654,183.803207 450.578791,184.211734 450.381462,184.634126 C449.896137,185.678374 449.556943,186.785555 449.31588,187.910868 C449.040685,189.197245 448.890288,190.509222 448.799623,191.821199 C448.76869,192.284124 448.744157,192.747049 448.726024,193.211041 C448.696158,193.950228 448.680158,194.689415 448.669492,195.428602 C448.653492,196.509116 448.649226,197.58963 448.635359,198.670144 C448.630026,198.996538 448.623626,199.323999 448.616159,199.650394 C448.58416,200.920771 448.525494,202.190082 448.467895,203.459393 C448.404963,204.852435 448.340964,206.246543 448.279099,207.639585 C448.240699,208.551569 448.203367,209.463553 448.168167,210.375537 C448.091369,212.413901 448.028437,214.452265 447.99857,216.490629 C447.976171,217.992469 447.970838,219.494309 447.997504,220.996149 C448.02097,222.307059 448.067903,223.619036 448.168167,224.926746 C448.2055,225.417404 448.250299,225.906995 448.308965,226.39552 C448.359097,226.816846 448.416696,227.236039 448.499895,227.652031 C448.719624,228.758145 449.079085,229.831193 449.471611,230.886107 C449.87907,231.979421 450.325996,233.056735 450.755855,234.14045 C450.869986,234.429511 450.983051,234.718573 451.095049,235.009768 C451.538774,236.182013 451.951567,237.367059 452.266228,238.581971 C452.683287,240.199009 452.922217,241.865113 452.872084,243.537617 C452.851818,244.244804 452.779286,244.951992 452.654488,245.648513 C452.538223,246.299168 452.372893,246.94129 452.199029,247.579145 C451.968633,248.42393 451.706238,249.260182 451.41931,250.088967 C449.994268,254.203028 447.950571,258.060026 445.985806,261.933024 C445.826876,262.247685 445.669012,262.56128 445.511148,262.875941 C445.277552,263.343133 445.046089,263.811391 444.817827,264.280716 C443.370386,267.268396 442.047742,270.352075 441.343755,273.609618 C441.127225,274.610133 440.969362,275.624515 440.88403,276.646364 C440.839231,277.182888 440.807231,277.722611 440.816831,278.261269 C440.826431,278.788193 440.869097,279.31405 440.928829,279.837774 C440.994961,280.410564 441.083493,280.98122 441.186958,281.548677 C441.442953,282.957719 441.788547,284.350761 442.18854,285.724603 C442.533067,286.905382 442.919194,288.073361 443.353319,289.224274 C443.49625,289.602934 443.644514,289.979461 443.800245,290.353854 C443.901576,290.599183 444.002908,290.844512 444.115972,291.084508 C444.144772,291.14424 444.174638,291.201839 444.206638,291.259438 C444.374101,291.552767 444.569298,291.826895 444.767694,292.09889 C444.968224,292.373019 445.170887,292.643947 445.37035,292.918076 C445.484482,293.078073 445.484482,293.077006 445.597546,293.23807 C445.738344,293.443933 445.878075,293.650863 446.010339,293.863126 C446.270601,294.282318 446.505264,294.718577 446.70046,295.171902 C446.898857,295.633761 447.052454,296.114819 447.181518,296.600144 C447.478046,297.714791 447.615644,298.86357 447.600711,300.016617 C447.593244,300.599006 447.547378,301.180329 447.481246,301.758453 C447.404448,302.429374 447.300983,303.097095 447.212451,303.765884 C447.191118,303.933347 447.171918,304.099744 447.153785,304.266141 C447.105786,304.742933 447.074853,305.219725 447.08552,305.698649 C447.09192,305.995178 447.116453,306.291706 447.140986,306.587167 C447.176185,306.99996 447.216718,307.412752 447.261517,307.824478 C447.386315,308.981791 447.544178,310.135904 447.708442,311.287884 C447.907905,312.665993 448.118035,314.041968 448.318565,315.419011 C448.770823,318.579488 449.164416,321.755965 449.194283,324.952709 C449.213482,326.997472 449.082285,329.046503 448.727091,331.0614 C448.38043,333.026166 447.818307,334.954665 447.010855,336.780766 C446.343133,338.294339 445.519681,339.737513 444.575698,341.095356 C443.704246,342.349734 442.730397,343.53158 441.692549,344.65156 C439.288325,347.243514 436.549173,349.489874 433.865487,351.781034 C433.502827,352.091428 433.1423,352.403956 432.781773,352.716484 C431.027138,354.253523 429.310901,355.847095 427.818661,357.644396 C426.997342,358.633179 426.241089,359.681694 425.6075,360.800607 C425.379238,361.204867 425.165908,361.618726 424.969645,362.038985 C423.846465,364.441076 423.257675,367.050097 422.864082,369.660184 C422.780884,370.207374 422.706218,370.755631 422.639019,371.304955 C422.551554,372.010009 422.471556,372.71613 422.39689,373.423317 C422.273159,374.589163 422.157961,375.756076 422.03423,376.921922 C422.001164,377.219517 421.969165,377.517111 421.935032,377.814706 C421.847567,378.567759 421.755835,379.319746 421.64917,380.070666 C421.442241,381.53304 421.185178,382.991148 420.841718,384.427922 C420.580389,385.521236 420.275328,386.606017 419.880668,387.658798 C419.475342,388.740379 418.983617,389.787827 418.450294,390.810743 C417.800705,392.054454 417.090318,393.264033 416.39913,394.485344 C416.240199,394.769073 416.082335,395.052801 415.926605,395.338662 C415.494613,396.137582 415.079687,396.947167 414.728759,397.786619 C414.462097,398.424474 414.234902,399.079396 414.017305,399.735385 C413.670645,400.782833 413.364517,401.844147 413.095722,402.915062 C412.46,405.45155 412.031207,408.037104 411.753879,410.635458 C411.51495,412.878619 411.388019,415.132552 411.347486,417.387552 C411.300553,420.020572 411.370952,422.654872 411.526683,425.283306 C411.727213,428.663192 412.066407,432.034973 412.504799,435.392033 C412.735195,437.158082 412.983724,438.922211 413.261052,440.681433 C413.285585,440.833217 413.312251,440.984788 413.338917,441.136252 C413.438116,441.681415 413.553314,442.223486 413.685578,442.761716 C413.897841,443.627408 414.153836,444.482219 414.440765,445.326257 C414.944222,446.806765 415.542612,448.253672 416.164467,449.68778 C416.58686,450.664403 417.017786,451.637932 417.442311,452.614022 C417.573509,452.918123 417.70364,453.222544 417.832704,453.527286 C418.488693,455.082458 419.108415,456.653097 419.631073,458.258402 C419.764404,458.669701 419.892401,459.083027 420.013999,459.498273 C420.108931,459.825414 420.200663,460.153515 420.280661,460.484496 C420.448125,461.168857 420.577189,461.862605 420.668921,462.560939 C420.749986,463.174901 420.803319,463.792491 420.831051,464.411146 C420.852384,464.884525 420.859851,465.358543 420.853451,465.832348 C420.806519,469.360179 420.033199,472.822624 419.22788,476.240697 C419.065749,476.930391 418.901486,477.619766 418.741488,478.309994 C418.66469,478.643428 418.590024,478.977075 418.515359,479.311042 C418.296696,480.307078 418.0919,481.3061 417.936169,482.313976 C417.864704,482.769755 417.798572,483.2282 417.761239,483.688245 C417.737773,483.994906 417.728173,484.302847 417.73244,484.610469 C417.751639,486.099402 418.078033,487.567856 418.496159,488.990764 C418.744688,489.833203 419.02735,490.664868 419.319611,491.4928 C419.598007,492.281586 419.883868,493.067492 420.16333,493.855745 C420.272128,494.162513 420.378793,494.469601 420.484391,494.777222 C420.69772,495.409317 420.905717,496.043226 421.09558,496.683108 C421.425174,497.797542 421.703569,498.928508 421.889166,500.076328 C422.038497,500.995352 422.137695,501.927602 422.124895,502.859532 C422.113162,503.829648 421.993697,504.795391 421.829434,505.750574 C421.632104,506.903727 421.369709,508.044614 421.131846,509.18966 C421.07958,509.443096 421.029448,509.696745 420.979315,509.950713 C420.844918,510.672727 420.724387,511.398368 420.671054,512.131688 C420.634788,512.646346 420.629455,513.166763 420.696654,513.679181 C420.755319,514.127386 420.873717,514.570472 421.088114,514.970144 C421.368642,515.492269 421.798501,515.905701 422.267826,516.258335 C422.752084,516.621315 423.276875,516.927976 423.802732,517.225465 C424.240058,517.47314 424.68165,517.714309 425.120042,517.961025 C425.320572,518.07569 425.521102,518.190994 425.720565,518.308645 C426.478951,518.762077 427.217072,519.250495 427.89546,519.818699 C428.243187,520.109787 428.587714,520.411861 428.858643,520.777615 L429.00264,520.999371 L371.573257,520.999371 C371.852719,519.553957 371.699121,518.308539 370.951401,517.560392 C369.994618,516.603822 368.00852,512.184274 368.00852,510.204149 C368.00852,509.675838 367.653326,508.572924 367.483729,507.957789 C363.931792,500.595252 357.294043,487.719534 354.032234,484.457511 C353.266381,483.691872 347.039291,480.415556 345.204657,482.250617 C339.676221,487.778733 346.17744,499.644122 348.882459,505.0548 C350.279767,507.848244 346.759829,516.173003 348.882459,518.295952 C349.716577,519.129431 350.47923,520.041095 351.22055,520.999371 L351.22055,520.999371 Z M166.374436,390.080089 C162.550184,384.066329 159.182137,379.352812 154.679177,374.850492 C153.594183,373.765711 154.109693,370.6031 153.207949,369.700716 C151.386968,367.879949 153.854658,352.693017 150.265495,349.103748 C148.376782,347.214714 143.908807,339.408986 140.702464,341.012158 C138.457917,342.134271 139.231237,348.267496 139.231237,350.574655 C139.231237,358.099855 141.84975,370.524168 145.116146,377.057386 C148.301476,383.427407 144.951562,392.340316 150.265495,397.654355 C152.654466,400.043646 152.891155,405.42915 155.414844,407.952839 C165.181604,417.71992 173.563962,433.951846 179.690787,446.205282 C185.249089,457.322632 179.477458,474.468782 184.839496,485.193072 C187.167988,489.849629 190.445797,495.948721 193.667073,499.169891 C195.718237,501.221375 194.94705,506.335097 196.609954,507.997255 C198.33579,509.724051 202.582115,509.512428 205.436465,510.939816 C208.089218,512.265766 211.219829,517.979265 215.000029,516.089165 C217.108791,515.034463 218.675697,505.786094 217.206923,502.848012 C211.960083,492.354118 200.03176,478.316713 192.931086,471.216359 C186.575999,464.860525 194.444659,451.437723 190.724192,443.998388 C185.693881,433.938086 184.909895,422.735724 178.218813,416.044856 C174.800207,412.625823 173.110637,407.300051 170.862784,402.80413 C169.497048,400.072445 172.092842,395.206398 170.127223,393.240566 C168.79434,391.908323 166.500621,388.930243 165.713541,387.35587 C165.309602,386.547351 162.998603,384.615652 164.09853,385.769765 L166.374436,390.080089 Z M161.117783,499.002747 L159.3832,498.135456 C153.538397,492.848189 151.214491,490.55575 148.058601,487.399966 C145.753255,485.094513 147.134137,478.383592 145.116146,476.365708 C140.360924,471.610485 140.351857,463.509616 135.553115,458.710767 C133.580777,456.738535 133.346221,464.94575 133.346221,466.06701 C133.346221,469.650947 133.345048,472.685133 134.817448,475.630041 C135.034511,476.064167 134.817448,477.342437 134.817448,477.836935 C134.817448,485.716369 141.199735,503.345177 145.116146,507.261694 C146.94054,509.086089 158.602201,509.959247 160.564193,507.997255 C162.248109,506.313338 160.704563,498.977041 161.117783,499.002747 L161.117783,499.002747 Z M367.483729,507.957789 L367.767458,508.540392 L367.523195,507.646754 C367.338665,507.362066 367.372798,507.558542 367.483729,507.957789 L367.483729,507.957789 Z M395.962158,436.642251 C391.701967,432.38142 384.909554,433.736916 381.249885,441.055933 C375.596652,452.361653 369.48796,462.405102 376.10011,475.630041 C376.87983,477.18788 375.692651,484.253462 377.572084,485.193072 C381.049356,486.932028 387.168714,480.745577 389.341476,478.572496 C393.855529,474.058869 395.906693,472.007705 398.90504,469.009465 C400.56581,467.348054 397.55253,453.442487 400.375947,450.618964 C405.208928,445.786303 394.868844,434.092963 394.922177,434.148002 L395.962158,436.642251 Z M416.242333,66.5594165 C415.584211,66.2746215 414.938889,65.9524939 414.3053,65.6090333 C413.58638,65.2197069 412.884525,64.8026476 412.190138,64.3717219 C411.488283,63.9354629 410.796029,63.4874709 410.119774,63.0128126 C408.745932,62.0474964 407.426489,61.0053815 406.088912,59.9909994 C405.846783,59.8086027 405.605721,59.6272726 405.362525,59.4470091 C403.987616,58.4336937 402.574308,57.4491778 401.031935,56.7057243 C399.877822,56.1500008 398.644778,55.7361414 397.362667,55.6209435 C397.101338,55.5985439 396.838943,55.5868108 396.576547,55.5878774 C396.321619,55.588944 396.06669,55.6038771 395.811761,55.6198768 C395.525899,55.6380098 395.241104,55.6604095 394.955243,55.6881423 C393.685932,55.8076068 392.426221,56.0049367 391.16971,56.2150663 C390.084929,56.3995964 389.002282,56.5937263 387.917501,56.7771897 C386.246064,57.0545181 384.568227,57.3009137 382.87759,57.4193116 C380.750694,57.5675757 378.602466,57.5099767 376.504369,57.1078505 C375.982779,57.0086522 375.465455,56.888121 374.953464,56.7462569 C374.528938,56.627859 374.108679,56.4934614 373.690553,56.3558638 C373.170029,56.1841335 372.653771,56.0028034 372.13858,55.8150734 C370.172748,55.0961528 368.247449,54.274834 366.310417,53.4833813 C366.044821,53.3767165 365.780293,53.2689851 365.514697,53.1623203 C364.80111,52.878592 364.084323,52.600197 363.362202,52.3388683 C362.725413,52.109539 362.084358,51.8940761 361.43797,51.694613 C360.941978,51.5442157 360.443854,51.3970183 359.946796,51.2498209 C357.929765,50.6578313 355.908467,50.0818415 353.875437,49.5442511 C350.898423,48.7591983 347.900076,48.0552108 344.872929,47.4920207 C342.673502,47.082428 340.461274,46.7485672 338.239447,46.4893718 C335.880022,46.2152433 333.513131,46.02538 331.141973,45.8984489 C329.129208,45.7907175 327.114311,45.7277853 325.098346,45.6947192 C324.12983,45.6787195 323.161314,45.6669864 322.194931,45.7395184 C321.512276,45.7907175 320.827489,45.8792493 320.170433,46.0744458 C319.901638,46.1544444 319.639243,46.252576 319.384314,46.367774 C318.978988,46.5501707 318.589661,46.7677669 318.205668,46.9906963 C317.772609,47.2402919 317.34275,47.4962873 316.910758,47.7458829 C316.714495,47.8578809 316.517165,47.9688123 316.319835,48.0797437 C315.608381,48.47227 314.88626,48.8445301 314.149207,49.1890574 C313.186024,49.6381161 312.202575,50.0423756 311.210592,50.4242355 C309.058097,51.2519542 306.846936,51.9356754 304.57711,52.3580679 C302.586745,52.7292613 300.563314,52.8956584 298.539883,52.881792 C297.951094,52.8775254 297.363371,52.8615257 296.775648,52.8273929 C295.861531,52.7729939 294.953813,52.6449962 294.052496,52.4807324 C293.139445,52.3143354 292.232795,52.1127389 291.322944,51.9271422 C291.098948,51.882343 290.874952,51.8396771 290.650956,51.7970112 C290.136832,51.7052795 289.621641,51.6242142 289.102184,51.5719485 C288.383263,51.5058163 287.663276,51.4482174 286.943288,51.3884851 C283.672946,51.1228898 280.397271,50.8946272 277.116262,50.8231618 C274.252313,50.7612962 271.38943,50.8295616 268.525481,50.867961 C267.753228,50.8764941 266.980975,50.8850273 266.208722,50.8892939 C263.585835,50.9031603 260.961882,50.882894 258.338995,50.8402281 C258.129932,50.8359615 257.921936,50.8295616 257.712873,50.8231618 C257.140083,50.7996955 256.567293,50.7644961 255.996636,50.716497 C255.262783,50.6546314 254.532129,50.5735662 253.800409,50.5010341 C253.577479,50.4797012 253.35455,50.4583682 253.13162,50.4402352 C252.447899,50.3869028 251.762045,50.3602366 251.077257,50.4029025 C250.828728,50.4189022 250.581266,50.4434351 250.335937,50.4786345 C253.397216,52.6065968 259.230712,57.4193116 256.865954,59.7840698 L255.658509,61.7467017 C255.43558,61.3317757 244.536573,65.5813005 242.889668,66.4047526 C237.455098,69.1225711 224.302264,64.1263929 223.698541,59.6806049 L222.726825,60.1840627 C221.852174,60.6459212 220.982856,61.1184462 220.119938,61.5995043 C219.286886,62.0634961 218.459168,62.5349544 217.647449,63.0341456 C215.982411,64.0581274 214.373907,65.1674411 212.778201,66.2927545 C211.497157,67.2004718 210.22358,68.1177889 208.943603,69.0244395 C206.952171,70.4302813 204.940474,71.8083902 202.844511,73.0542348 C200.296289,74.5699413 197.622203,75.8893847 194.805186,76.8280347 C193.102816,77.3954913 191.356714,77.8200171 189.580745,78.0781459 C188.691161,78.2082769 187.796244,78.2978753 186.899193,78.3512077 L186.299737,78.3778739 C185.77068,82.5527333 185.406953,86.8235911 184.839496,87.9585043 C181.43049,94.7765169 179.175596,98.0372592 173.805025,103.406764 C172.211453,105.000336 174.663676,110.640769 173.070104,112.234341 C170.969022,114.334571 171.348962,118.368633 168.655996,121.061918 C165.742234,123.974933 161.487163,126.023964 159.092965,128.417521 C156.066672,131.443601 162.476052,156.811685 163.506647,157.842067 C164.987048,159.322574 174.991137,177.989977 170.127223,182.853891 C169.216413,183.764808 166.641845,197.02324 168.655996,199.037071 C177.232164,207.613986 166.36121,215.780241 170.127223,223.312908 C171.254883,225.567801 173.733559,225.44727 175.276999,226.99071 C177.617224,229.330935 178.437476,234.047651 179.690787,236.554274 C180.8769,238.926498 182.559003,249.20685 181.161695,252.001467 C180.658237,253.008382 178.724404,257.656833 179.690787,258.62215 C182.568603,261.501032 187.022924,265.955353 189.989272,268.920634 C190.978054,269.910483 191.096452,272.970696 192.196166,274.070409 C194.647322,276.522633 190.478863,285.595539 192.931086,288.046695 C195.105981,290.22159 201.477068,287.7651 203.965557,290.25359 C208.598009,294.886041 218.050641,297.719057 222.356699,302.024048 C224.17,303.838416 229.548038,302.595771 231.183209,304.230942 C232.707449,305.755182 237.733493,308.785528 235.596997,313.058519 C234.964475,314.323563 229.667502,318.897349 231.919196,321.150109 C235.811394,325.042307 242.353145,327.90519 245.895482,331.448594 C246.854398,332.40751 248.770098,331.556325 250.456468,330.940869 L250.430868,331.549925 C250.360469,332.903501 250.274071,334.256011 250.202606,335.609587 C250.082074,337.982878 250.001009,340.362569 250.120474,342.736927 C250.168473,343.697977 250.250605,344.65796 250.383936,345.611543 C250.5066,346.493661 250.674064,347.370445 250.906593,348.230163 C251.114589,348.996016 251.382318,349.743736 251.685246,350.47759 C252.22177,351.7757 252.880958,353.020478 253.660678,354.188458 C254.342266,355.20924 255.113452,356.167089 255.941171,357.071607 C256.689957,357.891859 257.48461,358.667312 258.290996,359.429965 C259.026983,360.122219 259.76937,360.80914 260.505356,361.501395 C261.008814,361.979253 261.509072,362.460311 261.99973,362.952036 C262.332524,363.285897 262.659985,363.625091 262.985313,363.966418 C263.240241,364.23628 263.494104,364.507208 263.747966,364.778137 C266.295121,367.520488 268.79001,370.353505 271.76809,372.644664 C273.141933,373.702779 274.614973,374.638229 276.193612,375.358216 C277.345592,375.884074 278.550904,376.2926 279.789282,376.557128 C281.058593,376.829123 282.35777,376.947521 283.654813,376.913389 C284.362001,376.895256 285.063855,376.825924 285.764643,376.733125 C286.207301,376.67446 286.64996,376.607261 287.090486,376.532595 C288.91552,376.223268 290.713888,375.787009 292.505857,375.32835 C293.770901,375.000889 295.032745,374.662762 296.296723,374.334234 C298.606015,373.742245 300.934507,373.181188 303.306732,372.90706 C305.078434,372.702263 306.881069,372.660664 308.647438,372.939059 C309.102896,373.011591 309.554088,373.104389 309.99888,373.219587 C310.414873,373.328385 310.824466,373.459583 311.234058,373.589714 C311.670317,373.729445 312.106576,373.873442 312.540702,374.021707 C314.196139,374.584897 315.830244,375.204619 317.457948,375.842474 C318.009405,376.06007 318.560862,376.2798 319.111252,376.499529 C322.27173,377.769907 325.419407,379.075484 328.631084,380.214664 C329.454536,380.505858 330.282254,380.787453 331.115306,381.053049 C331.82676,381.281311 332.539281,381.504241 333.264602,381.683438 C334.187252,381.910634 335.123769,382.079164 336.067752,382.190095 C336.728007,382.267961 337.391462,382.318093 338.055984,382.343693 C338.668239,382.366092 339.281562,382.368225 339.893818,382.351159 C342.879365,382.267961 345.831846,381.735703 348.728861,381.039182 C349.690978,380.806653 350.647761,380.555991 351.603477,380.297862 C351.917071,380.21253 352.229599,380.126132 352.542127,380.039733 C353.760239,379.701606 354.975151,379.354945 356.193262,379.018951 C357.943631,378.536827 359.701467,378.073901 361.485969,377.731508 C362.375553,377.559777 363.272604,377.424313 364.172854,377.322981 C365.117904,377.21525 366.067221,377.148051 367.018671,377.143785 C367.771724,377.140585 368.522644,377.183251 369.271431,377.255783 C369.479427,377.278182 369.687424,377.301648 369.894353,377.326181 C370.876736,377.446713 371.854852,377.596043 372.840434,377.687775 C373.794017,377.776307 374.751867,377.812573 375.70865,377.78804 C376.977961,377.754974 378.243005,377.619509 379.496317,377.420046 C380.273903,377.297382 381.047222,377.145918 381.817342,376.984854 C382.538396,376.834457 383.257317,376.678726 383.975171,376.516596 C386.564991,375.931006 389.138812,375.263285 391.664634,374.445166 C392.625684,374.133705 393.578201,373.799844 394.52325,373.445717 C395.249638,373.172655 395.969625,372.886793 396.687479,372.594532 C397.061872,372.440934 397.435199,372.285204 397.808526,372.129473 C399.04797,371.606816 400.282082,371.072425 401.52366,370.558301 C402.482576,370.160442 403.446826,369.774315 404.417475,369.405255 C407.156627,368.364207 409.945911,367.460756 412.758661,366.639437 L416.766057,365.838385 L416.798056,365.676254 C417.33138,363.206965 418.1079,360.784608 419.249213,358.525448 C419.516941,357.99639 419.80387,357.479066 420.115331,356.969208 C419.730271,357.016141 419.350544,357.121739 418.992151,357.275336 C418.64869,357.422534 418.325496,357.61453 418.022568,357.83426 C417.834838,357.969724 417.656708,358.116921 417.482844,358.268385 C417.390046,358.351584 417.298314,358.436916 417.206582,358.522248 C417.024185,358.695045 416.844989,358.873175 416.661525,359.045972 L411.165089,360.144619 C410.294705,360.398481 409.426453,360.65661 408.560335,360.924338 C406.963564,361.419263 405.376392,361.94512 403.803086,362.509377 C402.749238,362.888037 401.700723,363.283763 400.659675,363.697623 C399.825557,364.028283 398.996771,364.370677 398.170119,364.718405 C397.067205,365.183463 395.968558,365.655988 394.865644,366.117846 C394.095525,366.437841 393.323272,366.752502 392.544619,367.050097 C391.643301,367.394624 390.733451,367.718885 389.816134,368.019679 C387.41511,368.807932 384.966086,369.442588 382.50213,369.999378 C381.819475,370.152975 381.134688,370.301239 380.4499,370.445236 C379.024858,370.742831 377.58915,370.996693 376.134243,371.083092 C375.575319,371.116158 375.015329,371.123624 374.455339,371.101225 C374.057479,371.086292 373.660687,371.054292 373.26496,371.015893 C373.065497,370.99456 372.867101,370.972161 372.668704,370.947628 C371.672455,370.823896 370.680473,370.675632 369.679957,370.582834 C368.616509,370.483636 367.548795,370.445236 366.480014,370.468703 C365.314168,370.494302 364.149388,370.591367 362.992075,370.734298 C361.986227,370.859096 360.985711,371.019093 359.991595,371.215356 C358.114295,371.585483 356.262595,372.071874 354.418361,372.577465 C353.046651,372.957192 351.677076,373.347585 350.305367,373.726245 C347.634481,374.455832 344.937995,375.144887 342.184977,375.480881 C340.162613,375.727276 338.101849,375.778475 336.086952,375.446748 C335.583494,375.363549 335.083236,375.256885 334.590445,375.125687 C334.216052,375.025422 333.845925,374.909157 333.476865,374.792893 C332.930741,374.621163 332.385684,374.441966 331.843827,374.257436 C329.740397,373.540648 327.668967,372.734263 325.605004,371.911877 C324.042365,371.285755 322.483993,370.652166 320.921354,370.027111 C318.86059,369.210058 316.79236,368.411139 314.694264,367.696485 C314.219606,367.535421 313.743881,367.377557 313.267089,367.225027 C312.781764,367.070363 312.295373,366.916766 311.802582,366.785568 C311.107127,366.599971 310.401006,366.451707 309.690619,366.339709 C308.996231,366.229844 308.295444,366.154112 307.593589,366.109313 C307.025066,366.073047 306.455476,366.058114 305.885886,366.060247 C303.206467,366.071981 300.546248,366.490107 297.935094,367.06503 C296.827913,367.309292 295.727133,367.582354 294.628486,367.865016 C293.364508,368.192476 292.102664,368.530604 290.838686,368.858065 C289.229115,369.270857 287.612077,369.666584 285.972639,369.944979 C285.554513,370.016444 285.134254,370.079376 284.712928,370.131642 C284.3812,370.173241 284.049473,370.208441 283.716679,370.225507 C283.159889,370.252173 282.600965,370.23404 282.048442,370.167908 C281.277255,370.074043 280.519935,369.885246 279.790348,369.618584 C279.12796,369.375389 278.489038,369.068194 277.876782,368.718334 C276.8656,368.140211 275.924817,367.44689 275.035233,366.699169 C273.806454,365.667721 272.672608,364.531741 271.564361,363.373362 C271.298765,363.092833 271.03317,362.811238 270.768641,362.528577 C269.610262,361.281665 268.467882,360.019821 267.283903,358.796376 C266.571382,358.060389 265.835395,357.347868 265.091942,356.642814 C264.47222,356.059358 263.847164,355.480168 263.225308,354.898845 C261.846133,353.601801 260.46909,352.278091 259.382176,350.719719 C258.79552,349.878134 258.301662,348.97575 257.903803,348.0307 C257.705406,347.560308 257.524076,347.080317 257.385412,346.587526 C257.209415,345.964603 257.08995,345.326748 257.000352,344.686759 C256.887287,343.87824 256.823288,343.063321 256.785956,342.248402 L256.766756,341.536948 C256.820088,341.62228 256.874487,341.691612 256.929953,341.747078 C257.559275,342.3764 273.461927,340.66443 273.84912,340.276171 C275.711487,338.413804 264.524485,336.857564 267.964424,329.977686 C269.427865,327.051871 272.228882,320.563453 274.585107,318.207228 C275.810686,316.98165 279.979145,318.697886 281.20579,317.472308 C283.26122,315.416877 286.075037,302.304576 289.29738,299.081167 C291.292011,297.086535 288.887787,289.928262 290.768287,288.046695 C292.256261,286.559788 295.480737,271.56592 298.860944,268.185714 C301.539297,265.506294 296.673249,254.925148 299.595864,252.001467 C304.424579,247.172752 302.039554,242.688565 309.894349,238.761168 C311.618052,237.899316 309.171162,243.904543 312.101243,242.438969 C317.13902,239.919547 325.327676,222.591854 329.756397,218.163133 C331.411834,216.507695 330.026259,208.795832 331.227304,206.393741 C333.345667,202.158083 340.650071,202.12075 343.73375,199.037071 C345.505452,197.265369 349.312318,200.202917 349.618445,200.507978 C352.729857,203.61939 344.693733,207.354791 346.675564,209.335555 C348.023807,210.684865 357.8391,209.271557 359.180943,208.600635 C364.565381,205.908416 379.181655,208.003312 381.985872,210.807529 C383.334115,212.155772 388.72922,209.45822 390.077463,210.807529 C393.141942,213.872008 395.839494,217.305548 398.90504,220.370027 C399.548228,221.014282 400.606343,221.243611 401.766856,221.370542 L404.134814,221.577472 C405.295326,221.703336 406.353441,221.933732 406.99663,222.576921 C408.787531,224.367823 410.423769,227.474968 412.146405,229.197604 C412.881325,229.933591 415.08822,229.197604 415.824207,229.933591 C417.244982,231.354366 415.569278,234.573509 416.559127,236.554274 C417.486044,238.407041 427.711996,245.499182 430.53648,248.323665 C435.99985,253.787035 428.25172,262.958073 430.53648,265.242832 C432.208983,266.915336 433.577492,268.891834 435.199864,270.618737 L435.350261,270.053414 C435.79612,268.485442 436.347577,266.949469 436.966232,265.443362 C438.286742,262.225286 439.91338,259.144807 441.484552,256.044062 C441.642416,255.730467 441.801347,255.415806 441.959211,255.100079 C443.196522,252.609456 444.386901,250.084701 445.262619,247.439414 C445.465282,246.827158 445.650879,246.209569 445.816209,245.586647 C445.913274,245.217587 446.010339,244.848527 446.077538,244.473067 C446.16287,243.995209 446.201269,243.509884 446.197002,243.024559 C446.190602,242.086976 446.030605,241.157925 445.795943,240.252341 C445.498348,239.096095 445.081289,237.975048 444.64823,236.863601 C444.321836,236.034816 443.985841,235.210297 443.658381,234.382579 C442.963993,232.615143 442.316538,230.821042 441.946411,228.954408 C441.804547,228.245087 441.708548,227.527233 441.630683,226.808313 C441.529352,225.870729 441.462153,224.927813 441.413087,223.985963 C441.300022,221.778002 441.284023,219.565774 441.305356,217.356747 C441.355488,212.131239 441.630683,206.913198 441.857879,201.694091 C441.880279,201.1597 441.901612,200.62531 441.920811,200.090919 C441.967744,198.504814 441.967744,196.918709 441.98801,195.332603 C441.993343,194.994476 441.999743,194.656349 442.00721,194.318221 C442.049876,192.556119 442.135208,190.794017 442.35707,189.043648 C442.655732,186.687423 443.201855,184.349331 444.162905,182.17017 C444.455166,181.506715 444.785827,180.85926 445.153821,180.234204 C445.403416,179.808612 445.671145,179.394752 445.960207,178.995826 C445.773543,178.439036 445.539947,177.99531 445.248752,177.704115 C444.070107,176.52547 446.024205,171.899418 445.248752,170.348512 C440.988561,161.82813 448.876422,140.086648 445.984739,134.303284 C442.421069,127.17701 437.808884,120.242733 432.743374,115.176156 C431.068737,113.502585 431.422864,108.706937 429.800493,107.084566 C426.427752,103.711825 423.657668,99.4708338 420.972916,96.7860814 C417.505244,93.3184094 417.520177,86.7126597 414.353299,83.5447158 C411.084024,80.2754403 413.537314,72.6211758 416.242333,66.5594165 L416.242333,66.5594165 Z M377.849412,332.289112 C378.776329,332.298712 379.701113,332.337111 380.623763,332.41711 C382.061604,332.539774 383.488779,332.758437 384.896754,333.076298 C387.947367,333.765353 390.880648,334.874666 393.826729,335.905048 C394.180857,336.027712 394.53605,336.148244 394.891244,336.268775 C396.608547,336.840498 398.348249,337.366355 400.133818,337.681017 C400.852738,337.807948 401.578059,337.905013 402.303379,337.989278 C403.526824,338.132209 404.756669,338.228207 405.986514,338.295406 C409.153391,338.467136 412.325602,338.45007 415.495679,338.500202 C415.587411,338.483136 415.679143,338.462869 415.770874,338.442603 C416.056736,338.376471 416.343664,338.308205 416.630592,338.242073 C416.812989,338.201541 416.995386,338.162075 417.178849,338.124742 C417.808172,338.002078 418.443894,337.909279 419.087082,337.900746 C419.960667,337.889013 420.841718,338.034077 421.63637,338.40847 C421.901966,338.533268 422.156895,338.681532 422.394757,338.854329 C422.675285,339.056992 422.931281,339.291655 423.16061,339.55085 L423.378206,339.823912 C423.544603,340.086307 423.597936,340.14604 423.722734,340.431901 C423.90833,340.859627 424.003262,341.326819 423.998995,341.792944 C423.996862,342.142804 423.938196,342.492665 423.827265,342.824392 C423.716334,343.15612 423.553137,343.469714 423.34514,343.751309 C422.927014,344.315566 422.332891,344.739025 421.664103,344.950221 C421.330243,345.055819 420.980382,345.108085 420.630522,345.104885 C420.16333,345.101685 419.698271,344.99822 419.273746,344.805157 C419.168148,344.756091 419.066816,344.697426 418.963351,344.643027 L418.906819,344.605694 C418.689223,344.63556 418.474826,344.679293 418.259364,344.725159 C417.855104,344.814757 417.452978,344.913955 417.048718,345.002487 C416.794856,345.055819 416.539927,345.105952 416.281799,345.137951 C416.088735,345.162484 415.896739,345.175284 415.701542,345.18275 C415.482879,345.183817 415.26315,345.178484 415.044487,345.175284 C411.309087,345.123018 407.567286,345.141151 403.840419,344.849956 C402.80897,344.768891 401.779655,344.66436 400.75354,344.529962 C400.159417,344.452097 399.566361,344.365698 398.975438,344.261167 C397.567463,344.013704 396.178688,343.662777 394.808045,343.253185 C393.836329,342.963056 392.873146,342.643062 391.913163,342.312401 C390.721718,341.899609 389.534539,341.472949 388.343093,341.05909 C386.643923,340.474567 384.930887,339.917777 383.174118,339.53805 C382.077604,339.301255 380.966157,339.144457 379.847244,339.056992 C379.303253,339.014326 378.758196,338.98766 378.213139,338.976994 C374.325208,338.895928 370.466076,339.581783 366.701876,340.501233 C365.982956,340.676164 365.266168,340.860694 364.551514,341.051624 C363.68113,341.283086 362.813945,341.524149 361.947827,341.768411 C360.481187,342.183337 359.017746,342.606796 357.551105,343.021722 C357.10738,343.14652 356.662587,343.271318 356.217795,343.393982 C354.130366,343.965705 352.033336,344.495829 349.93204,345.009953 C348.169938,345.439813 346.404636,345.855805 344.6404,346.281398 C344.068677,346.420062 343.495887,346.559793 342.925231,346.702724 C342.030313,346.927786 341.137529,347.157115 340.247945,347.400311 C339.102365,347.713906 337.961052,348.0467 336.828272,348.40296 C335.42243,348.844552 334.028321,349.320277 332.643813,349.823735 C331.772361,350.140529 330.905177,350.469057 330.040125,350.803984 L329.707331,350.912782 C329.404403,350.977848 329.329738,351.006647 329.018277,351.023714 C328.199091,351.068513 327.377773,350.803984 326.738851,350.288793 C326.466855,350.069064 326.228993,349.806669 326.038063,349.514407 C325.847133,349.221079 325.702069,348.897885 325.610337,348.559757 C325.426874,347.882436 325.464206,347.153916 325.713802,346.497927 C325.8386,346.171533 326.014597,345.864338 326.234326,345.591277 C326.454056,345.319281 326.716451,345.081419 327.009779,344.890489 C327.106844,344.82649 327.208176,344.767824 327.31164,344.714492 C327.539903,344.598227 327.872697,344.477696 328.098826,344.391298 C328.254557,344.331565 328.410288,344.271833 328.566018,344.212101 C329.585733,343.823841 330.609715,343.448381 331.640097,343.087854 C333.546197,342.419066 335.471496,341.80681 337.414928,341.254287 C339.287962,340.720963 341.175928,340.247371 343.068161,339.787646 C344.559335,339.428186 346.052642,339.072992 347.543816,338.713532 C349.421116,338.258073 351.296282,337.794081 353.162916,337.299157 C353.878637,337.109293 354.592224,336.911964 355.305811,336.7125 C357.064714,336.218642 358.819349,335.707718 360.578251,335.212794 C363.853927,334.29761 367.150935,333.441092 370.510876,332.896035 C371.95725,332.661372 373.412158,332.484309 374.873465,332.384044 C375.614785,332.332845 376.357172,332.304045 377.100626,332.292312 C377.350221,332.289112 377.599817,332.289112 377.849412,332.289112 L377.849412,332.289112 Z M418.165499,343.988105 C418.203898,344.028638 418.242297,344.06917 418.28283,344.106503 C418.241231,344.063837 418.199631,344.021171 418.156965,343.978505 C418.153765,343.975305 418.163365,343.984905 418.165499,343.988105 L418.165499,343.988105 Z M175.051936,292.88821 L178.164414,298.773972 C177.947885,298.443311 172.911174,290.095726 171.59845,288.782682 C171.353228,288.537353 169.636779,288.292024 169.391556,288.046695 C159.312695,277.96794 162.073606,302.797367 162.77098,303.494955 C166.118654,306.843163 168.186564,313.324114 171.59845,316.736321 C172.198227,317.335777 174.515412,326.325484 178.218813,322.621017 C180.982498,319.858399 184.097109,302.752568 179.690787,298.346246 C177.922285,296.577744 176.770306,294.689778 175.276999,293.196471 L175.051936,292.88821 L174.422614,291.698897 C173.181036,290.272789 174.496213,292.123423 175.051936,292.88821 L175.051936,292.88821 Z M427.168006,279.913506 C425.99256,280.448963 424.83738,281.031353 423.632068,281.496411 C422.427823,281.96147 421.205445,282.395595 419.951067,282.700657 C418.694556,283.006785 417.395379,283.101716 416.121801,283.326779 C413.386917,283.812104 410.643498,284.489425 408.905929,286.885116 C408.128343,287.958164 407.582219,289.353339 408.543269,290.488252 C409.149125,291.205039 409.821113,291.869561 410.5347,292.479683 C411.457351,293.269003 413.028523,292.915942 413.975706,292.479683 C416.2242,291.445035 417.15645,288.680284 419.589473,287.95283 C421.184112,287.476039 423.931797,287.833366 425.203241,286.322992 C426.152557,285.195546 426.93761,283.937968 427.738662,282.700657 C428.068257,282.191866 428.039457,281.839872 427.90186,281.277748 C427.837861,281.015353 427.5232,280.2655 427.628798,280.514029 L427.168006,279.913506 Z M294.260492,184.971187 C288.101668,191.654802 281.318855,197.509631 275.321094,200.507978 C269.381999,203.477526 265.884461,188.307661 260.608821,190.945481 C257.240348,192.629718 264.567151,200.963437 261.343742,204.186847 C258.0478,207.482788 254.972654,209.087027 252.516165,211.54245 C250.539666,213.520015 246.401073,208.095044 244.424575,210.071542 C243.635255,210.860862 251.462317,228.879743 253.252152,230.668511 C254.595061,232.012487 253.252152,241.798981 253.252152,243.909877 C253.252152,255.096879 251.10499,266.037485 257.66594,272.599502 C262.218393,277.151955 257.254214,285.192346 255.459046,288.782682 C254.85639,289.987994 251.130589,293.281803 249.57435,291.725563 C242.548341,284.699555 240.868371,267.815587 237.068971,256.415255 C235.172472,250.728956 240.043852,240.264075 235.596997,235.818287 C235.476466,235.697755 234.554883,244.217071 234.12609,244.645864 C228.305393,250.465494 220.188204,239.535554 217.94291,237.289194 C216.305606,235.652956 217.206923,229.425866 217.206923,226.99071 C217.206923,222.684652 215.379755,210.426736 216.470936,209.335555 C217.74558,208.061978 221.060721,200.861039 219.413817,197.566164 C217.756247,194.251023 216.057077,193.05851 214.264042,189.474574 C213.123795,187.193014 214.842165,184.166934 212.793135,182.117904 C211.74782,181.072589 209.454527,181.326451 208.379346,179.175023 C205.798058,174.011381 212.46994,160.372156 215.000029,157.842067 C217.700781,155.141315 213.626186,141.610888 220.884725,137.981085 C226.869685,134.988072 237.345233,132.555048 240.746773,129.153508 C247.144526,122.755755 236.633779,119.155819 234.12609,116.64813 C231.834931,114.35697 237.006039,110.825299 237.803892,110.027447 C243.705654,104.125685 250.109807,101.363067 259.876034,99.6564305 L261.177345,98.4383188 C258.700588,97.6500661 264.81888,98.7903125 265.75753,99.7289626 C267.890826,101.861192 262.016796,112.906329 265.02261,115.912143 C268.707878,119.598477 278.250109,117.37665 284.148671,120.325931 C289.309113,122.906152 291.423209,129.072443 295.182076,132.83131 C300.773444,138.422678 310.630336,134.916606 310.630336,144.601768 C310.630336,148.938758 312.526835,158.462856 310.630336,162.255856 C308.847967,165.821659 306.284813,169.899454 303.238467,174.06258 L310.630336,166.669644 C312.360438,164.940608 321.764005,155.833569 325.342609,162.991843 C327.028979,166.364583 322.971451,174.190578 321.664807,175.497221 C321.114417,176.047611 321.11335,186.87942 320.854155,188.767386 L320.446695,191.939597 C320.402963,191.894798 324.316493,193.597167 325.342609,194.623283 C326.01673,195.297404 326.01673,210.133408 325.342609,210.807529 C321.797071,214.353067 313.108159,218.434061 306.952534,212.278437 C306.857603,212.184572 306.743471,212.109906 306.612274,212.059774 C306.274146,215.310916 306.151482,218.098067 306.952534,218.899119 C315.251054,227.197639 307.75572,233.57726 298.860944,238.025181 C293.192778,240.859264 290.233897,234.547909 287.826473,232.140485 C280.386604,224.700617 280.675666,209.865679 287.826473,202.714873 C289.455244,201.087168 287.550211,197.335768 290.033367,196.095257 L296.380988,197.256836 C295.058345,192.672384 294.073829,188.003666 294.260492,184.971187 L294.260492,184.971187 Z M369.944486,288.260025 C370.404211,287.572037 370.927935,286.908582 371.238329,286.141662 C371.517791,285.449408 371.216996,284.384893 370.875669,283.787571 C369.681024,281.694808 368.505578,279.778042 365.986156,279.260717 C364.461916,278.947123 364.068323,279.47618 362.72648,279.984971 C357.960698,281.788673 357.993764,281.846272 352.947453,282.700657 C352.170934,282.832921 351.382681,283.045184 350.599761,282.965185 C349.827508,282.88732 344.792931,280.662293 344.798264,283.42491 C344.800397,284.329428 344.868663,285.239278 345.05426,286.124596 C345.442519,287.982696 347.435017,288.510687 349.080855,288.577886 C352.36933,288.711217 353.986368,287.920831 356.954849,288.566153 C359.760133,289.176275 363.632064,291.866361 366.542946,291.34157 C367.862389,291.104774 369.31943,289.580535 370.151415,288.858414 L369.944486,288.260025 Z M214.994696,199.418931 C213.627253,194.571017 206.633244,175.772416 198.816849,183.588811 C195.886767,186.518893 198.00513,192.567852 195.873967,196.830177 C188.811692,210.955793 196.28676,227.564566 206.908439,232.875405 C215.716816,237.279594 214.179777,200.239183 215.646417,200.721308 L214.994696,199.418931 Z M415.08822,114.943627 C411.901076,114.530834 408.736332,113.862046 405.525722,113.705248 C404.612672,113.660449 402.251114,116.316402 401.846854,115.912143 C397.269869,111.335157 395.610165,103.789691 390.813449,98.9929756 C387.407643,95.5882359 374.931064,101.333201 373.893216,103.406764 C372.302844,106.588574 379.88031,123.370144 381.249885,124.73972 C385.468477,128.958312 374.495872,149.617146 376.836097,151.957371 C383.639177,158.761517 390.057196,168.121352 396.698145,174.762301 C400.127418,178.190507 401.584459,184.061336 404.789735,187.267679 C406.837699,189.315643 406.263843,201.982086 407.732617,203.45086 C412.333069,208.052378 412.519732,219.272446 417.295114,224.047828 C418.120699,224.87448 421.433707,235.358561 424.651784,232.140485 C426.693348,230.098921 436.529973,212.387235 432.743374,208.600635 C431.925255,207.782516 428.440517,197.455232 430.53648,195.35927 C434.982268,190.913482 438.814733,183.402148 443.041858,179.175023 C444.011441,178.20544 443.041858,171.136765 443.041858,169.612525 C443.041858,161.000411 442.305871,151.212851 442.305871,142.394874 C442.305871,132.092123 436.028649,127.853265 428.329585,124.003733 C425.98296,122.831487 419.467876,113.645516 419.883868,114.375103 L415.08822,114.943627 Z M364.730711,161.008944 C363.698196,161.339605 362.36382,161.520935 360.652917,161.520935 C359.227875,161.520935 356.014066,162.143858 354.767154,161.520935 C349.940573,159.107111 353.231182,154.0992 350.354432,151.222451 C346.622232,147.49025 339.071432,147.783579 336.37708,142.394874 C334.373915,138.387478 341.244194,122.814421 342.997763,121.061918 C344.46867,119.589944 350.354432,122.532826 351.82534,121.061918 C354.386361,118.500897 354.414094,111.116494 357.710036,107.820553 C359.507337,106.023251 365.514697,108.780536 366.537613,109.29146 L371.424993,116.326002 C370.789271,115.770279 372.266578,118.699293 373.158295,119.589944 C374.750801,121.183516 379.831244,126.842083 377.572084,131.360403 C374.870265,136.762974 370.27088,140.075982 368.00852,144.601768 C365.979756,148.659296 368.840505,154.399995 367.822923,158.039397 C370.629274,158.291126 374.7636,161.052677 375.36519,162.255856 C380.152305,171.831153 389.11748,172.059415 394.353653,184.945587 L394.52965,185.709307 C394.847511,185.824505 396.882675,188.372727 397.433066,189.474574 C398.311983,191.231343 398.284251,194.738481 399.63996,196.095257 C404.085748,200.539978 393.065143,203.495659 390.813449,201.243965 C386.801787,197.23337 380.655763,193.293173 376.10011,188.738587 C373.44629,186.0837 372.603639,178.065709 370.951401,174.762301 C369.874087,172.608739 364.325385,165.581663 364.730711,161.008944 L364.730711,161.008944 Z M341.765785,155.9637 C346.482501,156.33916 352.845055,160.650551 354.106899,163.319303 L353.781572,169.985852 C352.494128,168.994936 354.767154,173.13673 354.767154,174.762301 C354.767154,179.421418 354.207164,184.149868 351.82534,186.531693 C346.480368,191.876665 335.727491,183.67521 332.699278,180.646997 C326.267392,174.215111 333.781926,167.057904 336.37708,164.46275 C336.928537,163.911293 337.067201,162.945977 337.101334,161.877196 L337.123733,159.692701 C337.158933,158.62392 337.29653,157.658604 337.847987,157.107147 C338.684239,156.270895 339.852218,155.927434 341.185528,155.938101 L341.765785,155.9637 Z M394.52965,185.709307 C394.466718,185.683708 394.477385,185.770106 394.596849,186.002635 L394.52965,185.709307 Z M281.619649,161.80573 C280.819663,157.539139 269.283868,145.99481 253.620145,147.405985 C237.956422,148.81716 228.020598,157.539139 228.820584,161.80573 C229.62057,166.072321 243.515791,175.227359 258.42006,173.005532 C273.32433,170.783705 282.419635,166.072321 281.619649,161.80573 L281.619649,161.80573 Z M428.977041,155.579707 C428.977041,151.570178 419.258813,139.768787 406.917698,141.179962 C394.576583,142.591137 387.377777,151.570178 387.377777,155.579707 C387.377777,159.58817 395.376569,164.032891 406.917698,165.23607 C418.750022,166.468048 428.977041,159.58817 428.977041,155.579707 L428.977041,155.579707 Z M301.067838,126.946614 L299.595864,126.946614 C298.757479,126.107162 296.021528,124.843185 295.182076,124.003733 C292.325593,121.14725 296.156992,114.183107 294.447156,110.763434 C292.52719,106.924569 289.308047,101.946523 287.090486,99.7289626 C286.45903,99.0975071 287.479812,93.4549403 287.826473,93.1082798 C295.115944,85.8188089 307.92425,100.534282 311.423922,106.081917 L311.179659,106.892569 C310.230343,105.953919 313.236156,109.229594 312.101243,111.498354 C311.856981,111.989012 311.753516,112.582068 311.366323,112.970328 C310.428739,113.907912 301.633162,126.331158 301.067838,126.946614 L301.067838,126.946614 Z M363.540332,71.7689243 C360.592118,70.2734841 343.859614,59.8790014 339.319961,64.4186544 C334.789908,68.9487075 324.445558,72.9230372 329.756397,83.5447158 C330.803845,85.639612 330.653448,89.5904754 331.963291,90.9013855 C335.100303,94.03733 340.70767,95.2319755 342.261776,96.7860814 C351.494679,106.018985 360.886513,101.701194 368.00852,94.5791871 C371.75672,90.8309868 371.290595,79.4711879 368.00852,76.1891127 C366.533346,74.7139388 361.80703,71.4329302 361.99476,71.6089271 L363.540332,71.7689243 Z M289.144849,75.5107247 C284.261736,67.1268731 270.421981,71.5246619 265.75753,76.1891127 C265.158074,76.7885687 262.949047,82.9431264 264.286623,84.2807028 C268.077489,88.071569 281.866045,85.827342 285.619579,82.0738085 C286.3033,81.3900873 288.968853,78.4749389 287.826473,76.1891127 C287.793407,76.1229805 286.775825,74.2787465 287.599277,75.4275262 L289.144849,75.5107247 Z" id="Page-1"></path>
        </g>
    </g>
</svg>