<?xml version="1.0" encoding="UTF-8" standalone="no"?>
<svg width="560px" height="560px" viewBox="0 0 560 560" version="1.1" xmlns="http://www.w3.org/2000/svg" xmlns:xlink="http://www.w3.org/1999/xlink" xmlns:sketch="http://www.bohemiancoding.com/sketch/ns">
    <!-- Generator: sketchtool 3.4 (375) - http://www.bohemiancoding.com/sketch -->
    <title>debian</title>
    <desc>Created with sketchtool.</desc>
    <defs></defs>
    <g id="Page-1" stroke="none" stroke-width="1" fill="none" fill-rule="evenodd" sketch:type="MSPage">
        <g id="debian" sketch:type="MSArtboardGroup" fill="#000000">
            <path d="M230.65739,304.612265 L229.547955,310.159442 C234.747332,317.221085 238.872494,324.872667 245.511496,330.393428 C240.734761,321.068889 237.186329,317.216683 230.65739,304.612265 L230.65739,304.612265 Z M242.949229,304.127988 C240.197653,301.085846 238.56872,297.422948 236.746077,293.773258 C238.489475,300.187731 242.059919,305.699688 245.383823,311.304097 L242.949229,304.127988 L242.949229,304.127988 Z M460.451376,256.853717 L459.289111,259.768186 C457.15829,274.904053 452.557656,289.88143 445.504817,303.766981 C453.29728,289.115391 458.338166,273.090215 460.451376,256.853717 L460.451376,256.853717 Z M317.008437,293.751246 C309.097107,293.861309 318.505294,297.82798 328.833608,299.41729 C331.686442,297.189615 334.275124,294.935524 336.582045,292.743068 C330.149962,294.319171 323.603413,294.354391 317.008437,293.751246 L317.008437,293.751246 Z M359.470752,283.167585 C364.181449,276.665062 367.615416,269.546185 368.826109,262.18517 C367.769504,267.432975 364.921073,271.963169 362.239938,276.744307 C347.45187,286.055639 360.848741,271.214741 362.231133,265.575111 C346.329227,285.588972 360.047482,277.576384 359.470752,283.167585 L359.470752,283.167585 Z M375.143727,242.382631 C376.099074,228.136073 372.339321,232.639852 371.075797,238.076965 C372.550642,238.843004 373.71731,248.119116 375.143727,242.382631 L375.143727,242.382631 Z M88.1389802,196.534777 C90.6175995,188.927221 91.0666567,184.357404 92.0131987,179.954883 C85.162876,188.711497 88.8609937,190.578166 88.1389802,196.534777 L88.1389802,196.534777 Z M100.843934,144.397834 C101.570671,147.45424 108.397524,139.78474 102.957866,152.038497 C92.4131259,159.41206 101.631558,155.305696 100.843934,144.397834 C100.80016,144.213765 100.778517,143.990733 100.783021,143.722135 C100.807653,143.950186 100.827878,144.175419 100.843934,144.397834 L100.843934,144.397834 Z M285.083776,341.645127 C285.29721,340.701315 284.932417,339.65259 282.215313,337.820481 C247.950493,311.559443 227.694493,289.234259 234.725319,237.56187 C239.951112,233.617211 241.342309,212.062469 253.334776,204.512145 C260.642961,188.363698 282.5411,173.48758 305.949304,173.117768 C329.846188,171.801414 350.009734,185.867469 360.139935,199.136667 C341.697775,181.949225 311.514091,176.71903 285.768148,189.464328 C259.445475,201.302707 243.838538,230.297711 246.114641,259.165041 C247.092001,257.725416 247.959298,258.614726 248.430367,255.053086 C247.624706,311.158814 308.890188,352.27836 352.994644,331.529278 L353.518544,332.691544 C371.401584,327.813551 369.09026,323.789647 380.783356,315.759448 C379.872034,317.643727 372.907246,322.45128 377.058823,322.543733 C382.746881,321.033668 400.519858,304.4978 409.254459,296.731752 C413.260754,288.089604 407.123639,292.056275 412.719244,281.190853 L419.556359,277.774497 C423.355734,266.785805 427.568947,260.57825 427.097877,247.784524 L423.100388,256.202144 C428.973351,238.420362 425.58341,219.062477 426.411084,202.324092 L424.777749,201.88384 C423.342527,159.773727 386.942483,115.017698 354.544331,99.8774285 C326.623543,86.9780419 283.637328,84.7679764 263.777556,94.4843402 C266.511521,92.0629537 277.403358,91.0459713 274.12348,89.1793024 C243.028474,92.2698722 249.97125,100.022712 226.136001,106.111398 C219.598257,112.424613 245.22093,101.048499 231.432234,109.232786 C218.647313,112.759205 212.690702,107.00511 193.746654,126.609536 C195.43282,129.339099 205.769939,118.544118 197.1454,129.378722 C179.341605,127.168656 140.898792,170.110846 132.736518,184.348599 L137.006963,185.08382 C129.99815,202.641074 120.783673,213.836685 119.528955,224.354307 C117.719519,250.219118 108.685546,297.378923 121.228328,311.880827 L120.013232,323.98776 C121.734618,327.421726 123.033362,330.921731 125.172987,334.144376 L122.381789,334.368905 C135.576144,375.985936 136.553504,335.143748 153.974279,378.367699 C151.447232,377.518013 148.89377,376.589081 145.213262,371.618635 C144.77301,375.409205 150.571131,386.78532 157.469881,395.660802 L154.55101,398.997913 C158.390008,405.971506 161.929635,407.499181 164.59316,409.933775 C150.258552,402.110495 177.888773,435.71934 180.385003,440.002993 L182.586263,436.080347 C182.269282,441.719977 186.63218,449.001746 194.820869,459.105532 L201.635972,458.836978 C204.44478,464.388557 214.715862,474.4175 220.945429,474.88857 L216.802656,480.299268 C232.440411,485.252104 224.397005,486.867829 243.618412,493.669724 L239.739791,486.814999 C249.539803,495.32067 252.57314,502.76093 266.410263,509.276661 C285.592047,515.964091 288.136704,513.318176 307.829181,518.949 C291.139224,518.464723 271.517187,518.645226 258.322832,513.925724 C168.304485,489.544562 85.9509273,383.945694 91.973576,275.185815 C90.5867819,253.164405 94.1660315,225.648648 90.4987315,220.16751 C95.6452785,203.411515 101.601889,182.979415 113.594357,158.664291 C112.72706,157.035359 115.566686,163.427819 121.664178,153.03787 C125.362295,144.915218 128.378022,135.969296 133.040292,128.075575 L135.435263,127.516455 C137.834637,113.586879 167.943478,92.2214444 176.902609,81.4660856 L177.518962,85.5736377 C197.070557,67.2415403 231.912109,54.9541042 251.529742,46.2018924 C246.378793,51.9031571 263.064347,45.6339672 275.092035,44.9031487 C271.297061,47.0251639 267.537308,48.6761092 263.980072,51.1723386 C278.411535,47.7295672 277.72034,52.5811454 292.468785,50.6352311 C287.295823,51.3880622 281.009023,53.439637 282.012798,54.2232857 C298.500239,56.1339798 301.018481,49.1251664 316.273216,54.2056756 L315.309064,49.7018966 C336.498397,57.3534781 340.936139,56.0547344 363.961323,68.2673277 C372.053157,68.6591521 372.854416,63.2880764 385.071412,68.2585226 C387.219842,72.0314831 384.582732,72.7270815 399.577718,81.655394 C401.250676,80.9906134 396.592809,76.7509857 392.903496,73.374252 C423.056363,89.4962839 455.833132,123.853558 465.826854,160.623413 C456.471497,143.374336 464.862702,169.41965 461.648862,168.068076 C465.818049,179.316517 469.234406,190.943575 471.347616,202.944848 C468.57843,193.100811 462.542574,169.336002 451.958913,154.002022 C451.096019,163.898889 438.319903,147.173712 445.302301,168.952983 C450.624949,176.6662 446.385322,161.129703 452.945078,174.839154 C453.046336,181.354885 455.53376,187.830993 456.977787,196.323456 C454.732501,195.953644 451.972121,186.937281 450.321175,189.446718 C452.597279,200.127234 456.339422,205.696423 457.765838,206.515292 C457.03502,208.302716 455.141936,204.846737 455.014263,212.110896 C455.885962,228.836074 459.702948,221.778832 461.499176,222.575689 C459.693658,230.726736 452.444643,240.307723 455.84361,254.250286 C455.877729,254.38289 455.910924,254.515494 455.943195,254.648054 C455.909031,254.515054 455.875836,254.382494 455.84361,254.250286 C454.774501,250.093206 452.817933,245.915522 451.316145,241.977599 C449.880923,254.066921 453.992878,256.42227 448.410481,271.07386 C452.434385,257.866297 451.994133,245.948673 448.203563,251.68956 C449.880923,270.46191 433.353859,284.875763 435.141283,296.74496 L430.33373,290.123568 C417.315475,308.997176 430.034359,300.517921 421.167681,314.817309 C424.416742,309.199692 419.463906,312.501583 423.694728,306.13994 C420.88592,306.302833 411.165154,318.092784 402.267659,325.022352 C367.289629,353.062009 325.531718,356.724906 285.10777,341.624259 C285.099493,341.631083 285.09148,341.638039 285.083776,341.645127 C285.046619,341.809341 284.991983,341.970385 284.92916,342.131826 C285.176361,344.184325 292.942936,350.122798 298.79961,353.136852 C314.199629,358.829311 331.611599,359.05384 345.316647,358.54755 C315.696486,370.936244 259.128493,345.965145 240.624698,312.836174 C244.811495,313.747496 259.150506,336.121108 269.883852,339.75759 C263.539819,334.672678 258.631008,328.200973 254.083204,321.544361 C262.654913,331.397203 273.080082,339.445011 284.465002,344.776464 C284.166423,343.645148 284.636436,342.884173 284.92916,342.131826 C284.904858,341.92975 284.953373,341.76536 285.083776,341.645127 L285.083776,341.645127 Z M295.444889,50.0056706 L292.45998,50.6220235 L295.237971,50.3754823 L295.444889,50.0056706 L295.444889,50.0056706 Z M287.009659,47.6591269 C291.231677,48.4163605 296.131682,48.9974933 295.444889,50.0056706 C300.063134,48.9930907 301.110934,48.0597563 287.009659,47.6591269 L287.009659,47.6591269 Z M288.572554,43.8641538 C293.921617,41.9050319 301.722884,42.7899387 307.397734,41.5 C300.001498,42.1207555 292.640483,42.4905672 285.371921,43.4283042 L288.572554,43.8641538 L288.572554,43.8641538 Z" id="Page-1" sketch:type="MSShapeGroup"></path>
        </g>
    </g>
</svg>