<?xml version="1.0" encoding="UTF-8" standalone="no"?>
<svg width="560px" height="560px" viewBox="0 0 560 560" version="1.1" xmlns="http://www.w3.org/2000/svg" xmlns:xlink="http://www.w3.org/1999/xlink" xmlns:sketch="http://www.bohemiancoding.com/sketch/ns">
    <!-- Generator: bin/sketchtool 1.3 (252) - http://www.bohemiancoding.com/sketch -->
    <title>default</title>
    <desc>Created with bin/sketchtool.</desc>
    <defs></defs>
    <g id="Page-1" stroke="none" stroke-width="1" fill="none" fill-rule="evenodd" sketch:type="MSPage">
        <g id="default" sketch:type="MSArtboardGroup" fill="#000000">
            <g id="Group" sketch:type="MSLayerGroup" transform="translate(89.000000, 60.000000)">
                <g transform="translate(0.881000, 0.112200)" id="Shape" sketch:type="MSShapeGroup">
                    <path d="M207.817,429.983 L207.817,434.36321 L203.81,438.37019 L177.1475,438.37019 L173.1405,434.36321 L173.1405,429.983 L0.0005,429.983 L0.0005,412.0808 L173.1405,412.0808 L173.1405,407.70059 L177.1475,403.69361 L181.5277,403.69361 L181.5277,338.53241 L96.9157,338.53241 L96.9157,0.00041 L227.7287,0.00041 L316.1252,57.07271 L316.1252,281.41971 L229.0229,338.53191 L199.43,338.53191 L199.43,403.69311 L203.8102,403.69311 L207.8172,407.70009 L207.8172,412.0803 L380.9572,412.0803 L380.9572,429.9825 L207.8172,429.9825 L207.8174,429.9831 L207.817,429.983 Z M116.829,318.62 L216.3972,318.62 L216.3972,19.916 L116.829,19.916 L116.829,318.62 L116.829,318.62 Z M296.21,270.648 L296.21,67.927 L236.3099,29.2546 L236.3099,309.9176 L296.21,270.6482 L296.21,270.648 Z M196.484,69.6994 C196.484,86.1679 183.0821,99.5698 166.6136,99.5698 C150.145,99.5698 136.7432,86.1679 136.7432,69.6994 C136.7432,53.2308 150.145,39.8289 166.6136,39.8289 C183.0821,39.8289 196.484,53.2308 196.484,69.6994 L196.484,69.6994 Z M156.656,69.6994 C156.656,75.1756 161.1366,79.6562 166.6128,79.6562 C172.0891,79.6562 176.5697,75.1756 176.5697,69.6994 C176.5697,64.2231 172.0891,59.7425 166.6128,59.7425 C161.1366,59.7425 156.656,64.2231 156.656,69.6994 L156.656,69.6994 Z"></path>
                </g>
            </g>
        </g>
    </g>
</svg>