<?xml version="1.0" encoding="UTF-8"?>
<svg width="560px" height="560px" viewBox="0 0 560 560" version="1.1" xmlns="http://www.w3.org/2000/svg" >
    
    
    
    
    <g id="Page-1" stroke="none" stroke-width="1"  fill-rule="evenodd">
        <g id="docker" >
            <g id="Group" transform="translate(40.000000, 161.000000)">
                <path d="M172.662857,300.0417 C169.869817,300.141663 167.042001,300.205657 164.178962,300.232857 C97.9482682,300.862086 60.0651429,278.811037 38.5106239,251.541767 C68.1177376,257.988998 117.908641,247.650817 117.828875,247.47819 C117.735236,247.275779 134.075965,284.22672 172.663277,300.04168 L172.662857,300.0417 Z M140.452478,215.7715 C146.786274,215.7715 151.92084,220.908191 151.92084,227.24464 C151.92084,233.581075 146.786288,238.71778 140.452478,238.71778 C134.118682,238.71778 128.984117,233.581089 128.984117,227.24464 C128.984117,220.908205 134.118668,215.7715 140.452478,215.7715 L140.452478,215.7715 Z M296.217376,146.9804 C314.836618,146.983568 326.30288,146.989704 326.317504,147.000113 C326.377795,147.043005 351.687464,145.77673 372.625539,132.838343 C365.456816,121.594803 361.302997,108.240973 361.302997,93.9165933 C361.302997,76.0082833 367.795424,59.6170133 378.554309,46.9701133 C398.562402,57.7743333 412.911743,77.7208333 416.011102,101.215843 C421.039774,99.7016383 426.31095,98.7146593 431.766787,98.3224283 C449.621598,97.0388033 466.429224,102.342339 479.809539,112.171508 C469.226659,135.676248 446.415044,152.769828 418.909714,154.747258 C413.842692,155.111539 408.860012,154.945309 404.01705,154.295209 C388.182857,193.439559 330.626029,306.158809 166.715125,307.716309 C-18.9301224,309.480043 0.719790087,146.990009 0.787661808,147.000509 C0.803250402,147.002908 18.1258076,147.001249 44.7728047,146.997867 L44.7728047,97.6077569 L93.8751953,97.6077569 L93.8751953,49.4912269 L192.059685,49.4912269 L192.059685,0.656776869 L247.475475,0.656776869 L247.475475,97.6074769 L296.217726,97.6074769 L296.217726,146.980507 L296.217376,146.9804 Z M51.0150437,146.9965 L51.6691095,146.996427 L93.8750337,146.991048 L93.8750337,103.852078 L51.015092,103.852078 L51.015092,146.996508 L51.0150437,146.9965 Z M100.117085,146.9902 L103.796033,146.989731 L142.879858,146.985253 L142.879858,103.852023 L100.117106,103.852023 L100.117106,146.990223 L100.117085,146.9902 Z M149.122566,146.9846 L163.548595,146.982947 L192.059265,146.980688 L192.059265,103.852078 L149.122566,103.852078 L149.122566,146.984608 L149.122566,146.9846 Z M198.301574,146.9804 L223.301178,146.978419 L241.232536,146.977865 L241.232536,103.852265 L198.301574,103.852265 L198.301574,146.980385 L198.301574,146.9804 Z M289.974577,146.9797 L289.974577,103.85235 L247.474706,103.85235 L247.474706,146.97774 C263.432816,146.977492 277.909294,146.977988 289.974577,146.979743 L289.974577,146.9797 Z M198.301574,97.6073 L241.232536,97.6073 L241.232536,55.73575 L198.301574,55.73575 L198.301574,97.6073 L198.301574,97.6073 Z M100.117085,97.6073 L142.879837,97.6073 L142.879837,55.73575 L100.117085,55.73575 L100.117085,97.6073 L100.117085,97.6073 Z M149.122566,97.6073 L192.059265,97.6073 L192.059265,55.73575 L149.122566,55.73575 L149.122566,97.6073 L149.122566,97.6073 Z M198.301574,49.4907 L241.232536,49.4907 L241.232536,6.90123 L198.301574,6.90123 L198.301574,49.4907 L198.301574,49.4907 Z" id="Shape"></path>
            </g>
        </g>
    </g>
</svg>