<?xml version="1.0" encoding="UTF-8" standalone="no"?>
<svg width="560px" height="560px" viewBox="0 0 560 560" version="1.1" xmlns="http://www.w3.org/2000/svg" xmlns:xlink="http://www.w3.org/1999/xlink" xmlns:sketch="http://www.bohemiancoding.com/sketch/ns">
    <!-- Generator: sketchtool 3.4 (375) - http://www.bohemiancoding.com/sketch -->
    <title>dynamodb</title>
    <desc>Created with sketchtool.</desc>
    <defs></defs>
    <g id="Page-1" stroke="none" stroke-width="1" fill="none" fill-rule="evenodd" sketch:type="MSPage">
        <g id="dynamodb" sketch:type="MSArtboardGroup" fill="#000000">
            <path d="M488.5125,148.791667 L488.5125,198.402778 L440.206944,163.152778 L439.554167,163.152778 L439.554167,156.625 L346.206944,127.25 L213.693056,127.25 L120.345833,156.625 L120.345833,186.652778 L213.693056,165.111111 L346.206944,165.111111 L439.554167,186.652778 L439.554167,193.180556 L440.206944,193.180556 L488.5125,219.291667 L488.5125,268.902778 L439.554167,264.986111 L439.554167,258.458333 L346.206944,254.541667 L213.693056,254.541667 L120.345833,258.458333 L120.345833,288.486111 L213.693056,291.75 L346.206944,291.75 L439.554167,288.486111 L439.554167,295.013889 L488.5125,290.444444 L488.5125,340.055556 L440.206944,366.166667 L439.554167,366.166667 L439.554167,359.788506 L346.206944,381.180556 L213.693056,381.180556 L120.345833,359.638889 L120.345833,390.319444 L213.693056,419.041667 L346.206944,419.041667 L439.554167,390.518933 L439.554167,396.847222 L440.206944,396.847222 L488.5125,361.597222 L488.5125,411.208333 L439.554167,468 L346.206944,515 L213.693056,515 L120.345833,468 L120.345833,461.472222 L71.3875,404.680556 L71.3875,354.416667 L72.0402778,355.069444 L85.7486111,353.111111 L85.7486111,341.361111 L71.3875,333.527778 L71.3875,283.916667 L85.7486111,283.916667 L85.7486111,263.027778 L72.0402778,262.375 L71.3875,263.027778 L71.3875,212.763889 L85.7486111,205.583333 L85.7486111,193.180556 L72.0402778,191.875 L71.3875,191.875 L71.3875,142.263889 L120.345833,84.8194444 L120.345833,91.3472222 L213.693056,45 L346.206944,45 L439.554167,91.3472222 L488.5125,148.791667 L488.5125,148.791667 Z" id="Page-1" sketch:type="MSShapeGroup"></path>
        </g>
    </g>
</svg>