<?xml version="1.0" encoding="UTF-8" standalone="no"?>
<svg width="560px" height="560px" viewBox="0 0 560 560" version="1.1" xmlns="http://www.w3.org/2000/svg" xmlns:xlink="http://www.w3.org/1999/xlink" xmlns:sketch="http://www.bohemiancoding.com/sketch/ns">
    <!-- Generator: sketchtool 3.4 (375) - http://www.bohemiancoding.com/sketch -->
    <title>ec2</title>
    <desc>Created with sketchtool.</desc>
    <defs></defs>
    <g id="Page-1" stroke="none" stroke-width="1" fill="none" fill-rule="evenodd" sketch:type="MSPage">
        <g id="ec2" sketch:type="MSArtboardGroup" fill="#000000">
            <g id="Group" sketch:type="MSLayerGroup" transform="translate(40.000000, 37.000000)">
                <path d="M480.04759,224.98352 C480.04759,214.941709 471.911409,206.801292 461.874954,206.801292 L224.703262,206.801292 C214.666749,206.801292 206.530626,214.941767 206.530626,224.98352 L206.530626,468.206818 C206.530626,478.248628 214.666806,486.389046 224.703262,486.389046 L461.874954,486.389046 C471.911467,486.389046 480.04759,478.248571 480.04759,468.206818 L480.04759,224.98352 L480.04759,224.98352 Z M184.645744,382.588723 L120.957292,382.588723 C110.920779,382.588723 102.784656,374.448248 102.784656,364.406494 L102.784656,121.183197 C102.784656,111.141386 110.920837,103.000968 120.957292,103.000968 L358.128985,103.000968 C368.165497,103.000968 376.301621,111.141444 376.301621,121.183197 L376.301621,184.905268 L202.818133,184.905268 C192.781621,184.905268 184.645497,193.045743 184.645497,203.087496 L184.645497,382.588969 L184.645744,382.588723 Z M81.9881026,279.876071 L18.2996513,279.876071 C8.26313846,279.876071 0.127015385,271.735596 0.127015385,261.693842 L0.127015385,18.4705449 C0.127015385,8.42873412 8.2631959,0.288316216 18.2996513,0.288316216 L255.471344,0.288316216 C265.507856,0.288316216 273.643979,8.42879159 273.643979,18.4705449 L273.643979,82.1926155 L100.160492,82.1926155 C90.1239795,82.1926155 81.9878564,90.3330909 81.9878564,100.374844 L81.9878564,279.876317 L81.9881026,279.876071 Z" id="Shape" sketch:type="MSShapeGroup"></path>
            </g>
        </g>
    </g>
</svg>