<?xml version="1.0" encoding="UTF-8"?>
<svg width="560px" height="560px" viewBox="0 0 560 560" version="1.1" xmlns="http://www.w3.org/2000/svg" xmlns:xlink="http://www.w3.org/1999/xlink">
    <!-- Generator: sketchtool 40.3 (33839) - http://www.bohemiancoding.com/sketch -->
    <title>elastic-lb</title>
    <desc>Created with sketchtool.</desc>
    <defs></defs>
    <g id="Page-1" stroke="none" stroke-width="1" fill="none" fill-rule="evenodd">
        <g id="elastic-lb" fill="#000000">
            <path d="M163.012621,450.189564 L147.205825,454.660194 L122.617476,442.366019 L122.617476,118.033981 L147.205825,105.739806 L163.012621,110.210436 L163.012621,450.189564 L163.012621,450.189564 Z M422.946602,449.976699 L397.772816,443.536893 L397.772816,311.813592 L456.901942,306.54466 L479.733981,307.715534 L479.733981,421.290291 L422.946602,449.976699 L422.946602,449.976699 Z M110.908738,428.871699 L100.370874,431.242718 L80.4660194,421.290291 L80.4660194,139.109709 L100.370874,129.157282 L110.908738,131.528301 L110.908738,428.871699 L110.908738,428.871699 Z M280.1,521.4 L240.290291,501.495146 L240.290291,323.52233 L349.76699,314.740777 L386.649515,317.082524 L279.246609,327.532514 L280.1,327.620388 L386.649515,317.082524 L386.649515,468.125243 L280.1,521.4 L280.1,521.4 Z M228.581553,474.185744 L205.164078,482.761165 L205.164078,483.932039 L174.721359,468.71068 L174.721359,91.6893204 L205.164078,76.4679612 L228.581553,85.0433822 L228.581553,247.415534 L335.716505,256.197087 L345.878226,255.590399 L353.279612,256.197087 L392.503883,253.85534 L392.503883,253.843748 L412.994175,255.669609 L412.994175,303.559517 L386.649515,305.907061 L386.649515,305.373786 L374.940777,306.531781 L374.940777,306.512988 L386.649515,305.373786 L349.76699,303.032039 L344.593836,303.446997 L338.058252,303.032039 L228.581553,311.813592 L228.581553,474.185744 L228.581553,474.185744 Z M479.733981,251.513592 L456.901942,252.684466 L397.772816,247.415534 L397.772816,116.863107 L422.946602,110.423301 L479.733981,139.109709 L479.733981,251.513592 L479.733981,251.513592 Z M386.649515,242.146602 L347.425243,244.48835 L240.290291,235.706796 L240.290291,58.9048544 L280.1,39 L386.649515,92.2747573 L386.649515,242.146602 L386.649515,242.146602 Z" id="Page-1"></path>
        </g>
    </g>
</svg>