<?xml version="1.0" encoding="UTF-8"?>
<svg width="560px" height="560px" viewBox="0 0 560 560" version="1.1" xmlns="http://www.w3.org/2000/svg" >
    
    
    
    
    <g id="Page-1" stroke="none" stroke-width="1"  fill-rule="evenodd">
        <g id="elasticsearch" >
            <path d="M210.850895,488.490202 C242.814505,458.123612 268.416962,421.136246 285.389833,379.664874 L402.457164,379.664874 C435.603037,379.664874 465.285614,394.487142 485.242799,417.864888 C443.515262,472.626969 377.616286,507.977297 303.460732,508.002 L303.304612,508.002 C270.397365,507.991131 239.116287,501.024025 210.850895,488.490202 L210.850895,488.490202 Z M270.617959,379.544079 C254.338735,419.367544 228.16886,454.054609 195.210974,480.683704 C153.145259,458.031718 119.00412,422.581345 97.9768208,379.544079 L270.617959,379.544079 Z M84.0134609,215.331202 L375.348592,215.331202 C410.828856,215.331202 439.580147,244.129428 439.51345,279.615373 C439.454164,315.007942 410.742397,343.666846 375.348592,343.669069 L289.020613,343.669069 C294.315356,324.327224 297.562752,302.925187 297.562752,279.327341 C297.562752,255.744564 294.088339,234.478144 288.43121,215.333672 L274.698078,215.333672 C279.680828,234.478144 282.741226,255.744564 282.741226,279.327341 C282.741226,302.924446 279.880918,324.325989 275.216831,343.670057 L84.0134609,343.670057 C78.0675586,323.312691 74.8792013,301.779236 74.8792013,279.501247 C74.8792013,257.221776 78.0675586,235.688568 84.0134609,215.331202 L84.0134609,215.331202 Z M201.701567,74.8132522 C232.32531,59.5717827 266.853044,51 303.382672,51 C377.230926,51 442.897698,86.0331476 484.6697,140.388625 C464.700163,164.196937 434.731037,179.334655 401.222037,179.337126 L97.9466837,179.337126 C117.862121,138.568047 149.556473,104.60452 188.597856,81.8806499 C222.089564,107.176055 249.112418,140.583775 266.701864,179.213613 L281.523391,179.213613 C263.038971,138.617452 235.580612,102.988974 201.701567,74.8132522 L201.701567,74.8132522 Z" id="Page-1"></path>
        </g>
    </g>
</svg>