<?xml version="1.0" encoding="UTF-8"?>
<svg width="560px" height="560px" viewBox="0 0 560 560" version="1.1" xmlns="http://www.w3.org/2000/svg" >
    
    
    
    
    <g id="Page-1" stroke="none" stroke-width="1"  fill-rule="evenodd">
        <g id="exchange" >
            <path d="M307.743687,503.329517 C221.163851,487.86508 135.016389,472.477419 48.4325117,457.012982 L48.4325117,103.391773 C134.676955,87.9960305 220.969889,72.5881655 307.743687,57.099483 L307.743687,503.329517 L307.743687,503.329517 Z M451.158461,354.884658 C443.161565,354.884658 436.251665,355.090743 428.832614,355.009926 C417.198929,354.884658 399.152371,342.834763 398.279541,342.232672 L389.341121,353.886562 C386.864063,356.82832 387.736893,359.115457 390.367504,361.491493 C396.647027,367.172966 402.882101,372.911012 408.927253,378.84302 C411.695254,381.56253 414.754198,382.912183 418.560704,382.904101 C435.53643,382.883897 452.516196,383.001082 469.491921,382.835406 C477.436286,382.754589 479.185986,380.742232 479.198108,372.915053 C479.214272,357.422329 478.923329,341.921524 479.339539,326.440923 C479.517338,319.874498 477.424163,314.976955 472.579151,310.863342 C451.210993,292.70768 428.901309,275.909753 404.033751,262.72033 C399.952465,260.55442 396.901602,260.27964 394.533648,266.522796 C396.097468,267.743141 398.27146,269.133202 400.077732,270.903107 C415.675518,286.193786 431.216732,301.545079 446.741782,316.908494 C448.669281,318.815788 451.130175,320.496793 451.142298,323.624432 C451.186747,333.569031 451.158461,343.51363 451.158461,354.884658 L451.158461,354.884658 Z M163.662167,288.265948 L213.47002,288.265948 L213.47002,251.590946 C210.176705,251.421229 207.247069,251.203022 204.313393,251.126245 C192.437254,250.815098 180.561116,250.463541 168.680937,250.314029 C164.842104,250.261497 162.971177,249.416954 163.165139,244.879049 C163.544982,235.770912 163.148976,226.634488 163.21363,217.514228 C163.237875,214.237077 162.534763,210.810413 164.353157,207.2504 L223.960138,207.2504 L223.960138,170.102615 C190.663309,172.385711 157.560443,174.656684 124.166633,176.951902 L124.166633,363.216139 C156.853289,366.941828 189.37831,370.651353 222.117498,374.385124 L222.117498,334.921917 C202.341444,333.273239 182.969479,331.652847 163.662167,330.044578 L163.662167,288.265948 L163.662167,288.265948 Z M439.043911,262.316242 C443.056502,265.201429 447.056971,267.949225 450.916009,270.895025 C453.740582,273.048812 455.793347,272.264882 457.979462,269.876724 C464.129677,263.156745 470.388996,256.533747 476.652356,249.910749 C478.69704,247.74888 479.218313,245.231413 479.210231,242.338145 C479.1577,224.509795 479.177904,206.685485 479.266803,188.861176 C479.291049,183.365583 476.906931,180.617786 471.261826,180.637991 C454.071934,180.702645 436.882042,180.68244 419.696191,180.642031 C415.82099,180.629909 412.705473,182.129074 410.159721,184.92132 C390.238196,206.79863 373.024059,230.591315 359.1194,256.751954 C356.929245,260.87769 357.78187,263.395157 361.018612,264.413458 C376.802279,249.13086 392.557659,234.890808 407.032082,219.450617 C414.835016,211.126409 422.835953,207.732072 434.166572,208.350327 C451.178666,209.283769 450.754373,208.608943 451.360505,225.887734 C451.825206,239.299406 452.16868,252.1696 439.399508,260.837281 C439.2702,260.926181 439.294446,261.237328 439.043911,262.316242 L439.043911,262.316242 Z M331.782865,415.55843 L331.782865,383.122309 C344.05501,384.374981 349.797096,375.48101 356.121069,367.581095 C372.426009,347.194869 388.13694,326.400515 399.322088,302.725015 C398.194683,300.579309 396.933929,298.954876 395.131698,298.526543 C384.770889,308.624696 374.571715,318.464232 364.485685,328.420953 C356.941367,335.872331 349.465744,343.400485 342.119429,351.053907 C339.355469,353.931011 336.389465,355.236215 332.009155,354.100728 L332.009155,289.006237 C339.35951,293.039032 346.136061,296.845539 352.997471,300.494451 C357.806115,303.052326 357.979873,302.918977 361.636867,297.875962 C352.896449,289.078972 344.135827,280.229451 335.326715,271.428421 C333.350726,269.460513 331.556576,267.6502 331.576781,264.457907 C331.685884,246.209306 331.629312,227.960704 331.629312,208.891804 C336.987515,209.021112 342.240656,206.758221 346.879583,210.718281 C350.710334,213.991391 354.270347,217.583731 358.202121,221.273052 C362.509696,217.183684 365.120103,212.32655 368.300273,207.913912 C369.961074,205.614653 368.647789,203.994261 366.991029,202.438523 C360.024557,195.908466 353.050002,189.382449 346.119898,182.816023 C342.079021,178.989313 336.664245,181.74115 331.879846,179.922755 L331.879846,148.278645 C334.017471,146.391556 336.466242,147.10275 338.700847,147.10275 C388.605681,147.042137 438.510515,147.001728 488.415349,147.05426 C505.22944,147.074464 512.377752,154.372288 512.377752,171.125765 C512.381792,243.966619 512.385833,316.803431 512.36967,389.640244 C512.365629,408.943514 505.653732,415.574594 486.350461,415.570553 C437.93267,415.550349 389.514879,415.55843 341.097087,415.55843 L331.782865,415.55843 L331.782865,415.55843 Z" id="Page-1"></path>
        </g>
    </g>
</svg>