<?xml version="1.0" encoding="UTF-8" standalone="no"?>
<svg width="560px" height="560px" viewBox="0 0 560 560" version="1.1" xmlns="http://www.w3.org/2000/svg" xmlns:xlink="http://www.w3.org/1999/xlink" xmlns:sketch="http://www.bohemiancoding.com/sketch/ns">
    <!-- Generator: bin/sketchtool 1.3 (252) - http://www.bohemiancoding.com/sketch -->
    <title>freebsd</title>
    <desc>Created with bin/sketchtool.</desc>
    <defs></defs>
    <g id="Page-1" stroke="none" stroke-width="1" fill="none" fill-rule="evenodd" sketch:type="MSPage">
        <g id="freebsd" sketch:type="MSArtboardGroup" fill="#000000">
            <g id="Group" sketch:type="MSLayerGroup" transform="translate(60.000000, 64.000000)">
                <path d="M410.022682,119.350125 C427.064674,149.613244 436.786989,184.555463 436.786989,221.770575 C436.786989,337.13685 343.35695,430.65945 228.105609,430.65945 C112.853931,430.65945 19.4242299,337.136513 19.4242299,221.770575 C19.4242299,106.4043 112.854268,12.8817 228.105609,12.8817 C262.65623,12.8817 295.245563,21.2866144 323.944015,36.165825 C321.301537,38.0803613 318.671939,40.0663463 316.060277,42.1255519 C305.672602,39.5593706 296.6964,40.6115117 290.741059,45.9383569 C275.551399,59.5250606 285.766733,95.7763069 313.557672,126.907813 C341.348645,158.039319 376.191251,172.262244 391.38086,158.675507 C397.434349,153.260843 399.452921,144.246488 397.932072,133.390851 C402.211603,128.788279 406.240688,124.094768 410.022985,119.350479 L410.022682,119.350125 Z M374.679387,143.820562 C363.041943,150.686899 340.084261,140.524993 321.548123,119.760862 C303.646529,99.7074562 296.023908,76.65975 302.837502,65.3713875 C304.287718,63.9666906 305.760653,62.5689562 307.256029,61.1786588 C307.510787,60.9418046 309.804809,58.8495713 309.804809,58.8495713 L321.329623,49.2321544 L321.342841,49.2219399 L321.945559,48.7568177 L321.957684,48.7475203 L324.416728,46.8861065 L325.036251,46.4260755 L325.038981,46.4240615 C333.286638,40.323479 341.699151,35.0383977 350.022046,30.5329752 L350.058425,30.513219 L350.618269,30.2115159 L353.650257,28.6149705 L353.814399,28.5301299 L354.262155,28.3004511 L354.438838,28.2098873 L354.874976,27.9880266 L355.06277,27.892571 L357.331231,26.7614195 L357.552924,26.6524873 L357.945758,26.4609139 L358.173951,26.3497444 L358.560232,26.1629719 L358.794324,26.0499062 L360.651275,25.1677842 L361.015887,24.9974968 L361.268794,24.8795288 L361.628888,24.7128222 L364.956822,23.2104983 L365.294968,23.0621485 L365.56842,22.9423772 L365.903572,22.7966813 L366.179076,22.6771184 C366.179076,22.6771184 368.81262,21.5533024 370.139582,21.0161712 C371.545709,20.4469943 373.819331,19.5733705 374.615832,19.2620655 C374.716252,19.2228165 374.816706,19.183495 374.918616,19.1483026 C376.519621,18.5954269 382.623168,16.4937638 384.221851,15.9448201 C384.317284,15.9120505 384.416067,15.8840321 384.510785,15.8545636 C384.603875,15.8256014 384.696112,15.7936933 384.790159,15.7680092 C386.577807,15.2797952 393.450101,13.4096605 395.236703,12.9252805 C395.326907,12.9008249 395.421517,12.88218 395.509783,12.8617393 C395.595268,12.8419429 395.68003,12.8186428 395.766303,12.8026368 C397.61282,12.4600592 404.746754,11.1441703 406.588921,10.8062737 C406.665153,10.7922909 406.742527,10.7854844 406.819349,10.7752425 C406.898393,10.7647045 406.981697,10.752052 407.063184,10.7430456 C407.79417,10.6622544 410.478713,10.3690163 411.205269,10.2904936 C411.277522,10.2826849 411.350077,10.2779919 411.422496,10.2719154 C411.49679,10.2656815 411.576968,10.2591178 411.651031,10.2530905 C411.722974,10.2472357 411.794919,10.2414132 411.866878,10.2357512 C411.940674,10.2299446 412.020247,10.223851 412.093811,10.2182507 C412.16529,10.2128091 412.236772,10.207397 412.308265,10.2021493 C412.381561,10.1967693 412.460524,10.1911445 412.533586,10.1859707 C412.604597,10.180942 412.675611,10.17594 412.746635,10.1711062 C412.819426,10.1661523 412.895685,10.1597908 412.97033,10.156247 C413.502675,10.1309734 415.412077,10.043096 415.940701,10.0194651 C416.007781,10.0164665 416.07495,10.015994 416.142079,10.0144614 C416.210687,10.0128949 416.283992,10.0114283 416.352347,10.0100666 C416.418967,10.0087394 416.485586,10.0074125 416.55221,10.0062911 C416.620277,10.0051455 416.692936,10.004134 416.760748,10.003193 C416.826858,10.0022756 416.892968,10.0013552 416.95908,10.000645 C417.026602,9.99991965 417.098614,9.9993619 417.165879,9.99884096 C417.231475,9.99833296 417.297071,9.99781878 417.36267,9.9975194 C417.429643,9.99721374 417.499398,9.99499516 417.567717,9.99700701 C418.240557,10.0168206 420.731232,10.0944849 421.399712,10.1164007 C421.459457,10.1183594 421.519006,10.1243019 421.578637,10.1285013 C421.639309,10.1327741 421.703359,10.1375624 421.763747,10.1420374 C421.822824,10.1464153 421.881904,10.150745 421.940963,10.1553513 C422.001038,10.1600368 422.064411,10.1652633 422.1242,10.1701509 C422.182703,10.1749333 422.24121,10.1796637 422.299694,10.1846766 C422.359169,10.1897743 422.421864,10.195438 422.48105,10.2007376 C422.538974,10.2059242 422.596904,10.2110548 422.654806,10.2164737 C422.713676,10.2219831 422.775692,10.2280832 422.83427,10.233794 C422.891611,10.2393843 422.949201,10.2428854 423.006277,10.2507392 C423.534167,10.3233789 425.475722,10.5948475 426.001615,10.6696324 C426.055338,10.6772721 426.109367,10.6896563 426.161653,10.6994494 C426.212891,10.7090457 426.264148,10.7185379 426.315336,10.7283903 C426.367291,10.7383903 426.421747,10.7492512 426.473383,10.7594491 C426.523982,10.7694424 426.574603,10.7793267 426.625151,10.7895784 C426.676453,10.7999832 426.730216,10.8112756 426.781197,10.821878 C426.831153,10.8322674 426.881133,10.8425428 426.931035,10.8531929 C426.98168,10.8640021 427.034475,10.8725381 427.085071,10.8867327 C427.623377,11.0377506 429.627327,11.6063249 430.160857,11.7593001 C430.203586,11.7715512 430.244571,11.7892347 430.28629,11.8045818 C430.328747,11.8202004 430.373499,11.8372041 430.415599,11.8530115 C430.456709,11.8684474 430.498235,11.8828249 430.538889,11.8994267 C430.701598,11.9658712 431.230604,12.1844911 431.391852,12.2516789 C431.430409,12.2677447 431.468321,12.2853241 431.506374,12.3025523 C431.545252,12.3201539 431.586616,12.3395048 431.62512,12.3572884 C431.662559,12.3745802 431.700299,12.3912403 431.737398,12.4092527 C431.830922,12.45466 432.092719,12.5832171 432.186261,12.6297313 C432.224093,12.6485441 432.26228,12.6668386 432.298651,12.6883458 C432.536994,12.8292858 433.380375,13.3327869 433.616319,13.4753722 C433.650424,13.495982 433.682524,13.5198203 433.714316,13.5438508 C433.848944,13.6456129 434.293113,13.9850274 434.42409,14.085945 C434.450242,14.1060952 434.475068,14.1279198 434.500178,14.1493572 C434.527924,14.1730449 434.561361,14.2008075 434.590568,14.2280718 C434.69427,14.3248767 435.009827,14.6213403 435.122391,14.7301874 C435.172311,14.7784573 435.265957,14.8811495 435.265957,14.8811495 C447.340282,27.8940526 430.394499,92.1261245 379.70188,139.256143 L379.145213,139.772294 L378.591265,140.282854 L378.590096,140.284424 C377.29073,141.480349 375.987234,142.658922 374.679237,143.820648 L374.679387,143.820562 Z M41.3465134,107.097188 C5.2914636,65.180025 -6.13302682,16.3142438 3.96387739,5.4324 C14.2285885,-5.63020875 65.2450881,2.61694125 110.217471,36.91575 C82.306636,54.7872188 58.7116782,78.8194125 41.346682,107.097019 L41.3465134,107.097188 Z" id="Shape" sketch:type="MSShapeGroup"></path>
            </g>
        </g>
    </g>
</svg>