<?xml version="1.0" encoding="UTF-8" standalone="no"?>
<svg width="560px" height="560px" viewBox="0 0 560 560" version="1.1" xmlns="http://www.w3.org/2000/svg" xmlns:xlink="http://www.w3.org/1999/xlink">
    <!-- Generator: sketchtool 3.8.2 (29753) - http://www.bohemiancoding.com/sketch -->
    <title>git</title>
    <desc>Created with sketchtool.</desc>
    <defs></defs>
    <g id="Page-1" stroke="none" stroke-width="1" fill="none" fill-rule="evenodd">
        <g id="git" fill="#000000">
            <g id="Group" transform="translate(40.000000, 40.000000)">
                <path d="M173.427057,53.9971084 L218.781935,8.64223064 C230.506988,-3.08282272 249.516971,-3.08282272 261.242024,8.64223064 L471.107773,218.507979 C482.832826,230.233033 482.832826,249.243015 471.107773,260.968069 L261.242024,470.833818 C249.516971,482.558871 230.506988,482.558871 218.781935,470.833818 L8.91618589,260.968069 C-2.80886747,249.243015 -2.80886747,230.233033 8.91618589,218.507979 L154.123208,73.300957 L208.756957,127.934706 C206.550337,132.587698 205.315902,137.791229 205.315902,143.282974 C205.315902,158.846127 215.229431,172.093797 229.086725,177.055725 L229.086725,308.509632 C215.507682,313.61603 205.845968,326.723608 205.845968,342.087738 C205.845968,361.893976 221.902092,377.9501 241.708329,377.9501 C261.514567,377.9501 277.570691,361.893976 277.570691,342.087738 C277.570691,327.511353 268.874346,314.966086 256.386993,309.357439 L256.386993,175.770382 L256.526498,175.704727 L308.906643,228.084871 C306.781788,232.666492 305.595923,237.772197 305.595923,243.154889 C305.595923,262.961126 321.652047,279.01725 341.458285,279.01725 C361.264522,279.01725 377.320646,262.961126 377.320646,243.154889 C377.320646,223.348651 361.264522,207.292527 341.458285,207.292527 C337.062848,207.292527 332.852075,208.08328 328.960605,209.530368 L274.912275,155.482038 C276.289726,151.673853 277.040517,147.566284 277.040517,143.283346 C277.040517,123.477108 260.984393,107.420984 241.178155,107.420984 C236.895234,107.420984 232.787656,108.17177 228.979464,109.549227 L173.427271,53.9970338 L173.427057,53.9971084 Z" id="Shape"></path>
            </g>
        </g>
    </g>
</svg>