<?xml version="1.0" encoding="UTF-8"?>
<svg width="560px" height="560px" viewBox="0 0 560 560" version="1.1" xmlns="http://www.w3.org/2000/svg" >
    
    
    
    
    <g id="Page-1" stroke="none" stroke-width="1"  fill-rule="evenodd">
        <g id="haproxy" >
            <g id="Group" transform="translate(88.000000, 40.000000)">
                <path d="M204.888,420.522 C216.06945,425.45166 223.87452,436.63329 223.87452,449.6379 C223.87452,467.2032 209.63502,481.4427 192.06972,481.4427 C174.50442,481.4427 160.26492,467.2032 160.26492,449.6379 C160.26492,436.63329 168.07002,425.45166 179.25144,420.522 L179.25144,61.299 C168.06999,56.36934 160.26492,45.18771 160.26492,32.1831 C160.26492,14.6178 174.50442,0.3783 192.06972,0.3783 C209.63502,0.3783 223.87452,14.6178 223.87452,32.1831 C223.87452,45.18771 216.06942,56.36934 204.888,61.299 L204.888,420.522 L204.888,420.522 Z M280.266,346.959 C291.44745,351.88866 299.25252,363.07029 299.25252,376.0749 C299.25252,393.6402 285.01302,407.8797 267.44772,407.8797 C249.88242,407.8797 235.64292,393.6402 235.64292,376.0749 C235.64292,363.07029 243.44802,351.88866 254.62944,346.959 L254.62944,249.1707 C243.44799,244.24104 235.64292,233.05941 235.64292,220.0548 C235.64292,219.41025 235.662093,218.770176 235.700064,218.134968 C235.662093,217.572078 235.64292,217.00488 235.64292,216.433716 C235.64292,200.929236 249.77112,188.348856 267.24192,188.250576 L267.44761,188.249999 L267.653301,188.250576 C285.124191,188.348847 299.252301,200.929206 299.252301,216.433716 C299.252301,217.004883 299.233128,217.572081 299.195157,218.134968 C299.233128,218.770179 299.252301,219.41025 299.252301,220.0548 C299.252301,233.05941 291.447201,244.24104 280.265781,249.1707 L280.265781,346.959 L280.266,346.959 Z M353.157,262.101 C370.7223,262.101 384.9618,276.3405 384.9618,293.9058 C384.9618,311.4711 370.7223,325.7106 353.157,325.7106 C335.5917,325.7106 321.3522,311.4711 321.3522,293.9058 C321.3522,276.3405 335.5917,262.101 353.157,262.101 L353.157,262.101 Z M130.56,251.364 C141.74145,256.29366 149.54652,267.47529 149.54652,280.4799 C149.54652,298.0452 135.30702,312.2847 117.74172,312.2847 C100.17642,312.2847 85.93692,298.0452 85.93692,280.4799 C85.93692,267.47529 93.74202,256.29366 104.92344,251.364 L104.92344,155.4297 C93.74199,150.50004 85.93692,139.31841 85.93692,126.3138 C85.93692,108.7485 100.17642,94.509 117.74172,94.509 C135.30702,94.509 149.54652,108.7485 149.54652,126.3138 C149.54652,139.31841 141.74142,150.50004 130.56,155.4297 L130.56,251.364 L130.56,251.364 Z M32.415,168.069 C49.9803,168.069 64.2198,182.3085 64.2198,199.8738 C64.2198,217.4391 49.9803,231.6786 32.415,231.6786 C14.8497,231.6786 0.6102,217.4391 0.6102,199.8738 C0.6102,182.3085 14.8497,168.069 32.415,168.069 L32.415,168.069 Z" id="Shape"></path>
            </g>
        </g>
    </g>
</svg>