<?xml version="1.0" encoding="UTF-8" standalone="no"?>
<svg width="560px" height="560px" viewBox="0 0 560 560" version="1.1" xmlns="http://www.w3.org/2000/svg" xmlns:xlink="http://www.w3.org/1999/xlink">
    <!-- Generator: sketchtool 3.8.2 (29753) - http://www.bohemiancoding.com/sketch -->
    <title>iis</title>
    <desc>Created with sketchtool.</desc>
    <defs></defs>
    <g id="Page-1" stroke="none" stroke-width="1" fill="none" fill-rule="evenodd">
        <g id="iis" fill="#000000">
            <path d="M283.103278,496.25 L283.103278,283.103278 L339.490328,283.103278 C342.737616,284.832461 346.219899,286.452694 349.943362,287.975892 L381.378127,300.894288 C386.832591,303.190862 391.210477,305.343928 394.511875,307.353486 C397.813183,309.362954 400.396862,311.946633 402.262913,315.104524 C404.128873,318.262324 405.348959,322.424949 405.92308,327.592308 C406.497201,332.759666 406.784306,339.362372 406.784306,347.400516 C406.784306,354.290327 406.497201,360.605927 405.92308,366.347497 C405.348959,372.088977 403.985275,376.897476 401.8323,380.772995 C399.679234,384.648514 396.521343,387.662806 392.358809,389.815872 C388.196184,391.968938 382.382861,393.045517 374.918928,393.045517 C363.722985,393.045517 355.756686,389.815872 351.01994,383.356674 C346.283195,376.897476 343.914777,369.648805 343.914777,361.610752 L343.914777,347.831129 L299.992229,347.831129 L299.992229,364.194431 C299.992229,374.529148 301.930033,384.146147 305.805552,393.045517 C309.681071,401.944796 314.920184,409.62408 321.522889,416.083278 C328.125595,422.542477 336.020231,427.638082 345.206616,431.370093 C354.393001,435.102014 364.297105,436.968065 374.918928,436.968065 C388.985657,436.968065 400.899229,434.6714 410.659825,430.078253 C420.420422,425.485015 428.243214,419.241169 434.128291,411.346533 C440.013278,403.451988 444.247656,393.978497 446.831336,382.926061 C449.415015,371.873715 450.706855,359.888299 450.706855,346.969902 C450.706855,335.773959 450.132734,325.798101 448.984402,317.042238 C447.83607,308.286467 445.61125,300.535429 442.309942,293.789125 C440.426248,289.939979 438.098754,286.371209 435.320458,283.103278 L496.25,283.103278 L496.25,496.25 L283.103278,496.25 L283.103278,496.25 Z M64.5,496.25 L64.5,283.103278 L117.154402,283.103278 L117.154402,434.384386 L161.07695,434.384386 L161.07695,283.103278 L204.999498,283.103278 L204.999498,434.384386 L248.922047,434.384386 L248.922047,283.103278 L277.646722,283.103278 L277.646722,496.25 L64.5,496.25 L64.5,496.25 Z M117.154402,277.646722 L64.5,277.646722 L64.5,64.5 L277.646722,64.5 L277.646722,277.646722 L248.922047,277.646722 L248.922047,127.787775 L204.999498,127.787775 L204.999498,277.646722 L161.07695,277.646722 L161.07695,127.787775 L117.154402,127.787775 L117.154402,277.646722 L117.154402,277.646722 Z M330.483555,277.646722 L283.103278,277.646722 L283.103278,64.5 L496.25,64.5 L496.25,277.646722 L430.041876,277.646722 L428.314967,276.133983 C422.286382,271.110222 414.391837,266.732246 404.63124,263.000325 L371.043409,249.651315 C365.30193,247.354651 360.780446,245.058077 357.479139,242.761504 C354.17774,240.464839 351.665815,237.809406 349.943362,234.795114 C348.220909,231.780821 347.144421,228.192408 346.713808,224.029783 C346.283195,219.86725 346.067843,214.771645 346.067843,208.74306 C346.067843,203.575701 346.498456,198.623604 347.359682,193.886858 C348.220909,189.150113 349.728101,184.987579 351.881167,181.399075 C354.034233,177.810662 357.048525,174.868123 360.924044,172.571549 C364.799563,170.274885 369.75157,169.126644 375.780155,169.126644 C386.976098,169.126644 394.942488,172.786811 399.679234,180.107235 C404.415979,187.42766 406.784306,196.111678 406.784306,206.15938 L406.784306,216.063484 L450.706855,216.063484 L450.706855,194.532823 C450.706855,185.920559 448.984402,177.523556 445.539496,169.341905 C442.09459,161.160254 437.142584,153.768075 430.683386,147.16537 C424.224187,140.562573 416.473149,135.251707 407.430272,131.232681 C398.387394,127.213563 388.411446,125.204095 377.502608,125.204095 C364.871317,125.204095 353.818881,127.428915 344.34539,131.878555 C334.871899,136.328285 327.049108,142.285026 320.877015,149.749049 C314.704832,157.212981 310.03984,166.112351 306.88204,176.447068 C303.72424,186.781786 302.145295,197.690623 302.145295,209.173673 C302.145295,228.407669 305.374939,244.412203 311.834137,257.187001 C315.750944,264.933674 321.963779,271.756642 330.483555,277.646722 L330.483555,277.646722 Z" id="Page-1"></path>
        </g>
    </g>
</svg>