<?xml version="1.0" encoding="UTF-8"?>
<svg width="560px" height="560px" viewBox="0 0 560 560" version="1.1" xmlns="http://www.w3.org/2000/svg" xmlns:xlink="http://www.w3.org/1999/xlink">
    <!-- Generator: sketchtool 40.3 (33839) - http://www.bohemiancoding.com/sketch -->
    <title>java</title>
    <desc>Created with sketchtool.</desc>
    <defs></defs>
    <g id="Page-1" stroke="none" stroke-width="1" fill="none" fill-rule="evenodd">
        <g id="java" fill="#000000">
            <path d="M462.488702,474.45962 C460.87046,484.872639 451.873569,492.064158 442.993219,496.740743 C425.891801,505.659053 406.734617,509.751606 387.70829,513.122943 C353.755183,518.511754 319.382199,520.466963 284.937959,520.515244 L283.980999,520.51591 C277.92125,520.518573 271.85917,520.462301 265.797091,520.35575 C237.970993,519.50967 209.904489,518.426513 182.559202,512.642132 C176.053937,510.837759 169.067862,509.629738 163.408345,505.777591 L163.978392,505.873154 C188.123822,509.899445 212.629195,511.56963 237.131238,512.523594 C245.693934,512.777651 254.261958,512.908509 262.83098,512.909508 L263.783279,512.909175 C295.520127,512.876877 327.267631,511.056854 358.796039,507.101153 C382.164314,503.851683 405.651127,499.874671 428.298519,492.64819 C440.469295,488.430773 453.475163,483.973283 462.50868,474.336754 L462.488702,474.45962 Z M164.29305,444.313377 C168.344648,444.327029 172.396911,444.795852 175.91642,446.866602 C161.944269,447.709686 147.968788,451.202558 135.441733,457.586288 C132.672741,459.153252 129.538813,460.960621 128.455657,464.21342 C128.455657,467.94703 132.672741,469.151721 135.441733,470.353748 C152.910418,476.859013 171.580465,478.906788 189.891901,480.836025 C213.338092,482.802555 236.851209,483.701911 260.373983,483.696251 L261.656923,483.695252 C292.450796,483.644973 323.25932,482.048707 353.9543,479.269061 C374.553917,476.980881 395.272072,474.6927 415.26901,469.030187 C421.65274,466.860544 428.879221,464.697228 433.097305,459.031717 C435.627888,455.660381 433.946382,451.442963 431.412469,448.552437 L431.802046,448.768869 C435.860969,451.026749 441.265096,453.907285 440.449316,459.27512 C438.88435,465.056171 432.974105,468.068565 428.158005,470.837556 C412.740424,478.669712 395.755879,482.646724 378.889872,486.136599 C339.057154,493.966092 298.426969,496.866274 257.841402,496.903566 L256.670674,496.903899 C247.695093,496.899904 238.722176,496.756726 229.761247,496.497008 C192.177085,495.167453 154.59592,491.555711 117.492569,485.174977 C110.868434,483.608013 103.401547,482.278125 98.5817841,477.102748 C95.4508528,473.487676 98.2198441,468.427508 101.228908,465.780384 C108.820659,458.794309 118.578722,454.939164 128.093384,451.442963 L128.613485,451.268486 C139.535951,447.616121 150.804706,444.691632 162.306209,444.33835 C162.893571,444.323033 163.482597,444.313377 164.071957,444.313044 L164.29305,444.313377 Z M214.009695,408.776324 C211.82407,410.804121 208.114101,413.311063 209.776628,416.749327 C213.029427,420.969742 219.050884,421.450552 223.870647,422.537039 C238.819737,424.391357 253.899685,425.793167 268.919698,425.786508 L269.399177,425.785509 C274.671781,425.772856 279.936394,425.584727 285.185357,425.180833 C300.602938,424.219544 315.777116,421.450552 330.838751,418.797102 L331.245309,419.033845 C339.790024,423.995787 348.689355,428.253494 357.815771,432.0517 C343.606211,438.432101 328.307168,442.52765 313.011455,445.421506 C299.115221,447.888159 284.973254,449.2004 270.83162,449.244352 L270.216622,449.245684 C258.329538,449.251678 246.444785,448.360313 234.708871,446.504662 C223.264972,444.456887 211.581001,441.809764 201.223256,436.14392 C197.246577,433.85907 193.032156,431.205619 191.346654,426.747797 C190.020095,423.254925 192.186075,419.524645 194.958396,417.355003 L195.088588,417.250783 C200.606592,412.861552 207.416526,410.591019 214.112584,408.680095 L214.009695,408.776324 Z M202.062011,354.624498 C199.66395,357.46641 196.390507,360.213758 196.153764,364.125508 C196.035226,366.65376 198.083001,368.582998 200.127779,369.788021 C204.101461,371.835796 208.559284,372.560009 213.020104,373.159358 C229.27977,374.85385 245.659638,376.012591 262.076467,376.006598 L262.623872,376.005932 C269.373205,375.992946 276.128864,375.781842 282.884524,375.328668 C304.202027,374.245511 325.407319,370.74931 346.490411,367.016033 L346.626263,367.142896 C352.379012,372.496412 359.192609,376.197058 366.365814,379.424218 C340.943438,386.891104 314.806171,391.230389 288.547371,393.278164 C279.242148,393.910144 269.885981,394.288733 260.523487,394.304715 L259.938124,394.305381 C244.528201,394.307046 229.102962,393.32145 213.859525,390.865119 C204.101461,389.060747 194.105989,387.012972 185.194006,382.436611 C181.579267,380.507707 177.483717,377.979121 176.397231,373.761704 C175.676348,370.150295 178.326135,366.897496 180.973592,364.849721 L181.120765,364.73418 C187.355324,359.867801 194.766938,357.118455 202.175554,354.488979 L202.062011,354.624498 Z M422.089266,293.346748 C432.68775,293.435984 443.266255,296.920864 451.171,304.13436 C459.12236,311.238973 463.577519,322.323929 461.889353,333.043614 C460.084647,345.451798 451.770348,355.81254 442.380551,363.641367 C425.528196,377.14536 404.761095,385.077741 383.963693,390.378315 L383.472227,390.502846 C384.680247,389.176288 386.003809,387.974594 387.567776,387.009975 C403.469165,378.456602 419.249019,368.46113 430.93632,354.485982 C438.038602,345.814071 443.582578,334.488711 441.295064,323.045145 C438.88768,309.796874 425.998019,300.157348 412.865289,299.436131 C412.228647,299.375198 411.596001,299.344897 410.966352,299.341568 L410.821176,299.341235 C405.305836,299.346562 400.041889,301.375358 394.678717,302.448525 C399.732558,296.3052 407.80512,294.738236 415.150472,293.773618 C417.345754,293.483932 419.566008,293.340089 421.786595,293.345083 L422.089266,293.346748 Z M221.300773,298.091925 C221.868156,298.093257 222.43554,298.097919 223.002923,298.106576 C208.908904,302.202126 194.455609,305.694997 181.204674,311.96019 C178.07341,313.645692 174.458671,315.212989 172.651301,318.465454 C171.690013,320.99404 174.337136,322.679875 176.263044,323.522626 C184.454143,326.89696 193.491324,327.380767 202.284769,328.223851 C213.607133,328.975701 224.946145,329.289027 236.284159,329.289027 L237.008039,329.288694 C256.306736,329.266052 275.601104,328.343055 294.802907,327.137365 C325.151264,325.211458 355.271536,321.115908 385.26095,316.296145 L384.0183,316.88384 C377.798725,319.824977 371.507228,322.809401 365.750816,326.53502 C362.616888,328.704329 358.76474,329.307008 355.271536,330.149758 C318.40859,338.340858 280.581027,340.872441 242.999862,341.471789 C240.949756,341.489104 238.902314,341.499093 236.857203,341.500758 L236.175277,341.501091 C223.906275,341.500758 211.713191,341.202416 199.515778,340.388633 C183.373984,339.305477 167.110322,338.100453 151.330801,333.883368 C146.751444,332.559806 141.934678,331.114377 138.319939,327.861578 C136.512569,326.416482 136.512569,323.522626 138.079533,321.840121 C142.053215,317.741241 147.597191,315.815334 152.535825,313.405619 C174.006495,304.188301 197.287865,298.134879 220.733389,298.091925 L221.300773,298.091925 Z M389.190014,127.709727 C367.586821,141.428154 345.117902,154.074413 326.499799,171.745212 C319.629264,178.368015 313.129993,185.959766 310.117599,195.234022 C307.826422,202.10156 308.787711,209.689982 311.563029,216.195579 C316.622864,227.758016 325.16991,237.153806 331.675508,247.754954 C337.219484,256.788805 338.180773,268.354571 333.969682,278.112635 C327.579958,292.447059 315.0559,302.926339 302.045037,311.235977 C300.382844,312.185611 298.956394,313.951692 296.958897,314.23605 L296.863335,314.24837 C305.538242,306.41921 312.280915,295.337585 312.043507,283.409879 C311.800104,274.497896 306.861804,266.668736 301.080419,260.282009 C289.156042,246.069119 279.157573,227.998421 281.205348,208.847231 C283.253123,189.693043 296.984869,174.275795 311.800104,163.194503 L312.07414,162.99139 C335.382147,145.879983 362.621882,134.975165 390.217897,127.053773 L389.190014,127.709727 Z M329.756926,26.1500798 C340.96941,39.0294186 344.664062,57.3828094 341.427245,73.9414837 C337.928048,92.6111975 327.570635,109.116596 315.40552,123.331151 C305.650453,134.775383 294.443963,144.891058 282.762989,154.287514 C269.149448,165.252267 255.776645,177.052778 247.226602,192.474354 C239.996791,205.001409 238.31129,220.41899 243.24959,234.032198 C251.287523,257.309572 269.967559,274.611772 280.232738,296.534285 L280.352941,296.792337 C269.027913,286.793868 257.946288,276.433126 247.585546,265.473035 C236.744326,253.907602 226.505451,241.620952 219.759448,227.16466 C215.183087,217.044657 213.135312,205.241815 216.628516,194.522129 C220.121721,183.559042 227.950547,174.765264 235.782704,166.574164 C257.584015,144.771188 284.445494,128.748598 305.765994,106.586013 C317.578159,94.4192329 327.333226,79.845069 330.704563,63.0999306 C333.476551,50.8132811 332.149993,38.1636926 329.624404,26.0002426 L329.756926,26.1500798 Z" id="Page-1"></path>
        </g>
    </g>
</svg>