<?xml version="1.0" encoding="UTF-8"?>
<svg width="560px" height="560px" viewBox="0 0 560 560" version="1.1" xmlns="http://www.w3.org/2000/svg" xmlns:xlink="http://www.w3.org/1999/xlink">
    <!-- Generator: sketchtool 40.3 (33839) - http://www.bohemiancoding.com/sketch -->
    <title>kinesis</title>
    <desc>Created with sketchtool.</desc>
    <defs></defs>
    <g id="Page-1" stroke="none" stroke-width="1" fill="none" fill-rule="evenodd">
        <g id="kinesis" fill="#000000">
            <path d="M114.78592,373.878653 L279.213018,414.709432 L444.494034,373.803772 L485.307639,379.673346 L485.307639,422.266235 L279.213018,525.313545 L74.4923611,422.953217 L74.4923611,379.673346 L114.78592,373.878653 Z M279.213018,298.609462 L484.620657,306.853247 L484.620657,350.133117 L279.213018,400.969791 L74.4923611,350.133117 L74.4923611,306.853247 L279.213018,298.609462 Z M321.118924,51.2959169 L321.118924,278 L74.4923611,278 L74.4923611,133.046783 L279.9,30.6864548 L321.118924,51.2959169 Z M388.443167,123.429034 L388.443167,278 L334.858566,278 L334.858566,117.344434 L356.841992,111.063357 L388.443167,123.429034 Z M440.653804,177.700618 L440.653804,278 L402.182808,278 L402.182808,173.15211 L416.609432,170.830797 L440.653804,177.700618 Z M485.307639,161.90003 L485.307639,278 L454.393446,278 L454.393446,155.570177 L464.698177,153.656245 L485.307639,161.90003 Z" id="Page-1"></path>
        </g>
    </g>
</svg>