<?xml version="1.0" encoding="UTF-8"?>
<svg width="560px" height="560px" viewBox="0 0 560 560" version="1.1" xmlns="http://www.w3.org/2000/svg" xmlns:xlink="http://www.w3.org/1999/xlink">
    <!-- Generator: sketchtool 40.3 (33839) - http://www.bohemiancoding.com/sketch -->
    <title>lambda</title>
    <desc>Created with sketchtool.</desc>
    <defs></defs>
    <g id="Page-1" stroke="none" stroke-width="1" fill="none" fill-rule="evenodd">
        <g id="lambda" fill="#000000">
            <path d="M219.230556,494.375 L219.230556,65.625 L279.8,35 L482.605556,136.402778 L482.605556,423.597222 L456.744444,436.527778 L279.8,525 L219.230556,494.375 Z M171.591667,471.236111 L133.480556,452.180556 L133.480556,107.819444 L171.591667,88.7638889 L205.619444,99.8079444 L205.619444,459.5115 L171.591667,470.555556 L171.591667,471.236111 Z M76.9944444,423.597222 L76.9944444,136.402778 L102.855556,123.472222 L119.869444,127.667167 L119.869444,432.565583 L102.855556,436.527778 L76.9944444,423.597222 Z M340.369444,408.910153 L456.744444,374.154181 L456.744444,185.845819 L340.369444,151.089847 L340.369444,408.910153 Z M377.119444,201.736111 L377.119444,358.944444 L441.772222,280 L377.119444,201.736111 Z" id="Page-1"></path>
        </g>
    </g>
</svg>