<?xml version="1.0" encoding="UTF-8" standalone="no"?>
<svg width="560px" height="560px" viewBox="0 0 560 560" version="1.1" xmlns="http://www.w3.org/2000/svg" xmlns:xlink="http://www.w3.org/1999/xlink" xmlns:sketch="http://www.bohemiancoding.com/sketch/ns">
    <!-- Generator: sketchtool 3.4 (375) - http://www.bohemiancoding.com/sketch -->
    <title>linux</title>
    <desc>Created with sketchtool.</desc>
    <defs></defs>
    <g id="Page-1" stroke="none" stroke-width="1" fill="none" fill-rule="evenodd" sketch:type="MSPage">
        <g id="linux" sketch:type="MSArtboardGroup" fill="#000000">
            <g id="Group" sketch:type="MSLayerGroup" transform="translate(85.000000, 26.000000)">
                <path d="M355.47,457.5 C340.2,465.3 319.83,482.46 312.33,489.66 C306.69,495.03 283.41,497.73 270.27,491.01 C255,483.21 263.04,470.88 239.46,470.13 C227.67,469.83 216.15,469.83 204.63,469.83 C194.46,470.13 184.29,470.64 173.82,470.88 C138.48,471.69 135,494.49 112.2,493.68 C96.66,493.14 77.13,480.81 43.35,473.88 C19.77,469.02 -2.97,467.73 -7.83,457.26 C-12.63,446.79 -1.92,435.03 -1.14,424.86 C-0.33,411.18 -11.31,392.7 -3.27,385.71 C3.69,379.56 18.42,384.09 28.05,378.78 C38.22,372.9 42.51,368.31 42.51,355.74 C46.26,368.55 42.24,378.99 33.93,384.09 C28.83,387.3 19.47,388.92 11.67,388.14 C5.52,387.57 1.77,388.38 0.15,390.81 C-2.25,393.75 -1.47,399.12 1.5,406.08 C4.44,413.04 7.92,417.6 7.38,426.15 C7.11,434.73 -2.52,444.93 -0.9,452.16 C-0.36,454.86 2.31,457.26 9,459.12 C19.71,462.06 39.27,465 58.29,469.59 C79.47,474.93 101.43,484.56 115.11,482.7 C155.82,477.06 132.51,433.41 126.09,423 C91.53,368.85 68.76,333.51 50.55,347.43 C45.99,351.18 45.72,338.31 45.99,333.21 C46.8,315.51 55.65,309.12 60.99,295.44 C71.16,269.43 78.93,239.73 94.47,224.46 C106.08,209.43 124.29,185.07 127.8,172.23 C124.83,144.36 124.02,114.9 123.51,89.22 C122.97,61.62 127.26,37.47 158.34,20.64 C165.81,16.59 175.71,15 186.18,15 C204.66,14.7 225.27,20.1 238.41,29.73 C259.32,45.27 272.43,78.21 270.84,101.76 C269.76,120.24 272.97,139.26 278.88,159.09 C285.84,182.4 296.85,198.72 314.52,217.47 C335.7,239.97 352.29,284.16 357.12,312.27 C361.41,338.58 355.5,354.9 349.89,355.71 C341.31,357 335.97,384.06 309.18,383.01 C292.05,382.2 290.43,372.03 285.6,363.18 C277.83,349.53 270.06,353.82 267.12,368.28 C265.5,375.51 266.55,386.25 268.98,394.23 C273.81,411.12 272.19,426.93 269.25,446.49 C263.61,483.45 295.23,490.41 316.41,472.71 C337.29,455.34 341.85,452.64 368.1,443.52 C408,429.84 394.62,417.81 373.17,410.58 C353.88,404.13 353.1,371.7 360.03,365.55 C361.65,400.38 379.86,405.48 387.36,410.28 C420.3,430.71 375.03,447.6 355.47,457.5 L355.47,457.5 Z M310.47,328.14 C317.7,303.99 314.49,294.39 309.69,271.59 C305.94,254.46 290.13,231.12 277.8,223.92 C281.01,226.59 286.92,234.36 293.07,246.12 C303.78,266.25 314.49,295.95 307.53,320.61 C304.86,330.21 298.44,331.56 294.15,331.83 C275.4,333.99 286.38,309.33 278.61,275.88 C269.76,238.35 260.67,235.68 258.54,232.74 C247.5,184.02 235.47,188.85 231.96,170.64 C229.02,154.29 246.18,140.91 222.87,136.35 C215.64,135 205.47,127.77 201.45,127.23 C197.43,126.72 195.27,100.17 210.27,99.36 C225,98.28 227.7,115.98 225,122.97 C220.74,129.9 225.27,132.6 232.53,130.17 C238.41,128.31 234.66,112.77 236.01,110.64 C232.26,88.14 222.87,84.93 213.24,83.04 C176.25,85.98 192.87,126.72 189.12,122.97 C183.75,117.33 168.24,122.43 168.24,118.92 C168.51,98.04 161.52,85.98 151.89,85.71 C141.18,85.44 136.89,100.44 136.35,108.99 C135.54,117.03 140.91,133.95 144.93,132.6 C147.6,131.79 152.16,126.42 147.33,126.72 C144.93,126.72 141.18,120.81 140.64,113.85 C140.37,106.86 143.07,99.9 152.16,100.17 C162.6,100.44 162.6,121.32 161.52,122.13 C158.07,124.53 153.75,129.12 153.21,129.9 C149.76,135.54 143.07,137.1 140.37,139.56 C135.81,144.36 134.76,149.73 138.24,151.59 C150.54,158.55 146.52,166.56 163.68,167.16 C174.93,167.7 183.21,165.54 191.01,163.14 C196.89,161.28 215.94,157.26 219.93,150.27 C221.79,147.33 223.95,147.33 225.27,148.14 C227.94,149.46 228.48,154.56 221.79,156.18 C212.43,158.88 203.04,163.98 194.49,167.19 C186.18,170.64 183.51,171.99 175.74,173.31 C158.07,176.52 144.96,166.89 156.72,178.41 C160.74,182.16 164.49,184.56 174.66,184.32 C197.16,183.51 222.09,156.42 224.49,168.48 C225,171.15 217.5,174.36 211.62,177.33 C190.74,187.5 176.01,207.87 162.6,200.88 C150.54,194.46 138.51,164.7 138.75,178.14 C139.02,198.75 111.69,216.96 124.29,240.54 C115.98,242.64 97.5,282.06 94.83,302.4 C93.21,314.19 95.91,328.65 92.94,336.69 C88.92,348.48 70.71,325.44 76.62,297.33 C77.67,292.53 76.62,291.42 75.27,293.88 C68.04,306.99 72.06,325.47 77.94,338.31 C80.37,343.95 86.52,346.35 91.08,351.18 C100.44,361.86 137.4,389.22 143.85,395.91 C152.16,403.68 149.76,421.86 132.6,423.75 C141.45,440.37 150,441.99 149.76,469.02 C159.93,463.68 155.94,451.89 151.62,444.42 C148.65,439.02 144.93,436.62 145.71,435.3 C146.25,434.49 151.62,429.9 154.56,433.44 C163.65,443.61 180.81,445.47 199.02,443.07 C217.5,440.91 237.33,434.49 246.42,419.76 C250.71,412.8 253.65,410.4 255.54,411.72 C257.67,412.77 258.51,417.6 258.21,425.64 C257.94,434.22 254.46,443.07 252.06,450.3 C249.63,458.61 248.85,464.22 256.89,464.52 C259.02,449.49 263.31,434.76 264.39,419.76 C265.74,402.63 253.41,371.04 266.82,355.2 C270.3,350.91 274.56,350.4 280.47,350.4 C281.25,328.95 314.22,330.6 325.2,339.42 C325.2,334.56 314.76,330.03 310.47,328.14 L310.47,328.14 Z M91.89,251.01 C90,254.46 85.2,257.13 88.92,257.7 C90.27,257.97 94.02,254.7 95.64,251.01 C96.96,246.45 98.31,244.02 96.18,243.21 C93.75,242.43 94.29,247.23 91.89,251.01 L91.89,251.01 Z M153.21,105.81 C150,105 150.54,109.8 152.16,109.29 C153.24,109.29 154.59,110.91 154.02,113.31 C153.48,116.52 153.75,118.71 156.18,118.71 C156.45,118.71 156.96,118.71 156.96,117.9 C158.07,111.15 154.83,106.35 153.21,105.81 L153.21,105.81 Z M160.47,130.44 C157.8,130.71 158.31,124.53 166.89,125.07 C161.52,125.61 163.41,130.44 160.47,130.44 L160.47,130.44 Z M182.43,125.88 C190.2,122.43 192.87,127.77 190.2,128.85 C187.5,129.63 187.23,124.53 182.43,125.88 L182.43,125.88 Z M214.83,104.19 C211.35,104.49 212.43,106.05 214.05,106.59 C216.18,107.19 218.34,110.91 218.88,114.9 C218.88,115.44 221.55,114.36 221.55,113.55 C221.79,107.16 216.18,103.95 214.83,104.19 L214.83,104.19 Z M230.37,46.35 C228.24,44.19 226.08,42.3 223.95,42.3 C218.58,42.84 221.25,48.45 220.47,51.15 C219.39,54.09 215.4,56.52 218.07,58.65 C220.5,60.51 222.09,55.71 227.19,53.85 C228.51,53.28 234.69,54.09 236.01,51.15 C236.25,49.8 232.8,48.21 230.37,46.35 L230.37,46.35 Z M260.1,164.7 C255.03,161.52 253.95,156.15 252.09,158.01 C246.45,164.16 259.05,177.03 264.39,178.14 C267.6,178.68 270.03,174.36 269.22,170.61 C268.14,165.54 264.39,167.4 260.1,164.7 L260.1,164.7 Z" id="Shape" sketch:type="MSShapeGroup"></path>
            </g>
        </g>
    </g>
</svg>