<?xml version="1.0" encoding="UTF-8"?>
<svg width="560px" height="560px" viewBox="0 0 560 560" version="1.1" xmlns="http://www.w3.org/2000/svg" >
    
    
    
    
    <g id="Page-1" stroke="none" stroke-width="1"  fill-rule="evenodd">
        <g id="logo-loop" >
            <path d="M481.078365,156.975001 C468.928714,165.267532 454.410297,170.006916 438.705644,170.006916 C397.2226,170.006916 363.739235,136.536525 363.739235,95.0701626 C363.739235,83.5173359 366.406412,72.5594807 370.85109,62.7841546 C342.996786,51.2331814 312.477158,44.7162973 280.476588,44.7162973 C150.988361,45.0128563 45.7983267,150.161558 45.7983267,279.895001 C45.7983267,409.629557 150.988361,514.779 280.773147,514.779 C410.556634,514.779 515.746113,409.629557 515.746113,279.895001 C516.042672,234.873638 503.301756,192.814157 481.078365,156.975001 Z M280.180028,423.254589 C201.361132,423.254589 137.358139,359.276247 137.358139,280.488119 C137.358139,201.699806 201.361132,137.722761 280.180028,137.722761 C358.997998,137.722761 423.000991,201.699806 423.000991,280.488119 C423.000991,359.276247 358.997998,423.254589 280.180028,423.254589 Z M438.705644,30.5 C474.357597,30.5 503.301756,59.4330378 503.301756,95.0701626 C503.301756,130.707287 474.357597,159.640325 438.705644,159.640325 C403.053691,159.640325 374.109533,130.707287 374.109533,95.0701626 C374.109533,59.4330378 403.053691,30.5 438.705644,30.5 Z" id="Page-1"></path>
        </g>
    </g>
</svg>