<?xml version="1.0" encoding="UTF-8" standalone="no"?>
<svg width="560px" height="560px" viewBox="0 0 560 560" version="1.1" xmlns="http://www.w3.org/2000/svg" xmlns:xlink="http://www.w3.org/1999/xlink">
    <!-- Generator: sketchtool 3.8.2 (29753) - http://www.bohemiancoding.com/sketch -->
    <title>logo-loop</title>
    <desc>Created with sketchtool.</desc>
    <defs></defs>
    <g id="Page-1" stroke="none" stroke-width="1" fill="none" fill-rule="evenodd">
        <g id="logo-loop" fill="#000000">
            <path d="M431.839087,172.436398 L383.86314,129.841817 L383.86314,149.707125 C300.837916,149.707125 245.776457,216.33643 245.308806,277.055901 L245.458162,277.055901 C245.458162,277.055901 239.616593,357.326798 225.365993,360.676481 C201.382985,366.313254 186.276795,289.705647 161.67678,289.088364 C137.046838,289.705647 121.94051,373.498338 97.9475725,367.861564 C93.5888058,366.829312 90.0063315,360.625868 87.1502264,350.920903 L50.4492066,388.850282 C64.1921611,414.473862 81.497731,434.845159 99.1118043,435.179176 C130.767406,435.816731 144.560284,375.09726 161.67678,375.09726 C178.75342,375.09726 192.53623,425.858702 224.211691,425.858702 C271.650342,425.858702 301.315772,347.895031 301.315772,277.055901 L301.176346,277.055901 C301.624138,236.5763 334.105817,202.371028 383.86314,199.992779 L383.86314,215.030979 L431.839087,172.436398 L431.839087,172.436398 Z M538.73975,266.939966 L496.844095,217.514453 L454.948439,266.939966 L468.661467,266.939966 C468.701323,266.939966 468.721182,279.012974 468.721182,279.306584 C468.721182,326.293167 431.134507,370.274152 384.92987,370.274152 C351.234174,370.274152 321.379807,349.700404 307.925497,320.544963 C303.984734,345.996569 296.570721,369.899728 286.211376,389.360271 C311.468254,415.317868 346.218682,432.157303 384.92987,432.157303 C462.053811,432.157303 524.588722,357.442228 524.588722,278.99284 C524.588722,278.689163 524.538936,266.939966 524.538936,266.939966 L538.73975,266.939966 L538.73975,266.939966 Z M77.8574726,296.173326 C77.8574726,249.176536 115.454214,210.963891 161.668781,210.963891 C194.349326,210.963891 222.422454,230.221983 236.225123,258.041495 C239.74802,235.716986 249.341141,215.588685 263.760817,198.941495 C238.175576,172.052872 201.096409,154.140638 161.668781,154.140638 C84.5249817,154.140638 22,217.74421 22,296.173326 C22,315.917273 31.4637616,350.385538 45.7840051,380.137989 L84.1668308,340.113903 C79.8080641,319.600835 77.8574726,296.173326 77.8574726,296.173326 L77.8574726,296.173326 Z M443.568839,165.741031 L483.374753,165.741031 L483.374753,206.220633 L443.568839,206.220633 L443.568839,165.741031 L443.568839,165.741031 Z M499.744882,185.80879 L489.793473,185.80879 L489.793473,175.69906 L499.744882,175.69906 L499.744882,185.80879 L499.744882,185.80879 Z M513.229119,165.741031 L483.374753,165.741031 L483.374753,135.381365 L513.229119,135.381365 L513.229119,165.741031 L513.229119,165.741031 Z M474.876219,160.519227 L464.934601,160.519227 L464.934601,150.409498 L474.876219,150.409498 L474.876219,160.519227 L474.876219,160.519227 Z M481.902017,135.51293 L461.99906,135.51293 L461.99906,115.273199 L481.902017,115.273199 L481.902017,135.51293 L481.902017,135.51293 Z M499.744882,125.119797 L489.793473,125.119797 L489.793473,115 L499.744882,115 L499.744882,125.119797 L499.744882,125.119797 Z" id="Imported-Layers"></path>
        </g>
    </g>
</svg>