<?xml version="1.0" encoding="UTF-8"?>
<svg width="560px" height="560px" viewBox="0 0 560 560" version="1.1" xmlns="http://www.w3.org/2000/svg" xmlns:xlink="http://www.w3.org/1999/xlink">
    <!-- Generator: sketchtool 40.3 (33839) - http://www.bohemiancoding.com/sketch -->
    <title>logo-1</title>
    <desc>Created with sketchtool.</desc>
    <defs></defs>
    <g id="Page-1" stroke="none" stroke-width="1" fill="none" fill-rule="evenodd">
        <g id="logo-1" fill="#000000">
            <path d="M342.738442,258.362538 L332.796515,249.604191 L332.796515,253.6889 C315.591803,253.6889 304.181463,267.389253 304.0846,279.874485 L304.115511,279.874485 C304.115511,279.874485 302.905047,296.379856 299.951967,297.068599 C294.98207,298.227626 291.851651,282.475569 286.753978,282.348582 C281.650044,282.475569 278.519625,299.705063 273.547595,298.546036 C272.644377,298.333763 271.901977,297.058241 271.310135,295.062633 L263.704664,302.861716 C266.552619,308.130472 270.138843,312.319165 273.788889,312.387905 C280.348711,312.518927 283.206926,300.03383 286.753978,300.03383 C290.292637,300.03383 293.14872,310.471394 299.712806,310.471394 C309.543346,310.471394 315.690665,294.440476 315.690665,279.874485 L315.661753,279.874485 C315.754619,271.551042 322.485519,264.517649 332.796515,264.028667 L332.796515,267.120885 L342.738442,258.362538 L342.738442,258.362538 Z M545.868438,274.514524 C545.868438,280.690485 544.95696,286.117437 543.136134,290.799416 C541.313176,295.48126 538.822032,299.399567 535.660569,302.558372 C532.499239,305.710855 528.735808,308.089309 524.370143,309.681087 C520.004478,311.279188 515.312914,312.076221 510.295584,312.076221 C505.414422,312.076221 500.811594,311.279188 496.478839,309.681087 C492.148216,308.089309 488.366132,305.710855 485.13685,302.558372 C481.905304,299.399567 479.362597,295.48126 477.50673,290.799416 C475.650729,286.117437 474.722596,280.690485 474.722596,274.514524 C474.722596,268.342733 475.685771,262.915781 477.611854,258.233937 C479.533807,253.551958 482.13021,249.614953 485.394665,246.422921 C488.659121,243.235059 492.441072,240.842077 496.736654,239.245994 C501.032103,237.650045 505.55259,236.850995 510.295584,236.850995 C515.174747,236.850995 519.781705,237.650045 524.112328,239.245994 C528.442952,240.842077 532.222904,243.235059 535.45445,246.422921 C538.685863,249.614953 541.22857,253.551958 543.086569,258.233937 C544.940571,262.915781 545.868438,268.342733 545.868438,274.514524 L545.868438,274.514524 Z M444.202912,302.398966 C444.202912,305.52024 443.223349,307.898693 441.264356,309.528003 C439.305229,311.157313 437.088421,311.970892 434.615797,311.970892 C432.139175,311.970892 429.922234,311.157313 427.963108,309.528003 C426.004114,307.898693 425.024551,305.52024 425.024551,302.398966 C425.024551,299.277557 426.004114,296.903408 427.963108,295.274099 C429.922234,293.644789 432.139175,292.826906 434.615797,292.826906 C437.088421,292.826906 439.305229,293.644789 441.264356,295.274099 C443.223349,296.903408 444.202912,299.277557 444.202912,302.398966 L444.202912,302.398966 Z M83.32485,274.514524 C83.32485,280.757073 82.3618083,286.202723 80.4377766,290.853493 C78.5137449,295.49794 75.7813338,299.347508 72.2405431,302.398024 C68.6997392,305.450693 64.3856239,307.743861 59.3002491,309.267034 C54.2127958,310.792225 48.5066934,311.555897 42.1839938,311.555897 C39.2969204,311.555897 35.9272868,311.433214 32.0792235,311.189732 C28.229095,310.946251 24.4490894,310.446911 20.7371284,309.681087 L20.7371284,239.452079 C24.4490894,238.761183 28.3157128,238.293052 32.3369984,238.049571 C36.358284,237.806089 39.8124701,237.685424 42.6995436,237.685424 C48.8160312,237.685424 54.367458,238.380356 59.3517987,239.766319 C64.3361394,241.154165 68.6131347,243.339043 72.1889802,246.320954 C75.7627738,249.304883 78.5137449,253.119072 80.4377766,257.765672 C82.3618083,262.412272 83.32485,267.995267 83.32485,274.514524 L83.32485,274.514524 Z M450.388737,238.518105 L466.473853,238.518105 L466.473853,310.620039 L450.388737,310.620039 L450.388737,238.518105 L450.388737,238.518105 Z M111.266811,299.797882 C112.778406,299.797882 114.224008,299.764521 115.599487,299.695915 C116.972914,299.627175 118.074176,299.521039 118.896919,299.383694 L118.896919,287.624737 C118.278296,287.487526 117.350309,287.350181 116.11505,287.210683 C114.87566,287.073338 113.741461,287.000563 112.710361,287.000563 C111.266811,287.000563 109.909892,287.090019 108.639578,287.260725 C107.365133,287.435467 106.247429,287.764234 105.288504,288.251198 C104.323397,288.736009 103.568633,289.393544 103.018028,290.225821 C102.46741,291.060251 102.195206,292.100765 102.195206,293.34723 C102.195206,295.777608 103.001533,297.456825 104.616227,298.395373 C106.232986,299.329616 108.447796,299.797882 111.266811,299.797882 L111.266811,299.797882 Z M201.693461,299.797882 C203.204909,299.797882 204.648539,299.764521 206.026083,299.695915 C207.399497,299.627175 208.498575,299.521039 209.323582,299.383694 L209.323582,287.624737 C208.70496,287.487526 207.776826,287.350181 206.54158,287.210683 C205.302203,287.073338 204.168084,287.000563 203.136958,287.000563 C201.693461,287.000563 200.336569,287.090019 199.066148,287.260725 C197.79173,287.435467 196.673999,287.764234 195.715088,288.251198 C194.750048,288.736009 193.995123,289.393544 193.444585,290.225821 C192.893914,291.060251 192.621709,292.100765 192.621709,293.34723 C192.621709,295.777608 193.426065,297.456825 195.042771,298.395373 C196.657611,299.329616 198.874286,299.797882 201.693461,299.797882 L201.693461,299.797882 Z M141.889741,242.261267 L157.252975,239.766319 L157.252975,255.89288 L175.709721,255.89288 L175.709721,268.792165 L157.252975,268.792165 L157.252975,288.040136 C157.252975,291.302925 157.822166,293.90401 158.954286,295.843389 C160.088538,297.786938 162.373431,298.75656 165.811096,298.75656 C167.460977,298.75656 169.162156,298.602534 170.91503,298.290447 C172.668038,297.976208 174.266091,297.545474 175.709721,296.989905 L177.875099,309.060949 C176.019098,309.82462 173.956846,310.48229 171.688342,311.035707 C169.419971,311.587105 166.63597,311.868118 163.336473,311.868118 C159.142018,311.868118 155.67131,311.295869 152.924483,310.149352 C150.173525,309.006872 147.973105,307.410923 146.323357,305.365407 C144.675607,303.322044 143.522834,300.837454 142.871302,297.924283 C142.215507,295.015147 141.889741,291.787736 141.889741,288.252409 L141.889741,242.261267 L141.889741,242.261267 Z M491.323341,274.514524 C491.323341,278.054156 491.752366,281.244036 492.612149,284.09062 C493.472198,286.935186 494.709576,289.378209 496.324283,291.421572 C497.938857,293.469105 499.916504,295.046356 502.252959,296.155476 C504.589548,297.266613 507.270423,297.822317 510.295584,297.822317 C513.250662,297.822317 515.915015,297.266613 518.286512,296.155476 C520.660141,295.046356 522.650178,293.469105 524.269149,291.421572 C525.881724,289.378209 527.118969,286.935186 527.978885,284.09062 C528.836802,281.244036 529.267826,278.054156 529.267826,274.514524 C529.267826,270.979196 528.836802,267.772502 527.978885,264.890539 C527.118969,262.012746 525.881724,259.551025 524.269149,257.505644 C522.650178,255.460128 520.660141,253.880726 518.286512,252.771606 C515.915015,251.662486 513.250662,251.104899 510.295584,251.104899 C507.270423,251.104899 504.589548,251.677149 502.252959,252.823665 C499.916504,253.966012 497.938857,255.564113 496.324283,257.60761 C494.709576,259.655144 493.472198,262.118883 492.612149,264.996675 C491.752366,267.874468 491.323341,271.047802 491.323341,274.514524 L491.323341,274.514524 Z M36.8222841,297.403958 C37.5770354,297.476868 38.453486,297.526776 39.4515826,297.562154 C40.4476274,297.599551 41.6333892,297.616232 43.0088681,297.616232 C51.0514393,297.616232 57.0132647,295.56668 60.898448,291.473497 C64.7815662,287.3826 66.7241579,281.730999 66.7241579,274.514524 C66.7241579,266.954753 64.8681707,261.232394 61.1562229,257.347448 C57.4442619,253.466672 51.5669891,251.523123 43.5244179,251.523123 C42.4252739,251.523123 41.2890098,251.539804 40.1217947,251.575182 C38.952541,251.608409 37.8533837,251.695847 36.8222841,251.83521 L36.8222841,297.403958 L36.8222841,297.403958 Z M110.0295,254.435084 C114.568387,254.435084 118.348379,254.955274 121.371675,255.995654 C124.396836,257.036168 126.819896,258.53015 128.642853,260.469529 C130.463812,262.411061 131.75262,264.772834 132.509543,267.54449 C133.264201,270.320316 133.643662,273.406346 133.643662,276.804328 L133.643662,309.059738 C131.441244,309.544549 128.385172,310.116799 124.46492,310.774334 C120.546667,311.434021 115.80366,311.762789 110.235712,311.762789 C106.732041,311.762789 103.550059,311.450702 100.698054,310.828545 C97.8460355,310.202084 95.3899593,309.182555 93.3277601,307.759196 C91.265561,306.337989 89.6817917,304.479726 88.5826344,302.190863 C87.4834903,299.904018 86.9328724,297.094831 86.9328724,293.763301 C86.9328724,290.57544 87.5680296,287.870371 88.8404092,285.650114 C90.1127889,283.431874 91.8120353,281.659031 93.9464092,280.341808 C96.0746009,279.026738 98.5141824,278.071644 101.265154,277.480562 C104.01406,276.891767 106.868143,276.596225 109.82534,276.596225 C111.817416,276.596225 113.586785,276.685681 115.133435,276.856388 C116.680084,277.03113 117.933877,277.257931 118.896919,277.534774 L118.896919,276.076035 C118.896919,273.44159 118.105087,271.325451 116.527487,269.731521 C114.943717,268.133419 112.194811,267.336387 108.27869,267.336387 C105.663821,267.336387 103.086086,267.527809 100.545444,267.910788 C97.9986326,268.291481 95.8003312,268.828351 93.9464092,269.521265 L91.9852576,257.036168 C92.8781897,256.75946 93.995907,256.465937 95.3363311,256.151832 C96.6788337,255.83961 98.1368001,255.562902 99.7185042,255.31942 C101.300208,255.078091 102.96853,254.867836 104.71934,254.695246 C106.474266,254.522522 108.24157,254.435084 110.0295,254.435084 L110.0295,254.435084 Z M200.456083,254.435084 C204.994957,254.435084 208.772911,254.955274 211.798205,255.995654 C214.821234,257.036168 217.246426,258.53015 219.067518,260.469529 C220.888344,262.411061 222.177152,264.772834 222.934075,267.54449 C223.690865,270.320316 224.070192,273.406346 224.070192,276.804328 L224.070192,309.059738 C221.867907,309.544549 218.809703,310.116799 214.89145,310.774334 C210.973197,311.434021 206.230203,311.762789 200.662202,311.762789 C197.156586,311.762789 193.976603,311.450702 191.124651,310.828545 C188.270567,310.202084 185.814464,309.182555 183.752345,307.759196 C181.690093,306.337989 180.108295,304.479726 179.009218,302.190863 C177.910007,299.904018 177.359469,297.094831 177.359469,293.763301 C177.359469,290.57544 177.994613,287.870371 179.2669,285.650114 C180.537321,283.431874 182.238632,281.659031 184.372966,280.341808 C186.501171,279.026738 188.940753,278.071644 191.69171,277.480562 C194.44067,276.891767 197.292622,276.596225 200.249831,276.596225 C202.243999,276.596225 204.013395,276.685681 205.560018,276.856388 C207.106641,277.03113 208.360407,277.257931 209.323582,277.534774 L209.323582,276.076035 C209.323582,273.44159 208.531617,271.325451 206.951952,269.731521 C205.370288,268.133419 202.621328,267.336387 198.703209,267.336387 C196.090285,267.336387 193.512669,267.527809 190.969962,267.910788 C188.425123,268.291481 186.226968,268.828351 184.372966,269.521265 L182.411841,257.036168 C183.304667,256.75946 184.422397,256.465937 185.762901,256.151832 C187.103272,255.83961 188.563424,255.562902 190.145088,255.31942 C191.726752,255.078091 193.395154,254.867836 195.145897,254.695246 C196.898771,254.522522 198.668034,254.435084 200.456083,254.435084 L200.456083,254.435084 Z M345.16923,256.985858 L353.417973,256.985858 L353.417973,265.3093 L345.16923,265.3093 L345.16923,256.985858 L345.16923,256.985858 Z M359.604464,256.985858 L353.417973,256.985858 L353.417973,250.743174 L359.604464,250.743174 L359.604464,256.985858 L359.604464,256.985858 Z M353.112725,250.770213 L348.988354,250.770213 L348.988354,246.608559 L353.112725,246.608559 L353.112725,250.770213 L353.112725,250.770213 Z" id="Imported-Layers"></path>
        </g>
    </g>
</svg>