<?xml version="1.0" encoding="UTF-8" standalone="no"?>
<svg width="560px" height="560px" viewBox="0 0 560 560" version="1.1" xmlns="http://www.w3.org/2000/svg" xmlns:xlink="http://www.w3.org/1999/xlink">
    <!-- Generator: sketchtool 3.8.2 (29753) - http://www.bohemiancoding.com/sketch -->
    <title>logo-2</title>
    <desc>Created with sketchtool.</desc>
    <defs></defs>
    <g id="Page-1" stroke="none" stroke-width="1" fill="none" fill-rule="evenodd">
        <g id="logo-2" fill="#000000">
            <path d="M421.564762,283.383043 C421.564762,287.613303 421.049266,291.463004 420.018273,294.929727 C418.987014,298.400485 417.473434,301.382396 415.479266,303.877344 C413.48723,306.374444 411.010475,308.315841 408.057396,309.705839 C405.100319,311.091667 401.697563,311.786733 397.849526,311.786733 C395.715192,311.786733 393.725288,311.576613 391.867155,311.160407 C390.013153,310.746353 388.225237,310.157424 386.507537,309.393752 L386.507537,329.994189 L371.142038,329.994189 L371.142038,257.89239 C372.515452,257.474166 374.097249,257.074641 375.885165,256.693814 C377.67095,256.315139 379.547602,255.984219 381.506729,255.705493 C383.463723,255.428651 385.457891,255.204002 387.484969,255.031278 C389.514178,254.856401 391.454785,254.771115 393.310785,254.771115 C397.777444,254.771115 401.765647,255.445331 405.271396,256.797933 C408.777279,258.152552 411.732357,260.05857 414.138895,262.520291 C416.545434,264.98403 418.384913,267.982488 419.657332,271.519968 C420.92762,275.0596 421.564762,279.011134 421.564762,283.383043 L421.564762,283.383043 Z M365.036956,277.920309 L356.355057,267.757435 L347.673158,277.920309 L350.514984,277.920309 C350.523112,277.920309 350.527242,280.402746 350.527242,280.463146 C350.527242,290.124527 342.738302,299.167923 333.163578,299.167923 C326.180859,299.167923 319.994368,294.937529 317.206237,288.942632 C316.389623,294.17601 314.853393,299.090977 312.706668,303.092418 C317.940376,308.429914 325.141738,311.892466 333.163578,311.892466 C349.145701,311.892466 362.104395,296.529442 362.104395,280.398576 C362.104395,280.336159 362.094136,277.920309 362.094136,277.920309 L365.036956,277.920309 L365.036956,277.920309 Z M254.630773,311.787137 C250.161982,311.714362 246.536586,311.229416 243.752585,310.328399 C240.968584,309.429534 238.768297,308.162219 237.15359,306.532909 C235.536885,304.901581 234.437674,302.926824 233.854093,300.602582 C233.270512,298.278206 232.977656,295.660441 232.977656,292.74727 L232.977656,232.502223 L248.341023,230.007275 L248.341023,289.625995 C248.341023,291.011823 248.444149,292.262458 248.650401,293.367408 C248.85652,294.482716 249.252502,295.416959 249.836216,296.180631 C250.419664,296.944303 251.26106,297.566594 252.362402,298.049252 C253.461479,298.538368 254.940018,298.850455 256.796018,298.989818 L254.630773,311.787137 L254.630773,311.787137 Z M269.53034,283.931213 C269.53034,274.267814 277.321279,266.410484 286.898135,266.410484 C293.670338,266.410484 299.487894,270.370357 302.348107,276.090564 C303.078116,271.500193 305.066022,267.361408 308.054276,263.938404 C302.75235,258.409486 295.068534,254.726455 286.898135,254.726455 C270.912015,254.726455 257.955186,267.804652 257.955186,283.931213 C257.955186,287.991036 259.916311,295.078506 262.883913,301.19622 L270.837801,292.966403 C269.93445,288.748519 269.53034,283.931213 269.53034,283.931213 L269.53034,283.931213 Z M405.890019,283.797097 C405.890019,279.011134 404.823984,275.180265 402.693647,272.30032 C400.563444,269.422527 397.399982,267.982488 393.209525,267.982488 C391.834112,267.982488 390.559694,268.036565 389.392532,268.138531 C388.225237,268.24265 387.262196,268.365467 386.507537,268.502678 L386.507537,296.490297 C387.466449,297.114605 388.724346,297.634795 390.270968,298.051001 C391.817724,298.469225 393.380735,298.675175 394.960401,298.675175 C402.246235,298.675175 405.890019,293.718641 405.890019,283.797097 L405.890019,283.797097 Z M356.956225,261.238044 L354.893973,261.238044 L354.893973,259.159302 L356.956225,259.159302 L356.956225,261.238044 L356.956225,261.238044 Z M351.802726,256.038028 L349.742605,256.038028 L349.742605,253.959151 L351.802726,253.959151 L351.802726,256.038028 L351.802726,256.038028 Z M356.956225,248.759135 L354.893973,248.759135 L354.893973,246.67824 L356.956225,246.67824 L356.956225,248.759135 L356.956225,248.759135 Z" id="Imported-Layers"></path>
        </g>
    </g>
</svg>