<?xml version="1.0" encoding="UTF-8" standalone="no"?>
<svg width="560px" height="560px" viewBox="0 0 560 560" version="1.1" xmlns="http://www.w3.org/2000/svg" xmlns:xlink="http://www.w3.org/1999/xlink" xmlns:sketch="http://www.bohemiancoding.com/sketch/ns">
    <!-- Generator: sketchtool 3.4 (375) - http://www.bohemiancoding.com/sketch -->
    <title>logo-loop-1</title>
    <desc>Created with sketchtool.</desc>
    <defs></defs>
    <g id="Page-1" stroke="none" stroke-width="1" fill="none" fill-rule="evenodd" sketch:type="MSPage">
        <g id="logo-loop-1" sketch:type="MSArtboardGroup" fill="#000000">
            <path d="M429.469251,177.866181 L381.647763,136.136457 L381.647763,155.598411 C298.889975,155.598411 244.005786,220.874849 243.539503,280.361447 L243.688378,280.361447 C243.688378,280.361447 237.865616,359.002491 223.661034,362.284161 C199.755101,367.806484 184.697546,292.754483 160.17673,292.149734 C135.626084,292.754483 120.568391,374.845813 96.6526985,369.323491 C92.3079648,368.312198 88.7370243,362.234576 85.8901144,352.726664 L49.3072533,389.885911 C63.0059625,414.989219 80.2558171,434.946889 97.813182,435.274124 C129.366869,435.898734 143.11534,376.412271 160.17673,376.412271 C177.198392,376.412271 190.936828,426.142897 222.51031,426.142897 C269.796233,426.142897 299.366155,349.762231 299.366155,280.361447 L299.227315,280.361447 C299.673528,240.70376 332.050633,207.193005 381.647763,204.863181 L381.647763,219.596039 L429.469251,177.866181 L429.469251,177.866181 Z M441.161239,171.306894 L480.838998,171.306894 L480.838998,210.964581 L441.161239,210.964581 L441.161239,171.306894 L441.161239,171.306894 Z M510.597385,171.306894 L480.838998,171.306894 L480.838998,141.563527 L510.597385,141.563527 L510.597385,171.306894 L510.597385,171.306894 Z M479.371004,141.692422 L459.532124,141.692422 L459.532124,121.863645 L479.371004,121.863645 L479.371004,141.692422 L479.371004,141.692422 Z" id="Imported-Layers" sketch:type="MSShapeGroup"></path>
        </g>
    </g>
</svg>