<?xml version="1.0" encoding="UTF-8" standalone="no"?>
<svg width="560px" height="560px" viewBox="0 0 560 560" version="1.1" xmlns="http://www.w3.org/2000/svg" xmlns:xlink="http://www.w3.org/1999/xlink" xmlns:sketch="http://www.bohemiancoding.com/sketch/ns">
    <!-- Generator: bin/sketchtool 1.3 (252) - http://www.bohemiancoding.com/sketch -->
    <title>logo-loop-2</title>
    <desc>Created with bin/sketchtool.</desc>
    <defs></defs>
    <g id="Page-1" stroke="none" stroke-width="1" fill="none" fill-rule="evenodd" sketch:type="MSPage">
        <g id="logo-loop-2" sketch:type="MSArtboardGroup" fill="#000000">
            <path d="M537.538055,271.742321 L495.777282,223.320229 L454.016509,271.742321 L467.685388,271.742321 C467.725115,271.742321 467.74491,283.570195 467.74491,283.857708 C467.74491,329.890257 430.279246,372.978369 384.223365,372.978369 C350.636151,372.978369 320.877901,352.822359 307.466907,324.258901 C303.538831,349.193728 296.148687,372.611548 285.822694,391.676956 C310.998258,417.107364 345.636807,433.60502 384.223365,433.60502 C461.099005,433.60502 523.432585,360.406854 523.432585,283.550334 C523.432585,283.252823 523.38296,271.742321 523.38296,271.742321 L537.538055,271.742321 L537.538055,271.742321 Z M78.1395851,300.38198 C78.1395851,254.339568 115.615284,216.902672 161.681063,216.902672 C194.256394,216.902672 222.23914,235.769875 235.997371,263.024529 C239.508927,241.153305 249.071163,221.433563 263.444415,205.124384 C237.941546,178.781718 200.981754,161.233317 161.681063,161.233317 C84.7856282,161.233317 22.4619454,223.545321 22.4619454,300.38198 C22.4619454,319.725039 31.8952384,353.493582 46.169378,382.641927 L84.4286304,343.430371 C80.0838967,323.333943 78.1395851,300.38198 78.1395851,300.38198 L78.1395851,300.38198 Z M498.66873,192.25833 L488.74936,192.25833 L488.74936,182.353873 L498.66873,182.353873 L498.66873,192.25833 L498.66873,192.25833 Z M473.880132,167.482257 L463.970521,167.482257 L463.970521,157.577799 L473.880132,157.577799 L473.880132,167.482257 L473.880132,167.482257 Z M498.66873,132.801591 L488.74936,132.801591 L488.74936,122.88727 L498.66873,122.88727 L498.66873,132.801591 L498.66873,132.801591 Z" id="Imported-Layers" sketch:type="MSShapeGroup"></path>
        </g>
    </g>
</svg>