<?xml version="1.0" encoding="UTF-8"?>
<svg width="560px" height="560px" viewBox="0 0 560 560" version="1.1" xmlns="http://www.w3.org/2000/svg" >
    
    
    
    
    <g id="Page-1" stroke="none" stroke-width="1"  fill-rule="evenodd">
        <g id="logo-2" >
            <path d="M336.523373,332.155077 C341.853079,332.155077 345.335391,330.73437 347.32503,326.543327 L350.23881,319.937069 L318.75798,241.088571 L340.645338,241.088571 L360.897779,295.145754 L381.150664,241.088571 L403.180266,241.088571 L366.724895,331.515779 C360.968901,346.148957 350.665098,350.055868 337.30527,350.34 C334.889344,350.34 329.772559,349.842768 327.143267,349.203426 L330.198847,330.876436 C331.904442,331.657845 334.604856,332.155077 336.523373,332.155077 Z M119.783452,235.831765 C116.869672,237.820959 113.387804,238.957133 109.621449,238.957133 C99.6728113,238.957133 91.6426904,230.930568 91.6426904,220.985487 C91.6426904,218.215284 92.2823441,215.586881 93.3482854,213.242521 C86.6681494,210.472318 79.3488042,208.909412 71.6742934,208.909412 C40.6198844,208.980534 15.3927695,234.198181 15.3927695,265.311399 C15.3927695,296.424617 40.6198844,321.641908 71.7454154,321.641908 C102.870635,321.641908 128.097617,296.424617 128.097617,265.311399 C128.168739,254.514187 125.113159,244.426861 119.783452,235.831765 Z M446.741172,239.099377 C469.906948,239.099377 485.61158,256.502936 485.61158,281.933505 L485.61158,286.408413 L427.909838,286.408413 C429.188701,296.211251 437.076578,304.451626 450.223484,304.451626 C457.471707,304.451626 465.999682,301.539179 470.973779,296.70866 L479.997385,309.921176 C472.111731,317.166733 460.100999,320.718478 448.020479,320.718478 C424.356849,320.718478 406.51989,304.806792 406.51989,279.802511 C406.51989,257.28439 423.077541,239.099377 446.741172,239.099377 Z M259.420876,241.017449 L275.19663,241.017449 L275.19663,258.917973 L259.420876,258.917973 L259.420876,293.938458 C259.420876,298.768532 261.979047,302.462432 266.5273,302.462432 C269.58288,302.462432 272.496216,301.325813 273.633279,300.189194 L277.968166,315.674993 C274.912587,318.445329 269.440636,320.647444 260.913105,320.647444 C246.487336,320.718478 238.812826,313.259822 238.812826,299.478863 L238.812826,258.917973 L225.950408,258.917973 L225.950408,241.017449 L238.812826,241.017449 L238.812826,219.777746 L259.420876,219.777746 L259.420876,241.017449 Z M194.043735,309.005747 C188.702471,314.944392 179.419269,320.647444 166.755548,320.647444 C149.700487,320.647444 141.670366,311.341839 141.670366,296.211251 L141.670366,241.017449 L162.065495,241.017449 L162.065495,288.184686 C162.065495,298.981898 167.679245,302.533554 176.34902,302.533554 C184.236897,302.533554 190.490301,298.200445 194.043735,293.65397 L194.043735,241.017449 L214.438419,241.017449 L214.438419,318.729506 L194.043735,318.729506 L194.043735,309.005747 L194.114412,308.926668 L194.043735,308.926668 L194.043735,309.005747 Z M289.124989,318.729506 L309.519896,318.729506 L309.519896,211.395705 L289.124989,211.395705 L289.124989,318.729506 Z M519.438992,318.729506 L499.044752,318.729506 L499.044752,241.017449 L519.438992,241.017449 L519.438992,251.672417 C524.910943,244.711349 534.503526,239.241621 544.167231,239.241621 L544.167231,259.202462 C542.74479,258.847296 540.757819,258.705052 538.553036,258.705052 C531.800889,258.705052 522.777282,262.398952 519.438992,267.37127 L519.438992,318.729506 Z M71.6031714,299.692229 C52.7004934,299.692229 37.3510273,284.348542 37.3510273,265.453198 C37.3510273,246.557855 52.7004934,231.214612 71.6031714,231.214612 C90.5056271,231.214612 105.855093,246.557855 105.855093,265.453198 C105.855093,284.348542 90.5056271,299.692229 71.6031714,299.692229 Z M427.62535,272.556955 L465.857438,272.556955 C465.359584,265.169155 460.243243,255.366317 446.741172,255.366317 C434.020998,255.366317 428.549492,264.813989 427.62535,272.556955 Z" id="Page-1"></path>
        </g>
    </g>
</svg>