<?xml version="1.0" encoding="UTF-8" standalone="no"?>
<svg width="560px" height="560px" viewBox="0 0 560 560" version="1.1" xmlns="http://www.w3.org/2000/svg" xmlns:xlink="http://www.w3.org/1999/xlink" xmlns:sketch="http://www.bohemiancoding.com/sketch/ns">
    <!-- Generator: sketchtool 3.4 (375) - http://www.bohemiancoding.com/sketch -->
    <title>logo</title>
    <desc>Created with sketchtool.</desc>
    <defs></defs>
    <g id="Page-1" stroke="none" stroke-width="1" fill="none" fill-rule="evenodd" sketch:type="MSPage">
        <g id="logo" sketch:type="MSArtboardGroup" fill="#000000">
            <path d="M420.681745,282.866836 C420.681745,287.05676 420.166249,290.869755 419.135256,294.303423 C418.103997,297.741088 416.590417,300.694567 414.596249,303.165725 C412.604213,305.639016 410.127458,307.561902 407.174379,308.938647 C404.217302,310.311261 400.814546,310.9997 396.966509,310.9997 C394.832175,310.9997 392.842271,310.791583 390.984138,310.379345 C389.130136,309.96924 387.34222,309.385925 385.62452,308.629535 L385.62452,329.033549 L370.259021,329.033549 L370.259021,257.619233 C371.632435,257.204997 373.214232,256.809281 375.002149,256.432085 C376.787933,256.057021 378.664585,255.729257 380.623712,255.453188 C382.580706,255.178985 384.574874,254.956478 386.601952,254.785401 C388.631161,254.612192 390.571768,254.52772 392.427768,254.52772 C396.894427,254.52772 400.88263,255.195507 404.388379,256.535211 C407.894262,257.876915 410.84934,259.764759 413.255878,262.203008 C415.662417,264.643256 417.501896,267.613123 418.774315,271.116873 C420.044603,274.622756 420.681745,278.536612 420.681745,282.866836 L420.681745,282.866836 Z M342.001314,258.209609 L332.059386,249.534772 L332.059386,253.580533 C314.854675,253.580533 303.444335,267.150255 303.347471,279.516442 L303.378382,279.516442 C303.378382,279.516442 302.167918,295.864435 299.214839,296.546612 C294.244941,297.694588 291.114523,282.092592 286.01685,281.966949 C280.912915,282.092592 277.782497,299.157937 272.810467,298.009961 C271.907249,297.799712 271.164849,296.53622 270.573007,294.559772 L262.967535,302.284492 C265.81549,307.503011 269.401715,311.651765 273.05176,311.719849 C279.611583,311.849623 282.469797,299.48357 286.01685,299.48357 C289.555509,299.48357 292.411591,309.821612 298.975677,309.821612 C308.806218,309.821612 314.953537,293.943548 314.953537,279.516442 L314.924624,279.516442 C315.017491,271.272362 321.748391,264.306031 332.059386,263.821712 L332.059386,266.884446 L342.001314,258.209609 L342.001314,258.209609 Z M545.13131,274.207587 C545.13131,280.324661 544.219831,285.699868 542.399005,290.337204 C540.576048,294.974408 538.084903,298.855354 534.92344,301.983907 C531.762111,305.106465 527.99868,307.462107 523.633015,309.038841 C519.26735,310.621705 514.575786,311.411138 509.558455,311.411138 C504.677294,311.411138 500.074466,310.621705 495.741711,309.038841 C491.411087,307.462107 487.629003,305.106465 484.399722,301.983907 C481.168176,298.855354 478.625469,294.974408 476.769601,290.337204 C474.913601,285.699868 473.985467,280.324661 473.985467,274.207587 C473.985467,268.094644 474.948642,262.719437 476.874726,258.082234 C478.796679,253.444897 481.393081,249.545431 484.657537,246.383835 C487.921993,243.226369 491.703944,240.856204 495.999525,239.275339 C500.294974,237.694608 504.815461,236.903176 509.558455,236.903176 C514.437618,236.903176 519.044577,237.694608 523.3752,239.275339 C527.705823,240.856204 531.485776,243.226369 534.717322,246.383835 C537.948735,249.545431 540.491442,253.444897 542.349441,258.082234 C544.203443,262.719437 545.13131,268.094644 545.13131,274.207587 L545.13131,274.207587 Z M443.465784,301.826154 C443.465784,304.917667 442.486221,307.273309 440.527227,308.887084 C438.568101,310.500991 436.351293,311.306813 433.878669,311.306813 C431.402047,311.306813 429.185106,310.500991 427.225979,308.887084 C425.266986,307.273309 424.287423,304.917667 424.287423,301.826154 C424.287423,298.734508 425.266986,296.382996 427.225979,294.769222 C429.185106,293.155447 431.402047,292.345362 433.878669,292.345362 C436.351293,292.345362 438.568101,293.155447 440.527227,294.769222 C442.486221,296.382996 443.465784,298.734508 443.465784,301.826154 L443.465784,301.826154 Z M364.153939,277.456188 L355.47204,267.390216 L346.790141,277.456188 L349.631967,277.456188 C349.640095,277.456188 349.644225,279.914955 349.644225,279.974779 C349.644225,289.544041 341.855285,298.501208 332.280561,298.501208 C325.297975,298.501208 319.111351,294.311151 316.32322,288.373415 C315.506606,293.556892 313.970376,298.424996 311.823651,302.388284 C317.057359,307.674887 324.258721,311.104425 332.280561,311.104425 C348.262684,311.104425 361.221378,295.887885 361.221378,279.910825 C361.221378,279.849003 361.211119,277.456188 361.211119,277.456188 L364.153939,277.456188 L364.153939,277.456188 Z M253.747756,311.000099 C249.278965,310.928018 245.653569,310.447696 242.869568,309.55527 C240.085567,308.664976 237.885281,307.409744 236.270573,305.79597 C234.653868,304.180197 233.554657,302.224268 232.971076,299.922188 C232.387495,297.619975 232.094639,295.02717 232.094639,292.141775 L232.094639,232.471159 L247.458006,230 L247.458006,289.050262 C247.458006,290.422876 247.561132,291.661587 247.767384,292.756001 C247.973503,293.860674 248.369485,294.78601 248.953199,295.5424 C249.536647,296.29879 250.378176,296.915147 251.479385,297.393204 C252.578463,297.877656 254.057001,298.186768 255.913001,298.324802 L253.747756,311.000099 L253.747756,311.000099 Z M82.5877216,274.207587 C82.5877216,280.390614 81.6246799,285.784341 79.7006482,290.390766 C77.7766166,294.990929 75.0442054,298.803791 71.5034148,301.825221 C67.9626108,304.848783 63.6484955,307.120086 58.5631207,308.628736 C53.4756674,310.139384 47.769565,310.895774 41.4468654,310.895774 C38.559792,310.895774 35.1901584,310.774262 31.3420951,310.533102 C27.4919666,310.291941 23.7119611,309.79723 20,309.038841 L20,239.479459 C23.7119611,238.795151 27.5785844,238.331484 31.59987,238.090324 C35.6211556,237.849163 39.0753418,237.729649 41.9624152,237.729649 C48.0789029,237.729649 53.6303296,238.417955 58.6146703,239.790569 C63.599011,241.165315 67.8760063,243.329361 71.4518518,246.28284 C75.0256454,249.238318 77.7766166,253.016138 79.7006482,257.618434 C81.6246799,262.220729 82.5877216,267.750358 82.5877216,274.207587 L82.5877216,274.207587 Z M449.651608,238.55439 L465.736724,238.55439 L465.736724,309.968707 L449.651608,309.968707 L449.651608,238.55439 L449.651608,238.55439 Z M268.647323,283.409779 C268.647323,273.838519 276.438262,266.056108 286.015118,266.056108 C292.787321,266.056108 298.604877,269.978224 301.46509,275.643889 C302.195099,271.097288 304.183005,266.997965 307.171259,263.607599 C301.869333,258.131398 294.185517,254.483485 286.015118,254.483485 C270.028998,254.483485 257.072169,267.436983 257.072169,283.409779 C257.072169,287.430891 259.033294,294.450784 262.000896,300.510166 L269.954784,292.358819 C269.051433,288.181153 268.647323,283.409779 268.647323,283.409779 L268.647323,283.409779 Z M200.956333,299.249871 C202.467781,299.249871 203.911411,299.216828 205.288955,299.148877 C206.662369,299.080792 207.761446,298.975668 208.586454,298.839632 L208.586454,287.192796 C207.967831,287.05676 207.039698,286.920858 205.804452,286.78269 C204.565075,286.646655 203.430956,286.574573 202.39983,286.574573 C200.956333,286.574573 199.599441,286.663176 198.32902,286.832121 C197.054602,287.00533 195.936871,287.330963 194.977959,287.813284 C194.012919,288.293472 193.257995,288.944738 192.707457,289.769079 C192.156785,290.595552 191.884581,291.626145 191.884581,292.860592 C191.884581,295.26793 192.688937,296.931136 194.305642,297.860735 C195.920483,298.786071 198.137157,299.249871 200.956333,299.249871 L200.956333,299.249871 Z M110.529683,299.249871 C112.041277,299.249871 113.486879,299.216828 114.862358,299.148877 C116.235785,299.080792 117.337048,298.975668 118.15979,298.839632 L118.15979,287.192796 C117.541168,287.05676 116.613181,286.920858 115.377921,286.78269 C114.138531,286.646655 113.004332,286.574573 111.973233,286.574573 C110.529683,286.574573 109.172764,286.663176 107.902449,286.832121 C106.628005,287.00533 105.510301,287.330963 104.551376,287.813284 C103.586269,288.293472 102.831504,288.944738 102.2809,289.769079 C101.730282,290.595552 101.458077,291.626145 101.458077,292.860592 C101.458077,295.26793 102.264405,296.931136 103.879099,297.860735 C105.495858,298.786071 107.710667,299.249871 110.529683,299.249871 L110.529683,299.249871 Z M141.152612,242.261728 L156.515846,239.790569 L156.515846,255.763499 L174.972592,255.763499 L174.972592,268.539791 L156.515846,268.539791 L156.515846,287.604234 C156.515846,290.835913 157.085038,293.412196 158.217158,295.333083 C159.35141,297.258101 161.636303,298.218478 165.073967,298.218478 C166.723849,298.218478 168.425027,298.065921 170.177902,297.75681 C171.93091,297.445566 173.528962,297.01894 174.972592,296.468668 L177.137971,308.424616 C175.28197,309.181006 173.219718,309.832271 170.951213,310.380544 C168.682842,310.926686 165.898842,311.205019 162.599344,311.205019 C158.40489,311.205019 154.934182,310.638226 152.187355,309.502508 C149.436397,308.371054 147.235977,306.790323 145.586228,304.764311 C143.938478,302.740298 142.785706,300.279531 142.134174,297.394137 C141.478378,294.512739 141.152612,291.316101 141.152612,287.814483 L141.152612,242.261728 L141.152612,242.261728 Z M405.007002,283.276941 C405.007002,278.536612 403.940967,274.74227 401.81063,271.889785 C399.680427,269.039432 396.516965,267.613123 392.326641,267.613123 C390.951095,267.613123 389.676677,267.666684 388.509515,267.767679 C387.34222,267.870805 386.379179,267.99245 385.62452,268.128353 L385.62452,295.849113 C386.583432,296.467469 387.841329,296.982699 389.387951,297.394936 C390.934707,297.809172 392.497718,298.013159 394.077384,298.013159 C401.363218,298.013159 405.007002,293.103884 405.007002,283.276941 L405.007002,283.276941 Z M490.586213,274.207587 C490.586213,277.713336 491.015238,280.872934 491.875021,283.692376 C492.73507,286.50982 493.972448,288.929415 495.587155,290.953429 C497.201729,292.981439 499.179375,294.54365 501.515831,295.642195 C503.85242,296.742738 506.533294,297.293143 509.558455,297.293143 C512.513533,297.293143 515.177887,296.742738 517.549384,295.642195 C519.923012,294.54365 521.91305,292.981439 523.532021,290.953429 C525.144596,288.929415 526.381841,286.50982 527.241757,283.692376 C528.099674,280.872934 528.530698,277.713336 528.530698,274.207587 C528.530698,270.705969 528.099674,267.529849 527.241757,264.675366 C526.381841,261.825013 525.144596,259.386764 523.532021,257.360885 C521.91305,255.334873 519.923012,253.77053 517.549384,252.671986 C515.177887,251.573441 512.513533,251.021171 509.558455,251.021171 C506.533294,251.021171 503.85242,251.587964 501.515831,252.723549 C499.179375,253.855003 497.201729,255.437866 495.587155,257.461879 C493.972448,259.48989 492.73507,261.930137 491.875021,264.78049 C491.015238,267.630843 490.586213,270.77392 490.586213,274.207587 L490.586213,274.207587 Z M36.0851557,296.878774 C36.8399071,296.950988 37.7163577,297.000419 38.7144543,297.035461 C39.710499,297.072501 40.8962608,297.089023 42.2717397,297.089023 C50.3143109,297.089023 56.2761363,295.05888 60.1613197,291.004858 C64.0444378,286.952968 65.9870295,281.355254 65.9870295,274.207587 C65.9870295,266.719898 64.1310423,261.052101 60.4190945,257.204198 C56.7071335,253.360425 50.8298607,251.435407 42.7872895,251.435407 C41.6881455,251.435407 40.5518814,251.451928 39.3846663,251.48697 C38.2154126,251.51988 37.1162553,251.606484 36.0851557,251.744518 L36.0851557,296.878774 L36.0851557,296.878774 Z M199.718955,254.319602 C204.257829,254.319602 208.035782,254.834832 211.061077,255.865292 C214.084106,256.895886 216.509298,258.375623 218.33039,260.29651 C220.151216,262.219529 221.440023,264.558783 222.196947,267.304012 C222.953736,270.053371 223.333064,273.109842 223.333064,276.475559 L223.333064,308.423417 C221.130779,308.903605 218.072575,309.470398 214.154322,310.121664 C210.236069,310.775061 205.493075,311.100694 199.925074,311.100694 C196.419458,311.100694 193.239475,310.791583 190.387523,310.175225 C187.533439,309.554871 185.077336,308.545062 183.015217,307.135275 C180.952964,305.727619 179.371167,303.887074 178.27209,301.620035 C177.172879,299.354995 176.622341,296.572593 176.622341,293.27283 C176.622341,290.115364 177.257485,287.436088 178.529771,285.237 C179.800192,283.039911 181.501504,281.283972 183.635838,279.979309 C185.764043,278.676778 188.203624,277.730657 190.954582,277.145344 C193.703541,276.562163 196.555493,276.26944 199.512703,276.26944 C201.506871,276.26944 203.276267,276.358043 204.82289,276.527122 C206.369512,276.700197 207.623279,276.924836 208.586454,277.198906 L208.586454,275.75421 C208.586454,273.144884 207.794489,271.048922 206.214823,269.470189 C204.633159,267.887326 201.8842,267.097893 197.96608,267.097893 C195.353157,267.097893 192.775541,267.28749 190.232834,267.666684 C187.687994,268.04388 185.48984,268.575632 183.635838,269.261939 L181.674713,256.895886 C182.567538,256.621683 183.685269,256.331091 185.025773,256.019981 C186.366144,255.710737 187.826295,255.436667 189.407959,255.195507 C190.989624,254.956478 192.658025,254.748228 194.408768,254.577151 C196.161643,254.406207 197.930906,254.319602 199.718955,254.319602 L199.718955,254.319602 Z M109.292371,254.319602 C113.831259,254.319602 117.611251,254.834832 120.634546,255.865292 C123.659707,256.895886 126.082767,258.375623 127.905725,260.29651 C129.726684,262.219529 131.015492,264.558783 131.772415,267.304012 C132.527073,270.053371 132.906534,273.109842 132.906534,276.475559 L132.906534,308.423417 C130.704115,308.903605 127.648043,309.470398 123.727792,310.121664 C119.809539,310.775061 115.066532,311.100694 109.498583,311.100694 C105.994913,311.100694 102.812931,310.791583 99.9609257,310.175225 C97.1089071,309.554871 94.6528309,308.545062 92.5906318,307.135275 C90.5284327,305.727619 88.9446633,303.887074 87.845506,301.620035 C86.7463619,299.354995 86.195744,296.572593 86.195744,293.27283 C86.195744,290.115364 86.8309012,287.436088 88.1032809,285.237 C89.3756605,283.039911 91.0749069,281.283972 93.2092808,279.979309 C95.3374726,278.676778 97.777054,277.730657 100.528025,277.145344 C103.276931,276.562163 106.131015,276.26944 109.088211,276.26944 C111.080287,276.26944 112.849657,276.358043 114.396306,276.527122 C115.942956,276.700197 117.196748,276.924836 118.15979,277.198906 L118.15979,275.75421 C118.15979,273.144884 117.367959,271.048922 115.790358,269.470189 C114.206589,267.887326 111.457683,267.097893 107.541562,267.097893 C104.926693,267.097893 102.348958,267.28749 99.8083153,267.666684 C97.2615042,268.04388 95.0632028,268.575632 93.2092808,269.261939 L91.2481292,256.895886 C92.1410613,256.621683 93.2587786,256.331091 94.5992027,256.019981 C95.9417053,255.710737 97.3996717,255.436667 98.9813758,255.195507 C100.56308,254.956478 102.231402,254.748228 103.982211,254.577151 C105.737138,254.406207 107.504442,254.319602 109.292371,254.319602 L109.292371,254.319602 Z M344.432101,256.845922 L352.680844,256.845922 L352.680844,265.090001 L344.432101,265.090001 L344.432101,256.845922 L344.432101,256.845922 Z M356.073208,260.932987 L354.010956,260.932987 L354.010956,258.874065 L356.073208,258.874065 L356.073208,260.932987 L356.073208,260.932987 Z M358.867335,256.845922 L352.680844,256.845922 L352.680844,250.662895 L358.867335,250.662895 L358.867335,256.845922 L358.867335,256.845922 Z M350.919709,255.782552 L348.859589,255.782552 L348.859589,253.723497 L350.919709,253.723497 L350.919709,255.782552 L350.919709,255.782552 Z M352.375597,250.689676 L348.251225,250.689676 L348.251225,246.567703 L352.375597,246.567703 L352.375597,250.689676 L352.375597,250.689676 Z M356.073208,248.573062 L354.010956,248.573062 L354.010956,246.512009 L356.073208,246.512009 L356.073208,248.573062 L356.073208,248.573062 Z" id="Imported-Layers" sketch:type="MSShapeGroup"></path>
        </g>
    </g>
</svg>