<?xml version="1.0" encoding="UTF-8"?>
<svg width="560px" height="560px" viewBox="0 0 560 560" version="1.1" xmlns="http://www.w3.org/2000/svg" >
    
    
    
    
    <g id="Page-1" stroke="none" stroke-width="1"  fill-rule="evenodd">
        <g id="mongodb" >
            <g id="Group" transform="translate(172.000000, 40.000000)">
                <path d="M105.725937,0.633994334 C105.725937,0.633994334 114.692459,20.820238 121.684008,30.5713768 C125.89821,36.4489496 223.744074,129.541122 216.198733,237.197099 C212.855144,284.901688 213.646881,343.740102 126.032852,417.85319 C124.548837,419.108526 121.056634,423.687454 120.040169,430.116306 C117.201612,448.06953 118.58131,479.434402 118.58131,479.434402 L106.484478,475.94897 C106.484478,475.94897 107.050829,438.120959 98.9066885,422.076721 C51.1226763,377.226228 8.72992361,336.249185 0.616572508,242.889865 C-0.46459768,170.003293 17.2155079,92.9428963 101.273281,17.0600635 C105.485217,13.2577632 105.72559,0.634205099 105.72559,0.634205099 L105.725937,0.633994334 Z" id="Shape"></path>
            </g>
        </g>
    </g>
</svg>