<?xml version="1.0" encoding="UTF-8"?>
<svg width="560px" height="560px" viewBox="0 0 560 560" version="1.1" xmlns="http://www.w3.org/2000/svg" xmlns:xlink="http://www.w3.org/1999/xlink">
    <!-- Generator: sketchtool 40.3 (33839) - http://www.bohemiancoding.com/sketch -->
    <title>mssql</title>
    <desc>Created with sketchtool.</desc>
    <defs></defs>
    <g id="Page-1" stroke="none" stroke-width="1" fill="none" fill-rule="evenodd">
        <g id="mssql" fill="#000000">
            <path d="M304.405297,472.104288 C304.474703,472.089192 304.506886,472.088907 304.513089,472.104288 C304.818243,472.867222 292.876431,505.942892 288.511618,516.427984 C287.533991,518.776502 287.172228,519.345524 286.66351,519.323347 C285.428034,519.269412 268.112634,516.848461 257.632869,515.257518 C239.287109,512.472456 208.557899,507.106312 200.803574,505.339358 L199.001736,504.938937 L209.997974,502.459404 C233.567396,497.14903 244.886752,494.300922 256.369993,490.785535 C270.85242,486.351975 285.193063,480.824285 299.67717,474.090988 C301.967175,473.026493 303.918939,472.209973 304.405297,472.104288 L304.405297,472.104288 Z M225.799241,450.250443 C225.851198,450.185548 229.1377,451.350688 233.114642,452.837795 C242.701049,456.422303 250.224797,458.760194 260.404967,461.308267 C272.908875,464.437928 290.978563,467.567563 301.679341,468.46967 C303.322075,468.608146 304.160632,468.795606 303.897096,468.962504 C303.40027,469.277092 292.565462,472.896005 284.599817,475.400057 C271.955288,479.374892 233.312778,490.79055 201.804724,499.856646 C195.95977,501.538439 190.96242,502.959397 190.700694,503.013823 C189.995003,503.16061 187.528059,502.513132 187.528059,502.182181 C187.528059,502.024861 189.29487,499.788946 191.43986,497.223101 C202.03039,484.555282 212.551255,470.406714 221.332968,457.026832 C223.734902,453.36727 225.747283,450.315326 225.799241,450.250443 L225.799241,450.250443 Z M212.785581,450.620065 C212.880319,450.714855 207.659759,459.074097 198.478155,473.536555 C194.601251,479.64308 190.205289,486.594314 188.698523,488.983633 C187.191886,491.372977 184.984212,495.003937 183.801082,497.06909 L181.644977,500.826906 L180.551544,500.53429 C177.913088,499.819966 159.301854,493.245216 154.385413,491.293762 C148.292045,488.875194 141.941993,485.954423 137.259619,483.423928 C131.408461,480.261684 123.987464,475.569255 124.569336,475.384664 C124.73684,475.331543 134.805599,472.575808 146.931458,469.270526 C179.188889,460.477698 197.031748,455.426323 208.735097,451.775136 C210.921834,451.092917 212.743576,450.578228 212.785581,450.620065 L212.785581,450.620065 Z M167.060315,408.267678 L169.432005,410.916628 C180.035459,422.728637 190.819214,431.543088 203.976209,439.146427 C206.299172,440.488829 208.069732,441.655932 207.9189,441.749171 C207.37115,442.087632 162.421498,458.069587 141.633479,465.312493 C129.909837,469.39724 120.279486,472.727906 120.226236,472.720319 C120.173116,472.712513 119.509043,472.278229 118.763285,471.750059 L117.407997,470.779799 L119.533212,467.715034 C126.430498,457.724095 135.096535,446.736892 154.062036,423.914959 L167.060315,408.267678 L167.060315,408.267678 Z M157.63508,404.663873 C157.814733,404.834092 148.441197,418.252089 135.349989,436.574468 C130.799835,442.942706 125.45468,450.448709 123.475903,453.25361 C121.496996,456.058523 118.503627,460.498145 116.807255,463.125576 L113.711781,467.899845 L110.415973,465.127682 C106.548762,461.880704 99.7796892,454.986765 96.7091593,451.159091 C90.3903844,443.282511 86.1089358,434.993256 84.4192849,427.380159 C83.6391477,423.865496 83.616271,422.074503 84.3576339,421.851241 C85.4292239,421.528536 105.086845,416.900743 123.522044,412.626119 C133.762314,410.251677 145.601244,407.472263 149.842109,406.450369 C154.083103,405.428501 157.593591,404.624634 157.63508,404.663873 L157.63508,404.663873 Z M325.473653,398.919396 C325.508162,398.926763 325.519924,398.950674 325.519924,398.980918 C325.519924,400.617164 321.806518,415.759049 318.712723,426.717896 C316.117436,435.910576 313.938842,443.100841 309.903351,455.840948 C308.121159,461.467668 306.591,466.060125 306.499751,466.036317 C306.408502,466.012549 305.981081,465.930438 305.545001,465.851506 C283.677249,461.894042 264.090844,456.375321 245.743403,449.002961 C240.610344,446.940379 233.198007,443.657005 232.806646,443.273838 C232.674038,443.143996 237.106577,441.05585 242.647799,438.638174 C276.157637,424.017634 310.877359,407.367767 322.747697,400.228413 C324.175493,399.369694 325.232348,398.869636 325.473653,398.919396 L325.473653,398.919396 Z M252.766189,373.538701 C252.816595,373.589237 252.241832,375.134648 251.487932,376.957682 C245.073514,392.468272 236.669462,409.389312 225.953304,428.396612 C223.226184,433.23376 220.92739,437.183043 220.840148,437.175107 C220.752906,437.167158 218.534892,435.854754 215.911946,434.248946 C200.303128,424.693171 186.492787,412.930781 177.425179,401.491289 L176.131413,399.874198 L182.861582,398.026038 C206.867731,391.449673 227.225873,384.416806 247.468209,375.694806 C250.334658,374.459847 252.715782,373.488295 252.766189,373.538701 L252.766189,373.538701 Z M264.470831,369.703931 C264.517101,369.648614 266.320361,370.613962 268.475044,371.860036 C284.197341,380.952589 306.136953,389.481106 324.84228,393.760099 L326.536325,394.145127 L324.210777,395.438764 C314.439676,400.860769 282.26044,414.249776 249.393349,426.579304 C244.595428,428.37919 239.9137,430.143933 238.997853,430.506524 C238.081877,430.869114 237.33444,431.117722 237.33444,431.045563 C237.33444,430.973378 238.690115,428.364249 240.353012,425.254841 C249.579724,408.002811 258.789892,387.038202 263.515951,372.49141 C263.997785,371.008425 264.42456,369.759249 264.470831,369.703931 L264.470831,369.703931 Z M125.498237,362.559524 C117.432296,367.464462 111.965907,371.888858 105.364468,378.713378 C93.8553773,390.611375 85.6180543,404.784474 83.9418451,415.583079 C83.748491,416.828571 83.7959248,416.944196 84.326873,416.784356 C84.6505085,416.686968 88.6153009,415.592941 93.1514961,414.351016 C108.454773,410.16141 157.130627,395.917496 157.665711,395.469525 C157.727233,395.418085 156.564653,392.899958 155.078437,389.879059 C149.732766,379.013749 147.98728,371.07279 148.579362,360.309327 C148.714426,357.853757 149.083944,354.293508 149.41094,352.408694 C149.771669,350.329879 149.900529,349.510709 149.805015,349.248466 C146.204054,351.138063 142.651819,353.041618 139.143141,354.960813 C133.499295,358.047886 129.073736,360.50643 125.498237,362.559524 L125.498237,362.559524 Z M332.188442,327.382266 L332.188442,330.508631 C332.172674,346.929122 330.41995,369.410023 327.876233,385.813195 C327.429812,388.691663 327.043363,391.066584 327.013765,391.095665 C326.984426,391.124745 324.909489,390.516766 322.40894,389.740377 C311.359711,386.31028 299.380547,381.185751 288.57314,375.263637 C281.416325,371.341754 271.064903,364.988729 271.355063,364.698568 C271.433904,364.619727 274.48272,363.004135 278.131374,361.110273 C292.58291,353.609014 306.387823,345.521877 318.389217,337.500655 C322.892195,334.49113 329.629732,329.619926 331.12577,328.306385 L332.188442,327.382266 L332.188442,327.382266 Z M163.184186,342.398614 C162.759221,343.075224 162.53265,344.191534 162.024191,346.633404 C160.735595,352.822286 160.553615,362.800571 161.623783,368.564228 C162.705325,374.387856 164.795901,380.649892 167.29141,385.612991 C168.432664,387.882963 168.5844,388.060161 168.954694,387.52275 C169.179455,387.1964 170.836924,384.564536 172.635401,381.685809 C183.059331,365.001395 190.910333,351.330771 198.031476,337.439134 C201.072796,331.506033 204.155734,325.079336 205.012773,322.949727 C190.247682,329.359105 176.37582,335.810487 163.184186,342.398614 L163.184186,342.398614 Z M217.262322,317.727358 C217.181543,317.907012 217.108906,318.113808 217.036139,318.357439 C216.819392,319.082646 215.610929,322.326367 214.340944,325.565048 C207.019597,344.237933 193.924124,370.638519 185.279542,384.13453 C183.341607,387.160082 183.13843,387.568245 183.801082,387.322546 C184.019122,387.241637 189.630397,385.430623 196.260399,383.287443 C213.65813,377.663502 228.811092,372.378706 242.724831,367.101148 C254.730102,362.547504 254.573067,362.617686 254.106096,362.203706 C253.872029,361.996135 252.238084,360.594447 250.486782,359.092722 C245.032672,354.415518 238.514468,347.374121 233.51505,340.765703 C228.935816,334.71266 223.662652,325.25046 221.317588,318.88102 C220.938764,317.85234 220.54094,316.893195 220.317472,316.45285 C219.294608,316.877556 218.276139,317.302263 217.262322,317.727358 L217.262322,317.727358 Z M277.543169,294.416172 C277.452437,295.373249 277.442227,297.219548 277.422969,300.861997 C277.344516,315.717949 274.545018,334.241554 269.583986,352.593518 C268.982598,354.817994 268.584129,356.628491 268.706138,356.628491 C268.828018,356.628491 271.851631,355.334208 275.420927,353.748601 C295.900174,344.651008 312.580323,335.692614 325.997364,326.581449 C332.291711,322.307109 331.979708,322.769427 329.246901,321.576216 C320.433264,317.727616 299.865354,306.280306 284.676719,296.765372 C282.154715,295.185452 280.538994,294.222818 279.526987,293.721855 C278.862914,293.953466 278.201555,294.184949 277.543169,294.416172 L277.543169,294.416172 Z M227.982229,313.303608 C228.499477,315.002306 230.581781,319.971739 231.974939,322.71579 C235.270488,329.206593 239.794146,335.795753 245.512309,342.428987 C248.85904,346.31119 258.926765,356.120549 259.219122,355.781533 C259.339193,355.642334 260.093351,353.311099 260.897787,350.606856 C264.264552,339.28931 266.37025,329.335452 267.658847,318.573024 C268.14249,314.533397 268.448677,300.781605 268.183591,297.761611 C265.615316,298.695553 263.099645,299.625488 260.640585,300.549606 C249.27302,304.821491 238.407581,309.063648 227.982229,313.303608 L227.982229,313.303608 Z M240.989038,266.282637 C241.324177,266.241149 241.80097,266.865155 243.792026,269.840171 C247.988172,276.110091 251.20152,284.471491 252.031546,291.278304 L252.200861,292.741255 L242.144122,296.637676 C224.091754,303.643271 207.474677,310.548442 196.249542,315.68861 C193.10909,317.126616 187.564507,319.77567 183.944288,321.587202 C180.323939,323.398604 177.368052,324.822263 177.368052,324.744327 C177.368052,324.666391 179.641642,322.956965 182.419556,320.940318 C204.45003,304.94686 223.444741,287.436943 237.754881,269.932583 C239.285429,268.060564 240.675484,266.436959 240.850485,266.328779 C240.896885,266.300215 240.941217,266.288454 240.989038,266.282508 L240.989038,266.282637 Z M287.320087,291.038421 C289.836145,292.967051 303.510776,302.050427 310.765819,306.606526 C319.193911,311.899206 331.083636,318.88102 331.664861,318.88102 C331.845549,318.88102 331.871786,316.933391 331.741893,313.891167 C331.201638,301.251678 329.304287,282.18252 328.257383,277.886338 C313.989378,282.235641 300.204628,286.656806 287.320087,291.038421 L287.320087,291.038421 Z M309.18409,224.068894 C309.360254,224.244929 299.222477,238.443399 293.197999,246.461648 C285.990519,256.054517 273.15367,272.090627 264.321421,282.530583 C260.631279,286.892295 257.469888,290.511609 257.298635,290.56977 C257.110839,290.633618 256.993999,289.56513 256.990639,287.874575 C256.97332,278.966846 254.719763,269.446484 250.73778,261.385067 C249.056013,257.980174 248.774125,257.156092 249.120766,256.841892 C250.506557,255.585478 271.949342,243.359064 285.466808,236.112293 C294.751811,231.134589 309.007538,223.892212 309.18409,224.068894 L309.18409,224.068894 Z M265.673219,287.462663 C265.70566,287.462276 265.745081,287.458786 265.784501,287.458786 C265.98393,287.458786 268.895873,286.434242 272.268325,285.194889 C302.656063,274.028045 328.699668,265.701929 362.409581,256.349072 L368.369694,254.685787 L367.476465,253.746288 C365.813181,251.989946 357.718935,244.742011 353.554067,241.27159 C346.121956,235.078831 336.374635,227.8888 328.142612,222.544162 L324.554187,220.218614 L321.966784,224.099654 C309.136527,243.273115 291.966659,262.980496 272.530051,280.867299 C265.89979,286.968938 265.386548,287.439657 265.642975,287.461759 L265.673219,287.462663 L265.673219,287.462663 Z M216.224466,246.846676 C216.03835,246.851458 215.338992,248.526633 214.668974,250.573653 C213.053769,255.508188 210.792716,261.180726 208.524036,265.95926 C205.971918,271.33453 203.528108,275.543341 198.667502,282.977133 C197.937384,284.09383 198.152581,283.935502 204.642996,278.772716 C210.794784,273.879281 221.416074,265.8631 228.391168,260.830725 C230.890036,259.027724 232.816081,257.454395 232.672616,257.334712 C228.953135,254.232129 224.736956,251.371626 220.043855,248.771815 C218.131382,247.712374 216.413555,246.849131 216.224466,246.846676 L216.224466,246.846676 Z M229.561632,269.116386 C229.853085,269.40771 221.433006,278.929881 215.762406,284.717449 C201.569494,299.203107 187.499107,310.560074 170.068031,321.617962 C167.88724,323.001426 165.894375,324.252412 165.632649,324.405441 C165.154175,324.68539 165.787358,323.965741 173.44087,315.626959 C178.263865,310.372148 181.955429,306.00992 186.146663,300.564987 C188.906741,296.979148 189.433941,296.476117 193.477445,293.557582 C204.36925,285.695722 229.271988,268.826743 229.561632,269.116386 L229.561632,269.116386 Z M433.854169,176.172143 C434.007198,176.325172 429.119321,183.964984 426.076708,188.323464 C421.63732,194.682823 415.20248,203.031557 400.54208,221.46611 C392.841392,231.149323 384.155322,242.107304 381.22942,245.814894 C378.303518,249.522355 375.848076,252.560444 375.777507,252.560444 C375.706938,252.560444 374.763303,251.232685 373.682924,249.618903 C365.418718,237.272805 355.612073,226.427787 343.913118,216.691841 C341.729871,214.874882 339.266804,212.882404 338.445825,212.271839 C337.624716,211.661146 336.955344,211.096076 336.951854,211.008963 C336.944099,210.807596 349.438572,205.44887 358.97509,201.568089 C375.577432,194.81207 398.268877,186.722218 415.249914,181.516263 C424.20456,178.77092 433.718201,176.036175 433.854169,176.172143 L433.854169,176.172143 Z M439.490906,177.650603 C439.759094,177.595932 441.541157,178.4584 443.679942,179.683535 C461.56416,189.928199 479.0892,203.08429 492.87033,216.61481 C496.790274,220.463538 506.380688,230.439497 506.238257,230.521827 C506.201809,230.543024 502.889458,230.805267 498.876585,231.107059 C467.885132,233.437777 428.262798,240.030557 390.115694,249.203114 C387.524801,249.825957 385.285203,250.342688 385.141221,250.342688 C384.99724,250.342688 387.833056,247.496144 391.440221,244.028307 C413.84241,222.4913 424.062647,208.892279 436.087305,184.596357 C437.878157,180.977948 439.396684,177.856236 439.460145,177.665984 C439.463764,177.654093 439.47307,177.654093 439.490906,177.650733 L439.490906,177.650603 Z M275.687306,194.437511 C276.710557,194.667184 286.264653,199.112776 293.475234,202.723173 C300.069306,206.024926 310.056639,211.342292 310.554887,211.80978 C310.617314,211.868458 307.0992,213.705581 302.731156,215.890895 C288.902721,222.809378 277.057845,229.342962 264.691068,236.89773 C261.164424,239.052025 258.208537,240.82504 258.114833,240.82504 C257.806319,240.82504 257.927941,240.558274 259.90129,236.944 C266.48709,224.882247 271.799416,210.481376 274.855599,196.408921 C275.12844,195.152766 275.456599,194.385812 275.687306,194.437511 L275.687306,194.437511 Z M218.950422,175.971939 C219.164585,175.760361 229.370087,178.151566 234.936513,179.714296 C243.303213,182.063238 261.10678,188.020767 261.118025,188.477398 C261.118025,188.56632 259.15592,190.27665 256.759545,192.281406 C247.134234,200.334293 237.84962,208.754114 226.727883,219.4947 C223.430782,222.678838 220.629087,225.270119 220.490534,225.270119 C220.35211,225.270119 220.290459,224.805216 220.367361,224.238208 C222.042278,211.874275 221.682453,195.998302 219.350831,179.837598 C219.055371,177.789027 218.876234,176.045222 218.950422,175.971939 L218.950422,175.971939 Z M352.22954,145.339535 C352.910286,145.339535 366.318667,148.995168 373.251755,151.068684 C390.521402,156.233667 410.442687,163.51107 423.366132,169.380322 L428.741143,171.813663 L424.952515,172.691511 C393.33124,179.95586 366.228453,188.338715 340.12449,198.934674 C337.95546,199.815107 336.067931,200.536307 335.935453,200.536307 C335.802974,200.536307 336.495223,198.859322 337.460184,196.80933 C345.306792,180.137323 350.37484,162.643044 351.690579,147.788256 C351.810262,146.436199 352.05441,145.339535 352.22954,145.339535 L352.22954,145.339535 Z M266.061737,196.162447 C265.853519,196.009805 251.276096,207.67464 244.346498,213.534586 C234.655271,221.729904 222.098242,233.149426 222.107548,233.755984 C222.110133,233.893116 223.704528,234.82654 225.665211,235.835058 C230.653643,238.401006 234.560403,241.288392 239.356644,245.938067 L243.48403,249.926899 L245.301377,246.954597 C246.300589,245.315482 248.063911,242.281529 249.213178,240.208918 C254.106484,231.383649 259.199347,219.658585 262.211457,210.331319 C263.78065,205.472006 266.257159,196.376351 266.061737,196.162447 L266.061737,196.162447 Z M268.464187,128.999306 C268.691145,128.788116 298.925467,134.02341 312.664721,136.653465 C322.905766,138.613889 337.722298,141.71686 338.615268,142.089998 C339.046308,142.270168 337.512917,143.105753 332.593503,145.324155 C313.134536,154.099276 298.7188,161.93115 284.388756,171.521047 C280.614087,174.047057 277.477382,176.110492 277.412112,176.110492 C277.346842,176.110492 277.290878,174.002079 277.288939,171.428635 C277.279116,157.45415 274.489183,143.349255 269.372925,131.432647 C268.822202,130.150125 268.409128,129.050618 268.464187,128.999306 L268.464187,128.999306 Z M199.653143,116.154961 C200.031967,116.128853 201.664749,116.402082 203.611214,116.832605 C216.150795,119.605607 238.541093,123.928286 252.940155,126.350252 C255.339116,126.753892 257.314016,127.188421 257.314016,127.320512 C257.314016,127.452732 256.417685,128.019611 255.327355,128.568008 C252.911333,129.783321 243.135579,135.634867 239.864845,137.823929 C231.699642,143.288896 224.358391,149.138503 219.012073,154.456903 C216.863465,156.594267 215.065634,158.337944 215.00786,158.337944 C214.950087,158.337944 214.574494,157.092387 214.176153,155.565717 C211.503318,145.320148 205.976829,130.190967 201.023811,119.543181 C200.226743,117.829748 199.576111,116.318588 199.576111,116.185722 C199.576111,116.168919 199.598859,116.158709 199.653143,116.155219 L199.653143,116.154961 Z M163.414893,106.144364 C163.460776,106.102875 164.689272,106.482992 166.18712,106.991451 C168.947327,107.928495 172.589776,109.025417 176.82909,110.210228 C179.798807,111.040254 183.064113,111.911123 186.531562,112.797502 C190.957121,113.928933 194.616502,114.901132 194.663289,114.953606 C195.153137,115.504588 202.585766,139.225747 205.120436,148.327347 C206.087853,151.801258 206.822236,154.695623 206.75296,154.7649 C206.683683,154.834306 205.859085,153.555145 204.935612,151.931151 C196.336914,136.809467 182.71941,121.431743 166.972556,109.055144 C165.009676,107.512447 163.414893,106.202654 163.414893,106.144364 L163.414893,106.144364 Z M346.639074,144.461687 C346.338574,144.191172 330.213155,153.173606 320.195707,159.184902 C307.664011,166.70516 284.026863,182.35482 284.511929,182.8099 C284.641047,182.931134 287.167187,184.020173 290.133285,185.243241 C300.770215,189.629379 310.455755,194.362548 319.009863,199.365843 C321.278025,200.692438 323.269986,201.740117 323.429994,201.691391 C323.589873,201.642794 324.968555,199.396087 326.510088,196.701408 C335.257938,181.409763 342.346769,165.140879 345.021931,154.179668 C345.88078,150.66065 346.87159,144.705318 346.639074,144.461687 L346.639074,144.461687 Z M263.397302,128.275392 C263.816968,128.415238 264.61016,130.890454 266.015466,136.453261 C268.706655,147.105313 269.959579,159.067933 269.542239,170.134998 C269.426175,173.214834 269.231399,176.074819 269.11107,176.49552 L268.880105,177.265576 L265.076096,176.03346 C257.23427,173.526966 244.421978,169.754494 233.442672,166.716017 C227.205323,164.989789 222.092167,163.448773 222.092167,163.297036 C222.092167,162.841051 231.193638,153.741907 235.105956,150.283247 C242.579169,143.676638 262.684632,128.037835 263.397302,128.275392 L263.397302,128.275392 Z M276.998779,120.134358 C276.984949,120.021396 276.804262,119.837865 276.646838,119.597723 C274.757759,116.714731 266.944109,101.810699 264.433995,96.3116112 C263.516727,94.3022023 263.188826,93.6712166 262.878503,93.6471766 C262.774976,93.6392925 262.659687,93.7010727 262.539617,93.8012395 C262.247647,94.045 260.654931,95.376248 258.997463,96.7736706 C252.06528,102.617849 244.277221,108.020648 236.558309,112.313083 C235.742241,112.766999 235.059815,113.205148 234.921003,113.362313 C247.491474,115.450563 260.85785,117.599688 276.998779,120.134358 L276.998779,120.134358 Z M222.667835,111.303531 C223.460639,110.945516 225.168384,109.975385 226.994391,108.832451 C234.946853,103.855134 246.442631,97.4779396 256.8875,92.2457473 C259.479556,90.9473282 261.554622,89.8385149 261.492325,89.7816461 C261.430157,89.724648 259.376287,89.5069954 256.93377,89.3042063 C235.28225,87.5061168 196.111248,80.0237277 180.483818,74.7041643 L177.634689,73.7339042 L181.438698,77.3069479 C185.357608,80.9798998 195.489697,90.696976 208.467168,103.257365 L215.490599,110.07594 C217.887363,110.488627 220.274949,110.897048 222.667835,111.303531 L222.667835,111.303531 Z M199.901944,107.379193 C199.689461,107.028287 198.82764,105.917405 197.763546,104.643414 C196.495759,103.125662 190.785997,96.0725036 185.088644,88.9653197 L174.73929,76.0440718 L173.79979,76.6908257 C163.181731,84.1808403 156.925512,91.5020579 156.8742,96.4655449 L156.861405,97.2989319 C157.650848,97.5940037 158.41987,97.8796404 159.148825,98.1666988 C163.048606,99.5090621 167.611943,100.758884 171.606979,101.754089 C173.20047,102.141314 175.009934,102.564729 177.157249,103.057161 C177.673076,103.175422 178.219275,103.298466 178.789515,103.42487 C184.732438,104.70416 192.714627,106.130147 199.901944,107.379193 L199.901944,107.379193 Z M248.555697,40.7914624 C248.620579,40.7797009 248.653279,40.7793132 248.663489,40.7914624 C248.715059,40.8532427 249.011811,42.9075005 249.310243,45.3501466 C250.567303,55.6370745 252.869199,65.6138086 256.471711,76.3520683 C259.186293,84.4438587 259.225197,83.9684869 255.994271,83.0668572 C248.484094,80.9708525 214.835444,75.1949166 190.494415,71.824145 C186.572274,71.2810475 183.307874,70.7980501 183.255916,70.7460926 C182.946886,70.4370622 200.810165,61.077872 208.729023,57.3935463 C218.885282,52.6682623 246.542023,41.1536136 248.555697,40.7914624 L248.555697,40.7914624 Z M339.341897,274.550075 C339.384161,275.096662 339.47696,275.81308 339.611765,276.574864 C341.478744,287.141484 342.642358,297.908695 343.323233,311.11894 C343.741736,319.237097 343.544375,343.121882 342.999856,350.28335 C341.055975,375.849127 338.05511,397.411079 334.205994,413.580947 C327.848962,440.286143 316.035881,471.554275 299.70806,504.908099 C294.909234,514.710724 290.773318,522.542021 290.190283,522.92712 C289.860702,523.144883 282.687861,523.164249 277.299796,522.957951 C250.73261,521.940265 202.492837,515.092133 177.532972,508.789152 C162.555527,505.006986 142.581509,498.299086 130.745034,493.095664 C107.540477,482.89466 87.5884305,467.909835 77.5659428,453.161211 C69.7198517,441.615413 67.7377139,429.105198 71.8059043,416.753556 C74.0672164,409.888117 79.3264213,400.961143 86.0518085,392.589635 C90.5722355,386.962592 99.4163749,378.187341 105.364468,373.446289 L106.301124,372.696525 L105.676988,372.902804 C155.516844,331.938107 187.787329,295.098986 203.102885,261.693192 C211.647816,243.055204 215.166318,227.018448 214.699864,208.775698 C213.972847,180.347738 206.101682,159.756304 187.979261,138.84046 C183.971947,134.215343 151.263572,102.309594 151.263572,102.309594 C148.140955,99.3083409 145.307594,96.4749799 144.363959,94.1163446 C143.952823,93.0884402 143.770067,92.1513967 143.722763,91.3310636 L143.598685,91.2138363 C143.604631,90.329138 143.735558,89.4697722 144.014474,88.7343546 C144.036446,88.676581 144.062166,88.615964 144.091764,88.552762 C144.275166,88.02763 144.456371,87.740313 144.456371,87.740313 L144.488554,87.8588329 C146.020393,85.5232036 150.368534,81.291903 153.917279,78.8007891 C164.815418,71.1508954 182.480949,62.2940898 205.233011,53.050576 C222.024313,46.228641 248.159166,36.8127112 249.787683,37.0028341 C250.545331,37.0912393 250.687374,37.4099634 252.05158,42.3315742 C254.348693,50.6182696 258.489392,62.060669 262.801472,71.9935883 C268.36919,84.8191931 277.961672,103.772933 286.642055,119.089522 L288.237614,121.89251 C304.124055,124.370182 323.584186,127.706833 332.485711,129.476746 C379.722396,138.868765 417.088717,151.403693 445.897698,167.532214 C466.862139,179.269039 483.972812,193.530324 498.106658,211.008963 C502.946585,216.99428 506.968505,222.641615 512.860634,231.800084 L513.892545,233.417098 L507.177756,234.449009 C463.85339,241.085086 398.465204,256.981738 339.341897,274.550075 L339.341897,274.550075 Z" id="Page-1"></path>
        </g>
    </g>
</svg>