<?xml version="1.0" encoding="UTF-8"?>
<svg width="560px" height="560px" viewBox="0 0 560 560" version="1.1" xmlns="http://www.w3.org/2000/svg" >
    
    
    
    
    <g id="Page-1" stroke="none" stroke-width="1"  fill-rule="evenodd">
        <g id="mysql" >
            <g id="Group" transform="translate(40.000000, 44.000000)">
                <g transform="translate(0.788725, 0.166850)" id="Shape">
                    <path d="M439.786148,363.348606 C413.739949,362.641709 393.844005,365.066301 376.835118,372.247587 C372.00136,374.289001 364.293744,374.341853 363.505165,380.406637 C366.161257,383.194588 366.573694,387.356694 368.685369,390.785478 C372.747046,397.36557 379.603392,406.181969 385.720653,410.806532 C392.405426,415.857215 399.294768,421.261347 406.461267,425.634863 C419.207209,433.417341 433.437923,437.860225 445.712038,445.655917 C452.944527,450.25075 460.130823,456.038061 467.188439,461.224178 C470.676004,463.787507 473.021943,467.774541 477.555447,469.379925 L477.555447,468.639995 C475.173213,465.604299 474.559507,461.42898 472.371943,458.257851 C469.164836,455.047083 465.954429,451.833012 462.744022,448.61894 C453.330568,436.109498 441.379804,425.122857 428.676755,415.995952 C418.547311,408.715569 395.873193,398.881766 391.646543,387.079221 C391.399081,386.831476 391.154918,386.583732 390.904157,386.335987 C398.087153,385.526689 406.497561,382.923721 413.126243,381.146567 C424.262033,378.157118 434.213304,378.93008 445.712038,375.957147 C450.895542,374.473983 456.079046,372.987517 461.265849,371.507657 L461.265849,368.54133 C455.452142,362.569037 451.307979,354.667641 444.969652,349.263509 C428.386399,335.125559 410.28538,321.000823 391.646543,309.222722 C381.30923,302.690196 368.533593,298.445178 357.579275,292.909576 C353.893741,291.048189 347.420136,290.080335 344.98511,286.977253 C339.230794,279.631795 336.096275,270.32222 331.658457,261.767109 C322.360485,243.844615 313.230787,224.270161 304.995252,205.415158 C299.376215,192.556891 295.707179,179.876009 288.702355,168.340367 C255.07392,112.988313 218.87518,79.5781576 162.800294,46.7391363 C150.869326,39.7553856 136.503333,36.9971641 121.322365,33.3939689 C113.179216,32.900462 105.029467,32.4036518 96.8830186,31.9101449 C91.9106824,29.8294219 86.7370771,23.7388725 82.0715937,20.7874104 C63.495447,9.03880735 15.8474658,-16.5162962 2.08857919,17.0808232 C-6.59898639,38.2874172 15.0720849,58.9813453 22.8225944,69.7265173 C28.2634587,77.2652155 35.2286888,85.7169346 39.1154918,94.1944191 C41.672599,99.7656961 42.1147311,105.352829 44.3022951,111.249477 C49.687068,125.772256 54.3690488,141.572406 61.334279,154.9952 C64.8548382,161.78571 68.7350422,168.940569 73.1860585,175.014602 C75.9147394,178.740679 80.5901213,180.382398 81.3292077,186.137337 C76.7561102,192.544008 76.4954502,202.489131 73.925145,210.605569 C62.3505229,247.144571 66.7157524,292.561082 83.5530661,319.603544 C88.7200725,327.904635 100.888603,345.709202 117.620333,338.881365 C132.256885,332.912376 128.987087,314.417427 133.174144,298.099987 C134.121099,294.399676 133.540388,291.680433 135.394703,289.202989 L135.394703,289.944901 C139.839121,298.841899 144.283538,307.738567 148.727955,316.633914 C158.59344,332.542411 176.10385,349.167714 190.941671,360.385583 C198.636089,366.202622 204.693959,376.261047 214.641931,379.663404 L214.641931,378.92017 L213.899545,378.92017 C211.972641,375.910901 208.956904,374.665573 206.495482,372.247587 C200.698272,366.559374 194.254362,359.487096 189.460199,352.969766 C175.965272,334.626767 164.037604,314.549558 153.172373,293.651488 C147.98227,283.673994 143.471863,272.664231 139.096735,262.509021 C137.410694,258.593007 137.430491,252.673566 133.91653,250.644704 C129.125666,258.086617 122.06805,264.102843 118.362719,272.889843 C112.43683,286.935301 111.671347,304.064352 109.477184,321.826638 C108.177184,322.292397 108.754595,321.971981 107.992412,322.566568 C97.6781965,320.07591 94.0520535,309.445031 90.2213419,300.325723 C80.5241314,277.261046 78.7226081,240.121842 87.2550975,213.573217 C89.4624585,206.705411 99.4401259,185.069723 95.4015462,178.724493 C93.4746422,172.392145 87.1132193,168.730812 83.5530661,163.892198 C79.1482427,157.911317 74.7500183,150.037008 71.7012866,143.130553 C63.7660055,125.146619 60.0606746,104.95908 51.7063578,86.7815751 C47.7139711,78.0910303 40.9599085,69.2974239 35.4134604,61.5717612 C29.2731036,53.0136772 22.3969598,46.7100676 17.6390906,36.3586441 C15.9464506,32.6811256 13.6467038,26.7937267 16.1576182,23.0131465 C16.9560955,20.4613787 18.0812227,19.3970686 20.6020355,18.5646472 C24.8979756,15.2485383 36.861938,19.6679358 41.3360507,21.5293224 C53.2142262,26.4680253 63.1259038,31.1712058 73.1860585,37.8424682 C78.0165166,41.0489419 82.8997665,47.2488292 88.73657,48.9652027 L95.4015462,48.9652027 C105.827945,51.3650205 117.508151,49.7104179 127.248255,52.6714595 C144.46501,57.9104287 159.89344,66.0589086 173.906388,74.9169285 C216.595231,101.901253 251.49727,140.314525 275.372402,186.137337 C279.213013,193.514836 280.875957,200.557054 284.257938,208.382806 C291.084589,224.163796 299.683068,240.402619 306.473425,255.834785 C313.250584,271.231937 319.85617,286.770799 329.434598,299.583811 C334.472925,306.319157 353.923437,309.932262 362.762779,313.670891 C368.959227,316.293679 379.111768,319.025474 384.981566,322.566568 C396.193244,329.338249 407.055176,337.398202 417.570661,344.814019 C422.826753,348.520276 438.981072,356.649597 439.786148,363.348606 L439.786148,363.348606 Z"></path>
                </g>
            </g>
        </g>
    </g>
</svg>