<?xml version="1.0" encoding="UTF-8" standalone="no"?>
<svg width="560px" height="560px" viewBox="0 0 560 560" version="1.1" xmlns="http://www.w3.org/2000/svg" xmlns:xlink="http://www.w3.org/1999/xlink" xmlns:sketch="http://www.bohemiancoding.com/sketch/ns">
    <!-- Generator: sketchtool 3.4 (375) - http://www.bohemiancoding.com/sketch -->
    <title>nodejs</title>
    <desc>Created with sketchtool.</desc>
    <defs></defs>
    <g id="Page-1" stroke="none" stroke-width="1" fill="none" fill-rule="evenodd" sketch:type="MSPage">
        <g id="nodejs" sketch:type="MSArtboardGroup" fill="#000000">
            <g id="Group" sketch:type="MSLayerGroup" transform="translate(65.000000, 40.000000)">
                <g id="path28" transform="translate(0.258925, 2.672308)" sketch:type="MSShapeGroup">
                    <path d="M212.60957,3.98307692 C206.268642,3.98307692 200.103783,5.292 194.649903,8.37350769 L22.0169247,107.889508 C10.8452935,114.310062 4.05725806,126.446354 4.05725806,139.3542 L4.05725806,338.021123 C4.05725806,350.921954 10.8452935,363.044169 22.0169247,369.484662 L67.0993731,395.461892 C89.0028333,406.237708 97.0810538,406.071462 107.050488,406.071462 C139.480533,406.071462 157.997166,386.429308 157.997166,352.289308 L157.997166,156.183923 C157.997166,153.411508 155.592772,151.427031 152.865832,151.427031 L131.240947,151.427031 C128.46999,151.427031 126.109568,153.411508 126.109568,156.183923 L126.109568,352.289308 C126.109568,367.421631 110.319737,382.639431 84.6923839,369.850985 L37.7775344,342.411462 C36.1208323,341.509985 34.8453043,339.918877 34.8453043,338.021031 L34.8453043,139.354108 C34.8453043,137.467985 36.1061753,135.5526 37.7775344,134.598415 L210.043857,35.4474923 C211.656542,34.5225692 213.577116,34.5225692 215.17519,35.4474923 L387.441513,134.598415 C389.083558,135.581862 390.373697,137.410615 390.373697,139.354108 L390.373697,338.021031 C390.373697,339.918877 389.42016,341.862369 387.80803,342.776769 L215.175052,441.927692 C213.69428,442.805769 211.656403,442.805769 210.043718,441.927692 L165.694304,415.585154 C164.374805,414.812446 162.571533,414.870969 161.296005,415.585154 C149.054137,422.512662 146.752342,423.318138 135.272822,427.292954 C132.443283,428.2764 128.147583,429.806631 136.738937,434.610323 L194.649765,468.635492 C200.162272,471.819969 206.305215,473.391185 212.609431,473.391185 C219.001589,473.391185 225.05659,471.819969 230.569098,468.635492 L403.202076,369.484569 C414.373754,362.998431 421.161743,350.921862 421.161743,338.021031 L421.161743,139.354108 C421.161743,126.446262 414.373754,114.336923 403.202076,107.889415 L230.569098,8.37341538 C225.159189,5.29190769 218.950359,3.98298462 212.609431,3.98298462 L212.60957,3.98307692 Z M258.790645,145.943077 C209.632398,145.943077 180.354484,166.826262 180.354484,201.555231 C180.354484,239.229738 209.412497,249.580615 256.591634,254.240308 C313.036301,259.755877 317.434785,268.028585 317.434785,279.119354 C317.434785,298.356415 302.070099,306.558877 265.754796,306.558877 C220.1299,306.558877 210.101699,295.189477 206.744462,272.533754 C206.34914,270.104354 204.472028,268.143323 201.979692,268.143323 L179.621727,268.143323 C176.865473,268.143323 174.490394,270.509446 174.490394,273.265477 C174.490394,302.265646 190.294882,336.561323 265.754888,336.561323 C320.381533,336.561323 351.888049,315.157154 351.888049,277.656092 C351.888049,240.479169 326.436627,230.500708 273.451888,223.507477 C219.909953,216.435969 214.808211,212.975169 214.808211,200.458385 C214.808211,190.126246 219.133178,176.309908 258.791061,176.309908 C294.211918,176.309908 307.304309,183.935169 312.670061,207.775754 C313.139224,210.016615 315.118472,211.799677 317.434877,211.799677 L339.792843,211.799677 C341.17097,211.799677 342.505126,210.956723 343.458108,209.969769 C344.396386,208.916077 345.056135,207.728908 344.924176,206.312262 C341.464202,165.254215 314.033531,145.943492 258.791015,145.943492 L258.790645,145.943077 Z" id="Shape"></path>
                </g>
            </g>
        </g>
    </g>
</svg>