<?xml version="1.0" encoding="UTF-8" standalone="no"?>
<svg width="560px" height="560px" viewBox="0 0 560 560" version="1.1" xmlns="http://www.w3.org/2000/svg" xmlns:xlink="http://www.w3.org/1999/xlink" xmlns:sketch="http://www.bohemiancoding.com/sketch/ns">
    <!-- Generator: bin/sketchtool 1.3 (252) - http://www.bohemiancoding.com/sketch -->
    <title>p-elasticsearch</title>
    <desc>Created with bin/sketchtool.</desc>
    <defs></defs>
    <g id="Page-1" stroke="none" stroke-width="1" fill="none" fill-rule="evenodd" sketch:type="MSPage">
        <g id="p-elasticsearch" sketch:type="MSArtboardGroup" fill="#000000">
            <g id="Group" sketch:type="MSLayerGroup" transform="translate(40.000000, 90.000000)">
                <path d="M222.074168,404.066278 L222.074168,410.328647 L180.984951,410.328647 L180.984951,400.199095 L177.484366,400.199095 C173.465177,400.199095 170.206981,396.939127 170.206981,392.917751 L170.206981,381.390038 L159.659913,381.390038 L159.659913,357.98922 L180.98492,357.98922 L193.98615,376.072763 L362.251634,376.072763 L375.252863,357.98922 L396.577871,357.98922 L396.577871,381.390038 L386.030803,381.390038 L386.030803,392.917751 C386.030803,396.939127 382.772607,400.199095 378.753417,400.199095 L375.252833,400.199095 L375.252833,410.328647 L334.163616,410.328647 L334.163616,404.066278 L222.074107,404.066278 L222.074168,404.066278 Z M201.600761,231.445517 C207.19025,237.251348 213.36677,242.965466 218.581578,246.079324 C236.245807,256.627106 281.381325,269.967253 291.581059,276.402599 C306.629629,285.897156 316.546916,302.044204 324.139436,329.10003 C328.914835,346.116952 340.75162,366.094749 340.75162,366.094749 L215.946295,366.094749 C215.946295,366.094749 215.289548,360.006674 226.693198,349.320469 C237.405718,339.281946 259.147816,331.37012 260.988475,316.986871 C262.553283,304.759012 219.927024,291.521311 211.663417,286.993689 C201.312989,281.322696 186.217331,268.300572 178.372716,252.663468 C175.1424,253.007741 171.263376,252.347738 166.642992,250.034529 C160.525297,246.971711 165.361826,265.738459 148.437376,268.843411 C128.687468,272.466643 130.125261,263.87328 123.774884,263.745139 C119.069371,263.650193 121.812962,269.73315 110.334884,268.07459 C96.1493249,266.024811 97.4941616,258.673498 94.8520317,258.076102 C92.6981857,257.589065 89.8606326,265.294792 77.2393788,262.09725 C52.1305103,255.73602 62.3720063,250.147425 57.1670872,248.825451 C53.1711518,247.810524 54.4425509,257.354995 46.0097876,254.165239 C29.6240634,247.967283 29.3964628,235.030373 26.596412,228.061183 C24.6173211,223.135234 31.0054517,217.126147 29.2097496,212.130366 C28.0383899,208.871562 0.127987322,207.869491 0.726199683,190.047412 C1.35087442,171.43581 18.5952837,177.255951 24.0265864,169.435306 C29.5401509,161.496156 31.0095899,151.476737 37.1157528,144.892136 C45.6932995,135.642581 53.5579968,145.243865 66.1480697,132.016419 C72.8566593,124.96818 78.6362092,116.623252 81.1046719,107.406501 C83.3971322,98.8468928 82.7782745,92.7494795 84.7277895,86.1793401 C86.7555119,79.3456659 91.8358441,76.4861334 92.8976786,69.7662834 C94.0954345,62.1860582 93.6999024,51.4594301 102.758065,50.8688839 C109.59557,50.4231499 107.340262,59.4604584 110.839485,60.2515573 C114.338678,61.0426333 115.283745,52.4154617 123.753235,55.6153555 C129.102527,57.6363871 125.916399,67.6749327 128.826226,70.3153033 C131.736053,72.9556891 137.96281,68.8809818 141.212204,71.4576549 C145.3961,74.7753459 143.866026,83.9418561 148.262073,87.3884716 C151.128852,89.6360936 157.709021,85.7577226 160.735759,87.7845295 C167.708402,92.4536113 169.457458,101.28763 179.403195,103.055234 C184.466046,103.955028 175.812506,95.5514705 178.765966,86.4216078 C182.191485,75.8324973 187.313237,80.998478 189.022144,76.577625 C190.735135,72.1463068 185.268559,66.9746861 189.043876,59.8337134 C192.963019,52.4206814 197.642799,54.3402874 200.243851,51.1320823 C203.58526,47.0107721 202.67078,43.4233206 204.328788,40.82679 C205.576111,38.8734288 209.945724,39.6461545 209.79684,37.3329399 C209.580938,33.9783579 201.297493,25.985991 203.516143,20.5890283 C210.116165,4.53422659 220.556827,7.93723048 224.357651,6.96620492 C229.591903,5.62891748 229.90439,0.511609756 238.939382,0.175761867 C245.85886,-0.0814503056 248.440263,3.95416859 251.194216,5.23054431 C255.760834,7.34708014 258.837094,5.09188433 267.48896,13.250296 C272.799586,18.2580494 268.743791,25.0200421 270.540825,29.7301782 C271.88074,33.2421504 276.341621,33.496978 278.931164,42.0133699 C281.16699,49.3666013 277.188939,52.7365882 278.55783,56.7576143 C279.92672,60.7786328 283.575907,58.5414 287.144506,66.1395265 C290.318751,72.8980105 286.752544,76.7410432 288.484162,79.1255282 C290.613087,82.0571379 296.403782,79.7604159 300.365645,83.5862254 C303.963751,87.0607585 300.256392,92.2863343 303.571969,93.7160054 C307.309313,95.327544 318.431202,91.9530818 324.830264,94.9694108 C336.915082,100.665863 331.222487,106.014884 333.636552,108.878031 C336.705456,112.517718 347.674689,100.18424 351.052033,110.657958 C354.217309,120.473856 342.197972,124.734936 340.247088,130.543128 C339.240435,133.540162 338.166277,139.174736 335.283538,142.079289 C332.834914,144.546408 326.007671,147.193019 326.345269,149.375292 C326.763915,152.081682 332.461808,150.990195 334.20776,152.605105 C335.907318,154.177074 335.355462,157.738762 337.502561,158.603437 C340.504364,159.812318 344.054211,153.834543 352.084291,158.669447 C358.273477,162.395938 354.104125,168.385182 356.98109,172.402555 C359.858062,176.419951 363.781876,171.865373 372.311803,182.246538 C379.5464,191.051223 376.801766,201.040731 378.152414,203.099384 C379.522955,205.188291 381.681403,201.494817 384.279428,203.846457 C386.478102,205.836618 385.202253,209.544896 387.112417,209.317484 C390.74356,208.885185 393.441806,195.478657 412.279479,192.222548 C441.034445,187.252195 439.995713,198.132377 443.530826,198.550928 C448.167542,199.099899 457.969469,194.797371 462.747028,195.825899 C476.644588,198.817819 472.390997,204.677621 475.462845,208.746673 C478.162552,212.322777 480.369137,215.669839 478.998261,223.447382 C477.225281,233.506226 466.047998,231.298167 464.043181,233.553872 C460.222008,237.853168 463.556588,242.928021 456.664219,251.220403 C452.790299,255.881196 447.304675,254.92473 443.224219,257.438505 C439.128419,259.961756 437.043401,265.264554 432.089436,266.359869 C424.900763,267.949275 407.668466,267.664657 399.894292,265.305266 C389.912194,262.275793 388.339148,256.304518 383.883667,256.450652 C378.616432,256.623447 376.217284,265.133559 362.999484,263.305553 C336.745309,259.674604 342.50143,251.872979 338.07227,249.771247 C332.774462,247.257373 332.026803,255.431509 321.404175,252.671012 C307.325113,249.012275 306.53201,241.489148 302.912916,239.926511 C299.42216,238.419267 297.167552,241.625113 289.626577,239.728482 C280.331693,237.390721 279.773113,232.349647 274.824396,230.214593 C273.659647,229.712066 272.439504,229.878455 271.205143,230.366946 C265.567882,242.021232 256.707241,255.175515 256.707241,255.175515 C256.707241,255.175515 246.290481,251.76321 241.193048,249.638447 C236.035718,247.488734 225.763292,242.277239 225.763292,242.277239 C225.763292,242.277239 246.156826,235.828504 251.987495,216.121808 C251.609395,212.076388 251.74482,209.123992 249.217347,207.911093 C246.215248,206.47047 245.634509,209.473814 241.860895,210.680389 C237.073925,212.210975 233.184762,211.135292 230.417953,213.88768 C227.2225,217.066499 229.740325,226.906486 221.107094,229.159984 C212.970448,231.283872 206.623037,231.355766 201.600686,231.44557 L201.600761,231.445517 Z" id="Shape" sketch:type="MSShapeGroup"></path>
            </g>
        </g>
    </g>
</svg>