<?xml version="1.0" encoding="UTF-8" standalone="no"?>
<svg width="560px" height="560px" viewBox="0 0 560 560" version="1.1" xmlns="http://www.w3.org/2000/svg" xmlns:xlink="http://www.w3.org/1999/xlink" xmlns:sketch="http://www.bohemiancoding.com/sketch/ns">
    <!-- Generator: bin/sketchtool 1.3 (252) - http://www.bohemiancoding.com/sketch -->
    <title>p-filecount</title>
    <desc>Created with bin/sketchtool.</desc>
    <defs></defs>
    <g id="Page-1" stroke="none" stroke-width="1" fill="none" fill-rule="evenodd" sketch:type="MSPage">
        <g id="p-filecount" sketch:type="MSArtboardGroup" fill="#0B0B0B">
            <g id="Group" sketch:type="MSLayerGroup" transform="translate(48.000000, 30.000000)">
                <path d="M384.421033,354.525905 C421.699278,354.525905 451.91927,384.726685 451.91927,421.981231 C451.91927,459.235777 421.699278,489.436557 384.421033,489.436557 C347.142789,489.436557 316.922797,459.235777 316.922797,421.981231 C316.922797,384.726685 347.142789,354.525905 384.421033,354.525905 L384.421033,354.525905 Z M322.644483,473.921723 L153.98339,473.921723 C140.165795,473.921723 128.964422,462.727471 128.964422,448.91866 L128.964422,141.013842 C128.964422,127.205031 140.165795,116.010778 153.98339,116.010778 L290.310863,116.010778 L391.06716,216.703022 L391.06716,341.575446 C388.874217,341.396631 386.657355,341.30561 384.419259,341.30561 C381.879013,341.30561 379.366178,341.422863 376.8835,341.652862 L376.8835,216.703046 L315.329993,216.703046 C301.512398,216.703046 290.311025,205.508794 290.311025,191.699983 L290.311025,129.96714 L160.728091,129.96714 C151.019132,129.96714 143.148445,137.832823 143.148445,147.53561 L143.148445,442.396457 C143.148445,452.099244 151.019132,459.964927 160.728091,459.964927 L313.180428,459.964927 C315.849035,464.952964 319.026745,469.627971 322.644806,473.921385 L322.644483,473.921723 Z M115.175463,421.860308 L101.890994,421.860308 C88.0733993,421.860308 76.872026,410.666055 76.872026,396.857245 L76.872026,88.9524262 C76.872026,75.1436154 88.0733993,63.9493631 101.890994,63.9493631 L238.218468,63.9493631 L276.521945,102.22849 L238.218468,102.22849 L238.218468,77.9058209 L108.635534,77.9058209 C98.926575,77.9058209 91.055888,85.7715043 91.055888,95.4742914 L91.055888,390.335138 C91.055888,400.037925 98.926575,407.903608 108.635534,407.903608 L115.175705,407.903608 L115.175705,421.860066 L115.175463,421.860308 Z M379.984367,465.380523 C377.922886,465.380523 375.749367,465.223771 373.463798,464.910265 C371.178241,464.596761 368.982321,464.216078 366.876033,463.768215 C364.769738,463.320353 362.820275,462.827704 361.0277,462.290265 C359.235109,461.752831 357.845848,461.260178 356.859936,460.812315 L360.086602,446.973354 C362.148083,447.86908 364.814556,448.809595 368.086033,449.794893 C371.357514,450.78019 375.278798,451.272843 379.849936,451.272843 C385.496602,451.272843 389.4627,450.063612 391.748269,447.645151 C394.033826,445.226689 395.176602,442.226023 395.176602,438.643113 C395.176602,434.254048 393.428826,431.18619 389.933269,429.439536 C386.437712,427.692871 382.001033,426.819536 376.623269,426.819536 L371.514367,426.819536 L371.514367,413.114921 L377.698798,413.114921 C379.40176,413.114921 381.104722,412.935776 382.8077,412.577486 C384.510662,412.219196 386.034367,411.636975 387.378798,410.830821 C388.723241,410.024667 389.821207,408.949794 390.672688,407.606206 C391.524169,406.262617 391.949911,404.560734 391.949911,402.500551 C391.949911,399.455079 391.031207,397.059013 389.193802,395.31236 C387.356393,393.565694 384.824371,392.69236 381.597704,392.69236 C378.460666,392.69236 375.346037,393.207403 372.253802,394.237486 C369.161578,395.267574 366.495089,396.543981 364.254371,398.066717 L358.338802,385.97441 C360.758802,384.362102 363.963043,382.727399 367.951566,381.070294 C371.940085,379.4132 376.443991,378.584651 381.463233,378.584651 C386.123991,378.584651 390.17971,379.166872 393.630468,380.331316 C397.081211,381.495761 399.926945,383.13046 402.167704,385.235432 C404.408447,387.340389 406.066594,389.826035 407.142135,392.692356 C408.217692,395.55868 408.755468,398.648946 408.755468,401.963125 C408.755468,405.277312 407.814359,408.457137 405.932135,411.502625 C404.049911,414.548097 401.540279,416.876971 398.403233,418.489279 C402.705468,420.28073 406.044141,422.923125 408.41933,426.416472 C410.794516,429.909806 411.982107,434.074933 411.982107,438.911856 C411.982107,442.763482 411.354698,446.301586 410.099883,449.526202 C408.845069,452.750817 406.918031,455.549944 404.318786,457.923624 C401.719528,460.2973 398.403217,462.133521 394.369883,463.432356 C390.33655,464.731158 385.54136,465.380559 379.984314,465.380559 L379.984367,465.380523 Z M63.2777567,371.084708 L51.0828523,371.084708 C37.2652573,371.084708 26.063884,359.890455 26.063884,346.081645 L26.063884,38.1768262 C26.063884,24.3680154 37.2652573,13.1737631 51.0828523,13.1737631 L187.410326,13.1737631 L224.624198,50.3639778 L187.410326,50.3639778 L187.410326,27.1302209 L57.8273923,27.1302209 C48.118433,27.1302209 40.247746,34.9959043 40.247746,44.6986914 L40.247746,339.559538 C40.247746,349.262325 48.118433,357.128008 57.8273923,357.128008 L63.2779583,357.128008 L63.2779583,371.084466 L63.2777567,371.084708 Z" id="Shape" sketch:type="MSShapeGroup"></path>
            </g>
        </g>
    </g>
</svg>