<?xml version="1.0" encoding="UTF-8" standalone="no"?>
<svg width="560px" height="560px" viewBox="0 0 560 560" version="1.1" xmlns="http://www.w3.org/2000/svg" xmlns:xlink="http://www.w3.org/1999/xlink" xmlns:sketch="http://www.bohemiancoding.com/sketch/ns">
    <!-- Generator: bin/sketchtool 1.3 (252) - http://www.bohemiancoding.com/sketch -->
    <title>p-jenkins</title>
    <desc>Created with bin/sketchtool.</desc>
    <defs></defs>
    <g id="Page-1" stroke="none" stroke-width="1" fill="none" fill-rule="evenodd" sketch:type="MSPage">
        <g id="p-jenkins" sketch:type="MSArtboardGroup" fill="#000000">
            <g id="Group" sketch:type="MSLayerGroup" transform="translate(105.000000, 40.000000)">
                <path d="M133.574185,352.183077 C138.023579,392.996462 144.467927,427.305385 156.287797,463.446462 C182.520991,471.394169 214.145727,472.086785 237.33315,464.915058 C233.075716,444.516905 234.935573,419.683058 232.447412,397.915366 C230.572137,381.554289 231.528084,365.092289 228.957048,348.399982 C200.860683,342.567674 161.147401,347.03652 133.574185,352.183058 L133.574185,352.183077 Z M238.639868,409.776923 C238.213932,419.903846 239.638216,436.144 240.114262,446.767538 C246.861784,446.776577 249.754681,445.294462 254.790749,443.599846 C255.359306,431.099846 250.824339,419.535077 249.517621,408.121231 C246.852148,407.411423 241.9587,409.996231 238.639868,409.777 L238.639868,409.776923 Z M325.122247,322.307692 C328.961361,323.999862 332.18611,326.985231 334.409258,331.726231 C338.01526,339.407385 342.245711,352.391769 344.113278,360.320846 C346.751769,371.507 341.253145,395.018846 329.729742,398.772538 C319.551604,402.087538 307.675425,401.885615 295.415866,399.428308 C293.972308,398.230231 292.36493,396.141769 291.241306,393.964846 C282.487452,393.626 274.290667,394.433692 267.375315,398.024262 C268.030601,404.483877 263.651747,405.520615 259.54657,406.850985 C256.503344,418.891169 265.634952,434.614677 263.449379,445.593446 C261.890183,453.414985 252.24591,454.6244 245.15733,456.087677 C244.926053,460.434215 245.467628,464.062462 245.951383,467.7396 C244.330513,473.698892 237.060689,477.091308 230.172396,477.922138 C207.509203,480.641492 173.098344,481.862954 151.299203,474.041431 C145.216218,459.153446 140.424148,441.045585 135.357396,424.045123 C114.096824,426.310692 96.9014934,414.891662 80.6910969,407.410508 C75.0785617,404.814354 67.3143899,403.384154 65.2177048,398.926462 C63.1849758,394.610692 64.0167963,386.339354 63.5124185,378.526154 C63.2670361,374.711246 63.0283947,370.922185 62.7659841,367.145769 C59.1910656,364.042031 55.7416229,360.793385 52.4265216,357.409046 C20.9812573,325.320738 1.54099295,280.974277 1.54099295,232.056892 C1.54099295,183.131815 20.9812573,138.789508 52.4265216,106.6992 C56.441407,102.600262 60.6533101,98.7003231 65.046211,95.0156615 C65.6321156,77.7452 70.4250326,63.5142769 82.6086559,58.0684308 C88.3025238,35.4356615 108.681497,27.9107385 127.881541,16.6627385 C135.058669,12.4588923 142.970273,9.77235385 151.141123,6.77235385 C180.452004,-3.99110769 225.423458,-1.96418462 249.75,16.3935077 C260.064978,24.1781231 276.553215,40.6147385 282.450638,52.5147385 C289.18342,66.0945231 292.799352,83.6142769 293.855149,102.2172 C295.399158,103.683386 296.916601,105.177677 298.406861,106.699415 C329.8549,138.789877 349.297478,183.135877 349.293623,232.057108 C349.296218,264.995877 340.481579,295.862185 325.122037,322.307877 L325.122247,322.307692 Z M235.600881,348.656923 C235.363822,366.185385 236.387225,383.475692 237.728634,401.026154 C244.474229,400.015769 249.051597,399.341154 255.319141,397.970185 C253.283899,381.074185 253.534449,362.062185 249.3888,347.116185 C244.5975,347.161954 240.378612,347.060608 235.600804,348.656954 L235.600881,348.656923 Z M269.819163,345.830769 C266.617896,345.098462 262.890474,345.802308 259.831828,345.861538 C261.269604,360.1502 264.75804,375.917231 265.985738,390.915846 C270.798238,391.065269 273.369273,388.800462 277.327974,388.038723 C277.539978,374.873138 276.175441,356.734723 269.819163,345.830877 L269.819163,345.830769 Z M321.63304,393.067692 C331.664703,390.636923 337.972797,378.377308 335.16663,365.787077 C333.283645,357.325538 329.930121,341.392462 326.341465,335.979385 C323.689482,331.975538 316.498678,326.733615 310.757214,330.402462 C301.417456,336.369954 284.96391,338.102262 278.152786,345.325723 C281.567985,356.671877 282.628007,372.256338 284.036872,386.6328 C295.704824,387.358569 310.061454,383.428954 319.765396,387.598954 C312.990892,389.788569 304.200419,389.805877 298.347247,392.997031 C303.130837,395.302415 314.330374,394.836646 321.63304,393.067608 L321.63304,393.067692 Z M321.639207,371.487692 C312.530727,371.684615 301.209692,371.503462 292.552203,370.778654 C297.673073,365.290392 315.731916,368.742115 321.639207,371.487692 L321.639207,371.487692 Z M318.831498,358.101538 C310.727148,358.955577 301.20815,360.265 292.988238,359.590385 C296.879482,353.659615 311.872048,355.705954 318.831498,358.101538 L318.831498,358.101538 Z M314.444934,342.575385 C304.501927,344.561538 297.515419,354.203846 287.815176,353.585 C293.146123,346.086354 302.487808,342.925385 314.444934,342.575385 L314.444934,342.575385 Z M61.4772687,351.675385 C60.3763938,340.895323 58.7387423,330.070615 55.8490991,318.891077 C53.4777335,309.722046 49.3444185,301.631538 46.4609581,292.796615 C43.79587,284.608338 39.1394824,274.489077 37.9250903,266.323692 C36.1244097,254.221769 47.5450793,253.548692 54.8478216,248.304462 C66.1368634,240.194846 74.9981079,235.710231 87.2243634,228.391077 C90.8455837,226.223769 101.765938,220.737231 103.00813,218.210308 C105.477403,213.200692 98.7695837,206.137231 96.9762269,202.210308 C94.1394229,196.000692 92.6600176,190.725692 92.2535396,184.598769 C81.997337,182.981462 74.2225264,176.891077 69.5262048,170.023769 C61.7575925,158.658385 56.3699824,137.631462 63.0914934,121.637308 C63.6186134,120.377692 66.2474604,117.900769 66.6352357,115.966154 C67.0960392,113.671262 66.4792991,110.920662 65.8860738,108.210462 C63.8495055,110.090046 61.8590694,112.021477 59.9168161,114.002692 C30.3287104,144.210385 12.019239,185.918077 12.019239,232.058385 C12.019239,278.189154 30.3287104,319.902231 59.9168161,350.104385 C60.4335456,350.631585 60.9536872,351.155258 61.4771993,351.675354 L61.4772687,351.675385 Z M228.346476,332.193846 C221.30022,315.659231 214.901542,298.525077 204.380419,285.201538 C194.187046,292.022692 182.96196,298.437892 180.097203,310.824462 C194.687932,319.061385 211.698348,327.186308 228.346476,332.193846 L228.346476,332.193846 Z M245.715419,280.992308 C245.048568,297.528462 243.157874,319.219385 238.740474,332.179231 C249.277093,318.792123 257.774615,303.203846 266.655672,288.026615 C262.87043,281.963538 254.956883,276.677 245.715341,280.992385 L245.715419,280.992308 Z M294.163436,117.407846 C293.869803,137.232462 290.946134,157.400462 286.026969,174.655692 C284.562211,179.786462 282.438313,187.328769 279.472178,193.492308 C277.404172,197.796154 270.976584,206.407692 271.757145,210.207692 C272.560835,214.136538 286.412432,224.630769 289.382498,227.488462 C294.730791,232.636538 304.891507,239.469231 305.714546,245.965385 C306.599183,252.878846 302.661683,262.336615 300.666914,269.007692 C293.998412,291.270923 287.491804,311.850154 279.930879,331.698462 C288.894919,327.251954 302.336121,321.036769 313.998368,320.522308 C329.724469,294.883846 338.819844,264.567846 338.819844,232.057692 C338.819844,187.627538 321.838985,147.307538 294.16339,117.407846 L294.163436,117.407846 Z M235.805947,304.166154 C235.805947,306.112492 234.223623,307.690769 232.271256,307.690769 C230.320815,307.690769 228.738491,306.112492 228.738491,304.166154 C228.738491,302.2198 230.320815,300.639231 232.271256,300.639231 C234.223623,300.639231 235.805947,302.219815 235.805947,304.166154 L235.805947,304.166154 Z M196.117181,251.689231 C189.415328,248.035385 179.347401,244.056538 170.691145,242.408462 C159.96141,240.360385 160.966511,257.012308 161.421927,266.946923 C161.779444,274.812308 165.87883,283.129692 167.659282,288.354769 C168.494965,290.794769 168.683263,293.383431 170.773819,293.867846 C174.468863,294.727269 186.657498,289.864 190.13067,287.974 C197.476044,283.977662 203.175108,277.631508 209.413819,273.369954 C209.494767,271.296877 209.573786,269.225723 209.656661,267.152646 C205.90611,265.287262 201.571584,263.964185 196.065251,263.7238 C199.800383,261.8488 205.295152,261.875723 208.698786,259.644954 C208.731551,258.814185 208.766242,257.985338 208.795152,257.162262 C202.581496,256.685338 200.212828,253.9238 196.117289,251.689185 L196.117181,251.689231 Z M232.273568,287.82 C232.273568,289.766354 230.691244,291.344615 228.738877,291.344615 C226.788436,291.344615 225.206112,289.766354 225.206112,287.82 C225.206112,285.873846 226.788436,284.293077 228.738877,284.293077 C230.691244,284.293077 232.273568,285.873846 232.273568,287.82 L232.273568,287.82 Z M226.025991,274.012308 C222.034526,273.583462 218.646311,278.591154 213.456057,276.425769 C212.266905,277.737308 211.185683,279.158462 209.973403,280.439231 C221.437059,294.224046 226.646509,313.781538 235.500738,329.981077 C240.251564,314.419846 239.704207,297.371538 240.750738,280.387231 C234.22293,280.800692 230.601509,274.496846 226.026068,274.012231 L226.025991,274.012308 Z M213.364317,257.338462 C212.938381,262.059615 214.038877,263.603846 214.990969,269.015385 C230.544383,273.867308 227.8288,247.715385 213.364317,257.338462 L213.364317,257.338462 Z M263.516079,261.761538 C263.215419,255.501923 261.567566,242.628769 257.689813,240.374923 C249.550771,235.634538 235.082434,249.946077 228.953579,252.128769 C229.62043,254.044154 230.720925,255.561462 230.805727,258.009538 C234.431002,257.119154 238.844548,257.728769 241.986068,259.269154 C238.353084,259.674923 234.325,259.648 231.921641,261.374923 C231.040859,263.915308 232.1375,267.376846 231.551597,270.903769 C240.174394,273.330692 250.022963,274.623 260.923844,274.942231 C263.043888,272.192231 263.76663,266.953769 263.516079,261.761462 L263.516079,261.761538 Z M132.104493,240.086154 C126.542377,245.720815 147.705088,253.401538 154.443282,253.815 C154.405699,250.249615 156.479681,246.888077 156.061839,244.330385 C148.059081,242.928466 137.541751,243.853455 132.10457,240.086154 L132.104493,240.086154 Z M200.624009,242.732308 C200.597026,243.282308 199.878139,243.082308 199.760573,243.530385 C206.916685,249.111154 212.232214,250.265 221.972775,249.784231 C226.365121,246.603462 230.26022,242.884231 234.833733,239.905385 C224.304824,240.843846 211.050694,247.368846 200.623932,242.732308 L200.624009,242.732308 Z M122.740529,245.536923 C120.993813,244.294615 109.177844,228.954308 107.559086,229.590769 C86.1780947,238.004231 66.185848,252.552308 48.3205837,266.311846 C65.3540198,302.781231 72.2299009,347.462 73.4448789,390.526769 C92.9574559,399.632923 110.0962,412.760154 136.57424,414.130923 C133.510198,392.500154 130.713282,373.201692 128.974075,352.836615 C122.321176,350.038354 112.776322,352.963538 106.55033,351.968923 C106.497522,344.482569 116.058921,348.690646 116.855286,343.656231 C117.455452,339.848354 111.594493,339.559892 113.502919,333.563738 C118.370154,335.329123 120.926156,339.228538 126.116996,340.692769 C130.860112,330.338923 126.050696,312.019231 126.734314,303.365385 C126.863829,301.740585 127.547447,294.363662 131.195072,295.658077 C134.42332,296.803654 131.010628,315.277154 131.364482,323.467462 C131.686729,331.013415 130.451129,338.314954 133.513822,343.052077 C159.099747,339.577077 185.099504,337.330923 212.782963,336.573031 C206.692654,333.965538 199.457522,331.497846 191.525011,327.036492 C187.224791,324.617646 173.669615,319.584569 172.428888,315.509185 C170.448967,309.015138 177.623581,305.555908 178.850694,299.988569 C165.935586,307.016846 163.415848,293.251846 160.360672,283.499954 C157.59248,274.667262 156.016709,268.069185 155.337524,262.975031 C144.211919,257.682723 132.316775,252.323108 122.740498,245.536569 L122.740529,245.536923 Z M252.215859,231.446154 C270.030088,222.827015 273.240837,263.659692 266.25826,276.813385 C267.337555,280.736462 271.049559,282.238385 272.564427,285.765308 C262.623348,303.534385 251.58185,320.120846 241.438326,337.680846 C248.983756,332.994108 259.761366,336.842577 268.640419,333.334508 C271.886013,332.053738 274.235407,324.640077 276.692731,318.709308 C283.451817,302.392385 290.548183,281.821 293.705044,266.249923 C294.41815,262.701846 296.360881,254.971077 295.925308,251.813385 C295.148601,246.159538 287.460551,241.967231 283.550033,238.471077 C276.345738,232.013385 271.808844,226.330692 264.294328,220.292308 C261.247262,224.780754 254.707936,227.796123 252.215859,231.446154 L252.215859,231.446154 Z M191.280396,183.444615 C198.84843,202.404154 224.859427,200.221538 246.794097,199.698462 C245.828513,202.16 243.735452,205.067692 241.133579,206.119615 C234.10467,208.973462 214.71783,211.138846 204.959923,205.967692 C198.771322,202.685 194.795275,195.267692 191.404546,190.919615 C189.767101,188.819615 181.613643,183.456185 191.280427,183.444615 L191.280396,183.444615 Z M275.567181,165.536923 C269.719714,176.642692 261.447687,188.873385 244.288899,189.229231 C243.940055,185.642692 243.672159,180.185 244.308172,178.025385 C257.425463,176.767692 265.524031,170.106154 275.567181,165.536923 L275.567181,165.536923 Z M193.360352,172.736923 C204.304405,178.479231 224.417841,179.096538 239.292841,178.661923 C240.090749,181.913846 240.071476,185.931154 240.102313,189.896538 C220.981366,190.848462 198.374141,186.127308 193.360352,172.736846 L193.360352,172.736923 Z M267.568062,157.344615 C255.005837,165.396538 240.998128,174.152308 220.414427,172.121538 C216.0163,168.306154 214.339537,159.815769 218.61239,154.208154 C220.836509,158.023538 219.439207,165.040846 225.637445,166.096615 C237.31696,168.090846 250.910374,158.967769 259.311454,155.779308 C264.52098,147.015846 258.86239,143.792769 254.169383,138.152385 C244.561729,126.596615 231.673789,112.273615 232.142203,94.9736154 C236.025738,92.164 236.36109,99.2620769 236.918084,100.554385 C241.934879,112.269769 254.560705,127.252538 263.77511,137.279462 C266.037775,139.748692 269.763271,142.117923 270.177643,143.750615 C271.372577,148.498692 267.068888,154.187154 267.568062,157.344846 L267.568062,157.344615 Z M101.95793,148.867385 C98.0204295,146.625077 97.083185,136.748154 92.4605176,136.467385 C85.8542599,136.067385 87.0588304,149.280846 87.0852423,157.007846 C82.5379405,152.888615 81.7383062,140.205846 85.0789097,133.692462 C81.271696,131.827077 79.5716211,135.750154 77.4598568,137.132846 C80.1738987,117.459769 106.301861,128.007846 101.957852,148.867462 L101.95793,148.867385 Z M194.35022,87.5481538 C198.104626,94.4154615 199.326542,101.630846 204.663271,106.821231 C207.06663,109.157769 211.740363,112.005846 209.423733,118.503923 C208.882159,120.036615 204.925385,123.453923 202.64152,124.125077 C194.298183,126.582769 174.856916,124.632769 181.440771,114.253923 C188.340751,114.575077 197.615242,118.725077 202.772731,113.727 C198.812104,107.409692 191.7512,94.9116154 194.350374,87.5482308 L194.35022,87.5481538 Z M270.701101,87.3346154 C270.976752,87.3461554 271.256189,87.3557702 271.531773,87.3673077 C275.488546,95.5692308 278.913381,104.257615 283.905121,111.498077 C280.561233,119.269231 258.584086,126.146154 258.923293,112.192308 C263.676046,110.119231 271.880617,111.769231 276.093645,109.121154 C273.657522,102.450015 270.142119,96.7711846 270.701024,87.3346923 L270.701101,87.3346154 Z M81.9996035,73.8153846 C73.5111476,83.1346154 75.2879295,100.596154 76.3155727,113.019231 C91.6587247,103.388462 112.023436,113.780769 111.831476,130.161538 C119.156806,129.967308 114.568059,121.032692 113.24304,115.276923 C108.912753,96.4769231 120.538304,76.052 113.77016,58.8596923 C100.62897,59.8539231 89.832935,65.2096923 81.999565,73.8154615 L81.9996035,73.8153846 Z M185.385903,67.4384615 C167.875881,63.3692308 159.17522,74.75 153.867555,86.5538462 C149.128293,85.4076923 151.014161,78.9769231 152.211222,75.7 C155.345419,67.1 167.976024,55.6518462 178.296244,57.2038462 C182.737359,57.8711538 188.747291,61.9230769 185.385857,67.4384615 L185.385903,67.4384615 Z M242.770485,24.8384615 C222.824648,13.6096154 189.063833,5.16353846 167.84674,15.7173077 C150.726806,24.2346154 127.58533,38.327 119.695529,56.1846923 C127.065958,73.4174615 117.512269,89.2077692 116.902467,106.703923 C116.578678,116.013538 121.295399,124.140538 121.656762,134.275 C119.134681,138.426923 111.429084,138.938462 106.095022,138.653846 C104.299537,129.688462 101.156291,119.611538 91.9038326,118.6 C78.8115969,117.171154 69.2390969,127.982692 68.6442511,139.280769 C67.9403965,152.567308 78.8717291,174.588462 94.3655507,173.059538 C100.350813,172.469154 101.821167,166.482615 108.342423,166.544154 C111.87693,173.580692 102.890256,175.790308 101.965716,180.823 C101.724802,182.123 102.711008,187.203769 103.284576,189.586462 C106.098838,201.188385 112.372442,216.203846 118.547351,225.036462 C126.384576,236.240308 141.782109,237.928769 158.347131,239.026846 C161.305741,232.667231 172.204895,233.190308 179.306735,234.853769 C170.795721,231.490308 162.8831,223.336462 156.325611,216.119154 C148.793287,207.838385 141.163257,198.955769 140.777748,188.132692 C155.011924,207.836538 166.771646,225.044231 192.65484,233.711462 C212.23973,240.265308 235.113232,230.707615 250.161691,220.163385 C256.406184,215.780692 260.133607,208.826846 264.572208,202.461385 C281.179785,178.624769 288.929587,144.601846 287.225843,111.624769 C286.524301,98.0247692 286.555138,84.4709231 281.981624,75.3209231 C277.201889,65.7536154 261.035589,57.194 251.572483,65.8478462 C249.818629,56.544 259.441702,50.7901538 270.745391,54.1382308 C262.685369,43.7593846 254.22647,31.2882308 242.770523,24.8382308 L242.770485,24.8384615 Z M142.736476,19.7269231 C123.51978,25.1615385 98.8914978,39.0943077 90.9949119,56.3192308 C97.1095044,55.4326923 101.354218,52.3557692 107.386167,51.975 C109.665793,51.8269231 112.652357,52.9288462 115.272346,52.2788462 C120.493436,50.9865385 124.899844,39.3057692 128.8387,34.9596154 C132.678293,30.7153846 137.293251,28.9019231 140.451531,25.0326923 C142.480606,24.0557692 145.480661,24.1230769 145.595914,21.0826923 C144.716481,20.1442308 143.790407,19.4288462 142.736553,19.7269231 L142.736476,19.7269231 Z" id="Shape" sketch:type="MSShapeGroup"></path>
            </g>
        </g>
    </g>
</svg>