<?xml version="1.0" encoding="UTF-8" standalone="no"?>
<svg width="560px" height="560px" viewBox="0 0 560 560" version="1.1" xmlns="http://www.w3.org/2000/svg" xmlns:xlink="http://www.w3.org/1999/xlink" xmlns:sketch="http://www.bohemiancoding.com/sketch/ns">
    <!-- Generator: bin/sketchtool 1.3 (252) - http://www.bohemiancoding.com/sketch -->
    <title>p-logstash</title>
    <desc>Created with bin/sketchtool.</desc>
    <defs></defs>
    <g id="Page-1" stroke="none" stroke-width="1" fill="none" fill-rule="evenodd" sketch:type="MSPage">
        <g id="p-logstash" sketch:type="MSArtboardGroup" fill="#000000">
            <g id="Group" sketch:type="MSLayerGroup" transform="translate(125.000000, 40.000000)">
                <path d="M66.5884396,397.660738 C62.7729705,406.713735 57.8216627,415.496954 53.6421775,421.087236 C50.1285767,418.941105 44.215684,417.776413 38.8159309,417.307512 C39.9428467,407.860092 47.9108858,372.880753 54.1789134,351.2213 C54.9764207,354.859283 55.8065288,358.490468 56.6716932,362.113447 C58.2774029,368.837477 60.0045383,375.533039 61.8877163,382.185256 C63.356346,387.373046 64.9204568,392.533973 66.5885127,397.660727 L66.5884396,397.660738 Z M307.185554,286.059176 C309.180139,298.721909 312.189325,325.331401 304.63719,336.990403 C298.176061,346.965085 276.524669,359.847983 260.487401,368.44144 C260.321512,367.392448 260.164194,366.343091 260.014748,365.293067 C258.721113,356.203835 258.007754,347.038178 257.713222,337.863202 C268.922163,336.183951 281.847449,333.24707 287.220965,328.28969 C293.576647,322.426152 297.158229,306.548293 298.978539,295.13481 C302.245271,291.986811 304.979253,288.857451 307.185568,286.059217 L307.185554,286.059176 Z M67.7625168,347.982299 C67.8218117,348.257837 67.8813177,348.533231 67.9410078,348.808584 C68.9003572,353.234174 69.9084898,357.649268 70.9686241,362.051899 C72.6406666,368.995791 74.4458129,375.908281 76.4223431,382.772281 C78.3437491,389.444864 80.4287328,396.070571 82.691623,402.635743 C84.3919999,407.568987 86.1921159,412.467819 88.084196,417.331031 C89.9970652,422.247699 92.0036936,427.12779 94.0853481,431.975613 C99.68818,445.023804 105.828103,457.832932 112.100075,470.570632 C120.017634,470.493783 127.934672,470.31548 135.845969,469.975618 C149.611476,469.384261 163.362685,468.316171 177.027587,466.539203 C189.433774,464.925924 201.772646,462.731439 213.923249,459.744923 C222.442625,457.650925 230.869097,455.165369 239.125834,452.200468 C246.663086,449.493924 254.059469,446.386335 261.224053,442.808555 C264.032352,441.406153 266.802204,439.929002 269.532846,438.381539 C271.503334,437.264857 273.448691,436.104277 275.370796,434.904204 C275.110112,434.562122 274.850637,434.21845 274.5916,433.874433 C274.23858,433.402566 273.887041,432.929685 273.537018,432.455601 C272.690635,431.300936 271.854707,430.138898 271.037768,428.963263 C269.593319,426.884571 268.202794,424.76849 266.875711,422.613258 C264.044296,418.014942 261.506536,413.2389 259.279025,408.321024 C256.686798,402.597946 254.512877,396.690655 252.706457,390.675662 C250.650017,383.828061 249.067423,376.84302 247.858385,369.798681 C246.759146,363.394117 245.96811,356.938326 245.421543,350.464157 C244.835209,343.518858 244.529079,336.551133 244.443607,329.582282 C244.390223,325.22964 244.430256,320.877102 244.525559,316.525553 C226.721644,318.049642 216.419195,311.955433 205.034821,310.917227 C205.732795,318.031015 217.886113,320.214557 217.886113,320.214557 C217.886113,320.214557 188.083546,334.131849 163.077581,297.224535 C162.636726,296.573858 162.211256,295.861293 161.804401,295.09346 C149.412095,330.079733 121.201577,330.845547 121.201577,330.845547 C121.201577,330.845547 132.77109,321.608941 129.776557,313.243603 C114.662896,323.248198 106.2325,342.208635 67.7625307,347.982275 L67.7625168,347.982299 Z M57.9200973,291.238178 C63.1880512,284.274096 68.7713883,274.882464 73.5378285,262.439636 C67.0485109,262.079739 60.0576483,265.62039 55.2281732,268.747273 C55.2909977,269.349084 55.354603,269.951084 55.4189424,270.55301 C56.1571437,277.459106 56.9922059,284.354936 57.9200921,291.238095 L57.9200973,291.238178 Z M253.515094,315.192364 C253.390527,320.221098 253.33763,325.251228 253.411188,330.28092 C253.572195,341.290204 254.288986,352.305215 255.841048,363.210169 C257.892782,377.625892 261.428392,391.914065 267.325088,405.266707 C268.605166,408.165345 269.994491,411.015993 271.493688,413.808167 C272.952685,416.525487 274.515742,419.18677 276.173748,421.787943 C277.670294,424.135809 279.244476,426.433801 280.878426,428.68851 C282.202305,430.515342 283.567282,432.311667 284.951117,434.093581 L286.578879,436.543059 L284.731194,437.964203 L284.261148,438.27866 L284.491628,438.625489 L282.643944,440.046633 C279.866766,441.911906 277.035727,443.69558 274.151755,445.391979 C265.916924,450.235846 257.281153,454.385961 248.414522,457.943615 C238.270005,462.013994 227.822669,465.312437 217.229467,468.003603 C204.441314,471.252401 191.436296,473.619353 178.357076,475.343573 C161.810415,477.524897 145.139771,478.673118 128.461822,479.188123 C122.916024,479.359374 117.368515,479.45729 111.8204,479.511604 C111.07434,479.518036 107.997667,479.411332 107.251601,479.416919 C107.123672,479.39381 103.65306,472.721054 102.816814,471.021157 C96.2339045,457.616871 89.8159707,444.123352 84.0269875,430.35589 C81.9709644,425.466273 79.9952378,420.54293 78.1162655,415.582823 C76.13004,410.339588 74.2521218,405.055621 72.48823,399.733764 C70.5630252,393.925233 68.773335,388.072367 67.1066359,382.184923 C65.2234579,375.532758 63.496333,368.837174 61.8906128,362.113113 C60.8484842,357.749133 59.8572259,353.373199 58.9124225,348.987248 C26.5413927,351.083921 1.00860577,331.219647 1.00860577,331.219647 C1.00860577,331.219647 34.3339256,334.846906 52.6774987,316.224697 C52.49849,315.153183 52.321841,314.081211 52.1474076,313.008895 C51.8694988,311.30047 51.5972413,309.591118 51.3307758,307.880756 C45.6987746,307.395482 39.0738275,308.922814 39.0738275,308.922814 C39.0738275,308.922814 43.7640624,306.551822 50.1682829,300.170654 C49.3107014,294.284969 48.5205151,288.38931 47.7983377,282.485414 C46.7468863,273.889592 45.8399039,265.276008 45.0928464,256.648399 C44.3847745,248.471125 43.8199589,240.281127 43.4229747,232.082811 C43.066099,224.712739 42.8443216,217.335774 42.7861802,209.957205 C42.7350817,203.472447 42.8101303,196.986273 43.0406711,190.505231 C43.1289673,188.023038 43.2424945,185.541959 43.3765699,183.061816 C43.5546592,179.876428 43.7482869,176.691904 43.9370921,173.50714 C44.3250844,167.026724 44.7224412,160.546828 45.16597,154.069952 C46.6416754,132.519826 48.6025617,110.974073 52.0973668,89.6460384 C54.803119,73.1335178 58.4320507,56.7475048 63.4874809,40.7850579 C66.5179359,31.2163777 70.0620314,21.8056913 74.2069621,12.6608063 C75.1967353,10.4770979 76.2206245,8.30876814 77.2793499,6.15749352 C77.4725279,5.76496389 78.1650028,3.82521413 78.2867468,3.48275859 L78.2895466,3.47406454 L78.2929995,3.46524639 L78.3050518,3.43149104 L78.3060825,3.43183436 C78.3623476,3.29418994 79.3336046,1.72352373 79.531746,1.56129206 C79.5839511,1.51854885 80.5417519,1.08860035 80.7398975,0.92636868 C80.8975693,0.797273669 84.7452853,0.718122607 86.976439,0.662658138 C87.671549,0.610124481 88.3676526,0.575490659 89.0635934,0.552619439 C90.6871595,0.499261765 92.3125937,0.512005296 93.9361076,0.560635377 C96.4477665,0.635868765 98.9564512,0.797868869 101.46068,1.00161481 C104.21568,1.2257644 106.966214,1.50269525 109.713545,1.80571165 C116.461326,2.54995737 123.191011,3.44857152 129.925622,4.30064961 C131.047706,4.4416457 132.169926,4.58146002 133.292344,4.71981976 C137.409942,5.2210647 141.53161,5.70433828 145.665969,6.04759763 C147.886196,6.23193117 150.110493,6.36905811 152.333799,6.5100969 C156.108932,6.74957733 159.884879,6.97606965 163.660043,7.21423815 C165.030228,7.30195935 166.400297,7.39125924 167.770252,7.4824405 C174.851837,7.96117021 181.93171,8.49796223 188.988279,9.26740536 C191.996025,9.59536926 194.999659,9.96576579 197.99245,10.4104093 C200.542618,10.7892948 203.086358,11.2204275 205.609434,11.7514626 C206.545836,11.948549 207.479317,12.1597854 208.408038,12.3903062 C209.410207,12.6390576 210.407225,12.9091477 211.403302,13.1810192 C212.615576,13.5119027 213.825199,13.8523893 215.032776,14.1999437 C219.45314,15.4721831 223.847549,16.8340712 228.225125,18.2454482 C233.933843,20.0859827 239.614091,22.0149476 245.265629,24.0235758 C250.659235,25.9405458 256.02769,27.9298595 261.355183,30.0232842 C265.649654,31.7108018 269.921135,33.4621875 274.13196,35.3488686 C275.824979,36.1074331 277.508168,36.8885753 279.172529,37.7080218 C280.729376,38.4745339 282.272573,39.2726031 283.775955,40.1395706 C284.63092,40.6326107 285.474266,41.1479579 286.286915,41.7081606 C286.986853,42.1906616 287.671554,42.7062003 288.28175,43.299522 C288.458231,43.4711225 289.164482,44.1842932 289.325375,44.3407367 C289.501856,44.5123372 289.67177,44.6909358 289.830769,44.8788459 C289.918909,44.9830121 290.007254,45.0897949 290.08078,45.2039964 C290.596872,45.7856856 291.408802,46.7610185 291.658301,47.3984398 C292.00308,48.2792773 291.933898,49.9557465 291.839164,50.3380598 C291.742132,50.7296492 291.646056,51.1214729 291.549503,51.5131747 C291.35079,52.3273026 291.153017,53.1416554 290.956119,53.956229 C289.207892,61.2556858 287.568515,68.5802984 285.996629,75.9195088 C284.594175,82.4675938 283.243945,89.0267365 281.933717,95.5937821 C278.7195,111.703873 275.740183,127.860715 272.959029,144.050667 C270.604446,157.757426 268.395229,171.489175 266.345071,185.244455 C264.409774,198.229131 262.616515,211.235257 260.998063,224.26304 C259.496068,236.353522 258.143573,248.463058 256.992456,260.591856 C256.710617,263.561494 256.440707,266.53234 256.184285,269.504467 C266.302847,273.395445 272.893856,273.253746 272.893856,273.253746 C272.893856,273.253746 261.130646,276.260524 259.115512,281.130671 C280.787724,293.112033 309.988015,274.660219 309.988015,274.660219 C309.988015,274.660219 296.753817,300.105425 269.58181,310.403871 C263.654807,312.650261 258.337281,314.190405 253.515216,315.192168 L253.515094,315.192364 Z M247.557044,265.539957 C247.61122,264.935357 247.666019,264.331044 247.721325,263.726785 C248.108881,259.492436 248.521692,255.260418 248.95756,251.030733 C244.245461,250.397812 235.773456,249.898454 229.911941,253.207872 C236.171171,258.672406 242.152087,262.647962 247.557016,265.539915 L247.557044,265.539957 Z M219.602527,146.329197 C234.318671,146.168125 246.422729,161.89161 246.637715,181.448642 C246.852764,201.005675 235.097319,216.990299 220.381279,217.151375 C205.665135,217.312448 193.561078,201.588963 193.346091,182.031931 C193.131042,162.474898 204.886487,146.490273 219.602527,146.329197 L219.602527,146.329197 Z M98.1079765,113.06551 C119.283111,113.06551 136.448954,134.617718 136.448954,161.203783 C136.448954,187.789848 119.283111,209.342056 98.1079765,209.342056 C76.9328423,209.342056 59.766999,187.789848 59.766999,161.203783 C59.766999,134.617718 76.9328423,113.06551 98.1079765,113.06551 L98.1079765,113.06551 Z M219.226822,149.063427 C231.518941,148.928887 241.619344,161.159011 241.786741,176.380217 C241.954114,191.601423 232.125078,204.049666 219.832959,204.184295 C207.540841,204.318836 197.440437,192.088711 197.27304,176.867505 C197.105668,161.646299 206.934704,149.198056 219.226822,149.063427 L219.226822,149.063427 Z M99.5961846,115.642516 C116.758062,115.642516 130.670511,133.01633 130.670511,154.448069 C130.670511,175.879809 116.758062,193.253623 99.5961846,193.253623 C82.434307,193.253623 68.5218577,175.879809 68.5218577,154.448069 C68.5218577,133.01633 82.434307,115.642516 99.5961846,115.642516 L99.5961846,115.642516 Z M231.411134,170.502039 C231.959667,171.863021 232.644364,174.070844 232.699958,175.615486 C232.943255,182.37549 227.898452,187.85559 221.432052,187.85559 C214.965673,187.85559 209.526388,182.375521 209.283119,175.615486 C209.039822,168.855483 214.084625,163.375382 220.551025,163.375382 C221.125901,163.375382 221.692656,163.418695 222.248292,163.502401 C222.248292,163.502401 220.902517,169.586646 222.248292,175.001577 C225.456653,171.821197 231.411145,170.501967 231.411145,170.501967 L231.411134,170.502039 Z M112.730195,144.074967 C114.62001,147.089982 116.500736,152.384694 116.35873,156.330586 C115.987609,166.642162 107.690669,175.001336 97.8269911,175.001336 C87.9633131,175.001336 80.268119,166.642152 80.6392317,156.330586 C80.993372,146.490815 88.5646389,138.428876 97.8269911,137.711792 C97.8269911,137.711792 96.2771362,143.351386 97.8269911,151.943636 C101.739455,148.854403 112.730153,144.074926 112.730153,144.074926 L112.730195,144.074967 Z M54.483443,261.23974 C63.5597379,243.912989 84.8929812,214.126646 123.853558,215.458048 C143.525039,216.130286 156.659049,233.299471 162.770408,250.224833 C165.529625,245.632451 169.398287,241.66281 174.622743,238.848312 C208.56641,220.562395 239.339651,241.016423 249.184784,248.844307 C249.893826,242.083356 250.660542,235.328611 251.475341,228.579873 C253.005774,215.903708 254.706641,203.24816 256.544829,190.612915 C258.623603,176.323908 260.877737,162.060307 263.288446,147.823361 C265.394062,135.388238 267.618704,122.973001 269.970187,110.581713 C272.015691,99.8028495 274.155099,89.0412703 276.423782,78.3068668 C277.848402,71.566157 279.322803,64.8355262 280.881789,58.1243766 C281.179674,56.8420477 281.480778,55.5604477 281.786318,54.2795766 C281.266179,54.6452751 280.740096,55.0018495 280.209747,55.3514134 C278.630493,56.3923367 277.010579,57.3729423 275.366172,58.3078074 C272.147426,60.1377007 268.847445,61.8211054 265.505729,63.415403 C262.279125,64.954787 259.013322,66.4118421 255.723882,67.8122655 C252.173932,69.3235887 248.595532,70.7681805 244.996886,72.1600868 C241.748585,73.4164998 238.483555,74.6295254 235.202244,75.7949154 L217.934752,130.932651 L216.147504,135.634423 L214.081702,140.53515 C214.081702,140.53515 213.982659,129.233805 213.971111,129.105735 L213.980703,127.724408 C213.976537,127.306376 213.973063,127.044951 213.971111,127.023306 L214.302773,79.2607028 C212.444109,78.8046112 209.614573,78.8350761 209.052487,78.853415 C208.074905,78.8836867 207.097299,78.9121151 206.119622,78.9390462 C197.550017,79.1598129 188.976634,79.2262726 180.404827,79.1073742 C178.145662,79.0760373 175.886581,79.0321094 173.627855,78.9739675 C169.002857,78.854915 164.379372,78.6762665 159.75976,78.4240874 C153.31584,78.0723203 146.877367,77.5804744 140.463671,76.8606826 C134.449338,76.1857027 128.453331,75.3106366 122.529094,74.0671972 L122.113431,73.9785597 C121.871193,73.9260761 121.59367,73.8750339 121.357588,73.7913232 C121.244353,73.7511719 121.133466,73.7037048 121.026274,73.6494994 C120.739457,73.5044592 120.683429,73.4416969 120.431068,73.2460578 C120.021144,72.8841639 119.611713,72.5217118 119.202775,72.1587068 C117.989113,71.075427 116.78142,69.9856708 115.584791,68.8836804 C112.686458,66.214568 109.844461,63.4840344 107.075444,60.6814695 C103.446158,57.0082097 99.9391424,53.2112118 96.6226092,49.2537212 C93.5415385,45.5772231 90.6201422,41.7602027 87.9754107,37.7579815 C86.0917944,34.9075624 84.3476792,31.960706 82.8297488,28.8995554 C81.6432211,26.5067294 80.5934813,24.0407268 79.7573297,21.5023598 C79.4570926,22.226078 79.1600782,22.9524179 78.8666319,23.6801958 C72.5330752,39.3879615 67.8771652,55.73066 64.3775803,72.2859745 C60.1212739,92.4210895 57.5584148,112.877523 55.7443664,133.363111 C55.1240936,140.367654 54.5923723,147.379736 54.1119816,154.395129 C53.6694203,160.857969 53.2710637,167.323684 52.8858067,173.790148 C52.7096325,176.747198 52.5343381,179.7043 52.3635115,182.661662 C52.3140805,183.545808 52.2670864,184.43004 52.2224865,185.314448 C52.0807467,188.228027 51.9680593,191.142794 51.8886332,194.058747 C51.6681301,202.154025 51.6828243,210.25505 51.88008,218.350599 C52.0713158,226.19913 52.4354321,234.043163 52.9431365,241.877575 C53.3618322,248.338459 53.8782822,254.792907 54.4834214,261.239484 L54.483443,261.23974 Z M218.413839,110.263601 L230.108169,72.9217874 L231.094886,70.846636 C231.147535,70.7673488 233.072209,69.8931197 233.159206,69.8542407 C233.762318,69.6501282 234.363454,69.4403453 234.964728,69.2309092 C240.211319,67.3890003 245.416519,65.4282263 250.574945,63.353179 C255.872945,61.221979 261.125568,58.969946 266.279714,56.5109716 C268.133702,55.6264555 269.974551,54.7141577 271.795769,53.7641951 C273.611393,52.8171551 275.408149,51.8331061 277.172615,50.7940363 C278.559288,49.9774344 279.926561,49.1269161 281.259457,48.2253074 C281.42269,48.1148918 281.585403,48.0036953 281.746602,47.8918324 L281.406342,47.6769267 C280.472477,47.0942067 279.512529,46.553456 278.54245,46.033338 C277.281376,45.3571846 276.001016,44.7170551 274.711357,44.0970846 C273.415374,43.4740644 272.1093,42.8720434 270.796995,42.284059 C267.333936,40.7324304 263.828528,39.2753336 260.304815,37.8669241 C256.098154,36.1855601 251.862459,34.5767063 247.608918,33.0172894 C242.949418,31.3090308 238.26773,29.6608711 233.567477,28.0677397 C229.103698,26.554761 224.623023,25.0906256 220.122258,23.6906915 C217.049056,22.7347825 213.966451,21.8080295 210.869643,20.931056 C209.712034,20.6032368 208.552369,20.2825864 207.389991,19.9719962 C206.789447,19.8115294 206.188571,19.6519861 205.585231,19.5022324 C204.423448,19.2138669 203.253962,18.9567785 202.08047,18.7205435 C198.775948,18.0553145 195.440098,17.5484377 192.098298,17.1110338 C188.175712,16.5976066 184.240007,16.1860977 180.300545,15.8262685 C170.233965,14.906803 160.140126,14.3385288 150.052664,13.7057305 C148.947278,13.6347992 147.841976,13.5634745 146.736788,13.4895806 C145.116843,13.3789765 143.498078,13.2600292 141.880993,13.1131408 C137.061359,12.6753506 132.257046,12.0817218 127.45602,11.4784441 C123.990227,11.0399427 120.525572,10.5925546 117.059634,10.1551955 C113.062282,9.654518 109.063041,9.16670265 105.055973,8.74913909 C102.062911,8.43724425 99.0652157,8.16198456 96.0618846,7.96910889 C93.6101714,7.81165744 91.1526765,7.705541 88.6954008,7.72168295 C87.9930386,7.72629677 87.2906096,7.74122957 86.5899725,7.77110233 C86.6014829,8.22035214 86.6253279,8.66865756 86.6620065,9.11643509 C86.8225462,11.076324 87.2060749,13.0142121 87.7361775,14.906672 C88.4988017,17.6292403 89.5632399,20.2627223 90.7967724,22.8050459 C91.7107951,24.6888533 92.7213927,26.5253999 93.7997905,28.3202876 C94.9728449,30.272711 96.2266237,32.1764056 97.5388454,34.0383683 C100.662162,38.4701635 104.109764,42.6714234 107.730326,46.7062034 C110.032185,49.2713921 112.40834,51.7698182 114.840454,54.2118937 C117.209919,56.5608637 119.629248,58.8576793 122.089238,61.1100247 C123.269055,62.1902642 124.459611,63.2585297 125.655959,64.3204854 L125.710419,64.3685644 C128.368425,64.9353674 131.045906,65.4122781 133.730796,65.8330642 C137.178366,66.3733755 140.640861,66.8170684 144.110055,67.193859 C151.690628,68.0171933 159.303971,68.5284152 166.92107,68.8618434 C176.266213,69.2709138 185.623129,69.4065768 194.976714,69.3492652 C198.975674,69.3247625 202.974434,69.2636671 206.972235,69.1644308 C208.462311,69.127443 219.227722,69.1405011 219.227722,69.1405011 L219.151482,73.8620976 L218.413925,110.263694 L218.413839,110.263601 Z" id="Shape" sketch:type="MSShapeGroup"></path>
            </g>
        </g>
    </g>
</svg>