<?xml version="1.0" encoding="UTF-8" standalone="no"?>
<svg width="560px" height="560px" viewBox="0 0 560 560" version="1.1" xmlns="http://www.w3.org/2000/svg" xmlns:xlink="http://www.w3.org/1999/xlink" xmlns:sketch="http://www.bohemiancoding.com/sketch/ns">
    <!-- Generator: bin/sketchtool 1.3 (252) - http://www.bohemiancoding.com/sketch -->
    <title>p-memcache</title>
    <desc>Created with bin/sketchtool.</desc>
    <defs></defs>
    <g id="Page-1" stroke="none" stroke-width="1" fill="none" fill-rule="evenodd" sketch:type="MSPage">
        <g id="p-memcache" sketch:type="MSArtboardGroup" fill="#000000">
            <g id="Group" sketch:type="MSLayerGroup" transform="translate(50.000000, 57.000000)">
                <path d="M284.833048,405.996598 C295.913269,405.996598 304.895601,414.98101 304.895601,426.063883 C304.895601,437.146717 295.913308,446.131168 284.833048,446.131168 C273.752828,446.131168 264.770496,437.146757 264.770496,426.063883 C264.770496,414.981049 273.752789,405.996598 284.833048,405.996598 L284.833048,405.996598 Z M177.905983,405.996598 C188.986203,405.996598 197.968536,414.98101 197.968536,426.063883 C197.968536,437.146717 188.986243,446.131168 177.905983,446.131168 C166.825762,446.131168 157.84343,437.146757 157.84343,426.063883 C157.84343,414.981049 166.825723,405.996598 177.905983,405.996598 L177.905983,405.996598 Z M459.981652,412.115648 C456.316802,423.989554 451.455074,434.800833 445.734234,442.91539 L354.671664,442.91539 C354.612556,442.807287 354.562176,442.697721 354.520828,442.587292 C343.905902,414.237661 379.923837,332.168854 382.924452,277.239239 C385.92495,222.309362 386.43572,117.914544 370.186214,112.861216 C339.263467,103.245092 306.776852,196.232352 289.045097,237.091036 C276.871596,265.142056 270.09349,304.109314 254.49451,324.839627 C249.233748,333.750015 241.633722,339.558118 230.265615,339.128814 L230.120115,339.122343 L229.974615,339.128814 C218.606508,339.558064 211.006495,333.750015 205.74572,324.839627 C190.14674,304.109314 183.368621,265.141925 171.195133,237.091036 C153.463378,196.232352 120.976632,103.245341 90.0540165,112.861216 C73.8044838,117.914374 74.3153328,222.309625 77.3157778,277.239239 C80.3162752,332.169116 116.334262,414.23753 105.719402,442.587292 C105.678054,442.69772 105.627674,442.807287 105.568566,442.91539 L14.5059965,442.91539 C9.01484148,435.126605 4.31522724,424.853444 0.705865413,413.541067 L0.705865413,69.5123015 C3.28033208,46.8608059 6.71260046,28.1414683 11.2884603,15.8944548 C14.1176044,8.32239282 22.4401053,3.54975677 33.6190358,0.712185044 L119.553982,0.712185044 C143.538722,5.18534419 197.429361,87.9734015 230.120289,142.259126 C262.811218,87.972746 316.701856,5.18480674 340.686597,0.712185044 L426.621543,0.712185044 C437.800408,3.54976988 446.122922,8.32240592 448.952118,15.8944548 C453.798317,28.8650447 457.36181,49.0952815 459.98208,73.567024 L459.98208,412.115124 L459.981652,412.115648 Z" id="Shape" sketch:type="MSShapeGroup"></path>
            </g>
        </g>
    </g>
</svg>