<?xml version="1.0" encoding="UTF-8" standalone="no"?>
<svg width="560px" height="560px" viewBox="0 0 560 560" version="1.1" xmlns="http://www.w3.org/2000/svg" xmlns:xlink="http://www.w3.org/1999/xlink" xmlns:sketch="http://www.bohemiancoding.com/sketch/ns">
    <!-- Generator: bin/sketchtool 1.3 (252) - http://www.bohemiancoding.com/sketch -->
    <title>p-mqtt</title>
    <desc>Created with bin/sketchtool.</desc>
    <defs></defs>
    <g id="Page-1" stroke="none" stroke-width="1" fill="none" fill-rule="evenodd" sketch:type="MSPage">
        <g id="p-mqtt" sketch:type="MSArtboardGroup" fill="#000000">
            <g id="Group" sketch:type="MSLayerGroup" transform="translate(60.000000, 60.000000)">
                <path d="M81.6562637,438.999121 C80.5364831,438.997321 79.416978,438.976095 78.2981112,438.930002 C76.0834945,438.838769 73.8726251,438.65705 71.67292,438.384552 C66.2127618,437.708146 60.8237771,436.468894 55.6175134,434.689563 C48.9933376,432.425642 42.6724716,429.286411 36.8602651,425.385303 C30.91132,421.392415 25.4994651,416.604596 20.8085815,411.189163 C17.4279213,407.286358 14.4220057,403.059462 11.8481508,398.583211 C9.32724571,394.199056 7.22159912,389.576846 5.57089802,384.796512 C3.74820044,379.518011 2.48227209,374.049198 1.79555297,368.507374 C1.52296185,366.307562 1.34126409,364.096533 1.25006418,361.881796 C1.20747807,360.847612 1.18626127,359.812887 1.18133666,358.777866 C1.03529147,266.625427 1.03529824,174.472987 1.18133666,82.3205477 C1.1866697,81.1996018 1.21140408,80.0790136 1.26107674,78.9591218 C1.35549156,76.8305081 1.53353006,74.7055982 1.79555103,72.5910646 C2.48225565,67.0492404 3.74819367,61.5804273 5.57089609,56.3019262 C7.43303894,50.9092185 9.87442488,45.7182338 12.83694,40.8426954 C15.9755664,35.6772888 19.6971203,30.8678954 23.9068082,26.5308976 C28.3950258,21.9069376 33.4362895,17.8218954 38.8923862,14.3930382 C44.1349137,11.0984004 49.7579203,8.41193934 55.617028,6.40906901 C60.9034104,4.60198418 66.3784126,3.35260659 71.9247818,2.68311033 C74.04138,2.42761732 76.1680886,2.25617349 78.2982543,2.16846505 C79.3324332,2.125882 80.3671488,2.10466264 81.4021642,2.09973851 C173.554604,1.95370009 265.707043,1.95371943 357.859483,2.0997385 C358.894498,2.10466297 359.929209,2.12588267 360.963388,2.16846457 C363.093544,2.25617349 365.220267,2.427612 367.33686,2.68311951 C372.883181,3.35264479 378.358232,4.60198369 383.644566,6.40907336 C389.80974,8.51657182 395.713379,11.381025 401.187463,14.9141767 C407.20879,18.8005178 412.706953,23.4913723 417.495313,28.823447 C421.105455,32.8435529 424.311977,37.2257063 427.047471,41.8853547 C429.730785,46.4560989 431.960531,51.2918778 433.690649,56.3018338 C435.513478,61.5803349 436.779546,67.0494382 437.466082,72.5913591 C437.71748,74.6207116 437.891729,76.6595991 437.988744,78.7021854 C438.046002,79.9077081 438.074466,81.1141204 438.080288,82.3209534 C438.211928,174.472909 438.211934,266.625349 438.080288,358.777789 C438.074465,359.984617 438.046,361.191024 437.988745,362.396552 C437.891733,364.439123 437.717484,366.478025 437.466078,368.507378 C436.779528,374.049299 435.513474,379.518402 433.690646,384.796903 C432.145714,389.270673 430.202558,393.605993 427.893235,397.737352 C425.451244,402.106025 422.600083,406.245308 419.391516,410.086266 C414.643897,415.769567 409.114228,420.795141 403.003063,424.977752 C397.026509,429.068253 390.497586,432.34751 383.644127,434.689809 C378.517982,436.441753 373.21487,437.669929 367.840923,438.353142 C365.558077,438.643372 363.262795,438.835533 360.963529,438.930253 C360.015822,438.969294 359.067647,438.990248 358.11919,438.997711 C265.965784,439.442339 173.810443,438.999371 81.6560694,438.999371 L81.6562637,438.999121 Z M238.185055,424.74022 C265.587288,424.762709 292.991648,424.757613 320.394945,424.688796 C319.928283,415.420268 319.06645,406.170405 317.809138,396.973824 C315.619698,380.959227 312.229938,365.109556 307.669362,349.602554 C302.865563,333.268497 296.763261,317.318062 289.442869,301.946444 C281.084949,284.396198 271.140852,267.604396 259.780729,251.830928 C248.482399,236.143284 235.786175,221.464932 221.893779,208.020611 C207.291388,193.889165 191.36919,181.124185 174.395538,169.951424 C157.708465,158.967284 140.00741,149.526576 121.583933,141.800418 C111.199546,137.445578 100.58694,133.635227 89.8037969,130.391024 C79.5326497,127.30089 69.1072123,124.724501 58.5793178,122.673086 C48.3925925,120.688135 38.1103244,119.194712 27.7802848,118.195071 C23.6874822,117.799007 19.5872431,117.480438 15.4796255,117.239695 C15.3822119,144.65508 15.3235701,172.070948 15.3045277,199.491651 C134.853011,208.849533 230.062242,304.847959 238.185319,424.740223 L238.185055,424.74022 Z M340.642198,424.624176 C346.433178,424.602988 352.231653,424.578528 358.030079,424.550551 C358.314778,424.548311 358.599425,424.544725 358.88409,424.539776 C359.732836,424.522268 360.581131,424.491464 361.428707,424.443128 C363.241135,424.339767 365.049283,424.162265 366.847138,423.91081 C371.23635,423.296928 375.562619,422.237776 379.738316,420.75249 C384.267298,419.141539 388.6165,417.030177 392.686452,414.472578 C396.831358,411.86788 400.685362,408.801607 404.156962,405.350218 C407.675589,401.852126 410.801349,397.9602 413.454017,393.767145 C415.772531,390.102327 417.728515,386.208961 419.279955,382.164974 C416.427522,361.577954 412.066083,341.200297 406.232505,321.251567 C399.883111,299.538873 391.791656,278.337739 382.064804,257.913809 C371.067415,234.82198 357.983652,212.728372 343.036707,191.973765 C328.172056,171.333558 311.467287,152.021427 293.189058,134.332798 C273.822676,115.591071 252.691845,98.6756332 230.158333,83.891875 C208.359234,69.590231 185.251256,57.2877827 161.207916,47.20482 C147.341823,41.3898574 133.166474,36.3128376 118.761309,32.0032068 C105.450149,28.0208684 91.9430673,24.6941299 78.3054848,22.0367717 C73.1227684,21.0268846 67.9212431,20.1137057 62.710531,19.299464 C61.7724897,19.5783834 60.8374171,19.8809457 59.9095974,20.2045343 C55.2436004,21.8318574 50.7643666,23.9892499 46.5804985,26.6185739 C42.2675121,29.3290319 38.2701556,32.5390398 34.6898127,36.1623189 C31.2019473,39.6919941 28.1108941,43.6127277 25.4958435,47.8301035 C22.961724,51.9169879 20.8761868,56.2808596 19.2925688,60.8215629 C17.7859846,65.1413717 16.7351921,69.61842 16.1582989,74.1568024 C15.9287968,75.9622723 15.7739744,77.7771901 15.6933267,79.5953958 C15.6555955,80.4460416 15.6354575,81.2971901 15.6287197,82.148624 L15.5625437,96.9852789 C19.5650835,97.2074572 23.5619855,97.4989427 27.5526404,97.859704 C38.5447591,98.8534029 49.4893965,100.372762 60.3356866,102.41574 C72.2425701,104.658492 84.0304602,107.532214 95.6330185,111.022913 C106.421964,114.268837 117.050236,118.048069 127.466777,122.341406 C147.418504,130.564764 166.58737,140.676737 184.648403,152.486821 C202.422614,164.1093 219.120324,177.373946 234.468975,192.051234 C249.180495,206.119436 262.650926,221.483463 274.670372,237.911515 C286.961845,254.711392 297.732755,272.621858 306.797625,291.360878 C314.672126,307.639282 321.257234,324.540263 326.466979,341.856438 C331.463058,358.462474 335.193098,375.447537 337.623348,392.617449 C339.125358,403.229282 340.130879,413.910403 340.642531,424.623436 L340.642198,424.624176 Z M423.831209,309.556923 C424.01457,250.63367 424.015952,191.704615 423.835332,132.780879 C405.464365,107.360919 384.830541,83.5816264 362.260959,61.805011 C345.340638,45.4793187 327.334146,30.2814769 308.39964,16.3482725 C251.038629,16.1727884 193.678102,16.1673097 136.326278,16.332307 C146.516097,19.6915329 156.586392,23.4213839 166.508489,27.5109663 C191.767003,37.9217048 216.058774,50.6654587 238.990994,65.5136696 C262.682383,80.8534235 284.917469,98.4357268 305.315434,117.941845 C325.04866,136.812092 343.059649,157.479569 359.049587,179.610988 C374.338717,200.772281 387.776027,223.270061 399.144418,246.771911 C408.947376,267.037538 417.21048,288.046571 423.830884,309.556527 L423.831209,309.556923 Z M423.715165,99.2514286 L423.637826,82.1528352 C423.63057,81.2306919 423.607259,80.308887 423.563507,79.3877301 C423.473928,77.5017064 423.304246,75.6194927 423.054423,73.7479455 C422.458566,69.284102 421.403146,64.8825741 419.907093,60.6348818 C418.177733,55.7247235 415.86035,51.0237829 413.024381,46.658451 C410.105837,42.1660703 406.640706,38.0311147 402.730653,34.3692026 C399.203488,31.0659051 395.315396,28.1491982 391.155607,25.6896466 C387.416516,23.47884 383.458508,21.6391275 379.356935,20.2086488 C375.037131,18.7020646 370.560078,17.6512624 366.021695,17.0743789 C364.216216,16.8448812 362.401298,16.6900573 360.583102,16.6094029 C359.732461,16.5716693 358.881322,16.5515342 358.029893,16.5447968 L341.57573,16.4714034 C352.943058,25.7205418 363.937207,35.4233155 374.526847,45.5498913 C392.082895,62.3382605 408.525889,80.2888583 423.714979,99.2516495 L423.715165,99.2514286 Z" id="Shape" sketch:type="MSShapeGroup"></path>
            </g>
        </g>
    </g>
</svg>