<?xml version="1.0" encoding="UTF-8" standalone="no"?>
<svg width="560px" height="560px" viewBox="0 0 560 560" version="1.1" xmlns="http://www.w3.org/2000/svg" xmlns:xlink="http://www.w3.org/1999/xlink" xmlns:sketch="http://www.bohemiancoding.com/sketch/ns">
    <!-- Generator: bin/sketchtool 1.3 (252) - http://www.bohemiancoding.com/sketch -->
    <title>p-nginx</title>
    <desc>Created with bin/sketchtool.</desc>
    <defs></defs>
    <g id="Page-1" stroke="none" stroke-width="1" fill="none" fill-rule="evenodd" sketch:type="MSPage">
        <g id="p-nginx" sketch:type="MSArtboardGroup" fill="#000000">
            <g id="Group" sketch:type="MSLayerGroup" transform="translate(50.000000, 59.000000)">
                <path d="M62.1389231,427.962808 C59.9859638,427.943197 59.4436769,427.982571 57.2971931,427.785765 C53.2738915,427.416879 49.3035962,426.493016 45.5300038,425.047599 C33.35621,420.384635 23.6761115,410.329013 19.4678192,397.974097 C18.4243022,394.910593 17.7175263,391.732883 17.3640446,388.515427 C17.1282928,386.369535 17.1576727,385.825779 17.0986901,383.670159 L17.0986901,45.843675 C17.1662715,43.3881082 17.2974154,40.9801197 17.7019394,38.552143 C18.5046942,33.7339687 20.108394,29.0552685 22.4296602,24.759214 C24.7509263,20.4631595 27.7845378,16.5594966 31.3727678,13.2511195 C34.3625025,10.4945608 37.7319494,8.15458168 41.3577932,6.31682276 C52.3093671,0.766015045 65.3436086,0.0457679248 76.8384778,4.3562288 C82.1685155,6.3549562 87.0989194,9.39040992 91.2861932,13.2511018 C95.4734671,17.1117936 98.9009802,21.782378 101.329922,26.9374804 C103.411386,31.3550764 104.755294,36.1151646 105.291831,40.9703206 C105.530334,43.1285811 105.500611,43.6755444 105.560282,45.8436927 L105.560282,276.712257 L367.310897,14.5218207 L369.070698,12.8531035 C370.930478,11.2737695 372.797441,9.77255236 374.85932,8.459713 C378.951339,5.85427052 383.469883,3.9308354 388.182672,2.78828524 C392.109409,1.8362995 396.164875,1.42671233 400.202312,1.57434651 C404.23975,1.72197998 408.254612,2.42666788 412.101575,3.66291431 C423.719724,7.39644743 433.457959,15.9759221 438.637029,27.0410875 C440.695228,31.4383587 442.023637,36.1723453 442.553964,40.9996808 C442.789716,43.1455728 442.760336,43.6893288 442.819318,45.844949 L442.819318,383.671433 C442.751737,386.127 442.620593,388.534988 442.216069,390.962965 C441.413314,395.781139 439.809615,400.459839 437.488348,404.755894 C435.167082,409.051949 432.133471,412.955611 428.545241,416.263989 C425.555506,419.020547 422.186059,421.360526 418.560215,423.198285 C407.608641,428.749093 394.5744,429.46934 383.079531,425.158879 C377.749493,423.160152 372.819089,420.124698 368.631815,416.264006 C364.444541,412.403314 361.017028,407.73273 358.588087,402.577628 C356.506622,398.160032 355.162715,393.399943 354.626178,388.544787 C354.387675,386.386527 354.417398,385.839564 354.357727,383.671415 L354.357727,152.802851 L92.6071115,414.993287 L90.8473108,416.662005 C89.2051019,418.056577 88.8203915,418.441376 87.06742,419.697618 C83.1240169,422.523621 78.7174292,424.692035 74.0742069,426.091384 C70.9509662,427.032654 67.79641,427.525066 64.55985,427.851947 C63.7528968,427.88891 62.9459435,427.925873 62.1389938,427.962836 L62.1389231,427.962808 Z" id="Shape" sketch:type="MSShapeGroup"></path>
            </g>
        </g>
    </g>
</svg>