<?xml version="1.0" encoding="UTF-8" standalone="no"?>
<svg width="560px" height="560px" viewBox="0 0 560 560" version="1.1" xmlns="http://www.w3.org/2000/svg" xmlns:xlink="http://www.w3.org/1999/xlink" xmlns:sketch="http://www.bohemiancoding.com/sketch/ns">
    <!-- Generator: bin/sketchtool 1.3 (252) - http://www.bohemiancoding.com/sketch -->
    <title>p-rabbitmq</title>
    <desc>Created with bin/sketchtool.</desc>
    <defs></defs>
    <g id="Page-1" stroke="none" stroke-width="1" fill="none" fill-rule="evenodd" sketch:type="MSPage">
        <g id="p-rabbitmq" sketch:type="MSArtboardGroup" fill="#000000">
            <g id="Group" sketch:type="MSLayerGroup" transform="translate(40.000000, 41.000000)">
                <g transform="translate(0.274679, 0.289265)" id="Shape" sketch:type="MSShapeGroup">
                    <path d="M387.088492,316.977915 C387.088492,298.488515 372.110547,283.499974 353.634369,283.499974 L319.549274,283.499974 C301.073028,283.499974 286.095151,298.488582 286.095151,316.977915 L286.095151,353.162742 C286.095151,371.652142 301.073095,386.640682 319.549274,386.640682 L353.634369,386.640682 C372.110615,386.640682 387.088492,371.652075 387.088492,353.162742 L387.088492,316.977915 L387.088492,316.977915 Z M228.525587,0.000134173669 L262.64695,0.000134173669 C276.43743,0.000696050062 287.615799,11.1873335 287.615799,24.9867599 L287.615799,166.61646 C287.615799,180.416155 298.794704,191.603086 312.584648,191.603086 L455.296827,191.603086 L455.30391,191.603108 C469.090905,191.607295 480.265653,202.792589 480.265653,216.589667 L480.265653,445.310155 C480.265653,446.733261 480.146767,448.128573 479.918237,449.4869 L479.918237,453.767637 C479.918237,467.567332 468.739332,478.754263 454.949388,478.754263 L25.0879356,478.754263 C11.2980585,478.754263 0.119086391,467.567399 0.119086391,453.767637 L0.119086391,24.9875002 C0.119086391,11.1878054 11.2979914,0.000874443884 25.0879356,0.000874443884 L67.8915333,0.000874443884 C67.8915333,0.000874443884 77.4527847,-1.08537546 86.6114663,8.1542729 C93.6365613,15.2415274 93.2860004,25.7364576 93.2860004,25.7364576 L93.2860004,164.708848 C93.2860004,179.562544 105.318715,191.603893 120.161911,191.603893 L166.69295,191.603893 C181.536079,191.603893 193.568861,179.562612 193.568861,164.708848 L193.568861,24.9877686 C193.569282,11.1880067 204.747498,0.00174657274 218.53771,0.00114279122 L228.525531,0.00114279122 L228.525587,0.000134173669 Z"></path>
                </g>
            </g>
        </g>
    </g>
</svg>