<?xml version="1.0" encoding="UTF-8" standalone="no"?>
<svg width="560px" height="560px" viewBox="0 0 560 560" version="1.1" xmlns="http://www.w3.org/2000/svg" xmlns:xlink="http://www.w3.org/1999/xlink" xmlns:sketch="http://www.bohemiancoding.com/sketch/ns">
    <!-- Generator: bin/sketchtool 1.3 (252) - http://www.bohemiancoding.com/sketch -->
    <title>p-smb</title>
    <desc>Created with bin/sketchtool.</desc>
    <defs></defs>
    <g id="Page-1" stroke="none" stroke-width="1" fill="none" fill-rule="evenodd" sketch:type="MSPage">
        <g id="p-smb" sketch:type="MSArtboardGroup" fill="#000000">
            <g id="Group" sketch:type="MSLayerGroup" transform="translate(89.000000, 90.000000)">
                <path d="M199.707,281.837 L199.707,344.78 L204.0872,344.78 L208.0942,348.78698 L208.0942,353.16719 L381.2342,353.16719 L381.2342,371.06939 L208.0942,371.06939 L208.0944,371.06999 L208.0944,375.4502 L204.0874,379.45718 L177.4249,379.45718 L173.4179,375.4502 L173.4179,371.06999 L0.2779,371.06999 L0.2779,353.16779 L173.4179,353.16779 L173.4179,348.78758 L177.4249,344.7806 L181.8051,344.7806 L181.8051,281.837 L31.3931,281.837 L31.3931,0.608 L144.6721,0.608 L181.3819,38.1052 L350.1199,38.1052 L350.1199,281.8372 L199.7079,281.8372 L199.707,281.837 Z M50.141,263.088 L50.141,113.118 L331.37,113.605464 L331.37,263.088464 L50.141,263.088 Z M136.797,19.356 L173.5068,56.8532 L331.3698,56.8532 L331.3698,94.8566 L50.1408,94.369136 L50.1408,19.355936 L136.797,19.356 Z" id="Shape" sketch:type="MSShapeGroup"></path>
            </g>
        </g>
    </g>
</svg>