<?xml version="1.0" encoding="UTF-8" standalone="no"?>
<svg width="560px" height="560px" viewBox="0 0 560 560" version="1.1" xmlns="http://www.w3.org/2000/svg" xmlns:xlink="http://www.w3.org/1999/xlink" xmlns:sketch="http://www.bohemiancoding.com/sketch/ns">
    <!-- Generator: bin/sketchtool 1.3 (252) - http://www.bohemiancoding.com/sketch -->
    <title>pagespeed</title>
    <desc>Created with bin/sketchtool.</desc>
    <defs></defs>
    <g id="Page-1" stroke="none" stroke-width="1" fill="none" fill-rule="evenodd" sketch:type="MSPage">
        <g id="pagespeed" sketch:type="MSArtboardGroup" fill="#000000">
            <g id="Group" sketch:type="MSLayerGroup" transform="translate(40.000000, 134.000000)">
                <path d="M478.858622,19.1343014 C481.157902,8.70104754 474.570829,0.243202899 464.145971,0.243202899 L187.300209,0.243202899 C176.87539,0.243202899 166.560501,8.70104754 164.261211,19.1343014 L96.4198747,326.975014 C94.1206146,337.408268 100.707688,345.866113 111.132526,345.866113 L387.978288,345.866113 C398.403106,345.866113 408.717996,337.408278 411.017286,326.975014 L478.858622,19.1343014 L478.858622,19.1343014 Z M88.2849269,334.207919 L0.750263048,334.207919 L79.8013528,265.215318 L23.8330522,244.430647 L99.9637578,206.004188 L72.8605929,185.605332 L126.016134,156.49219 L88.4455616,326.974914 C87.8810305,329.536568 87.8521994,331.979127 88.28497,334.207959 L88.2849269,334.207919 Z M297.78739,68.6825043 L440.416534,68.6825043 C446.163948,68.6825043 449.795514,73.345441 448.527863,79.0975055 L395.737483,318.642833 C394.469872,324.394877 388.783065,329.057834 383.035621,329.057834 L123.482886,329.057834 C117.735482,329.057834 114.103906,324.394877 115.371527,318.642833 L168.162008,79.0975055 C169.429618,73.345441 175.116426,68.6825043 180.86387,68.6825043 L190.751228,68.6825043 L192.748339,59.6203331 C195.389662,47.6348931 207.239128,37.9188119 219.214878,37.9188119 L282.882318,37.9188119 C294.858068,37.9188119 302.425132,47.6349432 299.78383,59.6203331 L297.786719,68.6825043 L297.78739,68.6825043 Z M374.307808,296.239183 L325.827106,296.239183 C335.494397,281.503995 342.185086,264.816967 344.816768,247.129246 L390.457152,239.329524 C390.237376,241.60505 389.96652,243.892241 389.643684,246.191195 C387.183398,263.711231 381.896103,280.547992 374.307734,296.239142 L374.307808,296.239183 Z M266.858956,250.422765 C264.805909,264.901511 252.370071,276.036293 237.335649,276.036293 C220.866038,276.036293 207.514722,262.674174 207.514722,246.191235 C207.514722,229.708297 220.866038,216.346178 237.335649,216.346178 C248.831599,216.346178 258.808184,222.856384 263.785453,232.394159 L388.153553,211.140232 C393.127886,210.290142 397.848962,213.636767 398.698322,218.615126 C399.547724,223.593484 396.203805,228.31838 391.229471,229.168426 L266.858365,250.422755 L266.858956,250.422765 Z M389.245929,200.924707 L343.62699,208.720759 C334.230684,166.816047 298.255165,136.899684 251.096818,136.899684 C230.86557,136.899684 211.145987,142.405717 193.550831,152.002734 L172.528234,115.561011 C198.257537,100.739876 227.419491,92.1727151 257.377704,92.1727151 C326.629979,92.1727151 378.769603,137.952527 389.245428,200.925028 L389.245929,200.924707 Z" id="Shape" sketch:type="MSShapeGroup"></path>
            </g>
        </g>
    </g>
</svg>