<?xml version="1.0" encoding="UTF-8" standalone="no"?>
<svg width="560px" height="560px" viewBox="0 0 560 560" version="1.1" xmlns="http://www.w3.org/2000/svg" xmlns:xlink="http://www.w3.org/1999/xlink" xmlns:sketch="http://www.bohemiancoding.com/sketch/ns">
    <!-- Generator: bin/sketchtool 1.3 (252) - http://www.bohemiancoding.com/sketch -->
    <title>ping</title>
    <desc>Created with bin/sketchtool.</desc>
    <defs></defs>
    <g id="Page-1" stroke="none" stroke-width="1" fill="none" fill-rule="evenodd" sketch:type="MSPage">
        <g id="ping" sketch:type="MSArtboardGroup" fill="#000000">
            <g id="Group" sketch:type="MSLayerGroup" transform="translate(58.000000, 50.000000)">
                <path d="M253.617414,377.107389 C231.502136,379.95195 190.372324,363.893075 175.779277,364.025783 C171.999302,364.060141 150.631482,362.997032 146.007249,366.946325 C116.45762,392.183024 84.3729165,444.643887 63.3557803,458.000476 C55.2499373,463.151824 38.9311865,456.807203 26.4381934,447.267515 C11.1561602,437.10636 -4.70773341,409.064923 2.60941076,397.564719 C15.9739725,376.560122 68.4661522,344.49456 93.7179165,314.96256 C97.6695674,310.341086 96.6058239,288.985993 96.6402019,285.208294 C96.7734127,270.570117 80.585885,229.215405 83.5826596,207.174077 L253.617465,377.10744 L253.617414,377.107389 Z M289.572803,373.909779 L86.5947597,171.052832 C92.4893499,134.339031 109.722947,98.8984735 138.240727,70.397708 C209.196333,-0.515566372 323.139754,-1.61315487 392.741013,67.9462031 C462.341864,137.505531 461.24362,251.38138 390.288044,322.294654 C361.770265,350.79542 326.308551,368.018756 289.572834,373.909809 L289.572803,373.909779 Z M52.2187643,0.998362832 C79.2787357,0.998362832 101.215097,22.9217389 101.215097,49.9654646 C101.215097,77.009292 79.2786339,98.9325664 52.2187643,98.9325664 C25.1587929,98.9325664 3.22243135,77.0091903 3.22243135,49.9654646 C3.22243135,22.9216372 25.1588947,0.998362832 52.2187643,0.998362832 L52.2187643,0.998362832 Z" id="Shape" sketch:type="MSShapeGroup"></path>
            </g>
        </g>
    </g>
</svg>