<?xml version="1.0" encoding="UTF-8"?>
<svg width="560px" height="560px" viewBox="0 0 560 560" version="1.1" xmlns="http://www.w3.org/2000/svg" xmlns:xlink="http://www.w3.org/1999/xlink">
    <!-- Generator: sketchtool 40.3 (33839) - http://www.bohemiancoding.com/sketch -->
    <title>pm2</title>
    <desc>Created with sketchtool.</desc>
    <defs></defs>
    <g id="Page-1" stroke="none" stroke-width="1" fill="none" fill-rule="evenodd">
        <g id="pm2" fill="#000000">
            <g id="Group" transform="translate(50.000000, 79.000000)">
                <path d="M17.0590303,422.212634 C14.845343,422.209066 12.6419848,421.74793 10.6158103,420.85332 C8.89019697,420.091412 7.30298788,419.021855 5.94817636,417.708001 C4.18583273,415.998913 2.82838667,413.884206 2.00752364,411.568958 C1.39940642,409.853784 1.08712218,408.036392 1.08679879,406.216347 C1.08674379,405.906309 1.08510921,405.596483 1.09507246,405.286594 C1.10996377,404.823428 1.14496392,404.360913 1.19994117,403.900788 C1.40769529,402.16202 1.90250893,400.459564 2.65900541,398.880755 C3.49719511,397.131448 4.65475026,395.539041 6.05950662,394.202822 C7.48917268,392.842913 9.1701939,391.752926 10.9942612,391.003127 C12.897783,390.220655 14.9500103,389.811826 17.0076181,389.805192 C19.065226,389.798559 21.120046,390.19415 23.0285581,390.964331 C24.8574066,391.702364 26.5453975,392.781486 27.9837757,394.132154 C29.4096224,395.471053 30.5854521,397.072297 31.4367448,398.834379 C32.1983055,400.410731 32.6985875,402.111582 32.9119369,403.849679 C32.9704838,404.326658 33.0075535,404.806279 33.0229964,405.286594 C33.0329597,405.596483 33.0313251,405.906309 33.0312701,406.216347 C33.0309533,408.002007 32.7304384,409.785225 32.1446396,411.471808 C31.3443246,413.776013 30.0137105,415.886085 28.2801796,417.600017 C26.9258936,418.938992 25.3325693,420.031429 23.5962226,420.81148 C21.5758469,421.719135 19.3754996,422.194467 17.161882,422.212308 C17.1276077,422.212474 17.0933331,422.212585 17.0590585,422.21264 L17.0590303,422.212634 Z M254.028727,422.211238 C253.564703,422.190947 253.099354,422.190909 252.636656,422.150367 C251.247888,422.028682 249.875903,421.724063 248.565907,421.246543 C246.381018,420.450111 244.378764,419.172614 242.734668,417.526028 C241.090572,415.879455 239.814992,413.87417 239.01975,411.686003 C238.542949,410.374029 238.238787,408.999981 238.117285,407.609121 C238.076805,407.145725 238.076766,406.679675 238.056506,406.214952 L238.056506,90.063635 C238.110464,88.8259495 238.083742,88.509452 238.299161,87.285907 C238.541239,85.9109448 238.963819,84.5686695 239.55298,83.3033132 C240.338718,81.6157526 241.419994,80.069192 242.73466,78.7525591 C244.049325,77.4359137 245.593546,76.3530044 247.278568,75.5660848 C248.542028,74.9760361 249.88228,74.5528197 251.255171,74.3103765 C253.544953,73.9060178 255.916755,74.0097282 258.162628,74.6124166 C260.408516,75.2151051 262.514326,76.3129743 264.29546,77.8097801 C265.719703,79.0066621 266.931455,80.4529437 267.861059,82.0655091 C268.790668,83.6780605 269.43543,85.4522034 269.75828,87.2859294 C269.973698,88.5094674 269.946977,88.8259705 270.000935,90.0636573 L270.000935,406.214974 C269.980675,406.679698 269.980636,407.145747 269.940155,407.609143 C269.859117,408.536817 269.697348,409.455629 269.456694,410.355125 C268.854912,412.604396 267.758695,414.713379 266.264141,416.497197 C264.769587,418.281014 262.886124,419.728428 260.778864,420.712538 C259.515404,421.302587 258.175152,421.725803 256.802261,421.968247 C256.344851,422.049022 255.881277,422.089679 255.420785,422.150395 C254.956761,422.170685 254.492738,422.190975 254.028714,422.211266 L254.028727,422.211238 Z M159.240848,422.211238 C158.272728,422.178116 158.027309,422.19458 157.065968,422.062247 C155.985226,421.913478 154.919999,421.653497 153.89208,421.287626 C151.490922,420.432969 149.307121,418.998456 147.567777,417.133264 C146.077642,415.535315 144.921955,413.631996 144.190847,411.571777 C143.825526,410.542314 143.565937,409.475484 143.417392,408.393106 C143.285259,407.430314 143.301698,407.184524 143.268625,406.21495 L143.268625,215.850989 C143.301697,214.88141 143.285258,214.635621 143.417392,213.672832 C143.665039,211.868353 144.222624,210.108897 145.059355,208.491655 C146.063757,206.550322 147.467469,204.822332 149.16098,203.442487 C150.854491,202.062637 152.829382,201.03778 154.931596,200.447884 C156.682858,199.956463 158.516362,199.767689 160.330839,199.891989 C161.782125,199.99141 163.218942,200.290432 164.589631,200.77831 C165.960319,201.266186 167.26329,201.942351 168.451721,202.782506 C169.937549,203.8329 171.240868,205.138183 172.289682,206.62625 C173.759229,208.711263 174.717325,211.144476 175.064319,213.67283 C175.196452,214.635622 175.180013,214.881412 175.213086,215.850986 L175.213086,406.214947 C175.200674,406.578822 175.200659,406.943333 175.175851,407.306572 C175.101405,408.396571 174.915114,409.478656 174.620792,410.530697 C173.933271,412.988188 172.653289,415.268074 170.913931,417.133266 C169.423796,418.731215 167.606643,420.015837 165.604207,420.886924 C164.603619,421.322195 163.558587,421.654373 162.490495,421.876659 C161.540409,422.074387 161.294439,422.074733 160.330837,422.173944 C159.967509,422.186374 159.604182,422.198804 159.240854,422.211235 L159.240848,422.211238 Z M111.846909,422.211238 C111.051265,422.18888 110.850475,422.200015 110.058582,422.110656 C108.871282,421.976678 107.699382,421.708795 106.571615,421.313579 C104.31413,420.522459 102.244033,419.219771 100.552836,417.52604 C98.8616388,415.832295 97.5609121,413.759092 96.7709945,411.498192 C96.3763731,410.368729 96.1088928,409.195062 95.9751165,408.005971 C95.8858922,407.212891 95.8970102,407.011798 95.8746865,406.21495 L95.8746865,276.233193 C95.8830622,275.93422 95.8830688,275.634893 95.8998138,275.336274 C95.9333168,274.738798 96.00027,274.143676 96.1003585,273.553712 C96.5009836,271.192242 97.436579,268.930113 98.8205894,266.976593 C99.6849266,265.756587 100.720598,264.659474 101.888385,263.72678 C103.056175,262.794096 104.35464,262.027004 105.734598,261.454544 C107.667351,260.652767 109.754915,260.236899 111.846897,260.236899 C113.938894,260.236899 116.026457,260.652767 117.959196,261.454544 C119.615419,262.141609 121.153227,263.109326 122.489931,264.305676 C124.049805,265.701771 125.329692,267.404996 126.23737,269.292651 C127.015187,270.910242 127.51797,272.658069 127.718681,274.442166 C127.807906,275.235246 127.796788,275.436339 127.819111,276.233187 L127.819111,406.214945 C127.796788,407.011787 127.807906,407.21288 127.718681,408.005966 C127.584905,409.195055 127.317425,410.368721 126.922803,411.498187 C126.231861,413.47576 125.150451,415.31179 123.756456,416.874014 C122.162751,418.660051 120.168846,420.076934 117.959202,420.993587 C116.855338,421.451511 115.700281,421.78478 114.522346,421.985221 C113.736708,422.118907 113.53561,422.119066 112.742467,422.186068 C112.443944,422.194456 112.145421,422.202844 111.846897,422.211233 L111.846909,422.211238 Z M396.210545,422.211238 C395.746521,422.190947 395.281173,422.190909 394.818474,422.150367 C393.429706,422.028682 392.057721,421.724063 390.747725,421.246543 C388.562836,420.450111 386.560582,419.172614 384.916486,417.526028 C383.27239,415.879455 381.99681,413.87417 381.201568,411.686003 C380.724767,410.374029 380.420605,408.999981 380.299104,407.609121 C380.258623,407.145725 380.258584,406.679675 380.238325,406.214952 L380.238325,95.5095855 C380.292282,94.2719 380.26556,93.9554025 380.480979,92.7318575 C380.723057,91.3568953 381.145637,90.01462 381.734798,88.7492637 C382.520536,87.0617031 383.601812,85.5151425 384.916479,84.1985096 C386.231143,82.8818642 387.775365,81.7989549 389.460386,81.0120353 C391.145408,80.2251129 392.966325,79.7364641 394.818466,79.5741843 C396.207234,79.4524997 397.611196,79.5138902 398.984087,79.7563325 C401.273869,80.1606912 403.467219,81.0705726 405.371828,82.4062112 C407.276451,83.7418483 408.880332,85.4948231 410.042891,87.5114582 C410.9725,89.1240096 411.617262,90.8981525 411.940112,92.7318785 C412.15553,93.9554165 412.128809,94.2719196 412.182767,95.5096064 L412.182767,406.214973 C412.162507,406.679696 412.162468,407.145746 412.121988,407.609142 C412.040949,408.536816 411.87918,409.455627 411.638526,410.355124 C411.036744,412.604395 409.940527,414.713378 408.445973,416.497195 C406.951419,418.281013 405.067956,419.728427 402.960696,420.712537 C401.697236,421.302586 400.356984,421.725802 398.984093,421.968245 C398.526683,422.04902 398.063109,422.089678 397.602617,422.150393 C397.138593,422.170684 396.67457,422.190974 396.210546,422.211264 L396.210545,422.211238 Z M64.4529697,422.211238 C64.2385902,422.206913 64.024081,422.206912 63.8098325,422.198265 C63.3812492,422.180967 62.9535342,422.146387 62.5277303,422.094607 C61.2503661,421.939274 59.9922661,421.628712 58.789143,421.171739 C56.5816309,420.333278 54.5692424,419.001247 52.9337612,417.29597 C51.29828,415.590694 50.0503697,413.523271 49.3027303,411.280464 C48.8952595,410.0581 48.636076,408.78662 48.5325356,407.502124 C48.4865098,406.931134 48.4922537,406.787341 48.4807426,406.214958 L48.4807426,340.594256 C48.4850605,340.379553 48.4850622,340.164721 48.4936961,339.95015 C48.5109675,339.520921 48.5454962,339.092561 48.5971981,338.666116 C48.8299274,336.746519 49.4129858,334.872601 50.310266,333.160415 C51.4074482,331.06676 52.9703484,329.226598 54.8577842,327.806142 C56.5731939,326.515159 58.5471793,325.577086 60.6305751,325.062799 C62.0882732,324.702968 63.5960139,324.550406 65.0961157,324.610948 C66.8107029,324.680148 68.5123405,325.028061 70.1168066,325.637474 C71.9221114,326.32317 73.5993132,327.33859 75.0445217,328.620867 C76.6506326,330.045902 77.9632217,331.795265 78.8830963,333.736765 C79.6187255,335.289413 80.1019123,336.960081 80.3087478,338.666111 C80.3604498,339.092557 80.3949784,339.520916 80.4122497,339.950145 C80.4208837,340.164717 80.4208854,340.379549 80.4252032,340.594252 L80.4252032,406.214954 C80.4208854,406.429656 80.4208837,406.644488 80.4122497,406.85906 C80.3949784,407.288289 80.3604497,407.716648 80.3087478,408.143094 C80.1536483,409.422382 79.843554,410.682378 79.3872688,411.887314 C78.6263759,413.896648 77.4586003,415.746121 75.972187,417.295976 C74.3367058,419.001252 72.3243173,420.333284 70.1168052,421.171745 C68.9136766,421.628719 67.6555822,421.939279 66.3782179,422.094612 C65.8104023,422.163662 65.6667108,422.163704 65.0961157,422.19827 C64.8817362,422.202595 64.667358,422.206919 64.4529785,422.211243 L64.4529697,422.211238 Z M348.174,422.198673 C347.746632,422.164121 347.317529,422.146774 346.891898,422.095015 C345.614499,421.939678 344.356475,421.629133 343.15331,421.172148 C340.744304,420.257156 338.570247,418.754249 336.861765,416.822856 C335.438846,415.214298 334.346415,413.319286 333.666912,411.280872 C333.25943,410.058475 333.00026,408.787071 332.896717,407.502533 C332.862216,407.074521 332.862188,406.644422 332.844924,406.215366 L332.844924,146.459861 C332.862188,146.030805 332.862216,145.600707 332.896717,145.172695 C332.965774,144.315977 333.103664,143.466232 333.309047,142.631693 C334.028997,139.706334 335.583148,137.0104 337.7528,134.923293 C338.990398,133.732774 340.419643,132.744759 341.969969,132.007999 C343.908576,131.086731 346.029957,130.563071 348.174003,130.476544 C350.748344,130.372645 353.336639,130.901843 355.664308,132.007999 C357.214648,132.744752 358.643882,133.732765 359.881477,134.923293 C361.119075,136.113812 362.162352,137.504263 362.959825,139.026016 C363.757299,140.547769 364.307241,142.197525 364.582509,143.893881 C364.766165,145.025658 364.743358,145.316962 364.789345,146.459871 L364.789345,406.215376 C364.772081,406.644432 364.772053,407.074531 364.737552,407.502543 C364.634009,408.787084 364.374839,410.058496 363.967357,411.280882 C363.287855,413.319309 362.195423,415.214308 360.772504,416.822866 C359.064008,418.754259 356.889965,420.257166 354.480959,421.172158 C353.277798,421.629144 352.019763,421.939688 350.742371,422.095025 C350.31674,422.146784 349.887637,422.16413 349.460269,422.198683 L348.173996,422.198683 L348.174,422.198673 Z M205.992182,422.198673 C205.564814,422.164121 205.135711,422.146774 204.71008,422.095015 C203.43268,421.939678 202.174657,421.629133 200.971492,421.172148 C198.562486,420.257156 196.388429,418.754249 194.679947,416.822856 C193.257027,415.214298 192.164597,413.319286 191.485094,411.280872 C191.077612,410.058475 190.818442,408.787071 190.714899,407.502533 C190.680398,407.074521 190.68037,406.644422 190.663106,406.215366 L190.663106,145.615258 C190.68037,145.186201 190.680398,144.756103 190.714899,144.328091 C190.783956,143.471373 190.921846,142.621628 191.127229,141.787089 C191.847179,138.86173 193.401329,136.165796 195.570982,134.078689 C196.80858,132.88817 198.237825,131.900155 199.788151,131.163396 C202.115834,130.057234 204.704115,129.528033 207.278456,129.63194 C209.422502,129.718472 211.543883,130.242134 213.48249,131.163396 C215.032829,131.900148 216.462063,132.888161 217.699659,134.078689 C218.937256,135.269208 219.980534,136.659659 220.778006,138.181412 C221.575481,139.703165 222.125423,141.352921 222.400691,143.049277 C222.584347,144.181054 222.561539,144.472358 222.607527,145.615267 L222.607527,406.215376 C222.590262,406.644432 222.590234,407.074531 222.555734,407.502543 C222.452191,408.787084 222.193021,410.058496 221.785539,411.280882 C220.969665,413.728405 219.557787,415.964483 217.699652,417.751931 C216.1521,419.240611 214.305479,420.410102 212.299126,421.172158 C211.095966,421.629144 209.837931,421.939688 208.560539,422.095025 C208.134908,422.146784 207.705805,422.16413 207.278437,422.198683 L205.992164,422.198683 L205.992182,422.198673 Z M299.149152,422.049297 C297.695147,421.621719 296.165578,421.397028 294.787139,420.766564 C292.001895,419.49267 289.640965,417.443822 287.985551,414.864081 C287.16627,413.587333 286.523936,412.178701 286.097,410.722506 C285.670066,409.266311 285.665675,407.718061 285.450013,406.215825 L285.450013,16.0478843 C286.017131,12.0975389 285.763015,10.8631747 287.985547,7.39964231 C288.804828,6.12289429 289.817392,4.95256637 290.962653,3.95869785 C292.107908,2.96483352 293.408682,2.12761043 294.787135,1.49714498 C296.165582,0.866680931 297.649185,0.43039901 299.149147,0.214412139 C302.17992,-0.222005198 305.272096,0.223251108 308.057326,1.49714498 C309.435773,2.12760903 310.736547,2.96482934 311.881808,3.95869785 C314.195873,5.9668729 315.884812,8.59886825 316.747465,11.5412032 C317.174399,12.9973981 317.17879,14.545648 317.394452,16.0478843 L317.394452,406.215825 C317.17879,407.718047 317.174399,409.266297 316.747465,410.722506 C315.884816,413.664841 314.195873,416.29685 311.881808,418.305011 C310.736553,419.298876 309.435779,420.136099 308.057326,420.766564 C306.678879,421.397028 305.149318,421.621719 303.695313,422.049297 L299.149147,422.049297 L299.149152,422.049297 Z M441.33097,422.049297 C439.876965,421.621719 438.347396,421.397028 436.968957,420.766564 C434.183713,419.49267 431.822784,417.443822 430.167369,414.864081 C429.348088,413.587333 428.705754,412.178701 428.278818,410.722506 C427.851884,409.266311 427.847493,407.718061 427.631831,406.215825 L427.631831,17.9381219 C428.19895,13.9877766 427.944833,12.7534123 430.167365,9.28987993 C430.986646,8.01313191 431.99921,6.84280399 433.144471,5.84893548 C434.289726,4.85507115 435.5905,4.01784805 436.968953,3.3873826 C438.3474,2.75691855 439.831003,2.32063663 441.330966,2.10464976 C444.361738,1.66823243 447.453914,2.11348873 450.239144,3.3873826 C451.617591,4.01784665 452.918366,4.85506696 454.063626,5.84893548 C456.377691,7.85711052 458.06663,10.4891059 458.929283,13.4314408 C459.356217,14.8876358 459.360608,16.4358856 459.57627,17.9381219 L459.57627,406.215825 C459.360608,407.718047 459.356217,409.266297 458.929283,410.722506 C458.066634,413.664841 456.377691,416.29685 454.063626,418.305011 C452.918371,419.298876 451.617597,420.136099 450.239144,420.766564 C448.860697,421.397028 447.331136,421.621719 445.877132,422.049297 L441.330966,422.049297 L441.33097,422.049297 Z" id="Shape"></path>
            </g>
        </g>
    </g>
</svg>