<?xml version="1.0" encoding="UTF-8" standalone="no"?>
<svg width="560px" height="560px" viewBox="0 0 560 560" version="1.1" xmlns="http://www.w3.org/2000/svg" xmlns:xlink="http://www.w3.org/1999/xlink">
    <!-- Generator: sketchtool 3.8.2 (29753) - http://www.bohemiancoding.com/sketch -->
    <title>postgres</title>
    <desc>Created with sketchtool.</desc>
    <defs></defs>
    <g id="Page-1" stroke="none" stroke-width="1" fill="none" fill-rule="evenodd">
        <g id="postgres" fill="#000000">
            <g id="Group" transform="translate(57.000000, 50.000000)">
                <path d="M228.436779,373.722337 C228.461283,372.613832 228.488928,371.485867 228.519071,370.339195 C228.488879,371.487069 228.461126,372.615112 228.436779,373.722337 L228.436779,373.722337 Z M228.761942,361.691203 L228.777518,360.967288 L228.761942,361.691203 Z M228.80229,356.449416 C228.796665,355.672281 228.785931,354.894869 228.770136,354.117611 C228.785963,354.894134 228.796787,355.671384 228.80229,356.449416 L228.80229,356.449416 Z M228.592635,348.956632 C228.449599,346.004159 228.236952,343.091451 227.961579,340.270773 C228.237046,343.092035 228.449734,346.004191 228.592635,348.956632 L228.592635,348.956632 Z M345.51043,314.335704 C345.231447,316.947461 344.940595,319.557882 344.645544,322.167726 C344.042756,327.499616 343.416397,332.828819 342.774758,338.156204 C341.995688,344.624642 341.193708,351.090345 340.366496,357.552791 C339.362495,365.396447 338.325882,373.236341 337.21267,381.065352 C336.749193,384.324894 336.272396,387.582682 335.766099,390.835925 C335.552655,392.207405 335.333831,393.578071 335.105831,394.947211 C334.903061,396.164852 334.693661,397.381386 334.465366,398.594529 C334.131506,400.368643 333.761563,402.136126 333.346284,403.893057 C331.852521,410.212714 329.764461,416.446157 326.568902,422.12281 C326.149474,422.867889 325.711421,423.602524 325.254247,424.325111 C324.600019,425.359163 323.906609,426.368523 323.173877,427.348647 C321.883701,429.074421 320.471141,430.70848 318.947267,432.232361 C316.304176,434.875464 313.331293,437.174768 310.149674,439.134574 C307.265424,440.911217 304.216773,442.412185 301.084118,443.698311 C297.621427,445.119941 294.055593,446.282484 290.446309,447.270741 C288.657613,447.760503 286.857216,448.20722 285.048978,448.618999 C284.037223,448.849398 283.023404,449.071612 282.005826,449.274956 C280.950479,449.485846 279.891128,449.67685 278.828257,449.84589 C276.551492,450.207989 274.258058,450.469504 271.95653,450.60745 C270.94404,450.668134 269.930418,450.703066 268.916202,450.715164 C268.718156,450.71687 268.52013,450.717918 268.322077,450.718299 C266.541601,450.715433 264.762003,450.63707 262.989921,450.461777 C259.816577,450.14787 256.67105,449.531526 253.630927,448.564791 C251.029886,447.737668 248.510871,446.654447 246.129492,445.320874 C243.601505,443.905196 241.234185,442.209614 239.069147,440.285629 C236.937044,438.390919 235.003417,436.278934 233.268013,434.017125 C230.508591,430.420684 228.262688,426.460028 226.360684,422.353042 C225.708268,420.944281 225.095579,419.517553 224.506006,418.081508 C224.373373,417.758452 224.241676,417.435001 224.111196,417.111074 C223.948545,416.707277 223.783992,416.304509 223.63381,415.895915 C223.376636,415.196227 223.15137,414.485043 222.946447,413.768447 C222.674105,412.816096 222.437718,411.853653 222.223302,410.886744 C221.982607,409.801326 221.769924,408.70979 221.575515,407.615196 C221.141153,405.169576 220.79531,402.708584 220.493862,400.243356 C220.12128,397.196362 219.819107,394.140958 219.557449,391.082559 C219.284264,387.889455 219.056561,384.692534 218.859566,381.493851 C218.537616,376.266219 218.29749,371.033672 218.110693,365.799552 C217.850072,358.496854 217.694217,351.190521 217.612751,343.883713 C217.516472,335.24828 217.52432,326.611662 217.622291,317.976466 C216.053716,319.585375 214.400734,321.111935 212.664879,322.540583 C209.50894,325.138002 206.082689,327.406023 202.447171,329.276848 C199.996685,330.537857 197.453809,331.618232 194.846668,332.512055 C192.183576,333.425052 189.45436,334.142786 186.689432,334.672561 C184.186097,335.152216 181.653712,335.477711 179.111524,335.66081 C177.66341,335.765108 176.212749,335.8205 174.761075,335.837796 C174.47832,335.840094 174.195608,335.841287 173.912843,335.841392 C172.096116,335.835075 170.2806,335.768345 168.468636,335.635901 C164.507251,335.346347 160.569735,334.759609 156.686665,333.92806 C155.823963,333.743315 154.96388,333.546429 154.106526,333.33834 C153.267638,333.134732 152.432911,332.917603 151.606317,332.668374 C149.652396,332.079241 147.737907,331.352498 145.886663,330.493902 C144.164107,329.694988 142.488933,328.779967 140.925295,327.700833 C139.462933,326.691591 138.084456,325.530407 136.959479,324.149332 C136.200922,323.218093 135.56207,322.18352 135.130514,321.06048 C134.791907,320.179335 134.583405,319.24819 134.533263,318.304985 C134.495077,317.586678 134.548317,316.864126 134.692053,316.159259 C134.794547,315.656637 134.941892,315.160711 135.133426,314.684627 C135.292817,314.288441 135.477443,313.903503 135.689074,313.532453 C135.82986,313.285615 135.981754,313.045123 136.143424,312.811414 C137.404066,310.989048 139.223546,309.628957 141.148392,308.571337 C141.485609,308.38605 141.82754,308.209383 142.173105,308.040156 C142.606844,307.827748 143.046346,307.627173 143.490078,307.436518 C144.121215,307.165344 144.760959,306.914297 145.406434,306.679279 C147.686886,305.848956 150.034941,305.209571 152.39882,304.665602 C153.728688,304.359575 155.067117,304.093046 156.402247,303.811306 C157.00955,303.681739 157.616528,303.550831 158.223206,303.418404 C160.163954,302.989622 162.100832,302.543084 164.025725,302.047557 C165.367469,301.70215 166.703785,301.334276 168.027926,300.926342 C169.390477,300.50657 170.742165,300.04526 172.060578,299.501552 C173.324535,298.980299 174.560463,298.380535 175.713383,297.64327 C176.42698,297.186947 177.10519,296.677199 177.742636,296.119635 C179.013358,295.008158 180.121159,293.724284 181.187669,292.420357 C181.820009,291.647252 182.438327,290.862823 183.056983,290.078791 C183.483818,289.53786 183.910603,288.99689 184.338331,288.456659 C184.649912,288.065021 184.961765,287.673666 185.274918,287.283288 C186.249014,286.073701 187.23588,284.874611 188.243425,283.692703 C188.138173,282.741104 188.083417,281.784912 188.067616,280.827377 C187.831423,280.828067 187.595254,280.826335 187.359074,280.824224 C185.899947,280.805325 184.442347,280.734764 182.988901,280.603786 C180.194732,280.351987 177.420143,279.887213 174.695983,279.2174 C171.521484,278.436862 168.416535,277.377945 165.423225,276.065151 C163.617883,275.273366 161.854116,274.389391 160.138395,273.420088 C159.785504,273.793816 159.432903,274.167892 159.080509,274.542156 C154.542177,279.377309 150.062185,284.266809 145.631663,289.200664 C141.449381,293.858148 137.310976,298.555025 133.220491,303.293183 C130.915561,305.963064 128.625861,308.646074 126.353107,311.343341 C125.568465,312.274549 124.785806,313.207424 124.005265,314.142062 C123.572899,314.659789 123.142872,315.179473 122.70815,315.695234 C122.533164,315.901137 122.357388,316.106298 122.180716,316.31076 C121.547916,317.037021 120.902098,317.751571 120.236637,318.448163 C119.713257,318.996025 119.178822,319.533391 118.63254,320.058479 C118.220404,320.454625 117.801555,320.843814 117.375655,321.225156 C114.345344,323.938421 110.930145,326.27922 107.133105,327.781816 C106.560239,328.008517 105.979624,328.215687 105.392282,328.401803 C104.494998,328.686132 103.581916,328.920982 102.658082,329.101698 C101.750078,329.279318 100.831782,329.404538 99.9091977,329.474848 C99.4520282,329.509689 98.9942797,329.529165 98.5359346,329.538901 C98.3401779,329.54144 98.3405608,329.541434 98.1448064,329.542352 C97.6891552,329.54057 97.2339312,329.529331 96.7789959,329.50291 C95.9375204,329.454041 95.0987506,329.359696 94.2672357,329.221925 C93.4371686,329.084395 92.6143642,328.903709 91.8024777,328.683077 C91.1764214,328.512944 90.556843,328.31912 89.9450147,328.103477 C85.8772909,326.669795 82.2003085,324.292362 78.9301435,321.509638 C78.4424024,321.094597 77.9629305,320.669885 77.4913257,320.23664 C76.8492486,319.646781 76.2217507,319.04113 75.6077943,318.422129 C74.7651874,317.572599 73.9480239,316.697991 73.153614,315.803354 C72.1221595,314.641767 71.1290046,313.446447 70.1686904,312.225574 C68.910239,310.625675 67.7082125,308.981767 66.5525395,307.306387 C64.8856725,304.889909 63.3148829,302.407901 61.8181212,299.882999 C60.2269278,297.198804 58.719446,294.465432 57.2774002,291.698556 C54.0740163,285.552205 51.187939,279.243147 48.5055988,272.853968 C45.3737269,265.394033 42.5212815,257.818291 39.8603815,250.178734 C36.8902366,241.651346 34.1602058,233.041126 31.6104229,224.379374 C28.1482299,212.618075 25.016184,200.759875 22.1627417,188.837023 C20.011833,179.849714 18.0187352,170.823913 16.2094137,161.761755 C15.1304981,156.357877 14.1162274,150.940611 13.1976622,145.507157 C12.4712318,141.210196 11.7987025,136.902312 11.2520096,132.578549 C10.9680839,130.33299 10.7143588,128.081527 10.5519285,125.823528 C10.4965524,125.053722 10.457799,124.28316 10.4223879,123.512202 C10.3723863,122.423598 10.3302007,121.334639 10.2962034,120.245419 C10.1890096,116.811148 10.1630575,113.37411 10.2317017,109.938811 C10.2907149,106.985445 10.4196759,104.033312 10.6285965,101.086656 C10.7985206,98.6900485 11.0213909,96.2970842 11.3032888,93.9110041 C11.5134999,92.1317052 11.7565666,90.3562395 12.0352264,88.5863381 C12.247246,87.2396921 12.4798854,85.8962787 12.7344009,84.556999 C14.4550661,75.5027447 17.1847408,66.5991364 21.308652,58.3382636 C21.9364734,57.0806299 22.5961544,55.8388354 23.2883161,54.615354 C24.2489626,52.9173058 25.2722999,51.2545718 26.3588897,49.6340203 C27.8783653,47.3678564 29.5218221,45.1844608 31.2855417,43.1022416 C33.7369055,40.2081935 36.4206382,37.5114079 39.3066205,35.0494753 C41.6376661,33.0609316 44.0992833,31.2260216 46.6670965,29.5538821 C49.2630826,27.8633979 51.9668788,26.339557 54.7510717,24.9809052 C62.9349693,20.9872674 71.7718032,18.445056 80.7484335,16.9998261 C87.2571966,15.9518955 93.851388,15.4714722 100.441513,15.4189041 C107.855866,15.3597593 115.270362,15.8407526 122.630435,16.7217632 C128.593098,17.4354991 134.523246,18.4134251 140.407664,19.609188 C146.212169,20.7887007 151.973493,22.1801849 157.681168,23.7621186 C162.076041,24.9802096 166.440232,26.310732 170.763237,27.7632649 C172.404375,28.3146888 174.039557,28.8839972 175.666787,29.4751605 C176.285676,29.6999993 176.903648,29.9275586 177.51993,30.1596397 C179.95411,28.4653301 182.478315,26.9002868 185.079768,25.4748637 C190.707688,22.3911328 196.688873,19.9698177 202.859134,18.208073 C209.793401,16.228184 216.950552,15.0792194 224.143771,14.6183342 C226.552088,14.4640255 228.965192,14.3862215 231.378399,14.3784387 C233.23617,14.3724471 235.09406,14.4088213 236.950582,14.4756923 C240.357822,14.5984198 243.761137,14.8330522 247.152388,15.1853545 C253.201081,15.8137319 259.21134,16.8177934 265.129541,18.2170154 C265.792636,18.3737876 266.454552,18.5355227 267.115408,18.7022664 C267.219745,18.6380612 267.285738,18.6009549 267.479989,18.5035669 C267.721713,18.3823775 267.975188,18.2822919 268.227527,18.1857354 C268.481005,18.0887441 268.73639,17.9966698 268.992383,17.9065478 C269.692173,17.6601877 270.397197,17.4286599 271.104319,17.2042692 C273.422556,16.4686257 275.765841,15.8112754 278.120574,15.2030084 C282.079886,14.1802514 286.076857,13.3028053 290.096851,12.5534321 C294.884783,11.6609057 299.707193,10.9517232 304.549746,10.4300737 C307.567075,10.1050363 310.592347,9.85311831 313.622105,9.67762436 C315.837595,9.54929543 318.055483,9.46183773 320.27424,9.41689368 C334.660599,9.1254813 349.131057,10.6196277 363.025558,14.4275504 C365.312346,15.0542664 367.582102,15.7431741 369.830551,16.4957641 C372.845697,17.504982 375.822535,18.6286861 378.750219,19.8685758 C382.773321,21.57237 386.703338,23.4958181 390.512331,25.6353397 C396.373087,28.9273432 401.943189,32.732049 407.141048,36.9927555 C412.312775,41.2320191 417.112866,45.9178621 421.505413,50.9577074 C422.476763,52.0722115 423.428438,53.2038353 424.360176,54.3515985 C424.714112,54.7875979 425.065198,55.2259067 425.413411,55.6664871 C425.780322,56.1307212 426.14289,56.5971572 426.484811,57.0801652 C427.196537,58.0855813 427.835716,59.1415342 428.410455,60.2306593 C429.545819,62.3821552 430.431726,64.6595741 431.13956,66.9846449 C432.005419,69.8288043 432.607975,72.7494882 433.037783,75.6894731 C433.667946,79.9999102 433.929465,84.3602359 433.969529,88.7140332 C434.017691,93.9472366 433.740706,99.1814043 433.254547,104.391023 C432.653122,110.835741 431.727974,117.248813 430.578385,123.617916 C429.333898,130.512763 427.823758,137.358954 426.108504,144.151779 C423.520991,154.398951 420.466952,164.527487 417.041445,174.525531 C413.412422,185.117624 409.362167,195.565552 404.932571,205.848923 C400.601489,215.903559 395.905861,225.802016 390.851359,235.513865 C385.675985,245.458006 380.123755,255.207872 374.178734,264.713195 C372.306927,267.705953 370.394448,270.672882 368.444507,273.615301 L368.475278,273.646818 C369.12743,274.310877 369.889522,274.863352 370.687572,275.338733 C371.902351,276.062347 373.215471,276.614711 374.555198,277.061022 C376.392075,277.672952 378.291936,278.088007 380.203727,278.384652 C382.405419,278.726284 384.630324,278.909588 386.856171,278.991327 C389.569295,279.090959 392.28707,279.038546 394.997188,278.885983 C397.694362,278.734149 400.385476,278.481893 403.067081,278.15725 C406.035564,277.797882 408.992979,277.349405 411.93833,276.834671 C413.480393,276.565178 415.019236,276.277393 416.554874,275.973538 C417.35309,275.815599 418.149541,275.649032 418.947646,275.490604 C419.139562,275.453535 419.331576,275.416968 419.523688,275.38092 C420.924064,275.126042 422.333008,274.916579 423.752688,274.805266 C424.684196,274.732229 425.619913,274.700169 426.554009,274.732176 C428.513665,274.799322 430.515434,275.153187 432.243868,276.118791 C432.481985,276.251817 432.713921,276.395868 432.938159,276.551131 C433.204186,276.735329 433.459387,276.935233 433.701119,277.150295 C434.013575,277.428279 434.30359,277.731541 434.566028,278.05712 C434.887841,278.456357 435.168064,278.888929 435.399996,279.346195 C435.684281,279.906664 435.895174,280.50349 436.029373,281.117234 C436.194943,281.874454 436.245682,282.658677 436.186258,283.431358 C436.159429,283.780231 436.114307,284.126966 436.049203,284.470808 C435.901,285.253545 435.656265,286.016076 435.346228,286.749326 C434.919924,287.757555 434.371594,288.711431 433.758508,289.617157 C433.072146,290.631141 432.302681,291.587791 431.488025,292.501365 C430.383745,293.739729 429.194377,294.901316 427.957951,296.007276 C426.510257,297.302216 424.995473,298.521674 423.437642,299.681617 C421.800942,300.900293 420.115427,302.053217 418.393639,303.148444 C416.371601,304.434658 414.298865,305.641257 412.185655,306.771632 C411.08132,307.362354 409.96579,307.932183 408.839959,308.480919 C408.014212,308.88339 407.184303,309.278632 406.344299,309.650631 C405.554001,310.000618 404.754775,310.33037 403.949004,310.643125 C401.463359,311.607923 398.917311,312.414678 396.345217,313.115277 C393.365104,313.927011 390.346272,314.595331 387.308222,315.151393 C384.27833,315.70597 381.227693,316.147949 378.165767,316.483101 C375.128018,316.815609 372.078046,317.042875 369.023865,317.149783 C368.032324,317.184491 367.040491,317.204742 366.048404,317.214158 C365.721967,317.216205 365.395564,317.217248 365.069118,317.217248 C361.861802,317.206729 358.651954,317.06236 355.466529,316.676033 C352.987673,316.375396 350.516333,315.933616 348.117913,315.231269 C347.620237,315.085531 347.125944,314.928156 346.636333,314.757291 C346.257922,314.625234 345.882291,314.485163 345.510257,314.335993 L345.51043,314.335704 Z M173.928096,325.989038 C175.000373,325.988639 176.072272,325.965312 177.143228,325.91107 C179.458672,325.793797 181.767827,325.541911 184.051301,325.139953 C186.264315,324.750399 188.452866,324.219851 190.594629,323.539928 C192.840563,322.826934 195.034193,321.949893 197.149208,320.911265 C200.257408,319.384911 203.18942,317.509613 205.890866,315.345107 C208.627479,313.152393 211.124034,310.66893 213.376566,307.983914 C214.105828,307.114632 214.809782,306.224208 215.489175,305.31551 C215.683568,305.055508 215.875972,304.794017 216.066353,304.531067 C216.270254,304.249443 216.472669,303.967814 216.652758,303.670219 C217.039796,303.030643 217.339117,302.340091 217.550967,301.623606 C217.824322,300.699116 217.953161,299.735464 217.967872,298.772633 C217.987076,297.515735 217.814931,296.258781 217.504826,295.041915 C217.190762,293.809518 216.734293,292.613597 216.160851,291.47863 C215.593717,290.356151 214.910873,289.290049 214.117207,288.313775 C213.211466,287.199642 212.154212,286.187128 210.937589,285.416589 C210.601936,285.204005 210.253843,285.010493 209.893571,284.842701 C209.601767,284.706798 209.301789,284.588753 209.00355,284.46798 C208.760232,284.369448 208.51621,284.272613 208.270651,284.179775 C208.09387,284.11294 207.916226,284.048638 207.73787,283.986123 C206.719169,283.62906 205.638252,283.360385 204.550918,283.427084 C204.311752,283.441755 204.073642,283.472278 203.838525,283.51846 C202.83874,283.714837 201.912366,284.185957 201.074854,284.753845 C200.11488,285.404764 199.250754,286.191938 198.450529,287.02841 C198.036521,287.461168 197.640881,287.911168 197.244499,288.359944 C196.286329,289.444786 195.346569,290.545774 194.42385,291.660855 C193.778345,292.440929 193.142012,293.228436 192.509875,294.019336 C191.539205,295.23941 190.57768,296.466694 189.606219,297.686136 C188.462009,299.113843 187.295332,300.526399 186.018707,301.839067 C184.857338,303.033233 183.604765,304.137589 182.252103,305.111429 C181.716895,305.496749 181.167223,305.861939 180.605261,306.207146 C178.862775,307.277539 177.006412,308.151184 175.104004,308.897403 C173.52175,309.518045 171.906751,310.05326 170.2785,310.539619 C168.50766,311.068576 166.719858,311.539803 164.924991,311.979964 C162.987915,312.455002 161.041882,312.893175 159.091815,313.311562 C158.004941,313.544746 156.915677,313.766341 155.828201,313.996593 C155.521757,314.062691 155.215613,314.129902 154.909691,314.198374 C153.566879,314.504466 152.230697,314.839769 150.91109,315.234796 C150.068333,315.487078 149.232047,315.762597 148.409441,316.074581 C147.721142,316.335628 147.041241,316.621651 146.382838,316.951331 C145.825593,317.230355 145.280892,317.540479 144.783606,317.917387 L144.725232,317.962912 L144.671689,318.005897 C144.722986,318.066559 144.77671,318.125095 144.830696,318.183359 C145.222529,318.597242 145.662511,318.962833 146.120223,319.301554 C146.640599,319.686652 147.186314,320.037245 147.744787,320.364407 C148.597758,320.864082 149.482257,321.312157 150.384864,321.715234 C151.328422,322.136602 152.289512,322.517333 153.267033,322.852825 C153.888488,323.066112 154.516117,323.261731 155.149513,323.436561 C155.785291,323.612049 156.427387,323.76521 157.069374,323.916088 C158.107505,324.160066 159.15002,324.385446 160.196601,324.59029 C163.166469,325.171572 166.169589,325.58913 169.188264,325.80978 C170.604122,325.913272 172.022473,325.970634 173.441987,325.986412 C173.604038,325.987582 173.766092,325.988448 173.928145,325.989011 L173.928096,325.989038 Z M168.503177,37.3992646 C167.052959,36.9050697 165.597495,36.4268072 164.137973,35.9617567 C159.98384,34.6381186 155.794263,33.4249832 151.576482,32.3204694 C146.405625,30.9663859 141.191287,29.7755234 135.941371,28.7695223 C130.841425,27.7922753 125.707049,26.989354 120.547799,26.3969103 C113.902206,25.6337782 107.211217,25.2170261 100.520458,25.2703924 C94.5840687,25.3177449 88.6437076,25.7356911 82.7764568,26.6533326 C74.8201733,27.8976959 66.9700622,30.0739148 59.6863356,33.5406787 C55.2848413,35.6356151 51.1065464,38.2012612 47.2922519,41.2379883 C44.7012025,43.3008591 42.2813977,45.5769344 40.0637239,48.0360612 C38.5576425,49.7061141 37.1447032,51.4596072 35.8285927,53.2827485 C34.899521,54.5697447 34.0185829,55.891312 33.1855648,57.2423052 C32.5511698,58.2711797 31.9445346,59.3171027 31.3651514,60.3778533 C27.3738449,67.685301 24.6973275,75.6538842 22.9526905,83.7771522 C22.6706351,85.0904364 22.412705,86.408866 22.1773132,87.7312869 C21.8498521,89.5709471 21.5659486,91.4182818 21.3215891,93.2707619 C21.0153933,95.5920072 20.7712332,97.9213065 20.581975,100.254929 C20.3374763,103.269684 20.1845239,106.291639 20.1099936,109.315269 C20.0263468,112.708718 20.0414304,116.104379 20.1400926,119.497314 C20.1702731,120.535215 20.2082938,121.572878 20.2537833,122.610218 C20.2845313,123.311393 20.3151243,124.012752 20.3608101,124.713153 C20.4423366,125.963009 20.5614775,127.210376 20.6960024,128.455545 C20.893574,130.284282 21.1272569,132.109076 21.3797154,133.931 C21.6504882,135.885099 21.9439947,137.836028 22.2528132,139.784468 C22.9985318,144.489501 23.8315222,149.18064 24.7182753,153.8611 C26.271897,162.06143 27.9932346,170.230066 29.8453099,178.368193 C32.2850834,189.088643 34.9546861,199.757719 37.8722432,210.358348 C39.9439577,217.885758 42.1420663,225.378929 44.4942832,232.823736 C46.6272406,239.574584 48.8865131,246.286403 51.3114841,252.938382 C53.2854124,258.353088 55.369002,263.728781 57.6001016,269.043124 C59.4704129,273.498098 61.4442146,277.910849 63.5603996,282.254925 C65.2043865,285.629689 66.9343873,288.963685 68.781684,292.232104 C70.078973,294.527393 71.4343165,296.790514 72.865033,299.005422 C74.0198041,300.793138 75.2237847,302.549698 76.4905827,304.260179 C77.4507704,305.55666 78.4470819,306.826805 79.4879353,308.059708 C80.3256687,309.05202 81.192279,310.02032 82.0934785,310.95559 C82.7644651,311.651946 83.454637,312.330018 84.1668386,312.9843 C84.7508065,313.520777 85.3495926,314.041281 85.9649574,314.541558 C86.4216252,314.912823 86.8874071,315.272928 87.3629914,315.619705 C87.7338329,315.890108 88.1106887,316.152315 88.4938065,316.405067 C90.7945353,317.922901 93.3619529,319.128323 96.1078779,319.537944 C96.5574325,319.605006 97.0102403,319.650523 97.4642262,319.673095 C98.1431567,319.70685 98.8243879,319.68924 99.5006712,319.620541 C100.615141,319.507331 101.712775,319.254598 102.77173,318.891364 C104.651132,318.246704 106.402106,317.265011 108.017999,316.117524 C109.090593,315.355849 110.107942,314.517933 111.078525,313.630655 C112.54137,312.293383 113.894965,310.843142 115.177697,309.333773 C115.598483,308.834548 116.014584,308.331392 116.433087,307.830261 C116.908415,307.261087 117.384777,306.69278 117.861366,306.124656 C124.780372,297.892079 131.845267,289.782485 139.039593,281.788918 C141.821492,278.697963 144.622663,275.624277 147.445092,272.570186 C148.917858,270.976554 150.395585,269.387373 151.882465,267.806617 C151.656117,267.624016 151.431101,267.439806 151.207403,267.254021 C147.689354,264.332223 144.496904,261.022135 141.68828,257.414921 C137.511109,252.050072 134.18819,246.030554 131.846764,239.650069 C130.416254,235.751877 129.3515,231.720681 128.665438,227.625811 C128.03401,223.857028 127.723257,220.035551 127.729531,216.214492 C127.733228,213.963819 127.846592,211.713423 128.066561,209.473524 C128.138462,208.741375 128.221712,208.010344 128.316193,207.280762 C128.392007,206.695327 128.475995,206.110963 128.555323,205.525997 C128.60077,205.186698 128.645349,204.847285 128.689932,204.507871 C128.83348,203.38608 128.97144,202.263688 129.098569,201.139912 C129.37142,198.727987 129.60273,196.311406 129.795292,193.891775 C130.393468,186.375375 130.616553,178.831438 130.54027,171.292496 C130.499885,167.301388 130.373953,163.311575 130.184565,159.324909 C130.110163,157.758696 130.025794,156.192972 129.936052,154.627566 C129.839181,152.937809 129.735238,151.24847 129.639982,149.558619 C129.62103,149.210093 129.602495,148.861545 129.584433,148.512972 C129.541867,147.634499 129.503135,146.75612 129.493482,145.876595 L129.49262,145.685321 C129.492766,145.628389 129.492621,145.573675 129.492814,145.519377 C129.480906,144.913856 129.479684,144.307996 129.482194,143.702306 C129.485697,142.856688 129.498961,142.011205 129.517615,141.165793 C129.561357,139.183406 129.646169,137.201676 129.759221,135.222087 C130.068678,129.803382 130.600626,124.396754 131.339038,119.019733 C131.975626,114.38419 132.767935,109.769544 133.727244,105.189699 C134.44849,101.746385 135.264276,98.3226338 136.182611,94.9264032 C136.90507,92.2545936 137.690877,89.599785 138.544884,86.9669805 C139.213726,84.904987 139.924286,82.8564616 140.679131,80.824297 C141.254937,79.2741365 141.856481,77.7335001 142.484916,76.2038736 C146.556785,66.2928496 151.773339,56.8063375 158.399936,48.3630455 C159.491794,46.9718616 160.621154,45.6100008 161.788132,44.2810513 C163.262228,42.6023595 164.796371,40.9761805 166.389566,39.4098015 C167.082948,38.7280894 167.787537,38.0577255 168.503196,37.3992063 L168.503177,37.3992646 Z M154.77909,294.819691 C156.880196,294.371626 158.977639,293.905421 161.062431,293.386269 C162.605372,293.002048 164.142736,292.59118 165.661143,292.11859 C166.712479,291.791367 167.757391,291.435962 168.773861,291.011602 C169.166176,290.847814 169.554261,290.673176 169.933268,290.480484 C170.275444,290.306518 170.610698,290.117535 170.929097,289.902868 C171.212586,289.711739 171.479172,289.498488 171.733262,289.269988 L171.769292,289.237241 L171.80084,289.20825 C171.551618,289.143628 171.303195,289.07617 171.054684,289.008886 C169.581879,288.60162 168.122016,288.151452 166.679361,287.647507 C165.354469,287.184701 164.046595,286.677081 162.751995,286.135696 L162.691091,286.109849 C160.472262,288.523387 158.267943,290.95018 156.071306,293.38388 C155.640358,293.862297 155.209553,294.340838 154.779096,294.819696 L154.77909,294.819691 Z M346.509653,303.398454 C346.511452,303.41722 346.513639,303.435623 346.51622,303.453068 C346.519152,303.471108 346.527672,303.487262 346.536259,303.503243 C346.611815,303.63945 346.728132,303.755091 346.84136,303.859834 C347.057918,304.060166 347.301078,304.231484 347.551091,304.387285 C347.971154,304.649054 348.417393,304.868116 348.871917,305.063037 C349.472777,305.320717 350.091547,305.535929 350.717323,305.724597 C351.541915,305.973206 352.380147,306.17565 353.223893,306.347773 C354.198986,306.546692 355.182228,306.704846 356.168895,306.834082 C358.738694,307.17068 361.330234,307.313252 363.920469,307.355469 C364.308947,307.360523 364.697386,307.363633 365.085897,307.364908 C368.78,307.364908 372.47184,307.16175 376.146734,306.789037 C379.290758,306.470167 382.423041,306.029316 385.531518,305.460348 C388.294754,304.95458 391.040979,304.348207 393.751572,303.609891 C396.071185,302.978072 398.368662,302.251295 400.606249,301.370316 C401.191708,301.139809 401.772888,300.898322 402.348189,300.64355 C402.816186,300.4363 403.279634,300.218938 403.741816,299.999094 C404.343225,299.713022 404.941453,299.420282 405.536367,299.120968 C407.737719,298.013411 409.894435,296.816376 411.994393,295.527056 C413.563165,294.56387 415.100568,293.548993 416.596009,292.475533 C417.86878,291.561903 419.111788,290.605751 420.309756,289.595972 C421.193827,288.850783 422.054029,288.076313 422.874832,287.261867 C423.698285,286.444783 424.483573,285.587096 425.185316,284.662694 L425.243961,284.584177 C424.642414,284.608448 424.042432,284.663466 423.444995,284.736875 C422.732726,284.824393 422.02378,284.938085 421.318185,285.068513 C420.574976,285.205893 419.835648,285.363854 419.094878,285.513525 C418.680734,285.596044 418.26648,285.678016 417.852115,285.759425 C416.842655,285.954903 415.832482,286.146348 414.820633,286.32913 C411.659108,286.900233 408.48438,287.400717 405.297396,287.807824 C402.361042,288.182916 399.41388,288.478941 396.459455,288.667803 C393.650531,288.847364 390.834241,288.930668 388.019699,288.878611 C385.423935,288.830601 382.828202,288.66784 380.252192,288.340121 C379.230619,288.210157 378.212322,288.053845 377.199602,287.866988 C376.358158,287.711734 375.520582,287.535209 374.688791,287.334571 C372.536276,286.815357 370.417282,286.134666 368.3956,285.228142 C366.826923,284.524747 365.316126,283.683585 363.922934,282.674755 C363.417167,282.308521 362.929898,281.918934 362.458143,281.51003 L362.336611,281.40283 L362.304206,281.373764 C362.159631,281.433099 362.013949,281.489452 361.867897,281.545035 C360.492458,282.056317 359.067763,282.417319 357.659135,282.822941 C357.428788,282.890181 357.198789,282.958386 356.969076,283.027754 C355.968216,283.336257 354.976398,283.676132 354.023425,284.112824 C352.81579,284.666218 351.677277,285.376488 350.714091,286.29607 C350.435003,286.562523 350.171176,286.844852 349.92398,287.141071 C348.580859,288.750541 347.763728,290.731331 347.254124,292.747206 C347.169384,293.082422 347.092873,293.419698 347.023727,293.758463 C346.933856,294.198771 346.856395,294.641584 346.789726,295.085982 C346.704316,295.655303 346.63648,296.227201 346.583441,296.800415 C346.516152,297.527644 346.472619,298.257002 346.448464,298.986908 C346.414388,300.016565 346.418621,301.047337 346.452481,302.076939 C346.463521,302.412641 346.477732,302.748232 346.494863,303.083675 C346.497601,303.137279 346.498334,303.220583 346.502699,303.304509 L346.506342,303.351244 L346.509538,303.398448 L346.509653,303.398454 Z M188.010573,270.974777 C188.374409,270.973714 188.738093,270.969039 189.101839,270.960733 L189.210337,270.957841 C189.274462,270.667874 189.34214,270.378728 189.410125,270.089643 C189.476564,269.812447 189.544158,269.53559 189.61291,269.258955 C190.659776,265.116734 192.042264,261.069295 193.498218,257.055361 C194.216381,255.075424 194.954418,253.102759 195.690868,251.129565 C196.053611,250.157653 196.412487,249.184255 196.778977,248.213742 C196.903181,247.887948 197.028863,247.562768 197.155985,247.238099 C198.64406,243.469435 200.357581,239.795528 202.009282,236.097089 C202.230583,235.599608 202.451001,235.101758 202.670451,234.603464 C203.341978,233.069261 204.000913,231.529676 204.628612,229.976994 C205.476472,227.879734 206.270122,225.760423 206.989405,223.615613 C207.699624,221.497827 208.337636,219.355911 208.896251,217.193231 C209.478548,214.938875 209.974779,212.662492 210.386494,210.370941 C212.022356,201.266023 212.313135,191.963195 211.79092,182.741065 C211.533119,178.188385 211.077463,173.647845 210.472207,169.128542 C209.832062,164.348755 209.024505,159.59192 208.089737,154.861113 C207.764981,153.217537 207.422737,151.577614 207.070387,149.939745 C207.034819,149.77783 206.998771,149.616019 206.96221,149.454325 C206.783934,148.687611 206.587759,147.925536 206.363242,147.170946 C205.724896,145.025513 204.87629,142.93392 203.742073,141.000434 C202.883121,139.536195 201.858747,138.1673 200.66502,136.958188 C199.931874,136.215593 199.136723,135.534488 198.289638,134.924743 C197.746951,134.534112 197.183317,134.172647 196.602589,133.841095 C196.198121,133.610175 195.785418,133.393691 195.365839,133.191471 C192.083158,131.609339 188.43275,130.919165 184.811497,130.749218 C184.137,130.717563 183.461675,130.704061 182.786452,130.706743 C181.967216,130.709996 181.148114,130.737084 180.330302,130.785156 C179.230334,130.849814 178.132692,130.952336 177.03914,131.087041 C175.651035,131.258029 174.269472,131.480892 172.896494,131.746874 C171.16264,132.082768 169.442323,132.487442 167.737695,132.948747 C165.505843,133.552731 163.300527,134.253764 161.124927,135.035843 C158.194498,136.089259 155.316087,137.288784 152.503602,138.625005 C151.019111,139.330286 149.552801,140.074202 148.110035,140.861253 C146.840413,141.553852 145.588417,142.279562 144.363637,143.048719 C143.424447,143.63853 142.500217,144.253508 141.605291,144.908684 C140.844023,145.46601 140.098356,146.050685 139.41795,146.705363 L139.377564,146.745202 C139.403366,147.501959 139.445402,148.258144 139.486513,149.01418 C139.595358,150.945105 139.713964,152.875469 139.823685,154.806347 C139.931518,156.746519 140.031996,158.68704 140.115223,160.628437 C140.227611,163.25005 140.311803,165.87288 140.361881,168.496429 C140.486297,175.014439 140.401263,181.537192 140.061366,188.047931 C139.825997,192.556421 139.469068,197.058872 138.975781,201.546559 C138.820744,202.957036 138.652275,204.366043 138.46982,205.773248 C138.349959,206.69769 138.217559,207.620385 138.096278,208.544614 C138.060442,208.825081 138.026065,209.105683 137.993122,209.386501 C137.890172,210.290828 137.804208,211.196838 137.740211,212.104777 C137.610002,213.952096 137.56442,215.80539 137.6059,217.656842 C137.709233,222.269109 138.355733,226.86854 139.546109,231.326509 C140.991438,236.739334 143.236549,241.936859 146.205523,246.690114 C148.305244,250.051718 150.765295,253.189669 153.541196,256.020447 C156.79538,259.33892 160.484918,262.235023 164.508282,264.567121 C167.763407,266.453935 171.23454,267.969793 174.840628,269.047845 C177.441772,269.825465 180.111114,270.374953 182.808858,270.682204 C184.355842,270.85839 185.910429,270.951966 187.467167,270.972129 C187.648313,270.973748 187.829429,270.974669 188.010582,270.974836 L188.010573,270.974777 Z M266.037786,459.697285 C264.73715,459.692997 263.437203,459.651765 262.139566,459.561989 C259.720877,459.394654 257.312377,459.066728 254.941909,458.556454 C252.615444,458.055654 250.326392,457.378839 248.108117,456.516876 C245.692039,455.578049 243.361729,454.419442 241.160369,453.051227 C239.040347,451.733564 237.042027,450.222677 235.192428,448.547273 C232.586576,446.186841 230.283806,443.503871 228.292948,440.608796 C225.615647,436.715528 222.718786,432.45494 221.010693,428.057277 C220.412778,426.517881 219.706924,424.857447 219.178618,423.292926 C218.698112,421.869945 216.324416,414.553953 216.098534,413.70406 C214.944839,409.362948 214.67588,407.242411 214.145303,402.452712 C213.887752,400.127705 213.633127,397.684014 213.347214,395.362405 C213.012992,392.648548 212.735118,389.927924 212.494892,387.204203 C212.055731,382.22494 211.741551,377.235244 211.485969,372.243453 C211.390198,370.372953 211.303102,368.502009 211.222194,366.630805 C211.139272,364.713008 211.061877,362.79499 210.996188,360.876521 C210.846628,356.508513 210.739755,352.13913 210.610348,347.770552 C210.579622,346.763548 210.547845,345.756598 210.514811,344.749664 C210.436655,342.467195 210.349496,340.185192 210.240623,337.903971 L210.217386,337.431779 L210.202146,337.13158 C209.988079,337.254913 209.77344,337.377255 209.55858,337.499202 C208.342605,338.17921 207.110388,338.828223 205.855798,339.434466 C203.325604,340.65711 200.717711,341.718501 198.053978,342.614212 C195.767617,343.383034 193.440385,344.029874 191.086316,344.556408 C189.312636,344.953131 187.523782,345.281701 185.725299,345.54412 C184.341522,345.746029 182.952056,345.908785 181.559204,346.033691 C172.828305,346.816648 164.003101,346.106107 155.43597,344.310912 C154.084392,344.027699 152.737941,343.718641 151.398595,343.38236 C149.472143,342.898666 147.575487,342.298578 145.717217,341.597876 C144.562976,341.162644 143.423418,340.688333 142.302295,340.173868 C141.471207,339.792494 140.650223,339.38897 139.841857,338.961578 C139.269414,338.658922 138.703265,338.344349 138.144633,338.016942 C134.722583,336.011327 131.532791,333.502453 129.136594,330.317119 C128.821566,329.898341 128.520759,329.468838 128.236083,329.02889 C127.758421,328.2907 127.329559,327.523836 126.946128,326.732842 C126.794485,326.886518 126.641307,327.038623 126.488217,327.190856 C125.163365,328.49573 123.787159,329.747001 122.342787,330.919053 C119.68661,333.074438 116.810264,334.968713 113.728504,336.461089 C110.513822,338.017841 107.081012,339.127397 103.54703,339.667249 C101.063601,340.046617 98.5385258,340.14471 96.0331976,339.957373 C94.215846,339.821479 92.4103536,339.536225 90.6381529,339.112245 C89.3362674,338.800782 88.0524834,338.414676 86.79332,337.960751 C85.8025227,337.603574 84.8269472,337.204469 83.8688165,336.767375 C83.1585082,336.443336 82.4577681,336.098429 81.7671808,335.734343 C76.7776639,333.103823 72.3581868,329.496767 68.4423086,325.461642 C67.7824867,324.78172 67.1361666,324.088748 66.5025026,323.384434 C65.6288431,322.413352 64.7792662,321.420732 63.9515804,320.410281 C62.8278224,319.038375 61.7443735,317.633652 60.6961862,316.203352 C59.2957629,314.292415 57.9581174,312.335858 56.6727432,310.345987 C54.9266504,307.642886 53.2767536,304.878255 51.7027757,302.071836 C49.5657201,298.261463 47.5680652,294.373783 45.6748976,290.437076 C43.0420597,284.962325 40.6105616,279.391939 38.3229976,273.764922 C35.2623846,266.23635 32.4591408,258.604365 29.8383047,250.912564 C26.9451229,242.421296 24.2753383,233.854626 21.7775102,225.239348 C18.2198332,212.968729 15.00762,200.598049 12.0939079,188.159396 C9.99953486,179.218561 8.05867668,170.240894 6.30450628,161.227107 C5.15977488,155.344909 4.09195913,149.446681 3.1538604,143.527935 C2.74946464,140.976453 2.36958585,138.4209 2.02966727,135.860004 C1.74590296,133.722174 1.48850375,131.580336 1.28564961,129.433219 C1.19831768,128.508856 1.12138858,127.583434 1.06096289,126.656906 C1.00619241,125.81709 0.968004292,124.976278 0.931132725,124.135521 C0.881402512,123.001566 0.839843458,121.867255 0.806833497,120.732691 C0.68908895,116.685758 0.679859389,112.635268 0.798459486,108.588296 C0.880555585,105.786903 1.02398879,102.987203 1.2361516,100.192584 C1.39715546,98.0718498 1.59776511,95.9540715 1.84151698,93.8412172 C2.03068421,92.2015069 2.24583757,90.5647684 2.48872392,88.9321241 C4.06657063,78.3261206 6.82312865,67.847289 11.2373446,58.0537942 C11.9411964,56.4922206 12.6866452,54.9493158 13.4747497,53.428423 C14.4994794,51.4508814 15.59637,49.5105667 16.7664815,47.6152165 C18.3549138,45.0422753 20.0785299,42.5524027 21.9349091,40.1650581 C24.4270171,36.9601622 27.1586223,33.9414003 30.1063855,31.1487419 C32.5195922,28.8624945 35.0766141,26.7282605 37.7559559,24.7600137 C40.3699644,22.8397667 43.0998053,21.0777691 45.9218152,19.4784234 C50.1774767,17.0666007 54.6406095,15.0268247 59.2321302,13.3407825 C63.5470093,11.7563275 67.9742635,10.4834395 72.4612732,9.48755533 C78.9158345,8.05498729 85.4912045,7.19412337 92.0882916,6.7864622 C99.5382389,6.32610258 107.018804,6.44110416 114.460681,6.99034337 C119.685605,7.37596326 124.893978,7.97671931 130.074273,8.75748632 C135.494365,9.57439732 140.884315,10.588476 146.235894,11.772241 C150.573162,12.7316334 154.885621,13.802809 159.169305,14.9779904 C164.720222,16.5008197 170.221914,18.1998399 175.662655,20.0779282 L176.066034,20.2181136 C176.323707,20.0576037 176.581917,19.8979536 176.840439,19.7388142 L177.263845,19.4812616 C177.832429,19.1395551 178.402722,18.8009572 178.977627,18.4699334 C179.992262,17.8857208 181.017933,17.320629 182.053881,16.7750389 C185.004841,15.220887 188.03914,13.8253245 191.13795,12.5915998 C195.62325,10.8058908 200.242351,9.3605977 204.938778,8.24291625 C209.452758,7.16866608 214.037087,6.3965221 218.650048,5.89832313 C222.4345,5.48960364 226.238249,5.26489443 230.044038,5.20465893 C232.151671,5.17130079 234.258972,5.19512318 236.366153,5.2458728 C238.50396,5.29736008 240.641111,5.37684555 242.77675,5.48619435 C248.828766,5.79606916 254.86988,6.34551703 260.87226,7.18102562 C263.468317,7.54238249 266.055996,7.9597171 268.634522,8.42979916 C268.989418,8.31755442 269.344895,8.20727376 269.700723,8.09801428 C274.136846,6.74746376 278.637242,5.60988851 283.169269,4.62969332 C288.751911,3.42227235 294.38794,2.45920466 300.053922,1.73740775 C303.362743,1.31589363 306.682188,0.977283041 310.008256,0.724846581 C312.33234,0.54845555 314.659635,0.414140292 316.988648,0.323423076 C332.241079,-0.270673247 347.612262,1.00020875 362.448627,4.65797462 C364.811801,5.2405907 367.160133,5.8834083 369.48985,6.5878406 C372.4699,7.48891895 375.419475,8.49086534 378.330165,9.5954107 C382.380539,11.1324509 386.355437,12.8683897 390.231599,14.8027055 C395.93539,17.6490702 401.423372,20.9258509 406.628825,24.6041042 C413.055309,29.1450866 419.044507,34.2953241 424.521246,39.942654 C426.756246,42.2472856 428.906332,44.6339269 430.969668,47.0930932 C431.969785,48.2850702 432.9465,49.4958186 433.908539,50.7186203 L434.102857,50.9691765 C434.375041,51.3274027 434.643526,51.688049 434.903509,52.0552507 C435.417409,52.7810864 435.903974,53.5261521 436.364107,54.2871201 C438.062003,57.0951514 439.395075,60.1133047 440.442203,63.2195772 C441.687742,66.9144679 442.534906,70.7363724 443.11474,74.5890067 C443.552657,77.4987122 443.837263,80.4306273 444.006952,83.3677352 C444.201822,86.7406813 444.245503,90.1215785 444.175752,93.4991167 C444.098361,97.2466545 443.881149,100.990817 443.556808,104.724856 C443.22312,108.566527 442.775814,112.398106 442.237018,116.216319 C441.468466,121.662735 440.515143,127.082515 439.416409,132.471945 C438.375144,137.579447 437.202667,142.660075 435.919326,147.712172 C434.39489,153.713401 432.713948,159.674701 430.897238,165.594079 C429.099499,171.45161 427.168609,177.268199 425.116396,183.041673 C420.336954,196.487505 414.905571,209.702704 408.880882,222.639137 C403.250905,234.728048 397.099702,246.576526 390.418832,258.119522 C388.292544,261.793215 386.109831,265.433736 383.877268,269.04389 L383.589965,269.50697 C385.81718,269.760501 388.059973,269.852545 390.300859,269.844985 C392.447638,269.837742 394.593697,269.739702 396.734233,269.578914 C399.037834,269.405877 401.335691,269.159704 403.626087,268.859808 C406.13886,268.530797 408.642954,268.136961 411.138021,267.693827 C412.429131,267.464521 413.717852,267.221897 415.004247,266.967538 C415.808783,266.808457 416.61154,266.64069 417.415966,266.481094 C417.641829,266.437504 417.867807,266.394502 418.093896,266.352101 C418.649366,266.250987 419.205502,266.154288 419.763422,266.067566 C421.806829,265.749942 423.871763,265.543201 425.940938,265.527568 C427.779682,265.513677 429.623332,265.652949 431.428547,266.010317 C432.064719,266.136256 432.695519,266.288973 433.318234,266.470078 C435.394062,267.073794 437.37731,268.004612 439.138063,269.261369 C440.435352,270.18732 441.608557,271.286333 442.60975,272.52631 C443.800574,274.001139 444.744432,275.671469 445.392345,277.452348 C445.902744,278.855261 446.228614,280.323357 446.366504,281.809465 C446.550971,283.797519 446.395622,285.809655 445.944638,287.753582 C445.800237,288.376009 445.625603,288.991361 445.424161,289.597724 C444.251628,293.127204 442.175436,296.286977 439.76575,299.094115 C439.409605,299.509001 439.0454,299.91697 438.674279,300.31853 C438.17674,300.856884 437.666646,301.383635 437.146219,301.899918 C435.185013,303.845497 433.080252,305.64465 430.894691,307.333356 C428.353381,309.296939 425.697774,311.112058 422.965939,312.800274 C420.304612,314.444908 417.568442,315.968591 414.773181,317.373915 C413.943153,317.791218 413.107801,318.197947 412.267426,318.594037 C411.711441,318.856085 411.153525,319.113938 410.591033,319.361784 C409.770855,319.723171 408.942742,320.066469 408.108379,320.393804 C404.930209,321.640673 401.664791,322.661138 398.363621,323.528309 C394.791158,324.466749 391.171597,325.224642 387.52929,325.837106 C383.685818,326.483396 379.814466,326.967363 375.930234,327.288533 C372.114128,327.604065 368.283092,327.763513 364.453726,327.724541 C363.65347,327.716396 362.8533,327.699393 362.053447,327.672801 C361.557809,327.656324 361.062468,327.634669 360.567018,327.613157 L354.610691,327.090497 C354.046096,326.968679 353.481617,326.846306 352.916664,326.726168 L352.548051,326.649034 L352.340852,326.606418 C352.283692,327.015945 352.229443,327.42585 352.175553,327.83582 C352.028058,328.977418 351.889583,330.120044 351.753041,331.263001 C351.50678,333.351891 351.265199,335.441335 351.018613,337.530185 L350.961954,338.004795 C350.949683,338.48891 350.936186,338.972992 350.922913,339.457083 C350.860742,341.561448 350.78998,343.665458 350.702493,345.768939 C350.504605,350.526785 350.233018,355.281849 349.866073,360.029729 C349.47771,365.054707 348.98269,370.072193 348.343195,375.07165 C347.866741,378.796528 347.309747,382.511549 346.649706,386.208471 C346.149289,389.011341 345.589517,391.80385 344.957522,394.580155 C344.49257,396.62265 343.988466,398.65634 343.439059,400.677819 C343.030988,402.179276 342.597876,403.673968 342.136984,405.1601 C341.786977,406.288696 341.420871,407.412329 341.03738,408.530011 C338.587021,415.671606 335.416279,422.60609 331.18724,428.879715 C330.543318,429.83495 329.875402,430.774054 329.183106,431.694915 C328.247206,432.939824 327.266544,434.151205 326.241387,435.323888 C324.807055,436.964618 323.285237,438.529116 321.681124,440.004712 C319.322586,442.174284 316.786395,444.148957 314.108153,445.909397 C310.5888,448.222707 306.830978,450.158398 302.939166,451.765205 C299.17333,453.319989 295.287737,454.568091 291.355537,455.628146 C288.892986,456.292006 286.411305,456.884808 283.921334,457.436547 C282.805954,457.683696 281.690218,457.930415 280.570345,458.156611 C279.46055,458.380771 278.34646,458.583813 277.228636,458.763831 C274.775294,459.158925 272.303012,459.4425 269.821949,459.587389 C268.716957,459.651919 267.610786,459.686954 266.503975,459.695973 C266.348582,459.696651 266.193187,459.697033 266.037792,459.697118 L266.037786,459.697285 Z M363.051027,263.845567 C364.712854,261.264145 366.345638,258.664102 367.947156,256.044655 C374.737901,244.93771 380.991328,233.503548 386.727327,221.8186 C392.664539,209.723761 398.050984,197.357033 402.849312,184.767655 C407.184713,173.393088 411.045235,161.833098 414.320281,150.108789 C415.806481,144.788272 417.170693,139.433232 418.389975,134.045304 C419.461295,129.311216 420.421562,124.551442 421.243346,119.767679 C421.911118,115.880426 422.4883,111.977168 422.950229,108.060046 C423.359262,104.591449 423.678572,101.111644 423.879712,97.6246856 C424.055276,94.5811454 424.141221,91.5315825 424.104694,88.4829364 C424.069974,85.5851656 423.925506,82.686644 423.618238,79.8044278 C423.405788,77.8116241 423.114977,75.8258151 422.712703,73.8620893 C422.379128,72.2337131 421.968681,70.6192632 421.447313,69.0403567 C421.080092,67.9282632 420.657151,66.833321 420.158758,65.7730526 C419.709934,64.8182285 419.199299,63.8902141 418.605485,63.0172969 C418.410125,62.730117 418.204567,62.4506133 417.991763,62.1761371 C417.778484,61.9050959 417.564611,61.6345203 417.350165,61.3644031 C416.705776,60.5600117 416.05464,59.7612873 415.391126,58.9725296 C413.882038,57.1786007 412.318852,55.4300237 410.702254,53.73211 C406.665449,49.4922457 402.293195,45.5710619 397.622322,42.0394948 C393.246129,38.730688 388.610565,35.7665017 383.772759,33.1776186 C380.510553,31.4318948 377.157381,29.8565766 373.73393,28.4526124 C371.290976,27.450745 368.812349,26.5359931 366.305423,25.7068076 C364.487383,25.1054761 362.654454,24.5491488 360.809317,24.0367784 C348.053836,20.4947072 334.764644,19.0674979 321.544362,19.2485735 C319.321079,19.279025 317.098437,19.355058 314.878176,19.4746746 C311.888323,19.6357529 308.902783,19.8758507 305.92528,20.1911681 C301.766543,20.6315793 297.623264,21.2183117 293.505405,21.9474196 C290.17853,22.536482 286.867684,23.2180708 283.580502,23.9997152 C289.614464,26.3824203 295.471572,29.2085591 301.094278,32.4428492 C306.847999,35.7524938 312.354327,39.4878203 317.572201,43.5885227 C324.730056,49.2138169 331.341938,55.5225193 337.362276,62.3469591 C342.433273,68.0953152 347.087967,74.2092684 351.306698,80.6076155 C353.639761,84.1460825 355.839903,87.7722024 357.898049,91.4770519 C359.576079,94.4976316 361.160018,97.5707794 362.637404,100.694282 C363.943989,103.456669 365.168255,106.258788 366.28623,109.102798 C367.190341,111.402734 368.027947,113.730793 368.75367,116.093359 C368.998886,116.891657 369.230886,117.694096 369.444363,118.501459 C369.60572,119.111709 369.756555,119.724822 369.892011,120.341356 C369.993103,120.801471 370.085678,121.26353 370.165653,121.72779 C370.210243,121.986648 370.250804,122.246231 370.286262,122.506497 C370.462135,123.797453 370.526598,125.144218 370.155119,126.407353 C370.164587,126.65057 370.172984,126.89389 370.180366,127.137241 C370.236434,128.985397 370.233143,130.835245 370.173449,132.683268 C370.066563,135.992225 369.774381,139.291942 369.368809,142.577062 C368.886387,146.484604 368.251111,150.371232 367.661364,154.263433 C367.592809,154.720642 367.524685,155.177916 367.45699,155.635252 C367.151363,157.731912 366.863044,159.830895 366.623664,161.936241 C366.341801,164.415182 366.124934,166.901601 365.992357,169.393094 C365.934982,170.471335 365.890096,171.550636 365.868505,172.630221 C365.851135,173.498712 365.849887,174.367488 365.862129,175.23605 C365.916536,179.096367 366.233699,182.948993 366.634771,186.787029 C367.041948,190.683522 367.53688,194.570293 367.994015,198.461071 C368.071838,199.130156 368.148776,199.799331 368.224666,200.468631 C368.697456,204.703626 369.106838,208.946937 369.305631,213.204545 C369.552557,218.493019 369.477109,223.803988 368.867705,229.066878 C368.549952,231.811015 368.088544,234.53891 367.467234,237.23093 C366.850828,239.90172 366.077175,242.536263 365.144551,245.11401 C364.019701,248.223041 362.663717,251.247549 361.098497,254.160044 C360.341331,255.568948 359.534575,256.950086 358.684729,258.304652 C359.483727,259.312582 360.291081,260.314077 361.092912,261.319905 C361.421074,261.733492 361.747903,262.148031 362.073068,262.563975 C362.40238,262.988343 362.729453,263.414936 363.050954,263.84551 L363.051027,263.845567 Z M352.393439,249.530241 C352.60087,249.14531 352.804021,248.758055 353.002739,248.368448 C354.197218,246.026542 355.233878,243.604524 356.098811,241.12212 C357.442604,237.265344 358.363906,233.270252 358.910156,229.22456 C359.445939,225.256428 359.624796,221.246959 359.566584,217.245275 C359.445472,208.919591 358.313386,200.652237 357.339852,192.395869 C357.263289,191.740751 357.18761,191.085549 357.112889,190.430215 C356.430039,184.349063 355.868703,178.232786 356.016434,172.106487 C356.042463,171.027091 356.087674,169.948012 356.145046,168.869849 C356.321831,165.547614 356.637927,162.234428 357.051665,158.933612 C357.537907,155.054342 358.159426,151.194033 358.747393,147.329282 C358.847852,146.662893 358.947123,145.996357 359.044955,145.329578 C359.235021,144.011465 359.418591,142.692522 359.581773,141.370788 C359.839963,139.279519 360.050562,137.182046 360.185707,135.079087 C360.302802,133.256989 360.363229,131.431224 360.359027,129.605458 C356.803558,129.129583 353.231379,128.771594 349.647483,128.599125 C346.753297,128.459853 343.851064,128.439462 340.957091,128.595645 C338.767202,128.71383 336.580985,128.933283 334.417592,129.295759 C332.526497,129.612612 330.651273,130.039143 328.822426,130.617311 C326.506657,131.34941 324.255779,132.328526 322.216217,133.654417 C320.929418,134.490945 319.731996,135.465766 318.673706,136.577954 C318.027956,137.256589 317.434986,137.984977 316.90122,138.754624 C316.553889,139.255443 316.231724,139.773642 315.934949,140.305899 C314.252828,143.322716 313.420143,146.741631 313.097456,150.160173 C313.039462,150.774561 312.997749,151.390452 312.970514,152.006955 C312.938221,152.737937 312.92628,153.469771 312.932148,154.201432 C312.939796,155.155133 312.977713,156.108511 313.041084,157.06011 C313.1208,158.257161 313.240866,159.451438 313.393934,160.641305 C313.595323,162.206807 313.853718,163.764768 314.156796,165.313743 C314.539882,167.27162 314.994466,169.21527 315.503302,171.144227 C316.155576,173.616949 316.897009,176.065864 317.704243,178.492348 C318.731663,181.580695 319.865397,184.633309 321.075525,187.654647 C322.573379,191.3944 324.188299,195.08688 325.884889,198.740726 C328.159605,203.6396 330.58221,208.469015 333.095766,213.249616 C334.853157,216.592046 336.656529,219.910076 338.483612,223.214939 C340.000089,225.957962 341.534122,228.691247 343.056817,231.430839 C343.476309,232.188133 343.894456,232.946113 344.310569,233.705263 C344.790138,234.584835 345.266762,235.466051 345.729482,236.35461 C346.068031,237.004716 346.400138,237.658433 346.714345,238.320683 C346.853131,238.613197 346.988353,238.907425 347.117567,239.204294 C347.1984,239.390008 347.275461,239.577228 347.353316,239.764199 C347.459268,240.018644 347.567157,240.272254 347.675817,240.525556 C347.810512,240.836844 347.947011,241.147288 348.085431,241.456945 C348.874357,243.207427 349.732836,244.925203 350.666884,246.603112 C351.217979,247.593084 351.794337,248.568743 352.393435,249.53015 L352.393439,249.530241 Z M187.983674,154.965464 C187.734152,154.963979 187.485059,154.957395 187.236055,154.940463 C186.727871,154.905907 186.222212,154.835265 185.723795,154.730427 C183.371001,154.235533 181.216405,152.994773 179.444386,151.39225 C178.716051,150.733578 178.045814,150.00863 177.454232,149.224796 C177.128782,148.793586 176.826994,148.343896 176.55876,147.874886 C176.330874,147.476428 176.12657,147.063484 175.960721,146.635289 C175.75694,146.109158 175.607251,145.553799 175.580929,144.988086 C175.572785,144.813054 175.579531,144.639505 175.594987,144.46511 L175.782178,142.944794 L176.163423,142.944794 C176.215113,142.87066 176.215038,142.87107 176.268792,142.798138 C176.386362,142.646992 176.510775,142.502748 176.647065,142.368033 C177.023997,141.995461 177.467306,141.694806 177.93577,141.449243 C178.545354,141.129708 179.199791,140.899882 179.864437,140.724976 C180.102504,140.662326 180.342461,140.6069 180.583658,140.557663 C180.907639,140.491526 181.233883,140.43657 181.561401,140.391086 C182.552973,140.253381 183.555788,140.200354 184.556483,140.207826 C185.803478,140.217136 187.049382,140.321713 188.282524,140.505564 C189.459021,140.68097 190.625524,140.930063 191.767202,141.264461 C192.749637,141.552216 193.716051,141.902932 194.641855,142.340805 C194.965986,142.494106 195.285004,142.658383 195.596647,142.835701 C195.834043,142.970774 196.067154,143.113447 196.294389,143.264987 C196.458815,143.37464 196.620157,143.488946 196.777533,143.608488 C197.623858,144.251355 198.396338,145.074299 198.735623,146.101056 C198.787491,146.258024 198.828716,146.418532 198.857867,146.581266 C198.893831,146.782037 198.911564,146.986082 198.909729,147.190056 C198.906748,147.52134 198.849638,147.84946 198.754361,148.166323 C198.581563,148.740997 198.29131,149.276662 197.954112,149.770759 C197.47552,150.472039 196.893124,151.101684 196.260948,151.666947 C195.379076,152.455466 194.388326,153.124451 193.330376,153.653965 C192.236737,154.201339 191.065763,154.598767 189.859148,154.804455 C189.336182,154.893604 188.809062,154.942991 188.279031,154.961241 C188.131253,154.964357 188.131541,154.964349 187.983693,154.965489 L187.983674,154.965464 Z M334.659011,149.763196 C334.164142,149.759442 333.671251,149.726137 333.181331,149.655077 C332.04308,149.489981 330.934844,149.139896 329.897266,148.646088 C328.885266,148.164453 327.93579,147.547194 327.086878,146.815707 C326.53095,146.336675 326.014458,145.806679 325.572553,145.220147 C325.221872,144.754694 324.909106,144.246915 324.71618,143.694607 C324.632589,143.455296 324.571973,143.206179 324.554139,142.952833 C324.543355,142.799641 324.547548,142.645449 324.56591,142.492995 C324.662891,141.687758 325.144784,140.989175 325.713213,140.435017 C325.813261,140.337481 325.916745,140.243486 326.022974,140.152714 C326.15549,140.03948 326.292252,139.93124 326.432223,139.827356 C326.60351,139.700231 326.779659,139.579676 326.959332,139.464706 C327.204132,139.308063 327.455565,139.161845 327.711534,139.024217 C328.015155,138.860967 328.325273,138.70986 328.639854,138.568886 C329.512319,138.177905 330.418392,137.863047 331.338342,137.603953 C332.454639,137.289561 333.594141,137.057869 334.742647,136.897978 C335.891175,136.738083 337.050678,136.649871 338.210504,136.647406 C339.166277,136.645374 340.12402,136.700758 341.070197,136.838654 C341.667574,136.925717 342.26121,137.045715 342.841037,137.214608 C343.323857,137.355247 343.798677,137.529848 344.247662,137.757281 C344.846144,138.06044 345.405954,138.464525 345.793863,139.019104 L346.08898,139.001352 L346.230579,140.171815 C346.237497,140.251465 346.237469,140.251162 346.241801,140.330798 C346.244842,140.463797 346.240192,140.595054 346.228681,140.72758 L346.228681,141.307411 L346.12221,141.315674 C346.102619,141.391068 346.081396,141.465817 346.05924,141.540501 C345.858461,142.180036 345.559599,142.782991 345.21047,143.354118 C344.817736,143.996585 344.361803,144.600275 343.865071,145.165893 C342.847407,146.324706 341.650095,147.335932 340.322695,148.123685 C339.216145,148.780373 338.011207,149.280593 336.749733,149.545821 C336.151405,149.67162 335.54512,149.739395 334.934328,149.759715 C334.796542,149.762405 334.79681,149.762406 334.658996,149.763208 L334.659011,149.763196 Z M227.86003,339.265017 C227.809679,338.778377 227.757402,338.294646 227.703204,337.812887 C227.757457,338.293829 227.809869,338.777986 227.86003,339.265017 L227.86003,339.265017 Z M268.438136,18.1680241 L269.872516,18.0199641 L269.446699,17.9995336 C269.000197,18.0571119 268.998022,18.0426105 268.557731,18.137257 C268.517848,18.1474462 268.477775,18.1569312 268.438134,18.1680245 L268.438136,18.1680241 Z M227.610027,337.005326 C227.5467,336.468609 227.481157,335.936838 227.413366,335.409688 C227.373876,323.924784 227.513221,312.439327 227.795198,300.957822 C227.826334,299.738782 227.858656,298.51979 227.892192,297.300814 C227.879553,296.827793 227.895544,296.705891 227.806077,296.239091 C227.764062,296.019878 227.707049,295.803656 227.635703,295.592416 C227.397313,293.755214 226.948001,291.943232 226.324743,290.20199 C226.095761,289.562272 225.842918,288.931102 225.567381,288.309975 C225.208842,287.501751 224.811871,286.710551 224.378408,285.939837 C223.770759,284.859414 223.091325,283.818992 222.343268,282.830316 C220.925266,280.95618 219.257252,279.26021 217.357146,277.871888 C216.448359,277.207875 215.486494,276.615171 214.478141,276.114198 C214.201523,275.976768 213.92147,275.84626 213.638208,275.723074 C213.404117,275.621271 213.167495,275.525225 212.931361,275.428334 C212.62474,275.302519 212.317047,275.179173 212.007875,275.059735 C210.696211,274.553019 209.352561,274.124418 207.96929,273.861799 C207.088415,273.694559 206.194731,273.593519 205.298215,273.57007 C204.310187,273.544227 203.320062,273.612663 202.345381,273.776753 C201.003242,274.002705 199.699299,274.410905 198.458783,274.964383 C198.601837,274.171784 198.768012,273.38316 198.950621,272.59905 C199.479672,270.32733 200.147671,268.08943 200.872919,265.873234 C201.725352,263.268401 202.66137,260.691903 203.610323,258.120914 C204.048746,256.937251 204.490058,255.754672 204.931425,254.572108 C205.28793,253.616913 205.64051,252.6602 206.000697,251.70638 C206.685953,249.908918 207.43722,248.138511 208.209676,246.376892 C208.414836,245.911983 208.620931,245.447511 208.82782,244.983369 C209.785729,242.842678 210.759074,240.708847 211.70188,238.561437 C212.62126,236.467394 213.511288,234.360238 214.344567,232.230406 C215.260055,229.890445 216.107464,227.523769 216.868701,225.129152 C217.670524,222.606874 218.376982,220.054451 218.98241,217.47804 C219.524873,215.169568 219.986522,212.842268 220.369819,210.502188 C222.245399,199.051507 222.232622,187.360868 221.159485,175.830439 C220.969606,173.790252 220.7461,171.753218 220.492527,169.719963 C220.168579,167.122417 219.79564,164.531037 219.380075,161.946564 C218.818932,158.456697 218.180232,154.979421 217.476907,151.515392 C217.278948,150.540405 217.075846,149.566462 216.867841,148.59357 C216.708886,147.850096 216.547357,147.107604 216.363625,146.369794 C216.102613,145.32165 215.806138,144.282208 215.470456,143.25546 C214.730134,140.99105 213.7976,138.786583 212.640495,136.702475 C211.332438,134.346485 209.73528,132.149408 207.856796,130.214246 C206.579729,128.898654 205.17622,127.706598 203.670455,126.659853 C202.585748,125.90581 201.448849,125.227285 200.272187,124.626566 C199.451463,124.207564 198.611475,123.826411 197.756566,123.482415 C197.118785,123.225788 196.472671,122.989879 195.819932,122.774062 C190.808176,121.117018 185.464248,120.659097 180.212591,120.925288 C179.288607,120.972123 178.365785,121.041478 177.444997,121.131327 C176.290874,121.243943 175.139948,121.388646 173.993397,121.561912 C172.539658,121.7816 171.092945,122.047111 169.654847,122.352551 C167.696647,122.768452 165.754325,123.258118 163.83031,123.810498 C161.224379,124.558647 158.651693,125.421581 156.116815,126.382601 C152.829806,127.628766 149.603938,129.038864 146.459321,130.609646 C145.094238,131.29152 143.74448,132.004275 142.414137,132.751602 C141.496869,133.266887 140.588715,133.798576 139.692508,134.349643 C140.008833,129.469209 140.512678,124.60033 141.192909,119.75721 C141.831862,115.207952 142.628689,110.680272 143.596392,106.189265 C144.327719,102.795224 145.156873,99.4219617 146.093271,96.0785125 C146.833781,93.4344768 147.641323,90.8090624 148.521636,88.2081022 C149.175558,86.276039 149.869646,84.3574912 150.606515,82.4554387 C151.165394,81.0128249 151.748865,79.5797115 152.35813,78.1576002 C156.071102,69.4910263 160.755243,61.1979851 166.652795,53.821071 C167.478993,52.787628 168.328538,51.7727905 169.201613,50.7785424 C170.340964,49.48105 171.52038,48.2186029 172.739558,46.9956352 C174.346456,45.3837462 176.022453,43.8404699 177.764693,42.3755359 C180.429137,40.1351778 183.248576,38.0791043 186.201284,36.2340696 C189.210804,34.3535153 192.357296,32.693271 195.606164,31.2646548 C198.768471,29.8740954 202.026389,28.7031029 205.345463,27.7451253 C208.59134,26.8082744 211.894962,26.074693 215.228514,25.5270005 C219.559208,24.8154872 223.93916,24.4172308 228.325219,24.2824555 C230.889812,24.2036523 233.455829,24.2194782 236.020154,24.301738 C239.214036,24.4041932 242.404674,24.611209 245.58445,24.9286967 C251.227196,25.4921098 256.835717,26.4046881 262.359767,27.6872977 C267.998518,28.9965431 273.547505,30.6915245 278.949954,32.7700843 C284.610826,34.9480579 290.108419,37.546386 295.387133,40.5321496 C300.766189,43.5746544 305.916159,47.0175964 310.798823,50.8038232 C317.747054,56.1917747 324.150041,62.2702321 329.964205,68.8611153 C334.884932,74.439129 339.387915,80.3839572 343.45427,86.6104761 C345.508492,89.7559513 347.451423,92.9741335 349.275744,96.2580671 C350.849699,99.0913115 352.335677,101.973725 353.72144,104.903538 C354.803734,107.191722 355.825291,109.509071 356.770463,111.857205 C357.71315,114.199174 358.578748,116.572086 359.326259,118.983632 C359.385107,119.177002 359.443566,119.370492 359.5014,119.564168 C355.210121,119.0513 350.895661,118.70988 346.573053,118.645907 C343.169642,118.595538 339.759989,118.715542 336.375361,119.085661 C333.824739,119.364578 331.287409,119.78644 328.795174,120.399214 C326.665825,120.922765 324.569039,121.586496 322.541447,122.4227 C319.744287,123.576289 317.079178,125.063622 314.691233,126.925697 C313.039311,128.213832 311.525373,129.677841 310.193716,131.294741 C309.284044,132.399263 308.459855,133.573583 307.728064,134.802913 C307.198987,135.691709 306.718098,136.608966 306.285497,137.548378 C305.967733,138.238415 305.675979,138.940352 305.409606,139.651755 C303.624454,144.4193 303.002396,149.553137 303.074367,154.621752 C303.085743,155.422903 303.114424,156.223793 303.158778,157.02379 C303.216599,158.06667 303.301059,159.108032 303.408871,160.146929 C303.555283,161.557777 303.744809,162.964065 303.97059,164.364378 C304.259211,166.154434 304.607042,167.934776 305.00267,169.704227 C305.516275,172.001311 306.110549,174.280113 306.767086,176.540452 C307.615191,179.460321 308.56723,182.349651 309.596311,185.210661 C310.940096,188.94662 312.41514,192.634864 313.983074,196.282355 C316.012248,201.002809 318.197334,205.655527 320.485634,210.255843 C322.348224,214.00033 324.280387,217.709993 326.258952,221.394562 C327.441738,223.597171 328.642862,225.789759 329.850965,227.978592 C330.222748,228.649949 330.594919,229.321097 330.967507,229.992009 C332.264005,232.321466 333.569308,234.646071 334.858931,236.979338 C335.421412,237.997021 335.981012,239.016395 336.527729,240.042645 C336.999594,240.928398 337.463588,241.818775 337.890374,242.727235 C337.952302,242.86198 338.013816,242.996825 338.073382,243.132629 C338.164454,243.343584 338.250819,243.556523 338.339794,243.768366 C338.431334,243.986316 338.523867,244.203852 338.617402,244.420956 C338.922489,245.129091 339.238136,245.83269 339.564338,246.531368 C340.567351,248.679655 341.670657,250.780915 342.867581,252.827701 C344.207687,255.119347 345.666038,257.340333 347.214217,259.4968 C348.414313,261.168418 349.670604,262.797735 350.946548,264.411995 C351.85755,265.558502 352.776669,266.698535 353.68688,267.845674 C354.383555,268.729459 355.076528,269.616848 355.728815,270.534137 C356.231541,271.241108 356.717271,271.966128 357.125924,272.732233 L357.032466,272.75952 C356.325897,272.962709 355.616647,273.156473 354.910521,273.361217 C354.193444,273.569135 353.479457,273.787932 352.772635,274.028531 C350.901699,274.665387 349.08157,275.460514 347.394331,276.494084 C346.140255,277.262309 344.964368,278.157671 343.900595,279.173283 C343.182853,279.858532 342.516453,280.597149 341.907521,281.380477 C341.46219,281.953345 341.047421,282.549818 340.663983,283.165728 C340.353225,283.664896 340.06294,284.17674 339.792847,284.698974 C338.001223,288.163122 337.12095,292.030418 336.763484,295.893335 C336.700125,296.578035 336.653098,297.26423 336.620558,297.951068 C336.550352,299.43294 336.547229,300.917673 336.595976,302.400272 C336.608976,302.795635 336.625668,303.190871 336.645872,303.585934 L336.64846,303.636166 C336.51263,305.337328 336.347927,307.036309 336.177455,308.734515 C335.947958,311.020731 335.704372,313.305532 335.455053,315.589669 C334.859671,321.044233 334.230478,326.495146 333.585319,331.944012 C332.763409,338.885752 331.913191,345.824157 331.035734,352.759091 C330.164131,359.647781 329.266611,366.533325 328.32352,373.412617 C327.595748,378.721294 326.845769,384.027552 326.021747,389.322294 C325.760273,391.002393 325.490909,392.681322 325.205066,394.357468 C324.673956,397.47185 324.049575,400.571136 323.252008,403.629077 C322.718812,405.673389 322.109444,407.698836 321.396958,409.688201 C320.589755,411.942027 319.648721,414.150628 318.531546,416.269229 C317.578644,418.076301 316.496564,419.816326 315.272868,421.453176 C314.000532,423.155089 312.57586,424.741749 311.017673,426.18716 C310.361919,426.795455 309.683137,427.378892 308.984235,427.93716 C304.954312,431.156188 300.295504,433.501374 295.484123,435.313869 C294.653668,435.626711 293.81743,435.92415 292.976556,436.207818 C291.895963,436.572358 290.807743,436.914237 289.71382,437.236621 C287.674962,437.837483 285.616594,438.371233 283.546723,438.854351 C281.599203,439.308913 279.642894,439.72726 277.669298,440.052873 C276.715321,440.210265 275.758005,440.347601 274.797975,440.462637 C274.008874,440.557191 273.217937,440.636516 272.425655,440.69924 C267.895077,441.057926 263.287314,440.875326 258.858612,439.801584 C258.188162,439.639034 257.522644,439.456188 256.863608,439.252284 C255.546492,438.84477 254.255461,438.352612 253.004162,437.773787 C251.365072,437.015573 249.795802,436.108508 248.320979,435.066695 C246.0104,433.434509 243.942515,431.477201 242.127497,429.311051 C239.091378,425.687571 236.779739,421.52318 234.859127,417.221192 C234.388639,416.167334 233.940562,415.103667 233.50463,414.035131 C233.422371,413.833498 233.340422,413.631739 233.259058,413.429745 C233.134601,413.120769 233.006593,412.812559 232.891641,412.499747 C232.737672,412.080757 232.602266,411.655038 232.476917,411.226701 C232.238249,410.411149 232.035955,409.585117 231.85203,408.755679 C231.622317,407.719746 231.422378,406.677316 231.239931,405.632105 C230.819757,403.224993 230.490026,400.802381 230.202282,398.376205 C229.849757,395.403839 229.563927,392.423726 229.316138,389.440903 C229.029249,385.987402 228.794773,382.529632 228.594532,379.070116 C228.525517,377.877736 228.460584,376.685135 228.399678,375.493648 L228.324026,373.980603 C228.15215,370.450641 228.012212,366.919121 227.895892,363.387009 C227.693093,357.228826 227.563065,351.068335 227.48757,344.907339 C227.448778,341.741622 227.424327,338.575771 227.413526,335.40984 C227.447502,335.674033 227.480912,335.939387 227.513563,336.204328 L227.610187,337.005479 L227.610027,337.005326 Z" id="Shape"></path>
            </g>
        </g>
    </g>
</svg>