<?xml version="1.0" encoding="UTF-8" standalone="no"?>
<svg width="560px" height="560px" viewBox="0 0 560 560" version="1.1" xmlns="http://www.w3.org/2000/svg" xmlns:xlink="http://www.w3.org/1999/xlink" xmlns:sketch="http://www.bohemiancoding.com/sketch/ns">
    <!-- Generator: sketchtool 3.4 (375) - http://www.bohemiancoding.com/sketch -->
    <title>postfix</title>
    <desc>Created with sketchtool.</desc>
    <defs></defs>
    <g id="Page-1" stroke="none" stroke-width="1" fill="none" fill-rule="evenodd" sketch:type="MSPage">
        <g id="postfix" sketch:type="MSArtboardGroup" fill="#000000">
            <path d="M58.6128733,344.056637 C73.5955533,336.326637 91.7447633,374.939457 115.058003,391.096377 C134.046103,404.255827 153.470703,410.349457 152.599103,417.103437 C141.755403,421.904807 28.4184633,388.030337 58.6128733,344.056637 L58.6128733,344.056637 Z M396.719003,351.845577 C401.218103,359.554927 404.902803,368.733467 407.417203,379.573287 C413.508303,417.262087 328.805603,388.849997 319.369003,351.975647 C319.411603,351.305057 319.390203,351.173847 319.290203,351.723637 L319.369003,351.975647 C319.119103,356.214677 316.238203,383.006797 316.238203,383.006797 C316.238203,383.006797 302.504203,363.550207 294.492603,363.550207 L311.660203,343.330607 C311.660203,343.330607 306.319203,319.677467 312.423203,314.336467 C313.809103,313.123867 318.577303,312.009567 325.296203,311.932367 C326.059103,329.276967 329.687803,346.455337 336.486203,362.453527 C338.914403,367.579557 342.258503,373.725027 348.393103,374.745087 C357.214303,376.406477 365.712303,371.739737 372.222003,366.220287 C376.621503,362.497767 381.331103,358.906747 386.991603,357.426677 C390.137303,356.209877 393.556103,354.272537 396.719003,351.845577 L396.719003,351.845577 Z M131.252503,368.546247 C131.252503,368.546247 111.938903,325.319667 61.1992133,336.001697 C54.7136933,334.857167 12.2827583,387.287627 124.147003,417.261567 C159.234103,426.663127 161.915703,419.932087 160.771103,414.209537 C159.626603,408.487017 146.274103,377.966867 146.274103,377.966867 L158.100703,368.047837 C158.100703,368.047837 147.037103,352.787767 138.262603,355.076787 C137.143903,356.195407 135.095203,362.847787 133.958803,367.271397 C133.802903,367.878497 138.482203,378.120187 138.342303,378.669227 C137.763703,380.941467 131.252503,368.546247 131.252503,368.546247 L131.252503,368.546247 Z M348.424903,316.692467 C352.203703,325.218467 360.183703,337.706827 369.559003,338.643687 C369.559003,338.643687 358.253203,331.950167 355.450203,321.489367 C355.745703,321.721167 356.360603,322.156967 356.360603,322.156967 C358.355203,326.906667 368.093903,329.943167 368.093903,329.943167 C371.775203,327.097667 357.868203,323.708467 358.724703,322.513767 C363.873103,323.625867 377.432303,322.916967 383.990203,321.975367 C405.617303,319.009367 411.535203,332.507667 394.129903,349.492547 C388.538803,357.236437 383.132703,355.272027 384.627503,354.499807 C389.430203,352.018577 405.126903,331.502567 399.455803,329.452067 C378.457303,336.277597 377.959103,377.902637 347.129903,370.750657 C340.998103,368.451217 329.149503,341.383477 328.807403,305.794267 C335.209703,309.935567 342.345603,313.801467 348.424903,316.692467 L348.424903,316.692467 Z M168.743503,221.866067 C181.619803,212.758667 191.523803,208.908767 212.558103,221.537467 C212.776503,223.327967 214.159303,231.170967 214.598403,233.053867 C216.536103,206.890867 227.092403,175.728067 252.890903,168.400267 C321.260603,140.969967 341.773503,220.525267 275.514603,257.074367 L327.180503,263.959367 C344.273203,257.438267 371.788303,257.180067 372.594203,281.807967 C372.561403,282.389067 367.356003,281.385367 367.302803,281.974867 C375.781403,286.017467 379.035603,300.057267 363.316103,297.763667 C365.668103,300.235267 369.495903,302.670267 371.557003,306.157167 C375.139703,312.218467 375.101703,319.018567 362.789003,318.982367 C356.904403,318.197767 325.454403,303.040567 315.208603,290.987267 C311.363503,286.463867 320.716603,276.340967 320.716603,276.340967 C322.872903,275.801867 279.758403,258.072267 249.010303,279.572967 C249.299603,279.700167 241.278703,285.939367 242.596703,286.891867 C243.007903,287.189067 252.366603,281.838667 252.857403,282.212967 C265.886103,292.150267 305.206703,328.986767 278.978203,378.280997 C278.764003,378.683687 268.365003,369.820857 268.141903,370.225377 C270.812403,375.071747 285.633603,392.320647 290.658603,394.628947 L299.478503,370.216217 C301.180303,371.208767 302.613303,372.631387 303.584303,374.793337 C303.584303,374.793337 300.265403,400.757437 292.572803,400.757477 C277.687503,397.433347 268.243703,386.697607 259.297803,376.795507 C259.343903,379.118247 267.515003,388.703937 266.570603,389.058907 C254.371603,393.644217 202.539603,415.531927 191.221903,363.216997 C184.208103,354.584597 167.684403,337.424027 167.684403,337.424027 L152.895903,357.111817 C151.273803,355.696437 149.532303,354.444207 147.631603,353.480497 C154.180303,341.788667 161.712503,329.143767 168.040503,330.555967 C168.040503,330.555967 176.651003,338.744977 189.090103,349.074407 C189.465503,349.386147 189.922103,358.788507 190.304303,359.112157 C194.938303,327.848267 206.431803,296.639967 176.655303,272.574167 C176.277103,272.198967 180.805103,266.694967 184.407003,261.650967 C198.397503,276.981167 200.230403,310.240067 220.648103,290.696167 C236.268203,271.554067 207.071003,253.186067 193.192303,250.178467 C197.183203,244.502167 200.281103,236.167467 198.141003,235.508967 L186.487803,250.781167 C181.858303,257.839167 183.830903,259.698867 172.604003,271.959567 C169.800103,273.803467 164.994003,278.533067 149.138103,277.956967 C130.899203,277.294267 79.1784933,322.730867 45.2069933,280.588167 C47.0575533,281.207367 48.9610633,281.435367 50.8466633,281.220567 C59.3607033,280.250667 65.0298633,270.534267 65.1602433,258.238067 C74.9916333,254.417567 92.7507733,250.331067 128.532503,254.697967 C130.733503,257.795067 134.600803,259.895767 138.349703,258.508267 C145.627603,274.760967 168.265903,262.838867 172.014303,248.849667 C174.858503,238.234867 176.410703,225.058367 168.743503,221.866067 L168.743503,221.866067 Z M497.768903,199.035667 C483.441403,199.251667 468.778303,201.452867 456.117503,208.401467 C455.351903,208.821967 454.184003,209.866667 455.116103,210.779967 C461.047303,227.436567 466.700503,244.578867 468.118803,262.269167 C468.365803,265.349867 468.484403,268.447067 468.453603,271.561267 C468.196203,275.329767 467.348503,279.058267 465.961403,282.554567 C469.711303,283.860667 473.827203,283.427367 477.739803,283.703967 C490.244703,283.741667 502.787003,281.996367 515.089503,280.449167 C514.826303,278.750967 514.880203,277.021567 514.934903,275.271267 C514.512203,254.676867 512.312503,233.989367 507.203003,214.057467 C505.659203,209.034967 504.039203,203.590767 500.158703,199.832267 C499.471603,199.331067 498.630703,198.984467 497.768903,199.035667 L497.768903,199.035667 Z M503.754803,199.285967 C514.601203,212.566667 518.456103,265.693267 517.877603,280.995467 C525.151003,269.780867 528.594603,254.113667 525.718503,232.641167 C523.908803,219.129967 512.568803,207.042067 503.754803,199.285967 L503.754803,199.285967 Z M62.4633733,247.947567 C65.3483133,263.923867 59.2015133,278.040967 48.8466633,279.220567 C38.4918133,280.400167 27.5971033,268.224367 24.7121633,252.248067 C21.8272233,236.271767 27.9740233,222.154667 38.3288733,220.975067 C48.6837233,219.795467 59.5784233,231.971267 62.4633733,247.947567 L62.4633733,247.947567 Z M222.505903,258.531067 C237.805603,263.559767 241.957703,265.642767 264.953903,258.531067 C252.573503,263.859467 235.918003,268.332867 229.935003,274.940667 L233.115203,267.455767 L222.505903,258.531067 L222.505903,258.531067 Z M478.538803,274.380867 C477.920603,272.024167 478.213103,267.713167 478.213103,267.713167 C478.213103,267.713167 492.202103,264.044267 489.106103,263.453367 C485.096503,262.446767 481.086903,261.439967 477.077303,260.433267 C475.934103,257.900967 477.598403,253.846667 477.598403,253.846667 C477.598403,253.846667 496.485603,253.803167 503.201003,253.417667 C504.864703,256.184167 502.647303,258.005767 502.647303,258.005767 C498.282603,258.256367 487.733703,258.325067 483.368903,258.575567 C487.826303,259.692567 492.283603,260.809467 496.741003,261.926367 C497.145403,267.799567 488.569303,266.779067 485.079803,269.635467 C490.749503,269.309967 498.048703,271.569267 505.180903,271.569267 C508.718903,272.276867 506.208003,276.591367 505.206203,276.391067 C498.924103,276.751667 484.093303,275.111567 478.538803,274.380867 L478.538803,274.380867 Z M46.0895733,243.534767 C46.0895733,251.436467 42.0248533,257.938667 37.0851833,257.938667 C32.1455233,257.938667 28.0807933,251.436467 28.0807933,243.534767 C28.0807933,235.632967 32.1455233,229.130867 37.0851833,229.130867 C42.0248533,229.130867 46.0895733,235.632967 46.0895733,243.534767 L46.0895733,243.534767 Z M191.540603,251.003867 C190.890703,251.110767 190.276703,252.144567 188.433703,255.219467 C199.787403,253.014867 205.119903,266.465467 203.683103,266.645067 L188.111703,255.619167 C185.974603,258.396467 184.285603,261.392867 184.065203,261.392867 C197.117203,267.498367 201.886903,297.131167 210.363303,292.921867 C223.139603,286.577267 226.283403,264.869067 192.428203,251.111167 C192.390203,251.098567 191.589503,250.995867 191.540603,251.003867 L191.540603,251.003867 Z M157.695203,247.229767 C155.897303,247.137967 154.235803,249.245767 153.964503,251.923567 C153.693203,254.601467 154.902503,256.849367 156.700403,256.941167 C158.498303,257.032967 160.159903,254.925167 160.431203,252.247267 C160.439603,252.163767 160.425603,252.087167 160.431203,252.004567 C160.081603,252.389267 159.576103,252.651967 158.938803,252.651967 C157.878503,252.651967 156.998803,251.967367 156.998803,251.114267 C156.998803,250.261267 157.878503,249.576667 158.938803,249.576667 C159.469003,249.576667 159.934203,249.742067 160.281903,250.021767 C159.899603,248.429967 158.957103,247.294167 157.695203,247.229767 L157.695203,247.229767 Z M129.840603,231.961167 C123.593703,238.881867 128.056703,262.081867 139.835303,255.538367 C143.452903,273.884967 165.063603,260.824367 168.308703,248.713467 C174.827103,224.386667 165.013603,222.209467 158.241903,225.957167 C151.792603,229.526467 146.190503,236.417267 140.743703,251.724167 C142.237903,241.590867 149.166703,226.884867 156.393903,223.843967 C152.155703,215.495867 134.382103,224.781567 129.840603,231.961167 L129.840603,231.961167 Z M497.225203,238.376467 C497.772503,240.653467 496.959703,243.364367 498.608703,245.279567 C500.581503,245.825067 503.599603,246.385867 502.817103,249.364967 C500.090603,252.067267 475.527303,245.640767 475.527303,245.640767 C471.958103,243.421467 475.562403,240.164367 479.013803,238.792867 C479.013803,238.792867 494.579903,234.592367 500.998703,232.401167 C502.377203,235.253467 500.606803,238.744067 497.225203,238.376467 L497.225203,238.376467 Z M124.728803,229.705267 C124.728803,229.705267 114.406703,240.905767 124.509203,249.470967 C121.873703,242.223567 122.313003,234.317267 124.728803,229.705267 L124.728803,229.705267 Z M139.048403,240.928567 C137.584503,240.861667 136.268903,242.992167 136.093803,245.673367 C135.918703,248.354567 136.940503,250.585467 138.404403,250.652367 C139.868203,250.719267 141.183803,248.588767 141.358903,245.907567 C141.364403,245.823867 141.351703,245.747467 141.354803,245.664767 C141.077103,246.054267 140.670303,246.323967 140.152103,246.332767 C139.289703,246.347467 138.562603,245.675167 138.548003,244.822167 C138.533503,243.969167 139.237403,243.272567 140.099803,243.257967 C140.531003,243.250567 140.912203,243.409467 141.199703,243.684367 C140.861703,242.098067 140.075803,240.975467 139.048403,240.928567 L139.048403,240.928567 Z M492.856803,244.835767 C493.691203,241.997267 492.929903,239.606767 492.929903,239.606767 C491.755703,240.022967 481.284103,241.802367 482.316003,242.859867 C485.102103,243.397267 490.070803,244.298367 492.856803,244.835767 L492.856803,244.835767 Z M472.200703,232.162367 C475.194503,231.990467 478.867703,231.698667 482.583303,231.399467 L484.070403,231.279667 C487.786003,230.980367 491.459203,230.688667 494.453003,230.516767 C494.453003,230.516767 499.450903,228.223567 497.544603,225.293067 C491.157903,225.659767 482.952303,226.935767 476.565603,227.302467 C476.565603,227.302467 470.318903,229.224267 472.189703,232.145167 L472.200703,232.162367 L472.200703,232.162367 Z M282.240303,188.486267 C291.157103,188.534367 298.306303,193.001767 299.469803,205.317467 C291.037703,178.441067 246.674103,202.449067 240.759703,225.209967 C258.304203,217.234667 256.697203,246.074267 240.145103,240.265867 C241.822303,246.766367 248.371503,247.215467 259.889703,242.382667 C226.981003,260.753067 229.484003,224.793867 244.924803,205.931967 C252.395203,197.796667 269.208103,188.415967 282.240303,188.486267 L282.240303,188.486267 Z M471.611803,222.160767 C468.365803,214.929267 487.153403,216.836067 491.913103,216.469667 C492.371103,213.763167 486.518403,204.749167 489.986703,203.218167 C494.108103,203.112067 496.340203,219.856067 495.589303,220.867867 C488.081803,221.298767 479.119203,221.729867 471.611803,222.160767 L471.611803,222.160767 Z M160.137203,221.710067 L160.154103,221.704867 C151.759503,188.818467 175.985603,160.342967 200.860903,160.001767 C211.358403,159.857767 228.455103,168.541167 230.290003,176.400567 C220.318003,190.276567 212.660703,202.930567 213.572503,218.939567 C202.451403,210.696867 184.094403,201.147167 166.477603,221.250867 C164.721103,220.941567 162.614303,221.069267 160.137203,221.710067 L160.137203,221.710067 Z M335.231903,258.796267 C330.580803,224.980167 377.536603,226.552467 395.836903,226.632467 C397.817903,225.752067 368.899003,220.596967 357.793103,225.187267 C353.086303,215.400467 387.679503,189.528067 433.732803,201.027167 C415.820803,194.855267 399.426303,195.015367 399.426303,195.015367 C405.726603,186.747467 417.685503,171.966567 442.950703,171.609467 C457.945803,171.397567 476.264003,177.172767 497.894003,194.392567 C498.798603,195.112667 499.818303,195.937667 500.887003,196.827867 C482.988903,192.560367 446.862203,202.452967 451.611003,209.619167 C451.611003,209.619167 461.143903,233.980967 464.467903,255.418967 C466.176303,266.437067 466.244703,276.682867 462.535903,282.452067 C460.850503,290.879067 509.044803,284.296467 516.307103,283.260067 C490.167303,318.829167 422.883203,305.310467 408.491603,293.468067 C419.682703,286.368867 421.544703,278.662467 421.544703,278.662567 C408.052203,294.111267 389.891603,299.783567 385.071303,283.351167 C398.242503,283.657767 402.192203,277.148967 402.130103,277.160367 C389.672703,283.202067 376.497803,279.623967 372.005003,270.447567 L371.401803,269.015367 L371.371803,268.959167 L370.994103,267.931067 C370.994103,267.706967 370.906303,267.656867 370.737203,267.772067 C364.349803,256.565767 348.433703,255.617267 335.231903,258.796267 L335.231903,258.796267 Z" id="Page-1" sketch:type="MSShapeGroup"></path>
        </g>
    </g>
</svg>