<?xml version="1.0" encoding="UTF-8" standalone="no"?>
<svg width="560px" height="560px" viewBox="0 0 560 560" version="1.1" xmlns="http://www.w3.org/2000/svg" xmlns:xlink="http://www.w3.org/1999/xlink" xmlns:sketch="http://www.bohemiancoding.com/sketch/ns">
    <!-- Generator: sketchtool 3.4 (375) - http://www.bohemiancoding.com/sketch -->
    <title>postfix</title>
    <desc>Created with sketchtool.</desc>
    <defs></defs>
    <g id="Page-1" stroke="none" stroke-width="1" fill="none" fill-rule="evenodd" sketch:type="MSPage">
        <g id="postfix" sketch:type="MSArtboardGroup" fill="#000000">
            <path d="M58.6905453,343.366307 C73.8001251,335.570846 92.1030547,374.510707 115.613752,390.804463 C134.762677,404.07537 155.360269,411.229091 154.481287,418.040276 C137.89569,424.752197 20.6661322,390.219177 58.6905453,343.366307 L58.6905453,343.366307 Z M327.550431,307.293464 L327.47298,302.899662 C322.618308,299.41661 317.362667,296.215827 314.062551,291.167226 C311.352188,286.331513 314.105512,280.608951 317.101474,276.598872 C317.048731,275.713839 314.62205,275.590604 313.598857,275.081427 C295.345554,269.809046 274.523275,269.238353 257.391391,278.497114 C291.566112,306.794776 303.488544,337.172558 283.497547,379.345271 C282.018424,380.915237 290.308146,388.837856 291.255604,389.550168 C295.087789,382.772707 295.29513,379.289724 297.521731,373.938774 C294.82236,371.013566 292.396889,368.016475 290.315004,365.198044 C297.679556,355.89129 302.087477,351.034782 309.681859,341.909552 C309.958281,339.653706 308.900093,337.039652 308.771816,334.628834 C308.17581,327.20691 306.591605,318.760976 310.940934,312.169214 C314.921969,307.378478 321.831298,307.563533 327.550431,307.293464 L327.550431,307.293464 Z M321.655219,351.352399 C331.171745,388.539056 416.591857,417.19179 410.449167,379.183775 C393.136161,304.545586 320.806289,308.008167 314.65059,313.394404 C308.49489,318.780742 313.881127,342.634128 313.881127,342.634128 L296.568122,363.024983 C304.647578,363.024983 318.497902,382.646376 318.497902,382.646376 C318.497902,382.646376 321.403202,355.627333 321.655219,351.352399 L321.575752,351.098255 C321.676599,350.543798 321.69818,350.676129 321.655219,351.352399 L321.655219,351.352399 Z M131.945416,368.063348 C131.945416,368.063348 112.468234,324.470629 61.298791,335.243154 C54.7583401,334.088909 11.968025,386.963453 124.779734,417.191266 C160.164014,426.672459 162.868326,419.884414 161.714032,414.113386 C160.559838,408.342397 147.094245,377.563759 147.094245,377.563759 L159.021014,367.560707 C159.021014,367.560707 147.863708,352.171388 139.01489,354.479795 C137.886715,355.607889 135.820663,362.316624 134.674638,366.777701 C134.517417,367.389933 139.23635,377.718367 139.095265,378.272057 C138.511764,380.563543 131.945416,368.063348 131.945416,368.063348 L131.945416,368.063348 Z M400.37647,345.297648 C413.695733,329.906987 407.117687,318.314829 386.823746,321.098004 C384.396964,321.44643 381.019498,321.763291 377.463633,321.927067 C383.06054,325.739788 388.182356,330.254405 392.680837,335.307857 C395.450095,332.265697 398.598538,329.880363 402.420336,328.63813 C405.448871,329.733026 402.434757,336.049919 398.17498,342.113838 L398.908743,343.099103 L400.37647,345.297648 L400.37647,345.297648 Z M507.602724,197.369554 C518.54099,210.762637 522.42854,264.339207 521.845141,279.771013 C529.180145,268.461428 532.652911,252.661531 529.752451,231.007265 C527.927424,217.381527 516.491376,205.191245 507.602724,197.369554 L507.602724,197.369554 Z M223.971711,257.116345 C239.400996,262.187637 243.588263,264.28838 266.779236,257.116345 C254.293977,262.489875 237.497408,267.001164 231.463734,273.664931 L234.670869,266.116635 L223.971711,257.116345 L223.971711,257.116345 Z M482.17315,273.100389 C481.549714,270.723729 481.844692,266.376215 481.844692,266.376215 C481.844692,266.376215 495.952175,262.676241 492.829953,262.080437 C488.786392,261.06521 484.742832,260.049883 480.699272,259.034656 C479.546389,256.480908 481.224785,252.392269 481.224785,252.392269 C481.224785,252.392269 500.271955,252.348502 507.044233,251.959737 C508.722024,254.749567 506.485844,256.586596 506.485844,256.586596 C502.084176,256.839318 491.445929,256.9086 487.04416,257.161222 C491.539313,258.287683 496.034365,259.414043 500.529519,260.540403 C500.937344,266.463347 492.288606,265.434204 488.769551,268.314797 C494.487272,267.98654 501.848294,270.264976 509.040903,270.264976 C512.608869,270.978569 510.076702,275.329713 509.066417,275.127615 C502.731109,275.491269 487.774695,273.837278 482.17315,273.100389 L482.17315,273.100389 Z M64.9809359,259.062288 C64.7019428,259.301598 63.8084587,266.755803 64.6570255,266.416252 C79.0795147,260.645384 101.426953,255.982321 128.259156,255.053419 C122.943613,253.724559 87.2547757,248.200968 64.9809359,259.062288 L64.9809359,259.062288 Z M46.0611758,241.99303 C46.0611758,249.961656 41.9620286,256.518928 36.9805207,256.518928 C31.999023,256.518928 27.8998656,249.961656 27.8998656,241.99303 C27.8998656,234.024404 31.999023,227.467132 36.9805207,227.467132 C41.9620286,227.467132 46.0611758,234.024404 46.0611758,241.99303 L46.0611758,241.99303 Z M192.744142,249.525391 C192.088738,249.633197 191.469537,250.675753 189.610927,253.776697 C201.060791,251.553424 206.438456,265.117948 204.989486,265.299069 L189.2862,254.179782 C187.130999,256.980605 185.427694,260.002384 185.205427,260.002384 C198.367975,266.159596 203.178073,296.043379 211.726266,291.798427 C224.610778,285.40009 227.781206,263.508027 193.63926,249.6336 C193.600938,249.620894 192.793456,249.517324 192.744142,249.525391 L192.744142,249.525391 Z M158.61208,245.719326 C156.798952,245.626748 155.123379,247.752401 154.849781,250.452881 C154.576184,253.153462 155.795726,255.420402 157.608854,255.512979 C159.421982,255.605557 161.097655,253.479904 161.371253,250.779424 C161.379724,250.695116 161.365605,250.617867 161.371253,250.534567 C161.018692,250.922526 160.50891,251.187451 159.866213,251.187451 C158.796932,251.187451 157.909781,250.497052 157.909781,249.636827 C157.909781,248.776502 158.796932,248.086103 159.866213,248.086103 C160.400903,248.086103 160.870043,248.252904 161.220688,248.534973 C160.83515,246.929691 159.884668,245.784271 158.61208,245.719326 L158.61208,245.719326 Z M501.01782,236.79104 C501.569755,239.087427 500.750071,241.821187 502.413038,243.752709 C504.402547,244.302728 507.446209,244.868278 506.657082,247.87261 C503.907489,250.597798 479.136143,244.116867 479.136143,244.116867 C475.536713,241.87877 479.171541,238.594083 482.652173,237.210967 C482.652173,237.210967 498.350115,232.97489 504.82328,230.765131 C506.213456,233.641589 504.428061,237.161855 501.01782,236.79104 L501.01782,236.79104 Z M125.366462,228.046397 C125.366462,228.046397 114.956936,239.341864 125.145002,247.979508 C122.48718,240.670724 122.930201,232.69746 125.366462,228.046397 L125.366462,228.046397 Z M139.807345,239.364756 C138.331047,239.297289 137.004304,241.445834 136.827721,244.149743 C136.651138,246.853653 137.681592,249.103448 139.157891,249.170914 C140.634089,249.238381 141.960832,247.089836 142.137415,244.385927 C142.142961,244.301619 142.130154,244.224471 142.13328,244.141071 C141.853228,244.53387 141.442983,244.805854 140.920394,244.814728 C140.050689,244.829553 139.317431,244.151559 139.302707,243.291334 C139.288084,242.43121 139.997946,241.728609 140.867651,241.713886 C141.302503,241.706423 141.686931,241.866669 141.976866,242.143897 C141.636004,240.544161 140.843447,239.412053 139.807345,239.364756 L139.807345,239.364756 Z M496.61242,243.305049 C497.453887,240.442508 496.686139,238.031761 496.686139,238.031761 C495.501994,238.451486 484.941702,240.246058 485.982342,241.312414 C488.79204,241.854365 493.802824,242.763097 496.61242,243.305049 L496.61242,243.305049 Z M475.781368,230.524308 C473.859023,227.568988 480.183238,225.623246 480.183238,225.623246 C486.624031,225.253541 494.899131,223.966633 501.339925,223.596928 C503.262371,226.552148 498.22214,228.864771 498.22214,228.864771 C491.781346,229.234476 482.222162,230.154503 475.781368,230.524308 L475.781368,230.524308 Z M284.212048,186.478282 C293.204371,186.526789 300.414123,191.032027 301.587477,203.452038 C293.083959,176.348001 248.34461,200.559344 242.380117,223.513023 C260.073214,215.470174 258.452603,244.554039 241.760311,238.696544 C243.451716,245.252001 250.056387,245.704905 261.672143,240.831172 C228.484714,259.357165 231.008914,223.093399 246.580494,204.071844 C254.114166,195.86764 271.069468,186.407387 284.212048,186.478282 L284.212048,186.478282 Z M370.359166,317.603958 C377.784629,316.013602 377.339793,310.313428 374.285239,305.145827 C372.206682,301.629394 368.346462,299.17377 365.974541,296.681337 C381.827181,298.994262 378.545419,284.835549 369.995007,280.75881 C370.048658,280.164216 375.298146,281.176417 375.331224,280.590496 C375.167146,275.576586 373.905349,271.585567 371.850692,268.494607 C373.006197,266.724339 373.717572,265.955381 373.717572,266.595961 C376.958793,277.68933 391.465228,282.524539 405.117286,275.903431 C405.179912,275.891934 401.196759,282.455862 387.914002,282.146666 C392.775129,298.718244 411.089545,292.997901 424.696323,277.418354 C424.696323,277.418354 422.818553,285.189925 411.532667,292.349253 C426.04616,304.291956 493.900141,317.925156 520.261339,282.054794 C512.937529,283.099972 464.335034,289.738325 466.034709,281.240051 C477.052242,264.101713 455.017278,207.790173 455.017278,207.790173 C450.228257,200.563277 486.660941,190.586889 504.710634,194.890533 C503.632883,193.992794 502.604546,193.160806 501.692284,192.434607 C479.879083,175.068959 461.405732,169.244845 446.283627,169.458539 C420.804437,169.818664 408.744248,184.724755 402.390586,193.062682 C402.390586,193.062682 418.923943,192.901226 436.987654,199.1254 C390.544293,187.529007 355.658097,213.620439 360.404762,223.490131 C371.604727,218.860952 400.768563,224.059715 398.770784,224.947571 C380.263347,224.866692 332.69403,223.272301 337.681215,257.667171 L336.934444,260.347886 C334.316254,260.949337 331.831183,261.713858 329.532881,262.590622 L277.429382,255.647307 C344.24948,218.788645 323.56284,138.55953 254.614065,166.222158 C228.597058,173.612023 217.951348,205.038765 215.997236,231.423359 C215.554417,229.524511 214.159905,221.615083 213.939656,219.809418 C192.7272,207.073756 182.739315,210.956264 169.753956,220.140801 C177.486095,223.360139 175.920749,236.648241 173.052459,247.353047 C169.272311,261.460732 146.44227,273.483709 139.102728,257.093352 C135.322075,258.492604 131.42202,256.374111 129.202378,253.25078 C90.3555581,248.5143 72.5698626,253.651243 63.1384012,257.746538 C62.1988805,268.73543 56.7315322,277.082332 48.8416177,277.98108 C47.1400973,278.174908 45.4241255,278.011234 43.7562072,277.504276 L43.89346,277.808531 C78.171418,322.968312 131.368067,276.030397 149.982503,276.706778 C165.972699,277.287757 170.819505,272.518099 173.647154,270.658682 C184.969143,258.294137 182.979835,256.418585 187.648546,249.300805 L199.400446,233.899354 C201.558672,234.563331 198.434534,242.968624 194.409832,248.693001 C208.406081,251.726074 237.850575,270.249647 222.098176,289.553876 C201.507543,309.263308 199.659119,275.722713 185.550122,260.262771 C181.917715,265.349391 177.351364,270.90011 177.732767,271.278387 C207.761467,295.548019 196.17062,327.020646 191.497371,358.549344 C191.111934,358.222962 190.651467,348.740967 190.272887,348.426576 C177.728431,338.009658 169.045002,329.751279 169.045002,329.751279 C162.663405,328.327118 155.067409,341.079138 148.463243,352.869985 C150.364915,353.865718 152.122577,355.104149 153.772131,356.532071 L168.685886,336.67753 C168.685886,336.67752 185.349538,353.983446 192.422743,362.688951 C203.836301,415.446986 256.107306,393.373882 268.409629,388.749736 C269.362028,388.391759 261.12172,378.724891 261.07523,376.382467 C270.0969,386.368446 279.620686,397.195115 294.632061,400.54739 C299.844237,400.54737 303.065491,388.727479 304.599272,380.96564 C302.774547,379.355124 301.017692,377.656568 299.36713,375.917412 L292.701649,394.366953 C287.634088,392.039102 272.687356,374.644108 269.994237,369.75669 C270.219227,369.348754 280.706304,378.28665 280.922318,377.880539 C307.372968,328.168789 267.719331,291.020292 254.580281,280.998825 C254.085324,280.621355 244.647358,286.017072 244.232675,285.717355 C242.903512,284.756787 250.992347,278.464843 250.700597,278.336465 C281.709126,256.653659 325.188796,274.533425 323.014233,275.077091 C323.014233,275.077091 313.581914,285.285729 317.459581,289.847442 C320.539549,293.470773 325.519574,297.37224 331.18183,301.091174 L331.233463,307.297196 C339.981535,307.501209 348.659922,309.104979 356.919995,311.877161 C361.587596,313.345291 366.080934,315.2633 370.359166,317.603958 L370.359166,317.603958 Z M475.18748,220.438098 C471.913987,213.145248 490.860714,215.068198 495.660727,214.698695 C496.122607,211.969271 490.220336,202.878925 493.718011,201.334958 C497.874319,201.22806 500.125324,218.113777 499.368064,219.134147 C491.796977,219.568797 482.758466,220.003448 475.18748,220.438098 L475.18748,220.438098 Z M161.074763,219.98348 C163.590693,219.371944 165.705051,219.233481 167.468864,219.520391 C185.234875,199.246417 203.747354,208.877001 214.962647,217.189514 C214.043125,201.044922 221.76528,188.283745 231.821741,174.290219 C229.971299,166.364352 212.729794,157.607305 202.143383,157.752525 C177.057395,158.096615 152.626106,186.813396 161.091806,219.978236 L161.074763,219.98348 L161.074763,219.98348 Z M306.746607,382.777719 C304.8526,392.607667 302.735822,401.848881 295.806021,402.764511 C286.852927,402.810265 277.986965,397.253869 271.61152,391.541109 C235.415523,404.168583 196.573201,408.152492 189.331481,362.993539 C183.72933,356.623045 175.696969,346.588781 168.771101,341.658342 C164.476331,347.163468 160.379221,353.056249 156.234108,358.808621 C159.122365,361.656126 161.683677,364.941842 164.133048,368.071446 C159.935192,371.577835 155.740361,375.088036 151.543312,378.595423 C154.690847,385.984441 157.914723,393.343053 160.862278,400.814019 C162.535329,406.265242 166.10975,411.413964 165.42994,417.32873 C164.998618,422.318397 159.791586,425.022225 155.29613,425.431158 C145.754493,425.903437 136.290408,423.856757 127.075213,421.609311 C109.872433,416.980465 92.6870494,411.479253 77.0373937,402.885961 C65.0902641,396.024685 53.1808917,387.235347 47.45119,374.314681 C41.0787906,360.838399 44.5187415,343.027602 56.2185539,333.652141 C61.6835222,330.126027 68.5809713,330.544037 74.845646,329.980807 C98.1998998,329.007331 120.006748,342.734581 132.411934,361.920033 C132.90195,360.113279 133.372502,358.303448 134.018628,356.549014 C134.394485,352.497527 138.78395,349.503128 142.694897,350.695986 C143.750361,350.922529 144.765991,351.22395 145.73866,351.601259 C151.71223,340.299853 157.358854,329.347589 168.746696,326.101728 C176.99971,328.738171 183.426184,339.490667 190.242935,344.724443 C197.103152,319.330559 199.013698,292.889491 176.539243,274.893448 C173.578275,276.893849 170.22471,278.260729 166.773928,279.088279 C159.192454,281.337772 151.043615,279.270611 143.509741,281.549853 C125.57824,288.317593 108.398151,298.420645 89.0536337,300.646842 C76.0041761,302.661159 62.2960163,299.270079 51.8696692,291.2475 C46.5542671,286.918139 40.9535387,281.794205 38.7414401,275.151818 C32.0952108,270.759428 26.463835,261.640542 24.5027041,250.78013 C21.5933294,234.668615 27.7921913,220.431845 38.2347445,219.242255 C48.6772977,218.052664 59.6642732,230.33159 62.5736581,246.443205 C63.0267333,248.952278 63.2589234,251.415869 63.2638951,253.761973 C67.0305701,252.246848 70.9210246,251.019238 74.9145447,250.173031 C91.8880993,246.481426 109.544781,247.395705 126.70813,249.312302 L127.330759,247.236468 C127.106375,245.009968 127.239392,242.709749 127.684631,240.423044 C127.809076,249.104658 132.481418,258.608981 140.60091,254.098399 C144.249151,272.600289 166.042888,259.429069 169.315473,247.215592 C175.889083,222.68275 165.992465,220.48711 159.16341,224.266552 C152.659486,227.866083 147.009937,234.815246 141.517004,250.251792 C143.02386,240.032766 150.011345,225.202109 157.299758,222.135453 C153.712328,215.069308 140.509039,220.530877 133.634805,226.790852 C139.816321,217.966238 149.303198,212.375281 156.464241,216.745586 C154.804703,205.540277 155.885782,193.446909 160.908164,183.11564 C168.236411,167.198256 184.151778,154.479839 202.12039,154.068585 C215.312183,153.666105 227.466261,161.589954 234.817098,172.098209 C243.208272,167.129478 252.11074,162.679807 261.540639,159.920029 C275.980413,155.302246 293.044427,155.224594 305.853405,164.142189 C318.595522,172.857284 323.676898,189.611396 321.441928,204.484913 C318.330193,224.775123 304.762644,242.077641 288.114019,253.397915 C301.497522,255.110499 314.812651,257.048273 328.203314,258.607065 L333.598022,257.198334 C333.699071,254.917478 333.467829,252.585996 333.675876,250.310788 C329.752424,236.663771 343.303737,229.505956 354.391055,225.268971 C361.10343,205.527066 368.629942,197.762252 394.395135,195.063083 C405.995966,178.497756 424.989183,166.109916 445.663923,165.797592 C460.368723,165.476899 474.639074,170.597707 487.140065,177.90528 C527.415121,203.927532 549.56858,222.471778 526.361169,281.535533 C517.043917,296.192431 498.901042,303.727414 482.220851,306.851452 C462.339172,309.260283 423.526902,310.713387 408.538419,294.007984 C403.56626,296.821212 385.426208,297.461691 383.923992,281.641725 C381.722502,281.279281 379.990455,280.059738 378.501752,278.423799 C378.418654,279.706673 378.081825,281.025449 377.532209,282.371353 C382.6034,292.779769 378.695782,298.089867 374.933988,299.992647 C380.613084,308.028034 382.264454,315.590952 375.358856,319.228805 C382.014152,318.702585 388.796413,316.773181 395.392814,317.471748 C406.948667,319.323904 413.821691,323.43009 411.069779,336.480385 C409.71258,340.959342 406.484872,345.248222 402.572413,348.8045 C404.457142,351.922477 406.125958,355.192813 407.573314,358.557401 C410.534584,366.638612 414.3942,374.743281 414.378871,383.518863 C414.781351,390.967764 409.021879,397.478737 402.133426,399.528644 C389.998509,402.480848 377.273537,399.575759 365.866433,395.206615 C349.822586,388.680696 334.067465,379.375485 324.07,364.880971 C323.18174,373.757683 322.20665,382.625793 321.246789,391.495053 C316.241249,389.733014 311.306806,386.594091 306.746607,382.777719 L306.746607,382.777719 Z" id="Page-1" sketch:type="MSShapeGroup"></path>
        </g>
    </g>
</svg>