<?xml version="1.0" encoding="UTF-8"?>
<svg width="560px" height="560px" viewBox="0 0 560 560" version="1.1" xmlns="http://www.w3.org/2000/svg" xmlns:xlink="http://www.w3.org/1999/xlink">
    <!-- Generator: sketchtool 40.3 (33839) - http://www.bohemiancoding.com/sketch -->
    <title>printer</title>
    <desc>Created with sketchtool.</desc>
    <defs></defs>
    <g id="Page-1" stroke="none" stroke-width="1" fill="none" fill-rule="evenodd">
        <g id="printer" fill="#000000">
            <path d="M408.672925,498.796729 L150.577194,498.796729 C139.849,498.796729 131.139019,490.086748 131.139019,479.358553 L131.139019,406.385514 L57.5398561,406.385514 C47.6523944,406.385514 39.625,398.35812 39.625,388.470658 L39.625,257.422224 C39.625,247.53871 47.6452168,239.514187 57.5398561,239.507009 L95.2511682,239.507009 L95.2511682,183.880841 L132.933411,183.880841 L132.933411,101.072019 C132.933411,89.8343364 142.054189,80.7092523 153.30192,80.703271 L405.947841,80.703271 C417.19629,80.7092523 426.316589,89.8343364 426.316589,101.072019 L426.316589,183.880841 L464.896028,183.880841 L464.896028,239.507009 L501.709785,239.507009 C511.639953,239.550075 519.625,247.560243 519.625,257.422224 L519.625,388.470658 C519.625,398.336108 511.632776,406.349746 501.709785,406.385514 L428.110981,406.385514 L428.110981,479.358553 C428.110981,490.078374 419.414159,498.783092 408.672925,498.796729 L408.672925,498.796729 Z M150.877336,479.058411 L410.167056,479.058411 L410.167056,377.675234 L150.877336,377.675234 L150.877336,479.058411 Z M196.634346,453.713813 L362.615654,453.713813 L362.615654,439.358673 L196.634346,439.358673 L196.634346,453.713813 Z M196.634346,417.151869 L362.615654,417.151869 L362.615654,402.796729 L196.634346,402.796729 L196.634346,417.151869 Z M186.765187,296.030374 L373.382009,296.030374 L373.382009,274.497664 L186.765187,274.497664 L186.765187,296.030374 Z M149.98014,239.668505 L408.372664,239.668505 L408.372664,100.441589 L149.98014,100.441589 L149.98014,239.668505 Z" id="Page-1"></path>
        </g>
    </g>
</svg>