<?xml version="1.0" encoding="UTF-8"?>
<svg width="560px" height="560px" viewBox="0 0 560 560" version="1.1" xmlns="http://www.w3.org/2000/svg" >
    
    
    
    
    <g id="Page-1" stroke="none" stroke-width="1"  fill-rule="evenodd">
        <g id="process" >
            <g id="Group" transform="translate(75.000000, 40.000000)">
                <path d="M123.123532,338.054102 C140.807418,345.843576 148.899008,366.676789 141.104961,384.350155 C133.31085,402.023521 112.465236,410.110297 94.7813506,402.320887 C77.0974649,394.531413 69.0058753,373.6982 76.7999221,356.024834 C84.5940327,338.351468 105.439647,330.264692 123.123532,338.054102 L123.123532,338.054102 Z M324.993688,272.885854 C338.348826,286.845659 337.847242,309.187796 323.879042,322.534882 C309.910928,335.882075 287.555491,335.380789 274.20046,321.420899 C260.845323,307.461094 261.346907,285.118957 275.315106,271.771871 C289.283221,258.424678 311.638657,258.925964 324.993688,272.885854 L324.993688,272.885854 Z M138.365948,263.219867 L129.849907,278.17671 L120.93196,292.956559 L101.667178,293.105225 L93.4117909,276.996808 L85.3811688,261.467052 L54.1127584,273.597216 L58.6691044,290.474697 L63.0483197,307.753845 L49.0827613,319.830582 L34.1303275,315.642747 C25.5607844,313.307073 18.3740808,311.10084 16.9912626,310.97141 C15.6084018,310.841976 13.257973,315.083286 8.47522182,325.928253 L1.92107896,340.789947 L16.8868244,349.300921 C26.0011564,354.754732 31.900279,358.792267 31.5459751,359.595602 C31.1916967,360.398936 30.6260266,364.946708 31.0413077,369.446883 L31.0680567,378.093163 L15.7062619,385.71734 L0.167261896,393.743185 L12.3046463,424.992994 L28.4360697,421.065657 L44.7445918,416.736653 L50.3846583,423.538264 C53.5180274,427.316939 56.6513964,431.095603 57.4552094,431.449675 C57.6799768,432.028376 56.2286066,438.584487 54.2458253,446.34564 C51.8611375,453.929714 49.8307216,460.710411 49.7012149,462.092513 C49.5717039,463.474551 53.4136318,465.646546 64.2650538,470.426463 L79.5375006,477.153743 L87.5221281,463.401902 C93.6877401,452.686301 96.0858035,449.425388 98.2724346,449.9089 C99.6552954,450.038334 104.382915,450.202 109.287697,449.964 L117.537216,449.760234 L124.941167,464.534229 L132.924154,479.083551 L148.156453,472.841411 C159.737409,468.348739 163.565957,466.197605 163.293547,464.638531 C163.021151,463.079457 160.902991,455.910417 159.186731,448.918371 L155.57708,435.335967 L162.38274,429.699256 C166.163664,426.567751 169.140764,423.082185 169.495047,422.27885 C170.203602,420.67218 173.773136,421.285116 192.342696,427.066259 L201.716052,429.755994 L215.982455,399.583364 L201.418616,391.249415 C192.70619,385.97264 187.208974,382.112131 187.563278,381.308806 C187.917557,380.505472 188.483227,375.9577 188.245085,371.055857 L187.993568,361.830875 L202.776358,354.431329 L217.736246,346.630116 L205.598862,315.380306 L172.981818,324.038314 L159.290267,309.372877 L163.834878,293.626004 L168.556629,277.477463 L138.365948,263.219867 Z M367.731662,209.579069 L354.136701,220.14042 L340.238234,230.384504 L322.383,223.153937 L320.924114,205.114345 L319.451287,187.695347 L285.918186,186.943409 L283.665113,204.278859 L281.094584,221.917635 L263.567776,227.733872 L251.357124,218.146176 C244.33425,212.71083 238.539459,207.923943 237.311376,207.275506 C236.083346,206.627043 232.287779,209.646557 223.716415,217.836858 L211.970501,229.060556 L222.538139,242.64743 C228.87036,251.171921 232.77438,257.158224 232.139465,257.764982 C231.50455,258.37167 229.240542,262.356922 227.901045,266.673367 L224.614996,274.671721 L207.503087,275.840324 L190.073721,277.312274 L189.321335,310.825427 L205.728576,313.366586 L222.453275,315.604397 L225.059597,324.04534 C226.507557,328.734749 227.955518,333.424168 228.562563,334.058704 C228.54863,334.679318 224.697338,340.181291 219.893672,346.593303 C214.786477,352.688037 210.314197,358.176097 209.665354,359.403343 C209.016505,360.630642 211.734299,364.106683 219.929464,372.672948 L231.463456,384.729143 L244.106046,375.077823 C253.90544,367.53599 257.369599,365.440434 259.204695,366.723428 C260.432725,367.371891 264.73781,369.331201 269.360342,370.987169 L277.059929,373.953984 L278.243157,390.435013 L280.04737,406.929984 L296.510414,406.988685 C308.930113,407.26718 313.290916,406.744041 313.636168,405.199466 C313.981492,403.654898 314.769674,396.221454 315.861381,389.105311 L317.727329,375.176371 L326.173297,372.571599 C330.865496,371.1245 334.950651,369.042865 335.585565,368.436181 C336.855394,367.222803 339.918509,369.154268 354.86089,381.597334 L362.490809,387.667216 L387.224671,365.247597 L376.960561,351.977992 C370.931868,343.770769 367.331365,338.101735 367.966279,337.494976 C368.601195,336.888288 370.865203,332.903037 372.522157,328.283244 L375.822135,319.664285 L392.312974,318.481761 L409.12127,316.99589 L409.873656,283.482737 L376.424152,279.007115 L369.390352,260.22166 L379.61867,247.41162 L390.164445,234.298148 L367.731662,209.579069 Z M242.609247,76.6318404 C260.293132,84.4213144 268.384722,105.254528 260.590675,122.927894 C252.796565,140.601259 231.950951,148.688035 214.267065,140.898625 C196.583179,133.109151 188.49159,112.275938 196.285636,94.6025721 C204.079747,76.9292062 224.925361,68.8424302 242.609247,76.6318404 L242.609247,76.6318404 Z M257.851662,1.79866962 L249.335622,16.7555122 L240.417674,31.5353614 L221.152892,31.6840273 L212.897505,15.5756105 L204.866883,0.0458543681 L173.598473,12.1760184 L178.154819,29.0534996 L182.534034,46.3326482 L168.568476,58.4093843 L153.616042,54.2215493 C145.046499,51.8858757 137.859795,49.6796424 136.476977,49.5502127 C135.094116,49.4207787 132.743687,53.6620885 127.960936,64.5070553 L121.406793,79.3687493 L136.372539,87.879724 C145.486871,93.3335351 151.385993,97.3710694 151.031689,98.1744043 C150.677411,98.9777391 150.111741,103.52551 150.527022,108.025686 L150.553771,116.671965 L135.191976,124.296143 L119.652976,132.321987 L131.790361,163.571797 L147.921784,159.64446 L164.230306,155.315456 L169.870373,162.117067 C173.003742,165.895742 176.137111,169.674406 176.940924,170.028478 C177.165691,170.607179 175.714321,177.163289 173.73154,184.924442 C171.346852,192.508517 169.316436,199.289214 169.186929,200.671316 C169.057418,202.053354 172.899346,204.225349 183.750768,209.005265 L199.023215,215.732545 L207.007842,201.980705 C213.173454,191.265104 215.571518,188.004191 217.758149,188.487703 C219.14101,188.617137 223.868629,188.780803 228.773411,188.542803 L237.022931,188.339036 L244.426881,203.113032 L252.409869,217.662353 L267.642167,211.420214 C279.223123,206.927542 283.051671,204.776407 282.779261,203.217333 C282.506865,201.658259 280.388705,194.48922 278.672445,187.497174 L275.062795,173.91477 L281.868454,168.278059 C285.649378,165.146554 288.626479,161.660987 288.980761,160.857653 C289.689317,159.250983 293.25885,159.863918 311.82841,165.645062 L321.201767,168.334797 L335.468169,138.162167 L320.90433,129.828218 C312.191905,124.551442 306.694689,120.690933 307.048993,119.887609 C307.403271,119.084274 307.968941,114.536503 307.730799,109.63466 L307.479283,100.409677 L322.262072,93.0101315 L337.221961,85.2089182 L325.084576,53.9591089 L292.467532,62.6171169 L278.775981,47.9516801 L283.320592,32.2048065 L288.042344,16.0562654 L257.851662,1.79866962 Z" id="Shape"></path>
            </g>
        </g>
    </g>
</svg>