<?xml version="1.0" encoding="UTF-8"?>
<svg width="560px" height="560px" viewBox="0 0 560 560" version="1.1" xmlns="http://www.w3.org/2000/svg" >
    
    
    
    
    <g id="Page-1" stroke="none" stroke-width="1"  fill-rule="evenodd">
        <g id="procmem" >
            <g id="Group" transform="translate(50.000000, 67.000000)">
                <path d="M322.75386,357.84 L322.75386,417.023764 C322.75386,421.495673 319.130929,425.120881 314.661816,425.120881 L291.045126,425.120881 C286.576013,425.120881 282.953082,421.495684 282.953082,417.023764 L282.953082,357.84 L322.753881,357.84 L322.75386,357.84 Z M250.06763,357.84 L250.06763,417.023764 C250.06763,421.495673 246.444699,425.120881 241.975586,425.120881 L218.358895,425.120881 C213.889782,425.120881 210.266851,421.495684 210.266851,417.023764 L210.266851,357.84 L250.067651,357.84 L250.06763,357.84 Z M177.3814,357.84 L177.3814,417.023764 C177.3814,421.495673 173.758469,425.120881 169.289356,425.120881 L145.672665,425.120881 C141.203552,425.120881 137.580621,421.495684 137.580621,417.023764 L137.580621,357.84 L177.38142,357.84 L177.3814,357.84 Z M365.871332,94.9626732 L347.868199,76.9482761 L112.466573,76.9482761 L94.4634402,94.9626732 L94.4634402,330.51158 L112.466573,348.525978 L347.868199,348.525978 L365.871332,330.51158 L365.871332,94.9626732 L365.871332,94.9626732 Z M375.179323,265.555932 L396.467147,265.555932 L421.255851,285.261757 L451.883752,285.261757 C456.352865,285.261757 459.975806,288.886954 459.975806,293.358863 L459.975806,316.99033 C459.975806,321.462239 456.352875,325.087437 451.883752,325.087437 L421.255851,325.087437 L396.467147,305.381612 L375.179323,305.381612 L375.179323,265.555911 L375.179323,265.555932 Z M85.1550339,305.381737 L63.8672099,305.381737 L39.0785056,325.087561 L8.45060497,325.087561 C3.9814921,325.087561 0.35855079,321.462364 0.35855079,316.990455 L0.35855079,293.358988 C0.35855079,288.887079 3.98148172,285.261881 8.45060497,285.261881 L39.0785056,285.261881 L63.8672099,265.556056 L85.1550339,265.556056 L85.1550339,305.381757 L85.1550339,305.381737 Z M375.179323,192.824224 L396.467147,192.824224 L421.255851,212.530049 L451.883752,212.530049 C456.352865,212.530049 459.975806,216.155247 459.975806,220.627156 L459.975806,244.258623 C459.975806,248.730532 456.352875,252.355729 451.883752,252.355729 L421.255851,252.355729 L396.467147,232.649905 L375.179323,232.649905 L375.179323,192.824204 L375.179323,192.824224 Z M85.1550339,232.650029 L63.8672099,232.650029 L39.0785056,252.355854 L8.45060497,252.355854 C3.9814921,252.355854 0.35855079,248.730656 0.35855079,244.258747 L0.35855079,220.627281 C0.35855079,216.155372 3.98148172,212.530174 8.45060497,212.530174 L39.0785056,212.530174 L63.8672099,192.824349 L85.1550339,192.824349 L85.1550339,232.65005 L85.1550339,232.650029 Z M375.179323,120.092517 L396.467147,120.092517 L421.255851,139.798342 L451.883752,139.798342 C456.352865,139.798342 459.975806,143.42354 459.975806,147.895449 L459.975806,171.526915 C459.975806,175.998824 456.352875,179.624022 451.883752,179.624022 L421.255851,179.624022 L396.467147,159.918197 L375.179323,159.918197 L375.179323,120.092496 L375.179323,120.092517 Z M85.1550339,159.918322 L63.8672099,159.918322 L39.0785056,179.624147 L8.45060497,179.624147 C3.9814921,179.624147 0.35855079,175.998949 0.35855079,171.52704 L0.35855079,147.895573 C0.35855079,143.423664 3.98148172,139.798467 8.45060497,139.798467 L39.0785056,139.798467 L63.8672099,120.092642 L85.1550339,120.092642 L85.1550339,159.918343 L85.1550339,159.918322 Z M262.046321,105.103551 L334.194361,105.103551 L334.194361,133.263502 L262.046321,133.263502 L262.046321,105.103551 L262.046321,105.103551 Z M177.3814,67.6342537 L137.5806,67.6342537 L137.5806,8.45048927 C137.5806,3.97858024 141.203531,0.353372195 145.672644,0.353372195 L169.289335,0.353372195 C173.758448,0.353372195 177.381379,3.97856985 177.381379,8.45048927 L177.381379,67.6342537 L177.3814,67.6342537 Z M250.06763,67.6342537 L210.266831,67.6342537 L210.266831,8.45048927 C210.266831,3.97858024 213.889762,0.353372195 218.358874,0.353372195 L241.975565,0.353372195 C246.444678,0.353372195 250.067609,3.97856985 250.067609,8.45048927 L250.067609,67.6342537 L250.06763,67.6342537 Z M322.75386,67.6342537 L282.953061,67.6342537 L282.953061,8.45048927 C282.953061,3.97858024 286.575992,0.353372195 291.045105,0.353372195 L314.661795,0.353372195 C319.130908,0.353372195 322.753839,3.97856985 322.753839,8.45048927 L322.753839,67.6342537 L322.75386,67.6342537 Z" id="Shape"></path>
            </g>
        </g>
    </g>
</svg>