<?xml version="1.0" encoding="UTF-8"?>
<svg width="560px" height="560px" viewBox="0 0 560 560" version="1.1" xmlns="http://www.w3.org/2000/svg" >
    
    
    
    
    <g id="Page-1" stroke="none" stroke-width="1"  fill-rule="evenodd">
        <g id="puppet" >
            <g id="Group" transform="translate(40.000000, 50.000000)">
                <path d="M43.2457143,459.377512 L67.8125714,419.177632 L476.553143,419.177632 L479.23424,426.966897 L464.080503,455.673872 L450.951497,459.377627 L43.2463543,459.377627 L43.2457143,459.377512 Z M219.84,146.186169 L29.2381714,458.077612 L15.3525486,455.318024 L0.428502857,422.381566 L169.215931,146.18475 L219.839931,146.18475 L219.84,146.186169 Z M193.536,373.144677 C204.467337,373.26371 215.130491,369.477241 224.834743,362.608869 C228.508457,367.464455 233.00496,371.776966 238.288937,375.333682 C265.702194,393.785952 303.93008,384.907861 323.673166,355.503905 C328.458354,348.377178 331.718446,340.698771 333.521486,332.890878 L344.610766,336.14143 C343.167138,339.950344 341.526057,343.71049 339.684297,347.402733 C313.434697,400.027191 256.36544,418.934564 212.216869,389.63348 C205.234126,384.999105 198.992846,379.436332 193.535954,373.144585 L193.536,373.144677 Z M212.276571,252.36607 C206.532663,261.679033 204.268114,272.777757 205.134857,284.644796 C199.085051,285.2891 193.075131,286.919311 187.305303,289.614947 C157.37136,303.599886 145.235131,340.965136 160.198331,373.072907 C163.825006,380.854917 168.710766,387.613805 174.459337,393.189989 L165.955086,401.022096 C163.441897,397.818161 161.072343,394.470048 158.864434,390.984918 C127.395863,341.312471 140.677234,282.612809 188.529349,259.875764 C196.097829,256.279548 204.077851,253.798363 212.276549,252.366115 L212.276571,252.36607 Z M301.881143,358.907562 C295.418949,368.531929 283.084571,371.557791 274.331657,365.666038 C265.578651,359.774285 263.721577,347.195962 270.183771,337.571709 C276.645966,327.947342 288.980343,324.921481 297.733257,330.813234 C306.486263,336.704987 308.343337,349.283309 301.881143,358.907562 L301.881143,358.907562 Z M168.532571,352.627761 C163.63488,342.118478 167.41267,329.979123 176.970491,325.513851 C186.52832,321.048487 198.246834,325.948072 203.144434,336.457365 C208.042126,346.966649 204.264336,359.106003 194.706514,363.571276 C185.148686,368.03664 173.430171,363.137054 168.532571,352.627761 L168.532571,352.627761 Z M241.995429,245.852836 C253.578103,245.852836 262.967726,254.413596 262.967726,264.973846 C262.967726,275.534096 253.578103,284.094856 241.995429,284.094856 C230.412754,284.094856 221.023131,275.534096 221.023131,264.973846 C221.023131,254.413596 230.412754,245.852836 241.995429,245.852836 L241.995429,245.852836 Z M314.244571,327.938806 C308.244434,318.789246 299.156777,312.041503 288.0496,307.809961 C290.024592,302.048358 291.0904,295.906054 291.0904,289.531095 C291.0904,256.457781 262.403543,229.646418 227.0168,229.646418 C218.439977,229.646418 210.256731,231.221437 202.779086,234.079422 L199.286423,223.051483 C203.248914,222.125967 207.281166,221.391743 211.369074,220.862118 C269.632846,213.313564 317.144389,250.184944 317.489074,303.216765 C317.543612,311.60451 316.41496,319.894168 314.24448,327.938676 L314.244571,327.938806 Z M312.057143,150.161393 L469.713371,406.541592 L420.570514,406.541592 L268.885943,162.421194 L268.87527,162.421194 L268.87527,38.4335721 L220.346128,38.4335721 L220.346128,68.1372139 L156.310699,0.105273632 L334.218813,0.105273632 L312.05719,35.7603085 L312.05719,150.160935 L312.057143,150.161393 Z" id="Shape"></path>
            </g>
        </g>
    </g>
</svg>