<?xml version="1.0" encoding="UTF-8" standalone="no"?>
<svg width="560px" height="560px" viewBox="0 0 560 560" version="1.1" xmlns="http://www.w3.org/2000/svg" xmlns:xlink="http://www.w3.org/1999/xlink" xmlns:sketch="http://www.bohemiancoding.com/sketch/ns">
    <!-- Generator: sketchtool 3.4 (375) - http://www.bohemiancoding.com/sketch -->
    <title>rabbitmq</title>
    <desc>Created with sketchtool.</desc>
    <defs></defs>
    <g id="Page-1" stroke="none" stroke-width="1" fill="none" fill-rule="evenodd" sketch:type="MSPage">
        <g id="rabbitmq" sketch:type="MSArtboardGroup" fill="#000000">
            <g id="Group" sketch:type="MSLayerGroup" transform="translate(62.000000, 62.000000)">
                <g transform="translate(0.250073, 0.263298)" id="Shape" sketch:type="MSShapeGroup">
                    <path d="M352.411814,288.522695 C352.411814,271.693095 338.775644,258.050081 321.954623,258.050081 L290.922985,258.050081 C274.101903,258.050081 260.465794,271.693156 260.465794,288.522695 L260.465794,321.459197 C260.465794,338.288797 274.101964,351.931811 290.922985,351.931811 L321.954623,351.931811 C338.775705,351.931811 352.411814,338.288736 352.411814,321.459197 L352.411814,288.522695 L352.411814,288.522695 Z M208.053503,0.000122128852 L239.11816,0.000122128852 C251.673244,0.000633565401 261.850217,10.1830426 261.850217,22.7436896 L261.850217,151.659241 C261.850217,164.220133 272.027678,174.402809 284.582273,174.402809 L414.509819,174.402809 L414.516268,174.402829 C427.068178,174.40664 437.241855,184.587826 437.241855,197.146336 L437.241855,405.334504 C437.241855,406.629857 437.133619,407.899912 436.925562,409.136302 L436.925562,413.032756 C436.925562,425.593647 426.7481,435.776323 414.193505,435.776323 L22.8404747,435.776323 C10.2859407,435.776323 0.108418235,425.593708 0.108418235,413.032756 L0.108418235,22.7443635 C0.108418235,10.1834721 10.2858797,0.000795944746 22.8404747,0.000795944746 L61.8095835,0.000795944746 C61.8095835,0.000795944746 70.5143061,-0.987940918 78.8525224,7.42226093 C85.248286,13.8732901 84.9291295,23.4260867 84.9291295,23.4260867 L84.9291295,149.922877 C84.9291295,163.443151 95.8839138,174.403544 109.397406,174.403544 L151.76004,174.403544 C165.273472,174.403544 176.228317,163.443212 176.228317,149.922877 L176.228317,22.7446077 C176.2287,10.1836553 186.405534,0.00158978228 198.960373,0.00104020245 L208.053452,0.00104020245 L208.053503,0.000122128852 Z"></path>
                </g>
            </g>
        </g>
    </g>
</svg>