<?xml version="1.0" encoding="UTF-8"?>
<svg width="560px" height="560px" viewBox="0 0 560 560" version="1.1" xmlns="http://www.w3.org/2000/svg" >
    
    
    
    
    <g id="Page-1" stroke="none" stroke-width="1"  fill-rule="evenodd">
        <g id="redhat" >
            <path d="M332.925642,404.011785 C334.145798,405.183777 336.248962,409.181394 333.680212,414.270729 C332.23529,416.967916 330.677986,418.846314 327.91658,421.061861 C324.561151,423.742993 318.059003,426.825493 309.132598,421.142134 C304.316193,418.107799 304.011153,417.080299 297.380568,417.947252 C292.644436,418.55733 290.766038,413.756979 292.45178,409.791472 C294.169631,405.825964 301.15342,402.615027 309.871114,407.720417 C313.804512,410.016237 319.905292,414.896862 325.235447,410.562097 C327.467049,408.812136 328.799588,407.624089 331.866032,404.059949 C332.010525,403.915457 332.203181,403.835183 332.427946,403.835183 C332.620603,403.835183 332.797204,403.899402 332.925642,404.011785 L332.925642,404.011785 Z M406.390437,436.8178 C406.35624,440.044969 403.309061,443.240975 394.296282,445.248244 C378.145268,448.780275 367.950543,465.461093 362.122692,470.967856 C355.757812,477.004819 338.639504,480.882796 338.548795,478.283662 C338.551203,478.090106 338.645926,477.862477 338.843399,477.598441 C341.123003,474.564287 349.82384,465.10903 355.106795,454.89711 C359.859463,445.793798 364.081685,443.176676 369.877105,434.47555 C371.594957,431.922855 378.193432,422.932232 380.119995,415.852115 C382.271322,408.900437 381.548862,400.214852 382.383705,396.634657 C383.571752,391.465048 388.436322,380.274933 388.805579,373.933332 C388.807506,373.901415 388.808148,373.870478 388.807185,373.840215 C388.837368,370.454683 373.819012,379.037373 366.666168,379.038722 C359.472545,379.038048 352.45729,374.719996 346.035898,374.431027 C338.088828,374.045715 332.967384,380.547862 325.75883,379.391925 C321.665207,378.749802 318.1815,375.138011 311.020629,374.880558 C300.79251,374.495985 288.286392,380.547525 264.8313,379.809347 C241.743538,379.053348 220.42404,350.621817 217.518142,346.110562 C214.098494,340.828571 209.924276,340.828571 205.396855,345.002789 C200.853379,349.128843 195.234239,345.869742 193.66088,343.092282 C190.626544,337.794235 182.534983,322.333574 169.996274,319.074456 C153.604424,314.824781 144.860336,327.190565 144.916993,338.008453 C144.91977,338.639306 144.952458,339.2647 145.015183,339.881345 C146.171024,351.247163 153.539049,354.442446 156.959869,360.49556 C160.347681,366.532748 162.097882,370.465745 168.487133,373.146652 C172.043792,374.611899 173.851806,376.643732 173.834852,379.235039 C173.82827,379.9601 173.678464,380.729457 173.383812,381.543253 C172.195765,384.786299 167.475688,385.54087 164.345024,385.685362 C159.356721,385.928109 155.496966,384.959706 152.44717,383.542719 C151.462135,383.082656 150.561884,382.573755 149.735261,382.040948 C149.208876,381.708729 148.695254,381.358239 148.193064,380.985706 C144.95151,378.560694 142.149631,375.276884 139.203387,370.176536 C135.284021,363.760168 129.171119,360.921893 122.043931,360.834796 L121.70378,360.832709 L121.379283,360.83539 C118.032266,360.890554 114.886897,361.793582 112.103078,363.208802 C100.704252,369.165091 87.1219881,372.665012 72.5122245,372.665012 L56.0080081,372.681067 C47.9806654,348.904078 43.6459004,323.425292 43.6459004,296.9511 C43.6459004,166.073306 149.783425,60 280.725438,60 C411.635342,60 517.788921,166.073306 517.788921,296.9511 C517.788921,344.440875 503.80529,388.623369 479.739317,425.741801 L479.721175,425.737643 L479.739317,425.709692 C470.603077,423.622439 460.906529,422.290044 451.113813,422.290044 C434.336667,422.290044 419.084716,425.211997 407.830381,429.88391 C406.578116,430.510043 405.711163,431.810473 405.711163,433.271449 C405.711323,433.278128 405.711163,433.287504 405.711163,433.287504 C405.711163,433.817308 405.823546,434.379222 406.048311,434.812699 C406.27388,435.475532 406.396698,436.147293 406.390437,436.8178 L406.390437,436.8178 Z M414.494681,233.904351 C412.150697,241.771147 408.827377,251.837434 393.992848,259.447355 C391.825466,260.555129 391.022731,258.740949 392.002067,257.039152 C397.621207,247.502669 398.600543,245.126576 400.238121,241.385834 C402.501831,235.879077 403.721987,228.060446 399.178511,211.780995 C390.268161,179.719788 371.644726,136.837724 358.142736,122.950421 C345.090277,109.528704 321.45778,105.739798 300.072939,111.230501 C292.206143,113.237336 276.8097,121.23257 248.26447,114.810696 C198.864203,103.684799 191.543267,128.409014 188.717642,139.181708 C185.859908,149.954402 179.052722,180.570686 179.052722,180.570686 C176.789011,193.061232 173.818894,214.735057 250.544235,229.360875 C286.281965,236.152007 288.080089,245.399506 289.685558,252.030091 C292.527237,263.926612 297.054658,270.733799 302.160048,274.137392 C307.265438,277.540986 302.160048,280.36661 296.492744,280.928524 C281.288957,282.517938 225.017285,266.382979 191.719868,247.486615 C164.491122,230.853961 164.041591,215.890994 170.270809,203.175683 C129.138705,198.728536 98.2655452,207.028808 92.6785147,226.503141 C83.0617582,259.896886 166.144755,316.955238 260.755015,345.596813 C360.037189,375.635129 462.144987,354.651655 473.49565,292.279187 C478.649204,263.942667 454.775887,242.975248 414.494681,233.904351 L414.494681,233.904351 Z M262.264155,172.832328 C234.890917,174.807054 232.033183,177.761117 226.911738,183.203655 C219.68713,190.925958 210.150647,173.233695 210.150647,173.233695 C204.419124,172.029594 197.499555,162.814205 201.240297,154.224948 C204.932874,145.715965 211.740061,148.252605 213.859279,150.901628 C216.444084,154.12862 221.98295,159.410611 229.175449,159.217955 C236.367948,159.025299 244.652166,157.516158 256.227594,157.516158 C267.947514,157.516158 275.81431,161.883033 276.247786,165.655884 C276.649153,168.850766 275.30056,171.869047 262.264155,172.832328 L262.264155,172.832328 Z M291.034151,127.60628 L290.905714,127.60628 C290.488292,127.60628 290.151144,127.285186 290.151144,126.899874 C290.151144,126.610889 290.327745,126.354014 290.58462,126.241631 C295.898721,123.448116 303.813681,121.20046 312.868523,120.301398 C315.581765,120.012414 318.246843,119.851867 320.799538,119.851867 L322.164186,119.851867 C337.367973,120.20507 349.52137,126.241631 349.344768,133.337802 C349.152112,140.433973 336.709731,145.908621 321.489889,145.587527 C316.59321,145.45909 311.969461,144.752684 308.003954,143.596746 C307.506258,143.484363 307.185165,143.082996 307.185165,142.601356 C307.185165,142.13577 307.506258,141.734403 308.020008,141.605965 C317.476218,139.422528 323.882037,135.826279 323.432506,132.43874 C322.822428,127.959483 310.444266,125.519171 295.738174,126.996202 C294.116651,127.156749 292.559346,127.365459 291.034151,127.60628 L291.034151,127.60628 Z" id="Page-1"></path>
        </g>
    </g>
</svg>