<?xml version="1.0" encoding="UTF-8" standalone="no"?>
<svg width="560px" height="560px" viewBox="0 0 560 560" version="1.1" xmlns="http://www.w3.org/2000/svg" xmlns:xlink="http://www.w3.org/1999/xlink" xmlns:sketch="http://www.bohemiancoding.com/sketch/ns">
    <!-- Generator: bin/sketchtool 1.3 (252) - http://www.bohemiancoding.com/sketch -->
    <title>redis</title>
    <desc>Created with bin/sketchtool.</desc>
    <defs></defs>
    <g id="Page-1" stroke="none" stroke-width="1" fill="none" fill-rule="evenodd" sketch:type="MSPage">
        <g id="redis" sketch:type="MSArtboardGroup" fill="#000000">
            <g id="Group" sketch:type="MSLayerGroup" transform="translate(40.000000, 92.000000)">
                <path d="M477.516279,250.158214 L477.505125,297.491523 C477.507916,302.242236 471.812074,307.454045 458.916176,314.183306 C433.582055,327.407061 302.340455,381.442106 274.399711,396.026988 C246.458967,410.617264 230.937106,410.474744 208.865478,399.908605 C186.793711,389.342467 47.1294784,332.851011 21.9713389,320.809142 C9.39637144,314.789717 2.78518074,309.712045 2.78518074,304.913826 L2.78518074,256.880768 C2.9958706,261.659706 9.41677144,266.734164 21.9713389,272.743249 C47.129618,284.779333 186.79106,341.28194 208.865478,351.842712 C230.937246,362.40885 246.459246,362.551371 274.399711,347.961095 C302.340455,333.376409 433.581944,279.335775 458.916176,266.117413 C471.150288,259.731542 477.255134,254.689445 477.516288,250.158493 L477.516279,250.158214 Z M477.516279,171.79846 L477.505125,219.135403 C477.507916,223.883321 471.812074,229.09513 458.916177,235.824391 C433.582056,249.048146 302.340456,303.083191 274.399711,317.673662 C246.458967,332.258349 230.937107,332.115828 208.865479,321.54969 C186.790921,310.989141 47.1294788,254.492096 21.9713393,242.450227 C9.39637186,236.430802 2.78518116,231.358719 2.78518116,226.5605 L2.78518116,178.52353 C2.99587102,183.302803 9.41677186,188.37659 21.9713393,194.38425 C47.1296184,206.423129 186.79106,262.922941 208.865479,273.483713 C230.937246,284.049852 246.459246,284.192372 274.399711,269.607685 C302.340456,255.01741 433.581944,200.982365 458.916177,187.758414 C471.150288,181.372544 477.255135,176.329775 477.516288,171.798488 L477.516279,171.79846 Z M477.516279,90.5349205 L477.505124,137.872981 C477.507915,142.618105 471.812073,147.829913 458.916176,154.559175 C433.582055,167.78293 302.340455,221.820769 274.39971,236.411241 C246.458966,250.995927 230.937106,250.853407 208.865478,240.287268 C186.79092,229.726719 47.1294779,173.226879 21.9713384,161.187805 C9.39637094,155.16838 2.78518024,150.093503 2.78518024,145.298078 L2.78518024,97.2599901 C2.57251317,92.4590318 8.61874303,87.9552427 21.0001756,83.1000427 C45.711943,73.4085896 184.608734,18.8425578 213.966873,8.29575781 C243.31971,-2.25081863 253.502966,-2.63087342 278.482501,6.53519868 C303.464966,15.6984875 433.922408,67.6935603 458.609199,76.7508809 C471.37731,81.4327647 477.796864,85.6902447 477.516287,90.5349094 L477.516279,90.5349205 Z M249.557302,167.86126 L172.784651,135.975501 L282.794512,119.06854 L249.557302,167.86126 Z M351.027907,117.783173 L343.967386,120.549765 L278.943851,94.8120628 L350.972316,66.2797285 L416.079572,92.0453757 L351.02813,117.783078 L351.027907,117.783173 Z M143.119535,72.547989 C175.592651,72.547989 201.917023,82.7661814 201.917023,95.3709781 C201.917023,107.975775 175.592456,118.193967 143.119535,118.193967 C110.646419,118.193967 84.3220465,107.975775 84.3220465,95.3709781 C84.3220465,82.7661814 110.646614,72.547989 143.119535,72.547989 L143.119535,72.547989 Z M302.35814,60.2154904 L261.222977,64.4911348 L252.013619,86.6797677 L237.139116,61.9201759 L189.641163,57.6445315 L225.083302,44.8455436 L214.450688,25.1999523 L247.632363,38.1945567 L278.916363,27.9386104 L270.460493,48.2548866 L302.35814,60.2154904 Z" id="Shape" sketch:type="MSShapeGroup"></path>
            </g>
        </g>
    </g>
</svg>