<?xml version="1.0" encoding="UTF-8"?>
<svg width="560px" height="560px" viewBox="0 0 560 560" version="1.1" xmlns="http://www.w3.org/2000/svg" >
    
    
    
    
    <g id="Page-1" stroke="none" stroke-width="1"  fill-rule="evenodd">
        <g id="resque" >
            <g id="Group" transform="translate(106.000000, 50.000000)">
                <path d="M347.623519,372.642625 L347.623519,459.603761 L0.0792122762,459.603761 L0.0792122762,372.642625 L347.623519,372.642625 L347.623519,372.642625 Z M347.623519,347.712046 L0.0792122762,347.712046 L0.0792122762,0.356988417 L347.623519,0.356988417 L347.623519,347.712046 L347.623519,347.712046 Z M85.8696675,58.7769884 L188.292921,58.7769884 C211.92132,58.7769884 229.642619,63.8716749 241.456729,74.0610656 C253.270929,84.2504208 259.178029,98.4356486 259.178029,116.61666 C259.178029,126.806015 257.676226,135.247193 254.672621,141.940282 C251.669016,148.6333 248.164808,154.027714 244.159995,158.123402 C240.155183,162.219133 236.200434,165.166055 232.295776,166.964184 C228.391092,168.762314 225.537661,169.961058 223.735492,170.560434 L223.735492,171.159809 C226.939344,171.559392 230.393489,172.558351 234.097971,174.156682 C237.802418,175.755013 241.256572,178.302357 244.46045,181.798712 C247.664302,185.295067 250.317486,189.840329 252.420011,195.434515 C254.522536,201.028683 255.573799,208.021376 255.573799,216.412646 C255.573799,228.999507 256.524943,240.437611 258.42723,250.72687 C260.329517,261.016129 263.283058,268.358457 267.28787,272.753943 L227.039579,272.753943 C224.236212,268.158739 222.584227,263.064017 222.083632,257.469866 C221.583031,251.875698 221.33273,246.481283 221.33273,241.286746 C221.33273,231.496916 220.732009,223.055739 219.530561,215.963125 C218.329116,208.87052 216.126472,202.97665 212.922629,198.281542 C209.718777,193.586434 205.363553,190.14003 199.856964,187.942287 C194.350349,185.744579 187.29185,184.645721 178.681565,184.645721 L123.41516,184.645721 L123.41516,272.753837 L85.8700538,272.753837 L85.8700538,58.7765781 L85.8696675,58.7769884 Z M123.414506,156.175328 L184.988434,156.175328 C197.002889,156.175328 206.113814,153.328292 212.321297,147.634229 C218.528754,141.940166 221.632478,133.399094 221.632478,122.010986 C221.632478,115.218065 220.631279,109.673839 218.628873,105.378345 C216.626467,101.082824 213.873164,97.7363154 210.368955,95.3388008 C206.864746,92.9413039 202.859934,91.3429637 198.3545,90.5437981 C193.849092,89.7446315 189.193466,89.3450452 184.387684,89.3450452 L123.414435,89.3450452 L123.414435,156.175408 L123.414506,156.175328 Z" id="Shape"></path>
            </g>
        </g>
    </g>
</svg>