<?xml version="1.0" encoding="UTF-8" standalone="no"?>
<svg width="560px" height="560px" viewBox="0 0 560 560" version="1.1" xmlns="http://www.w3.org/2000/svg" xmlns:xlink="http://www.w3.org/1999/xlink">
    <!-- Generator: sketchtool 3.8.2 (29753) - http://www.bohemiancoding.com/sketch -->
    <title>riak</title>
    <desc>Created with sketchtool.</desc>
    <defs></defs>
    <g id="Page-1" stroke="none" stroke-width="1" fill="none" fill-rule="evenodd">
        <g id="riak" fill="#000000">
            <g id="Group" transform="translate(45.000000, 40.000000)">
                <path d="M261.482147,474.353577 C260.360696,474.353577 259.238698,474.310325 258.115024,474.292991 C259.24978,474.310326 260.377882,474.353577 261.51264,474.353577 L261.48215,474.353577 L261.482147,474.353577 Z M323.434888,430.881803 C303.025971,438.777925 282.109781,442.498817 261.512328,442.498817 C192.714116,442.481483 127.742644,400.870648 101.415639,332.906299 C98.7586439,326.042461 96.6127516,319.125972 94.8848448,312.175842 C98.4620628,293.679346 109.300152,257.190963 132.494195,318.36238 C132.494195,318.36238 145.003657,353.33234 166.240262,367.075484 C166.240262,367.075484 143.749741,117.297005 266.265503,187.243146 C266.265503,187.243146 342.815726,241.521952 330.630496,163.128892 C330.630496,163.128892 320.605071,86.64096 394.9335,163.085696 C405.868618,176.595167 414.922307,191.989268 421.535661,209.05969 C429.430717,229.437921 433.150968,250.337392 433.155394,270.917358 C433.138209,339.659848 391.479338,404.587217 323.435132,430.881752 L323.434888,430.881803 Z M258.840216,365.338141 C342.877984,417.60338 342.877984,317.806377 342.877984,317.806377 C322.975663,333.72818 227.333158,341.682524 227.333158,341.682524 C227.471745,366.317882 249.448367,359.475651 258.840216,365.338276 L258.840216,365.338141 Z M375.617086,305.144789 C392.951104,377.182377 413.572919,318.920654 419.055467,281.841803 C419.205142,280.92692 418.990608,279.931741 419.469012,279.159184 C425.413316,268.67182 420.677495,257.331624 420.677495,257.331624 C411.818418,291.083736 375.617142,305.144762 375.617142,305.144762 L375.617086,305.144789 Z M455.944241,195.756169 L455.857763,195.541847 L455.851111,195.524679 C440.333691,155.665749 413.426192,122.022211 378.040828,98.2242171 C343.379017,74.9206903 303.073328,62.6030791 261.477667,62.6030791 L261.426112,62.6030791 C235.668232,62.6030791 210.362674,67.3513878 186.181426,76.7123749 C146.169028,92.1994734 112.392373,119.1126 88.5293207,154.541062 C65.2033163,189.177592 52.871237,229.460138 52.8819293,271.030302 C52.8819293,296.740589 57.6286619,322.042809 67.0048913,346.221828 C82.5155439,386.182031 109.446999,419.903721 144.912758,443.74309 C179.572403,467.041749 219.882017,479.361659 261.482145,479.361659 C287.278869,479.361659 312.586592,474.613242 336.754577,465.261288 C376.778614,449.763372 410.544171,422.849704 434.407223,387.415158 C457.737017,352.76984 470.063006,312.489457 470.054209,270.917671 C470.054209,245.204544 465.307868,219.917873 455.944375,195.756026 L455.944241,195.756169 Z M85.8817069,133.634704 C83.5492147,136.708732 81.294979,139.856275 79.1203395,143.075534 L77.4096079,145.617492 L74.3673404,145.245336 L39.4303741,141.02258 C27.3429305,140.860316 4.3893275,133.558972 1.98790422,106.883358 C-0.679904741,77.1967775 4.23994741,38.8198986 4.43484397,37.3550197 C4.48681435,36.8145073 5.76442012,24.5660485 13.3282578,15.7179718 L13.3282578,15.5861667 L14.8029345,14.1147165 C23.6985409,5.26937118 37.4727871,3.83945794 37.8885664,3.80455991 C38.910677,3.67275475 63.1893871,0.548753713 88.1701172,0.548753713 C95.315688,0.548753713 101.866472,0.812917318 107.645561,1.33016937 C134.345306,3.72259754 141.644994,26.6705187 141.816205,38.746237 L146.394027,76.488975 L146.777083,79.6932792 L144.011988,81.3674246 C140.69018,83.3810313 137.437288,85.4749942 134.254371,87.6485694 L134.072774,85.9880804 C134.072774,85.9880804 134.150383,71.314548 119.808783,70.1725536 C105.437192,69.0256267 86.3510002,71.6888668 86.3510002,71.6888668 C86.3510002,71.6888668 80.2658967,72.3312786 76.4741437,76.1215113 C72.6829456,79.9073051 72.0376756,85.9880668 72.0376756,85.9880668 C72.0376756,85.9880668 69.3607174,105.05556 70.5453636,119.402287 C71.5514114,132.185498 83.3419192,133.499819 85.881692,133.634625 L85.8817069,133.634704 Z" id="Shape"></path>
            </g>
        </g>
    </g>
</svg>