<?xml version="1.0" encoding="UTF-8" standalone="no"?>
<svg width="560px" height="560px" viewBox="0 0 560 560" version="1.1" xmlns="http://www.w3.org/2000/svg" xmlns:xlink="http://www.w3.org/1999/xlink">
    <!-- Generator: sketchtool 3.8.2 (29753) - http://www.bohemiancoding.com/sketch -->
    <title>router</title>
    <desc>Created with sketchtool.</desc>
    <defs></defs>
    <g id="Page-1" stroke="none" stroke-width="1" fill="none" fill-rule="evenodd">
        <g id="router" fill="#000000">
            <path d="M469.725773,523.326264 L86.6989885,523.326264 C63.6847434,523.326264 45,504.641521 45,481.627276 L45,295.309989 C45,272.306019 63.6680693,253.627404 86.6989885,253.611181 L391.776536,253.611181 L391.776536,128.72476 C391.776536,123.790123 395.774719,119.782927 400.73279,119.767605 L418.646197,119.767605 C423.605169,119.782927 427.603352,123.790123 427.603352,128.72476 L427.603352,253.611181 L469.725773,253.611181 C492.756782,253.627404 511.424581,272.306019 511.424581,295.309989 L511.424581,481.627276 C511.424581,504.621061 492.773006,523.292916 469.725773,523.326264 L469.725773,523.326264 Z M265.497601,451.289309 L239.421989,425.213966 L239.421989,465.329905 L279.538108,505.445844 L319.654227,465.329905 L319.654227,425.213966 L293.578615,451.289309 L293.578615,409.270808 L265.497601,409.270808 L265.497601,451.289309 Z M391.707136,430.896685 L365.631523,404.821073 L479.653631,404.821073 L479.653631,376.74006 L365.631523,376.74006 L391.707136,350.664447 L351.591017,350.664447 L311.474898,390.780566 L351.591017,430.896685 L391.707136,430.896685 Z M203.629423,430.896685 L243.745542,390.780566 L203.629423,350.664447 L163.513304,350.664447 L189.588916,376.74006 L75.5668983,376.74006 L75.5668983,404.821073 L189.588916,404.821073 L163.513304,430.896685 L203.629423,430.896685 Z M293.578615,373.274547 L293.578615,331.254875 L319.654227,357.330488 L319.654227,317.214369 L279.538108,277.099151 L239.421989,317.214369 L239.421989,357.330488 L265.497601,331.254875 L265.497601,373.274547 L293.578615,373.274547 Z M342.254413,37 L342.254413,51.5740782 C320.369862,60.4825624 304.399665,93.5216462 304.399665,126.189393 C304.399665,158.85714 320.369862,191.220246 342.254413,200.12873 L342.254413,215.378786 C312.448305,205.986302 290.204134,169.59527 290.204134,126.189393 C290.204134,82.7835158 312.448305,46.3924842 342.254413,37 L342.254413,37 Z M476.949721,37 L476.949721,51.5740782 C498.834272,60.4825624 514.804469,93.5216462 514.804469,126.189393 C514.804469,158.85714 498.834272,191.220246 476.949721,200.12873 L476.949721,215.378786 C506.755829,205.986302 529,169.59527 529,126.189393 C529,82.7835158 506.755829,46.3924842 476.949721,37 L476.949721,37 Z M374.201117,60.6592179 L374.201117,75.3405512 C352.316566,81.8867188 336.346369,102.18768 336.346369,126.189393 C336.346369,150.191106 352.316566,170.492067 374.201117,177.038235 L374.201117,191.719568 C344.395009,184.818287 322.150838,158.081117 322.150838,126.189393 C322.150838,94.2976685 344.395009,67.5604991 374.201117,60.6592179 L374.201117,60.6592179 Z M445.003017,60.6592179 L445.003017,75.3405512 C466.888469,81.8867188 482.857765,102.18768 482.857765,126.189393 C482.857765,150.191106 466.888469,170.492067 445.003017,177.038235 L445.003017,191.719568 C474.810026,184.818287 497.053296,158.081117 497.053296,126.189393 C497.053296,94.2976685 474.810026,67.5604991 445.003017,60.6592179 L445.003017,60.6592179 Z" id="Page-1"></path>
        </g>
    </g>
</svg>