<?xml version="1.0" encoding="UTF-8"?>
<svg width="560px" height="560px" viewBox="0 0 560 560" version="1.1" xmlns="http://www.w3.org/2000/svg" xmlns:xlink="http://www.w3.org/1999/xlink">
    <!-- Generator: sketchtool 40.3 (33839) - http://www.bohemiancoding.com/sketch -->
    <title>rpi</title>
    <desc>Created with sketchtool.</desc>
    <defs></defs>
    <g id="Page-1" stroke="none" stroke-width="1" fill="none" fill-rule="evenodd">
        <g id="rpi" fill="#000000">
            <path d="M281.286376,455.107883 C303.214546,454.150835 332.638547,462.171145 332.696223,472.810302 C333.060184,483.141631 306.011148,506.484198 279.831741,506.032852 C252.719463,507.202394 226.133643,483.82368 226.481709,475.720242 C226.0759,463.839046 259.495017,454.56268 281.286376,455.107883 L281.286376,455.107883 Z M359.15529,386.091553 C342.263684,405.877004 332.857849,441.96322 345.180332,453.585546 C356.962272,462.615114 388.590692,461.352955 411.954049,428.935216 C428.918756,407.162635 423.234345,370.802124 413.544021,361.146138 C399.149237,350.012043 378.484567,364.261229 359.155156,386.086187 L359.15529,386.091553 L359.15529,386.091553 Z M200.292243,392.053611 C215.904252,410.862599 223.021167,443.907428 209.992492,453.648587 C197.666657,461.084696 167.733634,458.02225 146.458003,427.458449 C132.109494,401.811537 133.95847,375.713278 144.033008,368.046433 C159.09844,358.869288 182.375954,371.264871 200.29298,392.053611 L200.292243,392.053611 L200.292243,392.053611 Z M335.629704,388.875881 C335.63024,388.964339 335.630508,389.052798 335.630508,389.141256 C335.630508,416.753167 310.990372,439.474312 281.046485,439.474312 C251.102598,439.474312 226.462529,416.753167 226.462529,389.141256 C226.462529,389.052798 226.462797,388.964339 226.463267,388.875881 C226.462797,388.787423 226.462529,388.698964 226.462529,388.610506 C226.462529,360.998595 251.102598,338.27745 281.046485,338.27745 C310.990372,338.27745 335.630508,360.998595 335.630508,388.610506 C335.630508,388.698964 335.63024,388.787423 335.629704,388.875881 L335.629704,388.875881 Z M136.426454,269.31836 C160.84474,262.772838 144.670056,370.338036 124.802116,361.512311 C102.947716,343.934633 95.9085972,292.455709 136.426454,269.31836 L136.426454,269.31836 Z M249.462931,245.092282 C271.928291,259.810787 276.039093,293.676086 258.569456,320.112419 C241.099819,346.548751 208.238279,356.191123 185.772986,341.472618 C163.307627,326.754112 159.196824,292.88888 176.666461,266.452481 C194.136098,240.016149 226.997639,230.373843 249.462931,245.092282 L249.462931,245.092282 Z M310.507841,242.409691 C288.042482,257.128196 283.931679,290.993495 301.401316,317.429827 C318.870953,343.86616 351.732494,353.508532 374.197786,338.790026 C396.663146,324.071521 400.773948,290.206289 383.304311,263.76989 C365.834674,237.333557 332.973134,227.691252 310.507841,242.409691 L310.507841,242.409691 Z M418.614923,267.977064 C394.193955,261.433621 410.37132,369.003447 430.239261,360.177722 C452.093661,342.598032 459.13278,291.114413 418.614923,267.977064 L418.614923,267.977064 Z M335.649085,187.874893 C377.789239,180.75932 412.854059,205.795943 411.438992,251.491201 C410.05283,269.009191 320.123589,190.483042 335.649085,187.874893 L335.649085,187.874893 Z M219.217923,186.533597 C177.074416,179.418024 142.01295,204.460013 143.428017,250.151246 C144.814246,267.668566 234.743419,189.142417 219.217923,186.533597 L219.217923,186.533597 Z M279.750592,175.877004 C254.599288,175.222787 230.461333,194.543814 230.402987,205.750339 C230.332837,219.367172 250.288364,233.309268 279.921608,233.6627 C310.183248,233.879453 329.493209,222.503121 329.590453,208.450367 C329.700976,192.529188 302.067739,175.630876 279.749922,175.876333 L279.750592,175.877004 L279.750592,175.877004 Z M159.604176,85.5661646 C195.029535,97.6087186 226.997303,113.66007 253.767082,135.73813 C285.240247,120.861821 263.54412,83.34176 248.189639,68.4453314 C247.411084,72.3788818 246.529249,74.865845 245.522138,75.5991313 C240.522458,70.1588365 236.437945,64.58743 230.002007,59.352018 C229.981082,62.4269381 231.529943,65.7634779 227.698264,68.2032275 C224.247782,63.4905855 219.58356,59.2840814 213.390665,55.7144244 C216.373505,60.9364905 213.903039,62.5227737 212.299386,64.6870212 C207.569308,60.5699144 203.076638,56.3991558 194.354193,53.1686454 C196.739017,56.1172826 200.070594,58.9960382 196.536682,62.383346 C191.665767,59.2954824 186.764673,56.2117768 175.19667,54.0170149 C177.803545,56.9673957 183.193071,59.9178436 179.925407,62.8682244 C173.80977,60.4968138 167.043604,58.7753951 159.555822,57.7757275 C163.141239,60.7694992 166.131993,63.7017725 163.193281,66.0206714 C156.64843,63.976671 147.632911,61.2234607 138.821941,63.595676 L144.399383,69.2943715 C145.018391,70.056898 131.35193,69.8878948 122.331718,70.0220243 C125.623928,74.6642483 128.98052,79.1448462 130.936799,87.1148244 C130.042826,88.0343496 125.572556,87.5234501 121.357937,87.1148244 C125.679591,96.351254 133.185884,98.6824928 134.937884,102.634956 C132.297544,104.664269 128.634868,104.136066 124.631369,102.756209 C127.742504,109.263504 134.268041,113.722507 139.423847,119.003322 C138.120108,119.94243 135.843259,120.502957 130.45125,119.852094 C135.214862,124.991938 140.96969,129.691369 147.790178,133.916919 C146.582342,135.333797 142.428483,135.277529 138.575478,135.37189 C144.753485,141.510329 152.705356,144.693089 160.157594,148.709062 C156.44301,151.285356 153.787312,150.684187 150.942893,150.649045 C156.213514,155.044873 165.175381,157.331581 173.495437,159.985133 C171.913111,162.481552 170.330784,163.164271 166.94797,163.865098 C175.754246,168.812467 188.368125,166.55064 191.925576,169.078848 C191.066745,171.565543 188.6447,173.183884 185.741868,174.535038 C199.919362,175.370665 238.692194,174.011262 246.124312,144.222428 C231.618,128.04352 205.143172,109.048427 159.604176,85.5661646 L159.541068,85.5441673 L159.55039,85.5380644 L159.604176,85.5661646 L159.604176,85.5661646 Z M401.329781,85.5428931 C355.75752,109.046214 329.279809,128.038356 314.77182,144.222428 C322.203939,174.011262 360.97677,175.370665 375.154264,174.535038 C372.251432,173.183884 369.829388,171.565543 368.970556,169.078848 C372.528007,166.55064 385.141886,168.812467 393.948162,163.865098 C390.565348,163.164271 388.983021,162.481552 387.400695,159.985133 C395.720751,157.331581 404.682618,155.044873 409.953239,150.649045 C407.10882,150.684187 404.453122,151.285356 400.738538,148.709062 C408.190776,144.693089 416.142647,141.510329 422.320654,135.37189 C418.467649,135.277529 414.313791,135.333797 413.105954,133.916919 C419.926442,129.691369 425.681271,124.991938 430.444882,119.852094 C425.052874,120.502957 422.776024,119.94243 421.472285,119.003322 C426.628091,113.722507 433.153628,109.263504 436.264763,102.756209 C432.261264,104.136066 428.598588,104.664269 425.958248,102.634956 C427.710248,98.6824928 435.216541,96.351254 439.538195,87.1148244 C435.323576,87.5234501 430.853306,88.0343496 429.959333,87.1148244 C431.919167,79.1414929 435.275893,74.6608951 438.567768,70.0186711 C429.547555,69.8846756 415.881094,70.053746 416.500102,69.2911524 L422.077545,63.5924569 C413.266574,61.2202416 404.251056,63.9734519 397.706204,66.0174522 C394.767493,63.6985534 397.758246,60.7662801 401.343664,57.7725084 C393.855881,58.772176 387.089715,60.4935947 380.974078,62.8650053 C377.706414,59.9146245 383.095941,56.9641766 385.702816,54.0137958 C374.134812,56.2085577 369.233718,59.2922633 364.362803,62.3801269 C360.828892,58.9928191 364.160469,56.1140634 366.545292,53.1654263 C357.822847,56.3959367 353.330178,60.5666953 348.600099,64.6838021 C346.996446,62.5195546 344.525981,60.9332714 347.508821,55.7112053 C341.315925,59.2808623 336.651704,63.4873664 333.201221,68.2000084 C329.369542,65.7602588 330.918403,62.423719 330.897479,59.3487989 C324.46154,64.5842109 320.377027,70.1556174 315.377348,75.5959122 C314.370236,74.8626259 313.488401,72.3756627 312.709846,68.4421123 C297.355365,83.3385409 275.659238,120.858602 307.132404,135.734911 C333.888098,113.652156 365.853855,97.6021463 401.329781,85.5428931 L401.339036,85.5380644 L401.345005,85.537595 L401.329781,85.5428931 L401.329781,85.5428931 Z M193.74672,41.0071855 C191.319445,41.0824993 188.705327,41.9791554 185.740527,44.318509 C178.477411,41.5176826 171.43561,40.5447068 165.138227,46.2466884 C155.413834,44.9853341 152.253742,47.5881181 149.859529,50.6268233 C147.724857,50.5825605 133.885369,48.4324637 127.539029,57.8993279 C111.590354,56.012125 106.549766,67.2803491 112.261002,77.7880586 C109.003733,82.8306593 105.628631,87.8122311 113.24605,97.4252965 C110.551387,102.779413 112.221702,108.587558 118.569316,115.616618 C116.894105,123.143298 120.186986,128.453487 126.093314,132.592054 C124.98869,142.891863 135.538717,148.880077 138.68875,151.014078 C139.898397,157.015504 142.419497,162.678655 154.469763,165.80991 C156.457027,174.753669 163.699218,176.298171 170.712182,178.175314 C147.533253,191.648628 127.655923,209.375861 127.790724,252.872064 L124.395569,258.928819 C97.8177973,275.09143 73.9058505,327.039808 111.297818,369.263792 C113.74025,382.480919 117.836366,391.974609 121.483616,402.481648 C126.938531,444.820313 162.539333,464.645299 171.929072,466.989884 C185.688753,477.470767 200.343078,487.415803 220.174133,494.381822 C238.86844,513.662275 259.121332,521.010565 279.484882,520.998493 C279.783454,520.998305 280.087459,521.001847 280.386098,520.998493 C300.749648,521.011169 321.001869,513.662946 339.696847,494.381822 C359.527232,487.415803 374.182227,477.470767 387.941908,466.989884 C397.331647,464.645366 432.932314,444.820313 438.387363,402.481648 C442.034279,391.974609 446.130663,382.480919 448.573162,369.263792 C485.964459,327.036455 462.053183,275.084724 435.47474,258.922112 L432.074556,252.866163 C432.209155,209.373312 412.332026,191.646079 389.153098,178.169412 C396.166061,176.292671 403.408387,174.74817 405.395516,165.804008 C417.445716,162.672217 419.967351,157.009133 421.176529,151.008177 C424.327098,148.874645 434.876522,142.885961 433.771965,132.586153 C439.678159,128.447183 442.971241,123.136725 441.295963,115.610716 C447.643577,108.581657 449.314228,102.773847 446.61923,97.4193948 C454.237789,87.8103533 450.857724,82.8287815 447.605082,77.7861808 C453.312295,67.2784713 448.27573,56.0102472 432.321019,57.89745 C425.976691,48.4305859 412.141227,50.5806827 410.001861,50.6249454 C407.607648,47.5862403 404.448897,44.9834563 394.724504,46.2448106 C388.427121,40.542829 381.38532,41.5158048 374.122204,44.3166982 C365.497673,37.5109645 359.790461,42.966483 353.271764,45.0291944 C342.829778,41.6171397 340.442272,46.2906829 335.311817,48.1938472 C323.924217,45.7874959 320.463675,51.0266635 315.004602,56.5561545 L308.654372,56.430408 C291.478411,66.5524951 282.94576,87.1635135 279.921138,97.7590779 C276.895108,87.1615015 268.381972,66.5504831 251.209365,56.430408 L244.859135,56.5561545 C239.393356,51.0266635 235.932813,45.787563 224.545214,48.1938472 C219.414758,46.2906829 217.033959,41.6171397 206.585266,45.0291944 C202.306734,43.6754919 198.371843,40.8615208 193.738337,41.0053077 L193.74672,41.0071855 L193.74672,41.0071855 Z" id="Page-1"></path>
        </g>
    </g>
</svg>