<?xml version="1.0" encoding="UTF-8"?>
<svg width="560px" height="560px" viewBox="0 0 560 560" version="1.1" xmlns="http://www.w3.org/2000/svg" xmlns:xlink="http://www.w3.org/1999/xlink">
    <!-- Generator: sketchtool 40.3 (33839) - http://www.bohemiancoding.com/sketch -->
    <title>s3</title>
    <desc>Created with sketchtool.</desc>
    <defs></defs>
    <g id="Page-1" stroke="none" stroke-width="1" fill="none" fill-rule="evenodd">
        <g id="s3" fill="#000000">
            <path d="M210.705569,384.332569 L205.637472,383.070139 L279.777194,369.465833 L353.937333,383.070139 L350.793167,383.852778 L353.930528,383.076944 L353.930528,487.936944 L279.777194,525 L205.630667,487.936944 L205.630667,383.076944 L210.705569,384.332569 Z M449.807194,120.015 L482.480667,136.348333 L482.480667,423.005139 L449.807194,439.331667 L449.807194,120.015 Z M366.922333,140.081861 L449.800389,120.015 L449.800389,439.243194 L366.908042,419.185861 L366.908042,371.847778 L363.221472,372.759722 L366.916208,371.840292 L279.775833,355.854722 L192.659958,371.840292 L198.614819,373.323222 L192.651792,371.847778 L192.651792,419.183819 L109.747194,439.243194 L109.747194,439.331667 L77.0873333,423.005139 L77.0873333,136.348333 L109.747194,120.015 L192.652472,140.087986 L192.652472,188.180806 L279.775153,204.063611 L366.922333,188.180806 L366.922333,140.081861 Z M192.026361,342.108861 L192.026361,218.008875 L279.775153,206.998167 L367.548444,218.008875 L367.548444,342.108861 L279.775153,353.280861 L192.026361,342.108861 Z M205.637472,332.498056 L205.637472,227.644861 L279.777194,218.341667 L353.937333,227.644861 L353.937333,332.498056 L279.777194,341.937361 L205.637472,332.498056 Z M279.777194,190.4525 L205.637472,176.936667 L205.637472,72.0766667 L279.777194,35 L353.937333,72.0766667 L353.937333,176.936667 L279.777194,190.4525 Z" id="Page-1"></path>
        </g>
    </g>
</svg>