<?xml version="1.0" encoding="UTF-8" standalone="no"?>
<svg width="560px" height="560px" viewBox="0 0 560 560" version="1.1" xmlns="http://www.w3.org/2000/svg" xmlns:xlink="http://www.w3.org/1999/xlink" xmlns:sketch="http://www.bohemiancoding.com/sketch/ns">
    <!-- Generator: sketchtool 3.4 (375) - http://www.bohemiancoding.com/sketch -->
    <title>salesforce</title>
    <desc>Created with sketchtool.</desc>
    <defs></defs>
    <g id="Page-1" stroke="none" stroke-width="1" fill="none" fill-rule="evenodd" sketch:type="MSPage">
        <g id="salesforce" sketch:type="MSArtboardGroup" fill="#000000">
            <g id="Group" sketch:type="MSLayerGroup" transform="translate(40.000000, 142.000000)">
                <g transform="translate(0.090821, 0.154150)" id="Shape" sketch:type="MSShapeGroup">
                    <path d="M332.446753,64.9712924 C330.156386,64.2647703 328.077439,63.7878648 325.364236,63.2756392 C322.615797,62.7810713 319.338821,62.5337921 315.621387,62.5337921 C302.654386,62.5337921 292.435852,66.2077123 285.265247,73.4495634 C278.129886,80.6560753 273.284859,91.6248724 270.853546,106.055587 L269.972639,110.912954 L253.693446,110.912954 C253.693446,110.912954 251.720209,110.842302 251.297373,112.997196 L248.637027,127.957833 C248.443227,129.370877 249.059864,130.271696 250.962629,130.271696 L266.801383,130.271696 L250.73361,220.212237 C249.482719,227.454083 248.038024,233.406532 246.434772,237.928293 C244.866754,242.379385 243.333972,245.717704 241.431215,248.155209 C239.598924,250.486735 237.872339,252.217713 234.877225,253.224487 C232.410677,254.054652 229.556514,254.44324 226.438096,254.44324 C224.711511,254.44324 222.403531,254.160631 220.694544,253.807368 C219.003198,253.471769 218.104668,253.100845 216.818541,252.55329 C216.818541,252.55329 214.968633,251.846768 214.228666,253.701388 C213.647266,255.238074 209.418884,266.87804 208.907954,268.308728 C208.414643,269.739434 209.119373,270.852207 210.0179,271.187808 C212.132082,271.929656 213.700105,272.424223 216.571891,273.113083 C220.553603,274.049227 223.918672,274.102214 227.072334,274.102214 C233.661521,274.102214 239.686983,273.166071 244.672894,271.364438 C249.67645,269.545143 254.045793,266.383472 257.921757,262.109004 C262.097268,257.481283 264.722364,252.641612 267.224166,246.017951 C269.708332,239.482603 271.840131,231.357586 273.531491,221.890194 L289.687399,130.271864 L313.295775,130.271864 C313.295775,130.271864 315.286629,130.342516 315.691847,128.16996 L318.369811,113.227015 C318.545993,111.796308 317.946974,110.913152 316.026591,110.913152 L293.10532,110.913152 C293.228648,110.400921 294.268119,102.311239 296.89323,94.6984518 C298.020794,91.4661123 300.13498,88.8343153 301.914433,87.0326874 C303.676253,85.2663795 305.702342,84.012302 307.922249,83.2881174 C310.194994,82.5462703 312.784874,82.1930068 315.621382,82.1930068 C317.770804,82.1930068 319.902603,82.4402898 321.505865,82.775887 C323.725757,83.2527896 324.589048,83.5000716 325.170452,83.6767058 C327.513672,84.383228 327.830798,83.6943689 328.288874,82.5639328 L333.768115,67.4796493 C334.331897,65.8546459 332.94006,65.1657861 332.446748,64.9714944 L332.446753,64.9712924 Z M145.89986,209.578906 C145.124658,211.61016 146.181751,212.034073 146.428407,212.387332 C148.754009,214.082985 151.114847,215.301738 153.493326,216.661795 C166.107975,223.373768 178.017873,225.334377 190.473897,225.334377 C215.844079,225.334377 231.594744,211.804476 231.594744,190.025911 L231.594744,189.601997 C231.594744,169.466079 213.818009,162.153612 197.133574,156.872327 L194.966534,156.165804 C182.38713,152.067971 171.534334,148.535374 171.534334,140.233733 L171.534334,139.792156 C171.534334,132.6916 177.876904,127.46334 187.707841,127.46334 C198.631126,127.46334 211.598127,131.101931 219.94912,135.729647 C219.94912,135.729647 222.39805,137.319321 223.296575,134.934808 C223.789887,133.663068 228.018251,122.252743 228.458709,121.016324 C228.9344,119.673929 228.088727,118.684798 227.225435,118.154905 C217.694007,112.343746 204.515585,108.36955 190.879078,108.36955 L188.34206,108.387213 C165.12128,108.387213 148.912529,122.447036 148.912529,142.600597 L148.912529,143.024511 C148.912529,164.273202 166.794999,171.1618 183.549924,175.966141 L186.24551,176.796305 C198.454916,180.558538 208.990605,183.790858 208.990605,192.410462 L208.990605,192.834376 C208.990605,200.712099 202.137106,206.576236 191.108135,206.576236 C186.826914,206.576236 173.172822,206.487921 158.426369,197.144178 C156.646931,196.102055 155.589837,195.37787 154.250858,194.512381 C153.792785,194.212109 151.643365,193.381946 150.903402,195.660479 L145.89986,209.578906 Z M199.587453,36.9030384 C215.036883,20.7643439 236.545918,10.755492 260.334066,10.755492 C291.956236,10.755492 319.545255,28.4334736 334.237283,54.6767837 C347.004899,48.9574466 361.137279,45.776234 376.006633,45.776234 C433.041279,45.776234 479.28,92.5366906 479.28,150.215947 C479.28,207.902078 433.040943,254.662391 376.006633,254.662391 C369.046202,254.662391 362.242717,253.964575 355.664464,252.630516 C342.726282,275.767898 318.071353,291.400323 289.772595,291.400323 C277.926234,291.400323 266.721327,288.656951 256.744711,283.779075 C243.629107,314.708705 213.071473,336.395784 177.457439,336.395784 C140.369311,336.395784 108.760855,312.868473 96.628028,279.872568 C91.3258262,281.001388 85.8325355,281.589739 80.195964,281.589739 C36.0382178,281.589739 0.23976024,245.330702 0.23976024,200.595322 C0.23976024,170.616648 16.3237882,144.441796 40.2212667,130.437307 C35.3011948,119.08757 32.5648112,106.561073 32.5648112,93.391536 C32.5648112,41.9449526 74.224975,0.240120913 125.609526,0.240120913 C155.778174,0.240120913 182.589506,14.6205984 199.588028,36.9027884 L199.587453,36.9030384 Z"></path>
                </g>
            </g>
        </g>
    </g>
</svg>