<?xml version="1.0" encoding="UTF-8" standalone="no"?>
<svg width="560px" height="560px" viewBox="0 0 560 560" version="1.1" xmlns="http://www.w3.org/2000/svg" xmlns:xlink="http://www.w3.org/1999/xlink">
    <!-- Generator: sketchtool 3.8.2 (29753) - http://www.bohemiancoding.com/sketch -->
    <title>salt</title>
    <desc>Created with sketchtool.</desc>
    <defs></defs>
    <g id="Page-1" stroke="none" stroke-width="1" fill="none" fill-rule="evenodd">
        <g id="salt" fill="#000000">
            <g id="Group" transform="translate(69.000000, 60.000000)">
                <path d="M199.692373,220.331009 L195.650971,222.661596 L195.650971,431.703309 L376.897041,327.182587 L376.897041,227.840948 L284.414019,281.173927 L284.381307,281.155062 L281.739241,282.729199 L281.783578,279.618776 L281.783578,173.133259 L199.692345,220.473492 L199.692345,220.33125 L199.692373,220.331009 Z M331.178016,226.928318 L417.31065,177.257431 L417.31065,77.915792 L331.178016,127.586544 L331.178016,226.928183 L331.178016,226.928318 Z M191.159627,439.613823 L0.932216561,329.914018 L0.932216561,110.514141 L191.159627,0.814336391 L271.480592,47.1336881 L266.990137,49.7232428 L191.159574,5.99343242 L9.91350344,110.514154 L191.159574,215.034876 L191.159593,215.034865 L195.526691,217.553279 L281.659325,167.882527 L193.790101,117.21027 L193.790057,117.21027 L184.809188,112.031201 L182.090066,110.514277 L184.809188,108.997354 L231.573589,82.0292556 L231.573589,70.1472508 L326.68716,15.2974159 L421.80073,70.1472508 L421.80073,179.847055 L326.68716,234.69689 L290.314548,213.721538 L290.314548,162.530566 L290.19122,162.601687 L231.573658,128.798249 L231.573658,87.2081575 L191.159645,110.514029 L286.149819,165.292818 L286.273147,165.221697 L286.273147,274.921502 L376.803365,222.714761 L362.10371,214.272897 L366.594152,211.683356 L381.386758,220.071653 L381.386758,329.913684 L191.159347,439.613488 L191.159627,439.613823 Z M417.311054,72.7372477 L412.820613,70.1477064 L412.820637,70.1476925 L326.688003,20.4769402 L240.555369,70.1476925 L326.688003,119.818579 L326.68801,119.818575 L331.178451,122.408116 L417.311086,72.7373642 L417.311054,72.7372477 Z" id="Shape"></path>
            </g>
        </g>
    </g>
</svg>