<?xml version="1.0" encoding="UTF-8" standalone="no"?>
<svg width="560px" height="560px" viewBox="0 0 560 560" version="1.1" xmlns="http://www.w3.org/2000/svg" xmlns:xlink="http://www.w3.org/1999/xlink">
    <!-- Generator: sketchtool 3.8.2 (29753) - http://www.bohemiancoding.com/sketch -->
    <title>service</title>
    <desc>Created with sketchtool.</desc>
    <defs></defs>
    <g id="Page-1" stroke="none" stroke-width="1" fill="none" fill-rule="evenodd">
        <g id="service" fill="#0B0B0B">
            <g id="Group" transform="translate(48.000000, 80.000000)">
                <path d="M216.052414,229.996338 L162.183172,230.009293 C169.111733,243.76518 191.743724,267.418515 223.346299,261.183599 C232.643126,260.569906 256.625563,253.277391 269.765057,256.41767 C287.210391,260.596022 287.575724,262.143308 318.780414,287.206878 L440.84846,381.732248 C450.406253,390.186869 464.974437,389.27938 473.42308,379.727951 C481.858703,370.176493 480.951844,355.57845 471.420184,347.149898 L309.469839,221.03264 C297.080598,211.095992 286.185425,192.848392 281.918667,177.088244 C273.626575,149.889885 248.469747,129.781573 218.602621,129.781573 C194.554897,129.781573 171.772828,143.681102 162.215126,161.928702 L215.249241,162.052695 L236.08823,196.43266 L216.051724,229.996601 L216.052414,229.996338 Z M222.873563,195.942948 L209.002575,219.985063 L181.260598,219.985063 L167.389609,195.942948 L181.260598,171.900834 L209.002575,171.900834 L222.873563,195.942948 L222.873563,195.942948 Z M319.555862,305.568601 C313.174299,312.822211 306.167172,319.50825 298.613701,325.54781 L308.734069,354.586453 C298.349793,362.032953 287.259494,368.440432 275.62308,373.716513 L255.552736,350.42656 C244.089839,354.916193 232.162943,358.11425 219.992644,359.961546 L214.248009,390.173519 C201.534354,391.426585 188.728377,391.426585 176.014722,390.173519 L170.270087,359.961546 C158.099697,358.114223 146.1728,354.916165 134.709995,350.42656 L114.639651,373.716513 C103.003237,368.440395 91.9129379,362.032888 81.5286621,354.586453 L91.6490299,325.54781 C82.0322023,317.858509 73.3010759,309.121262 65.6172138,299.497662 L36.5990069,309.625157 C29.1577471,299.233568 22.754777,288.135459 17.4824092,276.490851 L40.7559724,256.406372 C36.2694989,244.935403 33.073692,233.000107 31.2276966,220.821238 L1.03698391,215.072558 C-0.2152,202.349949 -0.2152,189.534954 1.03698391,176.812345 L31.2276966,171.063665 C33.0737195,158.884704 36.2695264,146.949408 40.7559724,135.478531 L17.4824092,115.394052 C22.7548138,103.749444 29.1578115,92.6513348 36.5990069,82.2597461 L65.6172138,92.3872409 C73.3011034,82.7636409 82.0322023,74.0263658 91.6490299,66.3370926 L81.5286621,37.2984503 C91.9129379,29.8519502 103.003237,23.444471 114.639651,18.1683902 L134.709995,41.4583433 C146.172892,36.9687102 158.099789,33.7706528 170.270087,31.9233574 L176.014722,1.71138366 C188.728377,0.458317934 201.534354,0.458317934 214.248009,1.71138366 L219.992644,31.9233574 C232.163034,33.7706804 244.089931,36.9687378 255.552736,41.4583433 L275.62308,18.1683902 C287.259494,23.4445078 298.349793,29.8520146 308.734069,37.2984503 L298.613701,66.3370926 C308.230529,74.0263934 316.961655,82.7636409 324.645517,92.3872409 L353.663724,82.2597461 C361.104984,92.6513348 367.507954,103.749444 372.780322,115.394052 L349.506759,135.478531 C353.993232,146.9495 357.189039,158.884796 359.035034,171.063665 L389.225747,176.812345 C390.477931,189.534954 390.477931,202.349949 389.225747,215.072558 L359.035034,220.821238 C358.151091,226.652955 356.957664,232.428762 355.461122,238.124081 L302.976984,195.368383 C302.668541,136.028049 254.502501,88.0192751 195.131467,88.0192751 C135.568892,88.0192751 87.2841103,136.338244 87.2841103,195.94258 C87.2841103,255.5471 135.569076,303.865885 195.131467,303.865885 C226.494777,303.865885 254.731283,290.468595 274.438133,269.080118 C282.600984,275.514513 293.011926,284.038139 307.396754,295.592017 L319.556018,305.568601 L319.555862,305.568601 Z" id="Shape"></path>
            </g>
        </g>
    </g>
</svg>