<?xml version="1.0" encoding="UTF-8"?>
<svg width="560px" height="560px" viewBox="0 0 560 560" version="1.1" xmlns="http://www.w3.org/2000/svg" xmlns:xlink="http://www.w3.org/1999/xlink">
    <!-- Generator: sketchtool 40.3 (33839) - http://www.bohemiancoding.com/sketch -->
    <title>ses</title>
    <desc>Created with sketchtool.</desc>
    <defs></defs>
    <g id="Page-1" stroke="none" stroke-width="1" fill="none" fill-rule="evenodd">
        <g id="ses" fill="#000000">
            <path d="M400.204917,286.339356 L464.372479,156.988815 L490.336832,152.695975 L490.337514,152.694611 L490.337514,152.695975 L490.344333,152.694611 L490.337514,152.70825 L490.378431,420.316889 L280.175875,525.5 L217.218764,494.000986 L217.218764,93.6586806 L280.121319,68.5153889 L280.148597,68.5153889 L400.204917,286.339356 Z M168.957556,112.789268 L196.760431,119.910814 L196.760431,422.793029 L168.957556,429.916621 L168.957556,430.893847 L69.3595694,271.339306 L168.950736,112.798133 L168.950736,112.787222 L168.956874,112.788586 L168.957556,112.787222 L168.957556,112.789268 Z M477.578333,116.462903 L412.752694,234.084681 L412.749285,234.077861 L389.582268,235.436294 L294.059582,43.0761333 L313.645708,34.5 L477.578333,116.462903 Z" id="Page-1"></path>
        </g>
    </g>
</svg>