<?xml version="1.0" encoding="UTF-8" standalone="no"?>
<svg width="560px" height="560px" viewBox="0 0 560 560" version="1.1" xmlns="http://www.w3.org/2000/svg" xmlns:xlink="http://www.w3.org/1999/xlink" xmlns:sketch="http://www.bohemiancoding.com/sketch/ns">
    <!-- Generator: bin/sketchtool 1.3 (252) - http://www.bohemiancoding.com/sketch -->
    <title>smartos</title>
    <desc>Created with bin/sketchtool.</desc>
    <defs></defs>
    <g id="Page-1" stroke="none" stroke-width="1" fill="none" fill-rule="evenodd" sketch:type="MSPage">
        <g id="smartos" sketch:type="MSArtboardGroup" fill="#000000">
            <g id="Group" sketch:type="MSLayerGroup" transform="translate(40.000000, 41.000000)">
                <path d="M123.405744,477.839412 C178.326956,472.475324 276.231854,437.305138 337.678747,387.363171 C308.163196,323.356963 293.608167,310.289748 258.021305,264.174667 C201.067802,324.268613 108.110287,376.543559 37.1837076,376.876026 C72.4354465,422.737805 91.7044386,446.985829 123.405744,477.839412 L123.405744,477.839412 Z M352.328773,450.103493 C353.279091,436.607396 350.755056,420.569304 348.646621,416.497145 C340.866172,422.859124 324.400167,434.378987 318.698757,437.232497 C327.740679,442.895272 337.733953,446.626012 352.328773,450.103493 L352.328773,450.103493 Z M479.753734,356.243614 C474.39533,301.264142 439.262413,203.255386 389.373368,141.74331 C325.434987,171.290171 312.381619,185.86064 266.315405,221.485252 C326.345671,278.499172 378.565222,371.555297 378.897337,442.557115 C424.710517,407.267981 448.932846,387.978549 479.753734,356.243614 L479.753734,356.243614 Z M27.9522924,351.30679 C41.4340888,352.258117 57.4551854,349.731404 61.5230287,347.620733 C55.1677911,339.83203 43.6601358,323.348557 40.8096501,317.641099 C35.1528752,326.692613 31.4260888,336.696488 27.9522924,351.30679 L27.9522924,351.30679 Z M0.246078329,122.140919 C5.60448251,177.120391 40.7373995,275.129147 90.6264439,336.641223 C154.564825,307.094362 167.618193,292.523893 213.684407,256.899281 C153.654141,199.88536 101.43459,106.829236 101.102475,35.8274173 C55.289295,71.1165514 31.0669661,90.4059843 0.246078329,122.140919 L0.246078329,122.140919 Z M356.604282,0.160650656 C301.68307,5.52473906 203.778172,40.6949252 142.331279,90.6368921 C171.84683,154.643099 186.401859,167.710315 221.988721,213.825396 C278.942225,153.731449 371.899739,101.456504 442.826319,101.124036 C407.57458,55.2622575 388.305587,31.0142333 356.604282,0.160650656 L356.604282,0.160650656 Z M452.047833,127.077115 C438.566037,126.125789 422.54494,128.652502 418.477097,130.763173 C424.832334,138.551876 436.33999,155.035348 439.190475,160.742806 C444.84725,151.691293 448.574037,141.687418 452.047833,127.077115 L452.047833,127.077115 Z M127.681253,27.8962556 C126.730935,41.3923535 129.25497,57.4304454 131.363405,61.5026039 C139.143854,55.1406247 155.609859,43.6207619 161.311269,40.7672525 C152.269347,35.1044768 142.276073,31.373737 127.681253,27.8962556 L127.681253,27.8962556 Z" id="Shape" sketch:type="MSShapeGroup"></path>
            </g>
        </g>
    </g>
</svg>