<?xml version="1.0" encoding="UTF-8"?>
<svg width="560px" height="560px" viewBox="0 0 560 560" version="1.1" xmlns="http://www.w3.org/2000/svg" >
    
    
    
    
    <g id="Page-1" stroke="none" stroke-width="1"  fill-rule="evenodd">
        <g id="sns" >
            <path d="M311.240698,501.907267 L258.014259,442.027173 L207.87064,432.290698 L207.87064,75.0662791 L280.3,38.5 L521.496802,159.45 L521.496802,397.834012 L431.283573,415.982137 L432.190698,416.117151 L381.560465,522.3 L311.240698,501.907267 Z M186.774709,113.572681 L186.774709,432.290698 L236.918329,442.027173 L240.048262,445.548787 L225.450581,475.888953 L175.523547,461.825 L137.591658,418.797741 L103.094186,411.897965 L103.094186,127.102907 L152.318023,102.490988 L186.774709,113.572681 Z M81.9982558,147.293822 L81.9982558,411.897965 L116.495727,418.797741 L119.228353,421.897436 L110.126163,440.72907 L81.9982558,432.993895 L55.9799419,402.756395 L58.3236997,402.756395 L39.1031977,398.537209 L39.1031977,160.153198 L67.9343023,143.979651 L81.9982558,147.293822 Z" id="Page-1"></path>
        </g>
    </g>
</svg>