<?xml version="1.0" encoding="UTF-8"?>
<svg width="560px" height="560px" viewBox="0 0 560 560" version="1.1" xmlns="http://www.w3.org/2000/svg" >
    
    
    
    
    <g id="Page-1" stroke="none" stroke-width="1"  fill-rule="evenodd">
        <g id="solr" >
            <g id="Group" transform="translate(50.000000, 50.000000)">
                <path d="M244.600251,459.894101 L133.770808,378.781953 L291.862154,451.891259 C276.684962,456.140468 260.873433,458.866307 244.600664,459.894092 L244.600251,459.894101 Z M202.269515,458.703561 C191.843372,457.449209 181.632197,455.494813 171.682571,452.888061 L123.19312,392.406086 L202.269515,458.703586 L202.269515,458.703561 Z M134.816338,439.750072 C130.643146,437.844489 126.536916,435.817378 122.501138,433.672595 L109.478348,403.904638 L134.816338,439.750055 L134.816338,439.750072 Z M331.689731,436.588813 L141.589156,362.581266 L380.378707,404.098252 C365.670187,416.891381 349.321275,427.841119 331.6894,436.588813 L331.689731,436.588813 Z M409.020934,374.286115 L143.985781,345.238687 L442.515045,317.38759 C434.087961,338.024464 422.753544,357.161126 409.021677,374.286115 L409.020934,374.286115 Z M141.207612,327.526619 L458.634865,210.011511 C459.22163,216.715523 459.521022,223.500928 459.521022,230.3565 C459.521022,247.039029 457.748098,263.306647 454.380741,278.979658 L141.208281,327.526701 L141.207612,327.526619 Z M134.817163,311.086583 L423.453537,106.548741 C435.997332,126.185363 445.644614,147.857155 451.791601,170.959331 L134.816916,311.086417 L134.817163,311.086583 Z M29.243447,297.144281 L5.07238779,277.006043 C4.1915167,272.722938 3.42952711,268.396266 2.78998671,264.029162 L29.2434553,297.144281 L29.243447,297.144281 Z M123.679713,297.097122 L344.726643,31.1261151 C365.171785,42.9740108 383.623896,57.8898417 399.455081,75.2448309 L123.679713,297.097205 L123.679713,297.097122 Z M43.2011849,286.369856 L0.384186715,226.16446 C0.573067504,215.573871 1.47649264,205.157932 3.04814004,194.964629 L43.2011023,286.369773 L43.2011849,286.369856 Z M110.176194,286.357446 L241.723806,0.653597122 C265.253591,1.84601475 287.849005,6.58725791 308.988111,14.3540683 L110.175616,286.357198 L110.176194,286.357446 Z M93.7227289,279.699029 L138.279882,19.4151439 C157.968707,10.8173633 179.0946,4.90503957 201.196072,2.14048921 L93.7228941,279.698367 L93.7227289,279.699029 Z M58.9650628,278.726906 L13.2589013,154.121511 C18.412107,139.421532 25.0137594,125.404522 32.8929731,112.241076 L58.9650628,278.727155 L58.9650628,278.726906 Z M76.5912388,277.509892 L58.2741544,77.6216906 C71.2905027,62.9505036 86.1525494,49.9593094 102.494359,39.0146187 L76.5913214,277.510554 L76.5912388,277.509892 Z" id="Shape"></path>
            </g>
        </g>
    </g>
</svg>