<?xml version="1.0" encoding="UTF-8"?>
<svg width="560px" height="560px" viewBox="0 0 560 560" version="1.1" xmlns="http://www.w3.org/2000/svg" >
    
    
    
    
    <g id="Page-1" stroke="none" stroke-width="1"  fill-rule="evenodd">
        <g id="sqs" >
            <path d="M483.099,243.372764 L483.099,316.347639 L279.845458,342.466111 L279.845458,217.479333 L483.099,243.372764 Z M204.927042,332.932528 L279.818181,342.466111 L279.831819,217.479333 L204.940681,227.006097 L204.927042,332.932528 Z M129.483528,323.33075 L178.085708,329.509167 L178.099347,230.415819 L129.483528,236.607875 L129.483528,323.33075 Z M102.438975,185.901896 L102.422608,374.061961 L279.818181,427.3 L483.085361,366.334167 L483.085361,423.883458 L279.804542,525.5 L76.5373611,423.849361 L76.5373611,423.845951 L76.4350694,423.794806 L76.4623472,136.164278 L279.845458,34.5 L483.214931,136.205194 L483.201292,193.734028 L279.845458,132.693181 L102.438975,185.901896 Z" id="Page-1"></path>
        </g>
    </g>
</svg>