<?xml version="1.0" encoding="UTF-8"?>
<svg width="560px" height="560px" viewBox="0 0 560 560" version="1.1" xmlns="http://www.w3.org/2000/svg" xmlns:xlink="http://www.w3.org/1999/xlink">
    <!-- Generator: sketchtool 40.3 (33839) - http://www.bohemiancoding.com/sketch -->
    <title>sslcert</title>
    <desc>Created with sketchtool.</desc>
    <defs></defs>
    <g id="Page-1" stroke="none" stroke-width="1" fill="none" fill-rule="evenodd">
        <g id="sslcert" fill="#000000">
            <g id="Group" transform="translate(108.000000, 50.000000)">
                <path d="M309.972329,182.104396 L343.060678,182.104396 L343.060678,459.027429 L0.368889412,459.027429 L0.368889412,182.104396 L33.4572376,182.104396 L33.4572376,141.753095 C33.4409936,140.885768 33.4329586,140.018278 33.4329586,139.148918 C33.4329586,62.8364347 95.3438528,0.973006154 171.714888,0.973006154 C248.085923,0.973006154 309.996817,62.8364347 309.996817,139.148918 C309.996817,140.018281 309.988783,140.885767 309.972538,141.753095 L309.972538,182.104396 L309.972329,182.104396 Z M185.085153,326.634374 L197.910384,397.482057 L145.519082,397.482057 L158.344313,326.634374 C150.665029,322.071214 145.519082,313.696343 145.519082,304.120558 C145.519082,289.664224 157.247256,277.944941 171.714784,277.944941 C186.182209,277.944941 197.910485,289.664123 197.910485,304.120558 C197.910485,313.696404 192.764528,322.071275 185.085254,326.634374 L185.085153,326.634374 Z M95.8323294,182.104396 L247.597035,182.104396 L247.597035,139.148888 C247.597035,97.2723077 213.623393,63.3247121 171.714682,63.3247121 C129.806579,63.3247121 95.83324,97.2713978 95.8323294,139.148888 L95.8323294,182.104396 L95.8323294,182.104396 Z" id="Shape"></path>
            </g>
        </g>
    </g>
</svg>