<?xml version="1.0" encoding="UTF-8" standalone="no"?>
<svg width="560px" height="560px" viewBox="0 0 560 560" version="1.1" xmlns="http://www.w3.org/2000/svg" xmlns:xlink="http://www.w3.org/1999/xlink">
    <!-- Generator: sketchtool 3.8.2 (29753) - http://www.bohemiancoding.com/sketch -->
    <title>statsd</title>
    <desc>Created with sketchtool.</desc>
    <defs></defs>
    <g id="Page-1" stroke="none" stroke-width="1" fill="none" fill-rule="evenodd">
        <g id="statsd" fill="#000000">
            <g id="Group" transform="translate(40.000000, 67.000000)">
                <path d="M479.202658,453 L0.797342193,453 L0.797342193,389.084656 L16.744186,325.169312 L32.6910299,357.126984 L48.6378738,325.169312 L64.5847176,261.253968 L80.5315615,293.21164 L96.4784053,197.338624 L112.425249,325.169312 L128.372093,277.232804 L144.318937,437.021164 L160.265781,357.126984 L176.212625,389.084656 L192.159468,325.169312 L208.106312,341.148148 L224.053156,293.21164 L240,325.169312 L255.946844,309.190476 L271.893688,341.148148 L287.840532,293.21164 L303.787375,373.10582 L319.734219,325.169312 L335.681063,357.126984 L351.627907,261.253968 L367.574751,293.21164 L383.521595,277.232804 L399.468439,293.21164 L415.415282,229.296296 L431.362126,325.169312 L447.30897,293.21164 L463.255814,373.10582 L479.202658,325.169312 L479.202658,453 L479.202658,453 Z M479.202658,306.747312 L464.663362,350.452784 L449.686884,275.420085 L434.157767,306.540706 L425.330551,253.471396 L431.362166,229.296536 L447.30901,245.275372 L463.255854,165.381192 L479.202698,229.296536 L479.202698,306.747312 L479.202658,306.747312 Z M376.227508,276.302836 L369.167195,283.377314 L348.832019,242.62545 L332.885175,338.498466 L318.656922,309.984872 L305.194597,350.452952 L289.247753,270.558772 L270.816391,325.963708 L257.539288,299.35623 L241.592444,315.335066 L222.975859,278.0272 L205.565175,330.36396 L189.009241,313.774812 L174.383753,372.394131 L157.88754,339.335597 L146.237494,397.702689 L131.452058,249.551716 L115.014769,298.962591 L110.054719,259.202533 L128.371742,213.318028 L144.318586,245.2757 L160.26543,181.360356 L176.212274,229.296864 L208.105961,293.212207 L224.052805,229.296864 L239.999649,261.254536 L255.946493,181.360356 L271.893337,197.339192 L287.840181,133.423848 L303.787025,245.2757 L319.733868,197.339192 L335.680712,229.296864 L351.627556,165.38152 L376.227476,276.303403 L376.227508,276.302836 Z M0.797342193,368.652519 L0.797342193,245.275132 L16.744186,181.359788 L32.6910299,229.296296 L48.6378738,197.338624 L58.9982193,259.625246 L43.1523189,323.136005 L32.6910299,344.100558 L14.9156412,308.478539 C8.20388571,335.379389 3.75109635,353.472704 0.797342193,368.652918 L0.797342193,368.652519 Z M479.202658,56.7440423 L464.772598,92.8915249 L449.859349,77.9483571 L433.060625,162.110484 L417.412146,130.75074 L400.219455,234.113835 C399.941979,234.118319 399.664503,234.122802 399.38703,234.127285 L380.971216,141.863888 L367.574751,155.287229 L352.765555,140.448323 L333.684199,178.687595 L319.362817,92.5864365 L303.867588,170.218173 L302.554963,170.181666 L287.158047,62.1871054 L274.444027,125.884578 L258.497183,109.905742 L240.078817,202.181922 L238.404742,202.120634 L220.020582,54.7518246 L210.10308,34.8770289 L194.156237,130.750045 L176.212529,94.790713 L160.265685,126.748385 L145.624967,97.4081262 L127.921738,168.363186 L110.726735,82.2156886 L94.779891,114.173361 L81.7050738,48.6682823 L66.4627615,186.123822 L64.5069608,186.208867 L46.9392797,98.1942426 L31.9216585,128.289821 L17.5455787,85.075059 L0.797246512,160.593754 L0.797246512,122.229767 L15.942602,53.9389389 L33.46021,106.597193 L50.3362764,72.7774273 L63.4110937,138.282506 L78.653406,0.826965881 L80.6092066,0.741920923 L98.1768877,88.7565453 L114.123732,56.7988733 L128.822416,130.439736 L143.012874,73.5641077 L160.265845,108.139193 L176.212688,76.1815209 L190.162668,104.137533 L206.109512,8.26451722 L228.085698,52.3050654 L240.946589,155.398917 L253.396449,93.0248119 L269.343293,109.003648 L287.760303,16.7338595 L289.072928,16.7703663 L304.469845,124.764927 L319.652755,48.6979182 L320.48518,48.7113679 L337.677871,152.074463 L350.490203,126.398391 L367.574695,143.517157 L386.071918,124.982826 L399.096981,190.238794 L413.418363,104.137636 L429.663572,136.693236 L444.758536,61.0671626 L461.738974,78.0816668 L479.202602,34.3349695 L479.202602,56.7434494 L479.202658,56.7440423 Z" id="Shape"></path>
            </g>
        </g>
    </g>
</svg>