<?xml version="1.0" encoding="UTF-8"?>
<svg width="560px" height="560px" viewBox="0 0 560 560" version="1.1" xmlns="http://www.w3.org/2000/svg" >
    
    
    
    
    <g id="Page-1" stroke="none" stroke-width="1"  fill-rule="evenodd">
        <g id="supervisor" >
            <g id="Group" transform="translate(91.000000, 40.000000)">
                <g id="path2848" transform="translate(1.047091, 0.088627)">
                    <path d="M23.9794404,236.48732 C32.9892327,222.583007 44.668815,205.363033 63.8515296,199.47932 C81.155867,194.171786 123.959917,202.487885 139.075938,201.185129 C147.965587,200.419001 151.9182,197.879529 155.096018,190.892716 C157.300648,186.045438 157.612555,176.596559 155.708105,172.349971 C155.014198,170.802688 148.013272,163.50857 140.150526,156.140821 C104.08786,122.348612 95.3389925,106.72801 96.6269149,78.4312261 C99.1186469,23.6842458 158.850636,-12.3409569 218.684267,4.8166902 C243.594048,11.9596967 262.569857,27.1966118 273.245373,48.6273046 C279.310943,60.8037229 281.09792,68.4746248 281.040969,82.0913569 C280.985787,95.280481 279.152309,103.401475 273.860194,113.896742 C267.520767,126.469082 257.788806,137.332664 229.748955,163.137108 C223.569294,168.824125 222.153249,170.765846 221.080305,175.023854 C218.685754,184.526661 222.266712,195.022703 229.313962,199.157292 C232.353689,200.940685 234.617637,201.284026 242.597468,201.171859 C250.645319,201.058729 278.020885,193.78835 290.287142,194.822348 C335.230923,198.610949 349.470529,230.024125 353.028964,235.419263 C363.681339,251.569851 370.203148,267.123106 374.486171,286.590818 C377.459491,300.105485 377.220168,334.592387 374.059533,348.070139 C371.154745,360.456962 363.890579,378.806975 355.779202,394.24823 C336.877841,430.229616 313.804972,455.692204 283.759626,473.726818 C274.915599,479.03543 271.570959,479.955043 269.312278,477.69919 C266.820546,475.210646 268.191147,472.384554 276.2355,463.424052 C312.137228,423.433464 331.140785,379.118797 336.100648,323.823529 C336.72152,316.901501 338.059075,264.398902 318.655581,254.108497 C309.722446,251.706123 299.800606,259.776282 297.267378,271.504993 C296.850541,273.434939 297.336067,278.379085 298.448287,283.531137 C299.945817,290.467848 305.227231,304.373072 305.227367,322.614327 C305.227513,342.752993 304.917742,347.119948 302.742263,357.647007 C299.650034,372.610144 294.543087,388.433516 288.978141,400.29349 C283.643399,411.663007 271.256329,430.223739 262.87143,439.411608 C255.060631,447.970478 241.153079,459.302745 238.984029,458.87566 C234.798595,458.051566 235.167109,455.390212 241.070725,443.805856 C256.587049,413.359111 265.231626,382.972288 266.622792,353.986771 C267.185133,342.270379 264.752163,308.616523 265.099651,291.990013 C265.673771,289.913359 263.898826,285.984931 263.532951,285.482552 C263.167076,284.980183 258.849437,284.427984 253.938191,284.255435 C246.049886,283.978301 244.591329,284.222599 241.429741,286.350494 C239.461314,287.675315 237.000607,290.213103 235.961505,291.990013 C233.354907,296.447414 233.123343,321.699712 233.805419,333.032209 C235.045447,353.634667 231.426741,383.641046 224.546052,409.81098 C217.728063,435.742484 205.069838,464.57166 201.894428,461.400314 C198.437529,457.947838 197.011255,410.204915 201.677806,394.746405 C202.505434,365.482719 200.352502,304.497621 196.376288,301.61051 C189.412544,296.554112 188.8886,295.430965 186.233553,297.865757 C170.413572,312.373365 174.835544,378.547796 175.912677,384.157522 C177.820268,394.092695 178.494406,451.168345 176.771082,456.834437 C176.010454,459.33532 174.916924,461.452967 174.341024,461.540319 C172.850667,461.7664 166.230013,448.953548 161.184216,436.078254 C148.964135,404.896345 143.459052,372.180214 143.445963,330.662306 C143.439681,311.074855 141.586664,297.346437 137.757755,291.663822 C134.378173,286.648073 123.007692,281.217778 118.315675,286.057757 C104.600244,300.205626 108.873539,350.174986 109.748646,353.659012 C110.371864,356.140193 112.285497,366.66011 114.001156,377.036685 C117.94622,400.896973 122.170898,413.911142 133.488365,437.067116 C138.392365,447.100905 142.404725,455.91543 142.404725,456.654986 C142.404725,457.394562 141.237868,458.292152 139.811698,458.649631 C136.306392,459.528282 129.809043,454.672826 117.764455,442.17371 C91.379322,414.793004 75.1944301,376.820193 72.323829,335.561422 C71.4400001,322.858154 76.9910714,292.449056 78.8783804,282.5872 C80.6777651,273.185098 80.2302487,268.861919 76.847955,262.972246 C71.4425131,253.559655 62.3221793,250.329004 54.6040685,255.092894 C42.280012,271.558149 38.5790674,305.115378 39.6243788,311.870306 C40.2718059,316.054024 41.543645,325.359456 42.450667,332.548999 C48.8092343,382.950149 65.9117972,422.039822 97.6569911,458.728345 C108.120188,470.820999 111.33567,475.460999 110.353079,477.048868 C110.060616,477.521475 107.803987,477.908162 105.338349,477.908162 C98.4409275,477.908162 81.14237,466.942201 65.3717074,452.572214 C44.6062094,433.651116 23.7496143,402.181417 10.8447362,370.298437 C-4.07076681,333.447927 -3.01309978,291.730907 13.7867385,254.264973 C15.426714,250.607592 20.0133618,242.607561 23.9792939,236.487195 L23.9794404,236.48732 Z" id="Shape"></path>
                </g>
            </g>
        </g>
    </g>
</svg>