<?xml version="1.0" encoding="UTF-8"?>
<svg width="560px" height="560px" viewBox="0 0 560 560" version="1.1" xmlns="http://www.w3.org/2000/svg" >
    
    
    
    
    <g id="Page-1" stroke="none" stroke-width="1"  fill-rule="evenodd">
        <g id="suse" >
            <path d="M495.009155,235.878658 C495.537572,220.329835 483.327292,207.210515 467.758223,206.663877 C460.226762,206.400681 453.03948,209.073135 447.53463,214.215584 C442.007509,219.358033 438.849154,226.342856 438.585958,233.874317 C438.079812,249.42314 450.267821,262.522214 465.81462,263.089098 C473.386573,263.352294 480.553608,260.67984 486.060483,255.517145 C491.567358,250.374696 494.725713,243.410119 495.009155,235.878658 L495.009155,235.878658 Z M468.244123,214.519272 C479.318611,214.903943 487.98384,224.21704 487.619415,235.291528 C487.457448,240.636436 485.189911,245.596672 481.282459,249.261173 C477.354762,252.905429 472.252804,254.80854 466.867405,254.646573 C455.813163,254.241656 447.147934,244.928559 447.510335,233.854071 C447.672302,228.488918 449.960084,223.528681 453.86956,219.884426 C457.777012,216.219924 462.87897,214.316813 468.244123,214.519272 L468.244123,214.519272 Z M480.432133,230.53375 C480.432133,227.233674 476.441674,224.581466 471.523953,224.581466 C466.606233,224.581466 462.636019,227.233674 462.636019,230.53375 C462.636019,233.793334 466.604209,236.465788 471.523953,236.465788 C476.443698,236.465788 480.432133,233.793334 480.432133,230.53375 L480.432133,230.53375 Z M512.785023,274.001618 L514.852126,273.616947 C515.416985,274.062356 515.336002,274.97342 515.153789,275.783254 C514.771142,277.66612 513.858054,281.087671 513.230432,282.70734 L512.704039,284.043567 C511.977213,286.027661 511.246337,287.910527 509.849373,289.044295 C506.004683,292.546829 499.849941,295.340758 490.21291,299.551898 C475.311954,306.071066 451.158639,310.180976 428.726223,310.039255 C420.68659,309.857043 412.912179,308.966225 406.089323,308.196882 C385.197616,305.80787 370.094202,304.107217 366.954069,323.097837 C362.98588,346.906972 385.379829,375.818065 385.602534,376.079237 L385.580263,376.87085 L384.853437,377.053063 C384.853437,377.053063 349.15998,360.613422 348.287383,360.127521 L347.153615,359.319711 L346.242551,358.447115 C343.549851,355.857669 338.144205,350.047106 327.170947,337.330679 C305.892545,312.731955 280.990133,309.492617 261.797055,314.169411 C257.12026,315.282934 251.167976,318.704485 247.301016,322.551199 C237.279314,332.43118 238.413082,352.332864 238.979967,359.580883 C239.64808,367.780458 240.073243,368.387834 240.255456,369.055947 L240.133981,369.886027 L239.425376,369.967011 L239.020458,369.683569 L209.74494,355.369743 L208.631417,350.59172 C207.88232,347.433365 207.011748,343.930831 205.351588,339.537478 C194.884476,311.942366 171.358783,291.190356 145.444078,286.716021 C127.931406,283.699387 96.0036795,283.355207 79.0983836,315.262688 C72.0325773,328.584466 72.4577404,345.935171 80.2119061,360.552684 C88.1077928,375.516402 102.21916,385.110917 118.921997,386.953291 C135.483113,388.757197 147.934319,384.928704 154.919142,375.878803 C161.964702,366.747919 163.280683,354.316958 158.279955,344.194027 C152.914801,333.324023 144.816456,327.551927 133.559756,326.602396 C124.995756,325.833053 118.638555,329.396325 116.350772,333.040581 C115.682659,334.176374 114.467907,336.281943 114.447661,339.276307 L114.447661,339.377536 C114.447661,347.536619 121.918385,349.763664 123.436824,349.866918 C123.902479,349.866918 126.14977,349.80618 129.125912,349.057083 L130.563368,348.593453 L131.555416,348.247249 L132.284267,348.107552 C137.710158,347.115505 142.933591,350.314351 144.452031,355.598522 C144.715227,356.568298 144.856948,357.542125 144.856948,358.511901 C144.856948,362.014436 143.075312,365.27402 140.119416,367.258114 L140.240891,367.215598 L139.916957,367.397811 L139.431056,367.701499 C137.872125,368.693546 136.434669,369.240184 134.916229,369.705839 C130.664598,371.100779 126.898867,371.750671 123.112891,371.750671 C110.19603,371.730426 92.1974572,360.615447 91.9545068,339.741961 C91.8330316,327.958869 97.7448237,317.228561 108.151198,310.324722 C120.136749,302.408589 140.848267,299.71589 160.061591,311.498982 C183.70876,325.974774 189.883748,354.316958 183.70876,373.653783 C174.739842,401.653812 149.513496,416.615505 116.209051,413.639363 C92.6226203,411.533793 70.7165961,399.082587 57.6782601,380.334918 C51.8879432,372.032089 47.5958202,362.781754 45.2877917,353.54964 C39.9631297,332.433205 45.3485293,310.000788 49.3572103,300.060069 C62.1121042,268.456277 86.5286154,241.266082 121.857647,219.218337 L124.084692,217.821372 C199.237337,171.638594 252.42322,173.501213 291.356015,174.857686 C337.275658,176.457109 386.248377,192.289314 393.010495,194.536605 C393.032766,193.018165 393.295962,179.332022 393.295962,179.332022 L393.49842,178.866367 L394.024813,178.724646 C397.104209,179.149809 463.083453,188.948746 490.883048,205.145437 C494.32282,207.170023 496.023473,209.275593 498.151313,211.462147 C505.824495,219.398525 515.987918,252.46002 517.060949,259.282876 L516.656032,259.971235 C516.251115,260.112956 515.299559,260.821561 514.02407,261.671888 C507.545393,266.206961 492.381242,276.815793 472.945213,275.074649 C455.473033,273.535964 432.655945,263.514261 405.141816,245.394214 C406.358593,248.24888 412.086148,261.813609 413.057949,264.101391 L413.422375,264.5468 C417.412834,266.611878 455.637024,286.088399 474.607398,285.703728 C489.907197,285.40004 506.245609,277.929316 512.785023,274.001618 L512.785023,274.001618 Z" id="Page-1"></path>
        </g>
    </g>
</svg>