<?xml version="1.0" encoding="UTF-8" standalone="no"?>
<svg width="560px" height="560px" viewBox="0 0 560 560" version="1.1" xmlns="http://www.w3.org/2000/svg" xmlns:xlink="http://www.w3.org/1999/xlink">
    <!-- Generator: sketchtool 3.8.2 (29753) - http://www.bohemiancoding.com/sketch -->
    <title>switch</title>
    <desc>Created with sketchtool.</desc>
    <defs></defs>
    <g id="Page-1" stroke="none" stroke-width="1" fill="none" fill-rule="evenodd">
        <g id="switch" fill="#000000">
            <path d="M466.225773,522.953632 L83.1989885,522.953632 C60.1847434,522.953632 41.5,504.268889 41.5,481.254644 L41.5,294.937357 C41.5,271.933386 60.1680693,253.254772 83.1989885,253.238548 L388.276536,253.238548 L388.276536,128.352128 C388.276536,123.417491 392.274719,119.410295 397.23279,119.394973 L415.146197,119.394973 C420.105169,119.410295 424.103352,123.417491 424.103352,128.352128 L424.103352,253.238548 L466.225773,253.238548 C489.256782,253.254772 507.924581,271.933386 507.924581,294.937357 L507.924581,481.254644 C507.924581,504.248429 489.273006,522.920284 466.225773,522.953632 L466.225773,522.953632 Z M403.226458,384.411561 L350.500201,384.411561 L384.772268,418.683628 L234.908022,418.683628 L234.908022,455.591648 L384.772268,455.591648 L350.500201,489.863715 L403.226458,489.863715 L455.952715,437.137458 L403.226458,384.411561 Z M190.215084,404.657543 L155.943017,370.385476 L305.807263,370.385476 L305.807263,333.477096 L155.943017,333.477096 L190.215084,299.205029 L137.488827,299.205029 L84.7625698,351.931286 L137.488827,404.657543 L190.215084,404.657543 Z M338.754413,36.6273678 L338.754413,51.201446 C316.869862,60.1099302 300.899665,93.149014 300.899665,125.816761 C300.899665,158.484507 316.869862,190.847614 338.754413,199.756098 L338.754413,215.006154 C308.948305,205.613669 286.704134,169.222638 286.704134,125.816761 C286.704134,82.4108836 308.948305,46.019852 338.754413,36.6273678 L338.754413,36.6273678 Z M473.449721,36.6273678 L473.449721,51.201446 C495.334272,60.1099302 511.304469,93.149014 511.304469,125.816761 C511.304469,158.484507 495.334272,190.847614 473.449721,199.756098 L473.449721,215.006154 C503.255829,205.613669 525.5,169.222638 525.5,125.816761 C525.5,82.4108836 503.255829,46.019852 473.449721,36.6273678 L473.449721,36.6273678 Z M370.701117,60.2865857 L370.701117,74.967919 C348.816566,81.5140866 332.846369,101.815047 332.846369,125.816761 C332.846369,149.818474 348.816566,170.119435 370.701117,176.665602 L370.701117,191.346936 C340.895009,184.445655 318.650838,157.708485 318.650838,125.816761 C318.650838,93.9250363 340.895009,67.1878669 370.701117,60.2865857 L370.701117,60.2865857 Z M441.503017,60.2865857 L441.503017,74.967919 C463.388469,81.5140866 479.357765,101.815047 479.357765,125.816761 C479.357765,149.818474 463.388469,170.119435 441.503017,176.665602 L441.503017,191.346936 C471.310026,184.445655 493.553296,157.708485 493.553296,125.816761 C493.553296,93.9250363 471.310026,67.1878669 441.503017,60.2865857 L441.503017,60.2865857 Z" id="Page-1"></path>
        </g>
    </g>
</svg>