<?xml version="1.0" encoding="UTF-8"?>
<svg width="560px" height="560px" viewBox="0 0 560 560" version="1.1" xmlns="http://www.w3.org/2000/svg" xmlns:xlink="http://www.w3.org/1999/xlink">
    <!-- Generator: sketchtool 40.3 (33839) - http://www.bohemiancoding.com/sketch -->
    <title>tomcat</title>
    <desc>Created with sketchtool.</desc>
    <defs></defs>
    <g id="Page-1" stroke="none" stroke-width="1" fill="none" fill-rule="evenodd">
        <g id="tomcat" fill="#000000">
            <path d="M82.7370155,450.250335 L26.581,450.250335 L26.581,445.865567 C26.581,437.40238 57.6968724,386.326654 100.264784,338.695602 C102.963268,335.677322 105.767571,332.603892 108.668923,329.492266 C91.203905,306.278135 80.7835526,283.893603 77.8289986,262.847691 C74.7097721,240.625687 80.0669841,220.175129 93.3222351,203.70789 C106.832387,186.922998 124.869958,178.677685 148.464882,178.504243 C155.178059,178.455524 164.362492,179.687156 173.609675,181.341675 C175.219762,178.083306 177.569023,175.288747 180.683572,173.768694 C190.084904,169.175406 224.014434,180.636215 240.764247,204.109339 C218.06635,214.23523 180.040278,210.565667 172.964432,200.114329 C171.272691,197.615985 170.716897,193.578101 171.239367,189.353134 C144.486436,184.853387 118.466054,186.457238 100.153314,209.205414 C88.4559222,223.739458 83.7390811,241.867063 86.5137623,261.627751 C88.7100438,277.272798 96.1054909,297.91765 114.745432,323.076863 C154.56614,281.679782 225.754699,238.826958 291.146206,222.620855 C286.777028,205.752166 284.076011,187.380962 283.321831,167.388369 C283.35496,167.364984 283.391987,167.341599 283.427065,167.318213 C282.526726,145.181956 286.061823,113.974101 294.038204,100.515786 C312.947272,109.472405 338.012554,125.3706 343.005343,146.144656 C372.897768,140.972578 407.021007,140.436662 437.289547,144.957845 C443.605562,125.647327 471.514122,106.765542 486.849118,100.938673 C492.504494,112.436509 495.581627,154.198987 495.618653,164.079331 C495.595268,164.063741 495.567985,164.052048 495.5446,164.038407 C496.257855,200.145509 488.920677,233.155991 475.616316,261.892786 L493.500323,261.892786 L493.500323,268.208216 L472.562569,268.208216 C471.050311,271.205643 469.471795,274.153571 467.828969,277.050052 L493.500323,277.050052 L493.500323,283.362753 L464.100941,283.362753 C449.292118,307.449745 429.979652,327.741087 407.736211,343.351446 C418.588999,354.794131 471.781106,410.951901 481.813455,422.891136 C497.567439,422.514436 516.433634,427.61285 526.064533,438.386322 C531.645856,444.630426 534.380002,451.354127 533.376377,456.37264 L532.670917,459.897214 L478.890277,459.897214 C381.141132,408.834935 294.513707,372.260903 203.945253,364.241065 C205.024296,380.708694 210.020983,393.967648 218.93317,403.892424 C228.280326,400.704795 238.458834,401.29859 245.049627,405.60911 C249.5065,408.522739 251.958073,412.854305 251.958073,417.802272 L251.958073,422.18704 L210.228334,422.18704 C183.521979,403.355729 159.529503,383.83747 140.698191,365.459056 C119.518398,370.635616 106.032021,381.854386 97.8876555,391.684061 C84.9151733,407.340995 78.5816196,428.290442 81.7530736,445.050974 L82.7370155,450.250335 Z M305.458088,261.892786 C300.812183,252.259938 296.803531,242.005427 293.517878,231.092227 C279.521698,234.55327 265.048067,239.335591 250.541306,245.183897 L264.504355,286.56188 L221.983799,258.041985 C217.764093,260.140827 213.566993,262.315672 209.403607,264.564571 L223.69873,289.211059 L193.257528,273.741793 C186.718962,277.648719 180.305898,281.719732 174.065691,285.92794 L180.772047,309.880661 L160.228532,295.695059 C145.398857,306.655615 131.861227,318.341704 120.343514,330.339208 C126.818744,338.4255 134.438886,346.945591 143.383423,355.884672 C150.241395,354.552482 157.76059,353.78544 166.017206,353.78544 C175.75256,353.78544 185.403142,354.114784 194.991168,354.750283 C195.258541,341.310483 197.627875,326.274041 202.124893,309.669412 L210.589054,311.962743 C206.214614,328.116229 203.93473,342.612271 203.733031,355.418327 C295.753135,363.346767 382.384457,399.648553 481.039787,451.127678 L524.059233,451.127678 C523.287514,449.248074 521.872695,446.854575 519.526357,444.23073 C516.3284,440.652955 504.238133,429.12004 482.972983,430.941376 L479.576249,431.232524 L439.458546,388.041391 L409.714229,395.733833 L431.31457,379.274973 L418.536382,365.517909 L396.464434,375.595081 L409.404372,355.686285 L401.720309,347.413495 C398.553532,349.469659 395.33219,351.43306 392.062127,353.302141 C362.676387,336.015632 336.697124,313.192427 317.484045,283.362753 L286.180699,283.362753 L286.180699,277.050052 L313.582576,277.050052 C311.871542,274.165654 310.224818,271.2187 308.640455,268.208216 L286.180699,268.208216 L286.180699,261.892786 L305.458088,261.892786 Z M72.4250157,441.480799 C70.8125903,423.297069 77.8531635,402.120198 91.1355026,386.088902 C99.5376924,375.949175 113.004192,364.467709 133.544394,358.293956 C126.491543,351.037262 120.070294,343.839812 114.305786,336.714466 C72.4708121,381.629885 44.1570987,426.098058 37.0490976,441.480799 L72.4250157,441.480799 Z M379.133882,151.445353 C360.811399,152.458722 342.968316,155.229895 327.494957,159.659485 C310.014349,152.191738 301.944427,136.967824 297.49535,112.695697 C291.41124,136.850897 290.199096,168.951296 296.197458,202.026087 L320.682002,215.016693 L299.274591,216.476334 C300.391245,221.032595 301.650161,225.586907 303.057184,230.121732 L316.971514,235.685515 L305.933592,238.776289 C308.710612,246.604562 311.945596,254.341241 315.673623,261.892786 L337.326582,261.892786 L337.326582,268.208216 L318.928095,268.208216 C320.533895,271.191612 322.219594,274.141099 323.989092,277.050052 L337.326582,277.050052 L337.326582,283.362753 L327.999693,283.362753 C343.57244,306.827693 364.839539,327.264025 392.94103,341.26683 C417.257978,327.370818 438.515333,307.665866 454.561635,283.362753 L442.35639,283.362753 L442.35639,277.050052 L458.5508,277.050052 C460.294963,274.161951 461.967021,271.214023 463.565025,268.208216 L442.35639,268.208216 L442.35639,261.892786 L466.768829,261.892786 C469.212606,256.843482 471.449813,251.644122 473.464857,246.298602 L461.649369,242.046352 L476.462089,237.745382 C478.056196,232.818851 479.467117,227.783189 480.685108,222.640343 L465.359857,220.319339 L482.725487,212.937339 C485.198496,199.518 486.373614,185.436074 486.073501,170.787052 C486.059859,170.779257 486.550953,131.542404 482.296754,113.377772 C478.890277,128.985597 472.650265,146.852065 456.564987,158.548677 C440.748642,154.187295 422.613241,151.757159 404.097828,151.156933 L394.344155,184.810514 L379.133882,151.445353 Z M422.036401,224.460509 C419.230149,234.108947 421.367967,242.588114 428.102971,252.519126 L428.065944,252.524973 C428.075688,252.536665 428.081534,252.548358 428.091278,252.560051 C426.571225,253.528597 396.012316,273.380878 396.012316,273.380878 L416.451181,286.025185 L413.422768,290.834398 L391.380052,276.448656 L370.958726,289.911258 L367.830925,285.16499 L386.100792,273.125977 L353.649611,252.698415 L354.992324,250.334538 C359.145187,243.020745 362.834238,233.789346 365.461202,224.460509 L340.984452,224.460509 L340.984452,218.775901 L366.920842,218.775901 C370.114902,205.101271 370.746309,192.030765 366.893559,185.402945 C365.250733,182.586949 362.978449,181.26957 359.735669,181.26957 C344.938539,181.26957 338.807659,196.883242 338.527034,197.614036 L338.528982,197.614036 L338.525085,197.617934 L338.527034,197.614036 L333.206849,195.61848 C333.512808,194.79999 340.933784,175.586911 359.735669,175.586911 C364.9818,175.586911 369.156099,177.997559 371.800602,182.546025 C376.497175,190.613998 375.945669,204.575099 372.763302,218.775901 L418.277193,218.775901 C424.322327,201.012719 436.948509,192.636838 458.042167,192.636838 L458.042167,198.317548 C435.179012,198.317548 428.773353,208.010808 424.199553,218.775901 L449.03293,218.775901 L448.976415,224.431277 L424.330122,224.460509 L422.036401,224.460509 Z M391.311845,269.690852 L367.306702,254.578993 L414.217872,254.588737 L391.311845,269.690852 Z M416.256302,224.460509 L371.348483,224.460509 C368.965118,233.257328 365.702851,241.849524 362.183344,248.898282 L420.013561,248.898282 C415.046106,240.582814 414.23736,230.891502 416.256302,224.460509 L416.256302,224.460509 Z M440.75059,145.499608 C441.288455,145.585354 441.830218,145.682794 442.368083,145.774387 C441.830218,145.682794 441.292353,145.589252 440.75059,145.499608 L440.75059,145.499608 Z" id="Page-1"></path>
        </g>
    </g>
</svg>