<?xml version="1.0" encoding="UTF-8"?>
<svg width="560px" height="560px" viewBox="0 0 560 560" version="1.1" xmlns="http://www.w3.org/2000/svg" >
    
    
    
    
    <g id="Page-1" stroke="none" stroke-width="1"  fill-rule="evenodd">
        <g id="ubuntu" >
            <path d="M420.085959,425.840434 C445.806633,425.840434 466.688592,446.722341 466.688592,472.443067 C466.688592,498.16373 445.806633,519.045663 420.085959,519.045663 C394.365285,519.045663 373.483378,498.16373 373.483378,472.443067 C373.483378,446.722341 394.365285,425.840434 420.085959,425.840434 L420.085959,425.840434 Z M422.844114,295.87508 C414.891482,351.7584 366.736113,394.87246 308.692225,394.87246 C293.522374,394.87246 279.031867,391.920206 265.756973,386.567362 L225.779019,455.807283 C251.378806,467.871661 279.54265,474.235826 308.687128,474.235826 C323.913201,474.235826 338.873612,472.478797 353.338633,469.107713 C354.4521,447.221231 366.276404,426.325629 386.661223,414.557546 C407.020506,402.799606 430.990896,402.988608 450.481884,412.933297 C480.882905,380.662855 499.06118,339.755288 502.677435,295.87508 L422.844114,295.87508 L422.844114,295.87508 Z M193.380894,279.561129 C193.380894,242.821479 210.649995,210.045403 237.490983,188.914823 L197.528372,119.690245 C188.155732,126.238314 179.288778,133.649581 171.029605,141.903605 C147.901974,165.031237 131.317314,192.955006 122.189846,223.432637 C140.577562,235.343797 152.754281,256.019764 152.754281,279.561129 C152.754281,303.097397 140.577562,323.778461 122.189846,335.684472 C131.317314,366.162103 147.901974,394.085872 171.029605,417.213503 C179.283681,425.46758 188.14039,432.868601 197.507932,439.421767 L237.475641,370.192092 C210.639801,349.061564 193.380894,316.285436 193.380894,279.561129 L193.380894,279.561129 Z M85.9201001,232.958496 C111.640774,232.958496 132.522681,253.840455 132.522681,279.561129 C132.522681,305.281803 111.640774,326.163761 85.9201001,326.163761 C60.1994055,326.163761 39.3174676,305.281803 39.3174676,279.561129 C39.3174676,253.840455 60.1994055,232.958496 85.9201001,232.958496 L85.9201001,232.958496 Z M308.692225,164.244701 C366.720771,164.244701 414.865894,207.333172 422.839017,263.196053 L502.682532,263.196053 C499.056083,219.300502 480.857369,178.387889 450.43081,146.122596 C430.944919,156.046794 406.984724,156.235796 386.63059,144.488101 C366.261061,132.725064 354.441854,111.865244 353.307948,90.0042984 C338.848075,86.6332146 323.908053,84.8863798 308.692225,84.8863798 C279.557941,84.8863798 251.404343,91.245499 225.799459,103.304729 L265.772264,172.539553 C279.047158,167.196902 293.532619,164.244701 308.692225,164.244701 L308.692225,164.244701 Z M420.045132,40 C445.765805,40 466.647764,60.881907 466.647764,86.602581 C466.647764,112.323255 445.765805,133.205213 420.045132,133.205213 C394.324458,133.205213 373.442499,112.323255 373.442499,86.602581 C373.442499,60.881907 394.324458,40 420.045132,40 L420.045132,40 Z" id="Page-1"></path>
        </g>
    </g>
</svg>