<?xml version="1.0" encoding="UTF-8"?>
<svg width="560px" height="560px" viewBox="0 0 560 560" version="1.1" xmlns="http://www.w3.org/2000/svg" xmlns:xlink="http://www.w3.org/1999/xlink">
    <!-- Generator: sketchtool 40.3 (33839) - http://www.bohemiancoding.com/sketch -->
    <title>varnish</title>
    <desc>Created with sketchtool.</desc>
    <defs></defs>
    <g id="Page-1" stroke="none" stroke-width="1" fill="none" fill-rule="evenodd">
        <g id="varnish" fill="#000000">
            <path d="M237.092678,355.944355 C280.932035,355.944355 316.524201,391.536357 316.524201,435.375877 C316.524201,479.215397 280.932035,514.8074 237.092678,514.8074 C193.253158,514.8074 157.661155,479.215397 157.661155,435.375877 C157.661155,391.536357 193.253158,355.944355 237.092678,355.944355 L237.092678,355.944355 Z M94.8612084,205.987579 C123.862594,205.987579 147.408216,229.533037 147.408216,258.534586 C147.408216,287.535972 123.862594,311.081593 94.8612084,311.081593 C65.8596597,311.081593 42.3142011,287.535972 42.3142011,258.534586 C42.3142011,229.533037 65.8596597,205.987579 94.8612084,205.987579 L94.8612084,205.987579 Z M407.063591,47.8074 C467.764427,47.8074 517.045699,97.0888349 517.045699,157.789508 C517.045699,218.490345 467.764427,267.771617 407.063591,267.771617 C346.362754,267.771617 297.081482,218.490345 297.081482,157.789508 C297.081482,97.0888349 346.362754,47.8074 407.063591,47.8074 L407.063591,47.8074 Z" id="Page-1"></path>
        </g>
    </g>
</svg>