<?xml version="1.0" encoding="UTF-8" standalone="no"?>
<svg width="560px" height="560px" viewBox="0 0 560 560" version="1.1" xmlns="http://www.w3.org/2000/svg" xmlns:xlink="http://www.w3.org/1999/xlink" xmlns:sketch="http://www.bohemiancoding.com/sketch/ns">
    <!-- Generator: bin/sketchtool 1.3 (252) - http://www.bohemiancoding.com/sketch -->
    <title>vcenter</title>
    <desc>Created with bin/sketchtool.</desc>
    <defs></defs>
    <g id="Page-1" stroke="none" stroke-width="1" fill="none" fill-rule="evenodd" sketch:type="MSPage">
        <g id="vcenter" sketch:type="MSArtboardGroup" fill="#000000">
            <g id="Group" sketch:type="MSLayerGroup" transform="translate(50.000000, 50.000000)">
                <path d="M317.479438,388.611325 C317.458808,401.566126 317.445894,414.517269 317.445894,427.468578 C317.438908,428.553171 317.38988,429.635382 317.280223,430.7147 C317.036703,433.111596 316.523571,435.48043 315.751258,437.762584 C314.335094,441.947291 312.047409,445.8245 309.07616,449.093363 C305.588935,452.929874 301.180989,455.902324 296.311972,457.685424 C294.056291,458.511484 291.707853,459.08233 289.32485,459.385115 C288.10487,459.540127 286.879756,459.617293 285.650576,459.640601 C201.568488,460.182164 117.483074,459.643044 33.3987692,459.643044 C32.3145492,459.63606 31.2327419,459.58702 30.1537741,459.477495 C27.7565275,459.234151 25.3872504,458.72083 23.1047821,457.948408 C19.0422986,456.573598 15.2688945,454.377589 12.0612351,451.531279 C8.08652104,448.004317 5.00910257,443.499236 3.18173871,438.508605 C2.35589092,436.253183 1.7851898,433.905243 1.48233984,431.522572 C1.32722618,430.302218 1.25005462,429.076739 1.22673871,427.847191 C0.699055904,344.577215 1.22433598,261.303914 1.22433598,178.03209 C1.23120908,176.947492 1.28034255,175.865306 1.38995298,174.785968 C1.63337242,172.389017 2.14657169,170.020257 2.91879531,167.738048 C4.37615844,163.430988 6.75713507,159.450695 9.85505956,156.123029 C13.2999792,152.422616 17.6112692,149.552548 22.3595037,147.814247 C24.6149078,146.988554 26.9627551,146.417737 29.3453889,146.115001 C30.5653625,145.959992 31.7904459,145.882823 33.019625,145.859515 C45.6697174,145.778037 58.3198098,145.72102 70.9666692,145.683336 C71.0351918,108.196476 71.1416044,70.7122034 71.1416044,33.2284845 C71.1484768,32.143895 71.1975753,31.0616813 71.3071856,29.9823624 C71.5506198,27.5852636 72.0638745,25.2162636 72.8362459,22.9339431 C74.2523661,18.7493841 76.5398186,14.8726925 79.5107351,11.6037552 C82.9979045,7.76678249 87.4067921,4.79366763 92.2762154,3.01077044 C94.6588861,2.13838321 97.1446226,1.55099647 99.6654965,1.26278522 C100.752816,1.13847253 101.843513,1.07662008 102.937408,1.05587574 C187.019127,0.52310522 271.104171,1.05347301 355.187368,1.05347301 C356.271943,1.06034454 357.354134,1.10944374 358.433453,1.21904253 C360.830552,1.46245642 363.199626,1.97571112 365.481946,2.74807883 C369.911007,4.2469251 373.993369,6.72233104 377.377121,9.94855674 C380.94275,13.3481784 383.711451,17.5616861 385.405304,22.1886025 C386.277569,24.5712732 386.8651,27.0570467 387.153198,29.5779206 C387.277422,30.6648803 387.33907,31.75518 387.360036,32.8487053 C387.44672,46.7571102 387.504512,60.6655889 387.540137,74.5745849 C400.785865,74.5958442 414.031334,74.6092225 427.276932,74.6092225 C428.361533,74.6162068 429.443736,74.665235 430.523073,74.7748934 C432.919987,75.0184145 435.288784,75.5315325 437.570956,76.3038577 C441.389197,77.5960143 444.953624,79.6132898 448.03143,82.2158737 C452.286615,85.8140529 455.578127,90.5104312 457.49424,95.7441782 C458.319973,97.9996191 458.890739,100.347577 459.193484,102.730248 C459.348496,103.950236 459.425662,105.175324 459.44897,106.404521 C459.985304,189.674867 459.451412,272.948537 459.451412,356.219622 C459.444427,357.30422 459.395401,358.386406 459.285741,359.465744 C459.042217,361.862676 458.529078,364.231436 457.756777,366.513627 C456.258032,370.942485 453.782765,375.024348 450.556927,378.4081 C447.157435,381.974024 442.943909,384.742356 438.317103,386.436597 C435.934506,387.30905 433.448825,387.89638 430.927988,388.184682 C429.840336,388.309074 428.749288,388.370902 427.655061,388.391656 C390.930988,388.620514 354.206362,388.649906 317.478964,388.610361 L317.479438,388.611325 Z M70.9323695,166.806345 C58.3400265,166.972825 45.7457992,167.175864 33.1526988,167.414659 C31.953706,167.452758 30.7701574,167.672993 29.6475173,168.099803 C28.0825012,168.694801 26.668306,169.666016 25.5425807,170.904583 C24.6189931,171.920757 23.8922651,173.113562 23.420004,174.403317 C23.0059357,175.534151 22.8002399,176.723879 22.7774357,177.926474 C22.2498084,261.187767 21.2015164,344.467165 22.7800864,427.715711 C22.8166743,428.871068 23.0221036,430.012423 23.4200036,431.099094 C23.8922648,432.388853 24.6189927,433.581653 25.5425803,434.597828 C26.6683112,435.836409 28.0824823,436.807546 29.6475169,437.402554 C30.7701755,437.829373 31.9536687,438.049641 33.1526984,438.087739 C33.310297,438.090728 33.3096312,438.0905 33.4673015,438.091516 C117.483253,438.091516 201.514354,439.680587 285.515896,438.087739 C285.699842,438.081894 285.883238,438.072685 286.066834,438.059895 C287.16441,437.969205 288.240989,437.724741 289.261506,437.307774 C292.01347,436.183368 294.226291,433.891766 295.248378,431.099603 C295.662506,429.968291 295.868331,428.778432 295.891144,427.575357 C295.974852,414.5791 296.070823,401.582401 296.167255,388.582505 C255.912267,388.515935 215.658757,388.39639 175.405801,388.39639 C174.321254,388.38963 173.239072,388.340468 172.15979,388.23091 C169.762506,387.987563 167.393211,387.474242 165.110724,386.701813 C161.048259,385.327004 157.2748,383.130994 154.06714,380.284684 C150.092537,376.757832 147.01534,372.252917 145.187847,367.262527 C144.315203,364.879579 143.727654,362.393288 143.4395,359.872045 C143.315266,358.785047 143.253619,357.694712 143.232655,356.601149 C143.145962,342.692745 143.088163,328.784266 143.052535,314.87527 C129.806789,314.854015 116.561338,314.840639 103.31574,314.840639 C102.095557,314.832781 100.878405,314.77002 99.6657598,314.631432 C97.4067533,314.373261 95.1756979,313.874874 93.0219373,313.146066 C88.4705236,311.605918 84.2862047,309.03422 80.8488594,305.677606 C77.4164835,302.325831 74.7481325,298.211381 73.0985614,293.705819 C72.2262462,291.323223 71.6388299,288.837671 71.3506168,286.316871 C71.2262962,285.229523 71.164448,284.138798 71.1436999,283.044867 C70.8982206,244.299196 70.8806631,205.552971 70.932983,166.806931 L70.9323695,166.806345 Z M317.516386,367.503052 C354.18947,367.62361 390.859044,367.534543 427.522892,366.839169 C427.706819,366.833325 427.890197,366.824122 428.073772,366.81133 C429.214648,366.717063 430.332538,366.455907 431.38797,366.009548 C434.085362,364.86878 436.248434,362.60178 437.255446,359.851035 C437.669594,358.719758 437.875356,357.529827 437.898168,356.326789 C438.434443,273.06568 439.474067,189.786098 437.895496,106.537552 C437.85767,105.339165 437.637101,104.155694 437.210463,103.0337 C436.768148,101.870478 436.118349,100.788789 435.30368,99.8483018 C434.123549,98.4859019 432.601208,97.426134 430.907761,96.8063348 C429.776261,96.392211 428.586442,96.1862511 427.383164,96.1634303 C414.117078,96.0780025 400.850585,95.9799056 387.580786,95.8814632 C387.652095,158.141447 387.363297,220.403094 387.363297,282.663632 C387.35569,283.884206 387.292718,285.101835 387.154082,286.314868 C386.8959,288.573893 386.397513,290.805004 385.668662,292.958764 C384.169895,297.387659 381.69465,301.469485 378.468812,304.853311 C375.069246,308.419364 370.85511,311.188324 366.227935,312.882196 C363.845339,313.754393 361.359713,314.341914 358.838931,314.630013 C357.751959,314.754242 356.661598,314.816045 355.568054,314.836786 C342.920012,314.918233 330.271934,314.975233 317.623966,315.012919 C317.591453,332.509545 317.550548,350.005617 317.516495,367.502244 L317.516386,367.503052 Z M296.323133,367.41253 C296.448478,349.960629 296.562885,332.508691 296.63708,315.060281 C252.489457,315.126257 208.342204,314.998454 164.198461,314.91168 C164.330629,328.762206 164.522248,342.614764 164.787795,356.466491 C164.824267,357.621767 165.029515,358.763369 165.427493,359.849948 C165.811275,360.897771 166.362529,361.882594 167.051972,362.759882 C168.245698,364.278823 169.848348,365.467066 171.654984,366.15387 C172.777748,366.580691 173.961283,366.801032 175.160424,366.839131 C175.317142,366.842103 175.316477,366.841869 175.473846,366.84285 C215.755067,366.84285 256.039798,367.208217 296.323236,367.412551 L296.323133,367.41253 Z M164.037108,293.496627 C208.260659,293.7536 252.484578,294.132899 296.705173,293.938518 C296.789924,255.218157 296.622036,216.499089 295.887961,177.786856 C295.851236,176.630985 295.645826,175.48959 295.247847,174.402383 C294.657389,172.789375 293.668195,171.331301 292.397712,170.176424 C291.413671,169.281927 290.263589,168.572025 289.020333,168.099311 C287.897802,167.672501 286.714255,167.452335 285.515355,167.414244 C245.138439,166.648606 204.751178,166.250531 164.36207,166.221094 C164.055871,208.646765 163.805307,251.072805 164.037177,293.496628 L164.037108,293.496627 Z M317.656787,293.801446 C330.2495,293.690019 342.842064,293.522712 355.433871,293.283892 C355.617803,293.278087 355.801181,293.268788 355.984758,293.255996 C357.12466,293.162051 358.24236,292.900874 359.296813,292.45477 C361.994334,291.313538 364.158071,289.047556 365.165157,286.296165 C365.579332,285.164609 365.784989,283.974864 365.808061,282.771567 C366.196584,220.426603 366.896658,158.071294 366.553588,95.7289167 C302.752512,95.2707345 238.946078,94.957722 175.158488,96.1675405 C173.959863,96.2053734 172.776408,96.4261178 171.654175,96.8527373 C170.008825,97.4782209 168.530811,98.5197847 167.378779,99.8497389 C166.535736,100.822988 165.869591,101.947413 165.42668,103.156696 C165.012482,104.287562 164.807357,105.477294 164.784304,106.679908 C164.703296,119.676164 164.60876,132.672863 164.513125,145.666478 C204.763495,145.735274 245.017374,145.85883 285.2707,145.85883 C286.355293,145.865816 287.437503,145.914843 288.516822,146.024501 C290.913717,146.26802 293.282551,146.781151 295.564705,147.553465 C299.749412,148.969628 303.626639,151.257315 306.895484,154.228564 C310.732161,157.715937 313.705147,162.124381 315.487915,166.993786 C316.313667,169.249227 316.884486,171.597185 317.187231,173.979855 C317.342243,175.19984 317.419409,176.424931 317.442717,177.654129 C317.692076,216.368948 317.710094,255.084506 317.657057,293.801727 L317.656787,293.801446 Z M143.011968,293.385783 C142.963875,251.003526 143.082389,208.6209 143.162484,166.237534 C126.068773,166.278963 108.975802,166.386273 91.8833839,166.560569 C91.7965272,205.346512 91.9618566,244.131902 92.69734,282.910456 C92.735308,284.10939 92.955897,285.292887 93.3826126,286.415453 C94.4389592,289.194352 96.6782632,291.460231 99.4438608,292.550578 C100.514992,292.97288 101.644693,293.206529 102.792993,293.272006 C102.990239,293.280775 103.187101,293.285014 103.384539,293.286286 C116.59269,293.286286 129.801286,293.325567 143.011968,293.385668 L143.011968,293.385783 Z M91.9538153,145.637108 C109.035721,145.611575 126.117775,145.615062 143.198,145.633826 C143.217956,132.682517 143.230449,119.733794 143.230449,106.785071 C143.238057,105.564558 143.301031,104.347016 143.43965,103.134038 C143.712775,100.744071 144.254906,98.3855453 145.053963,96.1165815 C146.648892,91.5877244 149.269374,87.4379702 152.664118,84.0432072 C155.965459,80.7418666 159.981056,78.1717413 164.365798,76.5665815 C166.621183,75.7409406 168.968901,75.1701378 171.351498,74.8674061 C172.571457,74.7123976 173.796518,74.6352317 175.025679,74.6119195 C238.813639,74.2010675 302.603816,74.412189 366.394916,74.537796 C366.262741,60.6873068 366.071107,46.8347116 365.805532,32.9829847 C365.767689,31.7841601 365.54726,30.6003879 365.120463,29.4779695 C364.601836,28.1140362 363.797737,26.8632297 362.778527,25.8194731 C361.669188,24.6834098 360.308844,23.7964892 358.817244,23.2504193 C357.686238,22.836362 356.496497,22.6305462 355.293736,22.6077328 C271.220884,22.0750731 187.129374,21.0162565 103.06964,22.6103827 C101.914192,22.6469773 100.772799,22.8524443 99.6860347,23.250348 C98.1133908,23.8261479 96.6876476,24.7806018 95.546903,26.0058589 C94.5821167,27.0421409 93.8244986,28.268948 93.3375729,29.5988283 C92.9234897,30.7297374 92.7177441,31.9194822 92.6949362,33.1221697 C92.4573047,70.6252862 92.113947,108.131913 91.9532518,145.637061 L91.9538153,145.637108 Z" id="Shape" sketch:type="MSShapeGroup"></path>
            </g>
        </g>
    </g>
</svg>