<?xml version="1.0" encoding="UTF-8" standalone="no"?>
<svg width="560px" height="560px" viewBox="0 0 560 560" version="1.1" xmlns="http://www.w3.org/2000/svg" xmlns:xlink="http://www.w3.org/1999/xlink" xmlns:sketch="http://www.bohemiancoding.com/sketch/ns">
    <!-- Generator: bin/sketchtool 1.3 (252) - http://www.bohemiancoding.com/sketch -->
    <title>website</title>
    <desc>Created with bin/sketchtool.</desc>
    <defs></defs>
    <g id="Page-1" stroke="none" stroke-width="1" fill="none" fill-rule="evenodd" sketch:type="MSPage">
        <g id="website" sketch:type="MSArtboardGroup" fill="#000000">
            <g id="Group" sketch:type="MSLayerGroup" transform="translate(50.000000, 50.000000)">
                <path d="M0.247763912,459.805295 L0.247763912,0.714435076 L459.338624,0.714435076 L459.338624,459.805295 L0.247763912,459.805295 L0.247763912,459.805295 Z M14.7924519,129.100202 L14.7924519,445.260607 L444.793936,445.260607 L444.793936,129.100202 L14.7924519,129.100202 L14.7924519,129.100202 Z M372.195852,245.25059 L361.025531,291.677234 L349.273423,245.25059 L329.958078,245.25059 L319.020472,291.909949 L307.617437,245.25059 L284.927723,245.25059 L305.988432,325.071838 L327.630927,325.071838 L338.103103,280.506914 L349.273423,325.071838 L369.635987,325.071838 L391.045767,245.25059 L372.195852,245.25059 L372.195852,245.25059 Z M154.995177,245.25059 L143.824857,291.677234 L132.072749,245.25059 L112.757403,245.25059 L101.819798,291.909949 L90.4167622,245.25059 L67.7270489,245.25059 L88.7877572,325.071838 L110.430253,325.071838 L120.902428,280.506914 L132.072749,325.071838 L152.435312,325.071838 L173.845093,245.25059 L154.995177,245.25059 L154.995177,245.25059 Z M263.595514,245.25059 L252.425194,291.677234 L240.673086,245.25059 L221.35774,245.25059 L210.420135,291.909949 L199.017099,245.25059 L176.327386,245.25059 L197.388094,325.071838 L219.03059,325.071838 L229.502766,280.506914 L240.673086,325.071838 L261.035649,325.071838 L282.44543,245.25059 L263.595514,245.25059 L263.595514,245.25059 Z M431.465261,88.7683642 C431.465261,85.2049777 428.57657,82.3162863 425.013183,82.3162863 L33.9224246,82.3162863 C30.3590381,82.3162863 27.4703467,85.2049777 27.4703467,88.7683642 L27.4703467,108.347531 C27.4703467,111.910918 30.3590381,114.799609 33.9224246,114.799609 L425.013183,114.799609 C428.57657,114.799609 431.465261,111.910918 431.465261,108.347531 L431.465261,88.7683642 L431.465261,88.7683642 Z M14.7924519,67.403575 L45.157882,67.403575 L53.6107116,33.2735143 L187.09604,33.2735143 L195.54887,67.403575 L444.794401,67.403575 L444.794401,15.2588904 L14.7929174,15.2588904 L14.7929174,67.403575 L14.7924519,67.403575 Z M388.605363,30.5477234 C395.139829,30.5477234 400.437059,35.8449531 400.437059,42.3794199 C400.437059,48.9138867 395.139829,54.2111164 388.605363,54.2111164 C382.070896,54.2111164 376.773666,48.9138867 376.773666,42.3794199 C376.773666,35.8449531 382.070896,30.5477234 388.605363,30.5477234 L388.605363,30.5477234 Z M419.63403,30.5477234 C426.168497,30.5477234 431.465727,35.8449531 431.465727,42.3794199 C431.465727,48.9138867 426.168497,54.2111164 419.63403,54.2111164 C413.099564,54.2111164 407.802334,48.9138867 407.802334,42.3794199 C407.802334,35.8449531 413.099564,30.5477234 419.63403,30.5477234 L419.63403,30.5477234 Z M357.576695,30.5477234 C364.111162,30.5477234 369.408391,35.8449531 369.408391,42.3794199 C369.408391,48.9138867 364.111162,54.2111164 357.576695,54.2111164 C351.042228,54.2111164 345.744998,48.9138867 345.744998,42.3794199 C345.744998,35.8449531 351.042228,30.5477234 357.576695,30.5477234 L357.576695,30.5477234 Z" id="Shape" sketch:type="MSShapeGroup"></path>
            </g>
        </g>
    </g>
</svg>