<?xml version="1.0" encoding="UTF-8" standalone="no"?>
<svg width="560px" height="560px" viewBox="0 0 560 560" version="1.1" xmlns="http://www.w3.org/2000/svg" xmlns:xlink="http://www.w3.org/1999/xlink" xmlns:sketch="http://www.bohemiancoding.com/sketch/ns">
    <!-- Generator: bin/sketchtool 1.3 (252) - http://www.bohemiancoding.com/sketch -->
    <title>windows</title>
    <desc>Created with bin/sketchtool.</desc>
    <defs></defs>
    <g id="Page-1" stroke="none" stroke-width="1" fill="none" fill-rule="evenodd" sketch:type="MSPage">
        <g id="windows" sketch:type="MSArtboardGroup" fill="#000000">
            <g id="Group" sketch:type="MSLayerGroup" transform="translate(60.000000, 60.000000)">
                <path d="M441.021636,441.160595 L200.117273,407.578573 L200.117273,228.689982 L441.021636,228.689982 L441.021636,441.16085 L441.021636,441.160595 Z M179.023091,404.637893 L0.276181818,379.720628 L0.276181818,228.689599 L179.023091,228.689599 L179.023091,404.637766 L179.023091,404.637893 Z M0.276181818,207.565699 L0.276181818,60.3201329 L179.023091,35.7669481 L179.023091,207.565763 L0.276181818,207.565763 L0.276181818,207.565699 Z M200.116636,207.565699 L200.116636,32.8697948 L441.021,-0.221455925 L441.021,207.566018 L200.116636,207.566018 L200.116636,207.565699 Z" id="Shape" sketch:type="MSShapeGroup"></path>
            </g>
            <g id="Imported-PDF" sketch:type="MSLayerGroup" transform="translate(186.000000, 280.000000)">
                <path d="M141.8407,40.2703 C141.8407,43.415 141.4538,46.2768 140.68,48.8539 C139.906,51.434 138.77,53.6507 137.2733,55.5054 C135.7782,57.3617 133.9193,58.8049 131.7029,59.8382 C129.4835,60.8684 126.9296,61.3851 124.0415,61.3851 C122.4396,61.3851 120.9461,61.2289 119.5515,60.9195 C118.16,60.6117 116.8181,60.1739 115.5289,59.6062 L115.5289,74.9202 L103.9965,74.9202 L103.9965,21.321 C105.0273,21.0101 106.2145,20.7131 107.5564,20.43 C108.8967,20.1485 110.3052,19.9025 111.7756,19.6953 C113.2444,19.4895 114.7411,19.3225 116.2625,19.1941 C117.7855,19.0641 119.242,19.0007 120.635,19.0007 C123.9874,19.0007 126.9807,19.5019 129.6119,20.5074 C132.2432,21.5144 134.4611,22.9313 136.2673,24.7613 C138.0735,26.5928 139.4541,28.8218 140.4091,31.4515 C141.3625,34.0828 141.8407,37.0203 141.8407,40.2703 L141.8407,40.2703 Z M99.4144,36.2094 L92.8983,28.6545 L86.3822,36.2094 L88.5151,36.2094 C88.5212,36.2094 88.5243,38.0548 88.5243,38.0997 C88.5243,45.2818 82.6784,52.0045 75.4922,52.0045 C70.2514,52.0045 65.6082,48.8597 63.5156,44.4032 C62.9027,48.2936 61.7497,51.9473 60.1385,54.9219 C64.0666,58.8897 69.4715,61.4637 75.4922,61.4637 C87.4874,61.4637 97.2134,50.0431 97.2134,38.0517 C97.2134,38.0053 97.2057,36.2094 97.2057,36.2094 L99.4144,36.2094 L99.4144,36.2094 Z M16.5503,61.3854 C13.1963,61.3313 10.4753,60.9708 8.3858,60.301 C6.2963,59.6328 4.6449,58.6907 3.433,57.4795 C2.2196,56.2668 1.3946,54.7988 0.9566,53.071 C0.5186,51.3431 0.2988,49.3971 0.2988,47.2315 L0.2988,2.4464 L11.8296,0.5917 L11.8296,44.9112 C11.8296,45.9414 11.907,46.8711 12.0618,47.6925 C12.2165,48.5216 12.5137,49.2161 12.9518,49.7838 C13.3897,50.3515 14.0212,50.8141 14.8478,51.1729 C15.6727,51.5365 16.7824,51.7685 18.1754,51.8721 L16.5503,61.3854 L16.5503,61.3854 Z M27.733,40.6778 C27.733,33.4942 33.5804,27.6532 40.7682,27.6532 C45.851,27.6532 50.2173,30.5969 52.364,34.8492 C52.9119,31.4368 54.4039,28.3601 56.6467,25.8155 C52.6674,21.7054 46.9004,18.9675 40.7682,18.9675 C28.77,18.9675 19.0454,28.6896 19.0454,40.6778 C19.0454,43.6958 20.5173,48.9645 22.7446,53.5123 L28.7143,47.3944 C28.0363,44.2589 27.733,40.6778 27.733,40.6778 L27.733,40.6778 Z M130.0762,40.5781 C130.0762,37.0203 129.2761,34.1725 127.6772,32.0316 C126.0784,29.8923 123.7041,28.8218 120.559,28.8218 C119.5267,28.8218 118.5702,28.862 117.6942,28.9378 C116.8181,29.0152 116.0953,29.1065 115.5289,29.2085 L115.5289,50.014 C116.2486,50.4781 117.1927,50.8648 118.3535,51.1742 C119.5144,51.4851 120.6875,51.6382 121.8731,51.6382 C127.3414,51.6382 130.0762,47.9536 130.0762,40.5781 L130.0762,40.5781 Z M93.3495,23.8081 L91.8017,23.8081 L91.8017,22.2628 L93.3495,22.2628 L93.3495,23.8081 L93.3495,23.8081 Z M89.4816,19.9425 L87.9354,19.9425 L87.9354,18.3971 L89.4816,18.3971 L89.4816,19.9425 L89.4816,19.9425 Z M93.3495,14.5315 L91.8017,14.5315 L91.8017,12.9846 L93.3495,12.9846 L93.3495,14.5315 L93.3495,14.5315 Z" id="Page-1" sketch:type="MSShapeGroup"></path>
            </g>
        </g>
    </g>
</svg>