<?xml version="1.0" encoding="UTF-8"?>
<svg width="560px" height="560px" viewBox="0 0 560 560" version="1.1" xmlns="http://www.w3.org/2000/svg" >
    
    
    
    
    <g id="Page-1" stroke="none" stroke-width="1"  fill-rule="evenodd">
        <g id="wordpress" >
            <g id="Group" transform="translate(50.000000, 50.000000)">
                <g transform="translate(2.747758, 1.319866)" id="Shape">
                    <path d="M227.262258,0 C101.953065,0 0,101.945645 0,227.254839 C0,352.578871 101.953065,454.520806 227.262258,454.520806 C352.567742,454.520806 454.535645,352.578871 454.535645,227.254839 C454.531935,101.945645 352.567742,0 227.262258,0 L227.262258,0 Z M227.262258,444.104032 C107.699355,444.104032 10.4204839,346.825161 10.4204839,227.254839 C10.4204839,107.691935 107.695645,10.4204839 227.262258,10.4204839 C346.821452,10.4204839 444.092903,107.691935 444.092903,227.254839 C444.092903,346.825161 346.821452,444.104032 227.262258,444.104032 L227.262258,444.104032 Z M230.682581,244.308226 L172.188387,414.281935 C189.653548,419.416129 208.124032,422.224355 227.262258,422.224355 C249.965484,422.224355 271.737581,418.299516 292.003548,411.173226 C291.480484,410.338548 291.005645,409.451935 290.616129,408.487419 L230.682581,244.308226 Z M32.303871,227.254839 C32.303871,304.423548 77.1501613,371.112419 142.180806,402.715161 L49.1829032,147.912258 C38.3654839,172.15871 32.303871,198.990806 32.303871,227.254839 L32.303871,227.254839 Z M398.330323,133.719032 C399.16871,139.929032 399.643548,146.595323 399.643548,153.766129 C399.643548,173.549839 395.94871,195.789355 384.819677,223.597097 L325.268226,395.774355 C383.228226,361.975484 422.213226,299.181774 422.213226,227.258548 C422.216935,193.363226 413.558548,161.489677 398.330323,133.719032 L398.330323,133.719032 Z M358.874194,217.416774 C358.874194,193.322419 350.219516,176.63629 342.796452,163.64871 C332.913871,147.589516 323.650806,133.989839 323.650806,117.930645 C323.650806,100.009194 337.243065,83.3267742 356.38871,83.3267742 C357.253065,83.3267742 358.072903,83.4343548 358.915,83.4825806 C324.229516,51.7054839 278.018065,32.303871 227.262258,32.303871 C159.152581,32.303871 99.2301613,67.2490323 64.3703226,120.17871 C68.9443548,120.315968 73.255,120.412419 76.9164516,120.412419 C97.3085484,120.412419 128.874194,117.938065 128.874194,117.938065 C139.38371,117.318548 140.622742,132.754516 130.124355,133.997258 C130.124355,133.997258 119.562903,135.24 107.810645,135.855806 L178.806452,347.029194 L221.471452,219.07129 L191.096613,135.848387 C180.598226,135.232581 170.652581,133.989839 170.652581,133.989839 C160.146774,133.374032 161.378387,117.311129 171.884194,117.930645 C171.884194,117.930645 204.080484,120.405 223.237258,120.405 C243.625645,120.405 275.195,117.930645 275.195,117.930645 C285.711935,117.311129 286.947258,132.747097 276.445161,133.989839 C276.445161,133.989839 265.861452,135.232581 254.131452,135.848387 L324.585645,345.422903 L344.031774,280.440484 C352.460161,253.474839 358.874194,234.106613 358.874194,217.416774 L358.874194,217.416774 Z"></path>
                </g>
            </g>
        </g>
    </g>
</svg>